G75*
G70*
%OFA0B0*%
%FSLAX24Y24*%
%IPPOS*%
%LPD*%
%AMOC8*
5,1,8,0,0,1.08239X$1,22.5*
%
%ADD10C,0.0000*%
%ADD11C,0.0030*%
%ADD12C,0.0020*%
%ADD13C,0.0080*%
%ADD14C,0.0060*%
%ADD15C,0.0010*%
%ADD16C,0.0220*%
%ADD17R,0.0300X0.0180*%
%ADD18C,0.0050*%
%ADD19C,0.0040*%
%ADD20C,0.0070*%
D10*
X000110Y000486D02*
X000110Y024452D01*
X018590Y024452D01*
X018590Y000486D01*
X000110Y000486D01*
D11*
X004855Y001150D02*
X004904Y001101D01*
X005000Y001101D01*
X005049Y001150D01*
X005150Y001150D02*
X005198Y001101D01*
X005295Y001101D01*
X005343Y001150D01*
X005343Y001246D01*
X005295Y001295D01*
X005198Y001295D01*
X005150Y001246D01*
X005150Y001150D01*
X005049Y001343D02*
X005000Y001392D01*
X004904Y001392D01*
X004855Y001343D01*
X004855Y001150D01*
X005445Y001101D02*
X005590Y001101D01*
X005638Y001150D01*
X005638Y001246D01*
X005590Y001295D01*
X005445Y001295D01*
X005445Y001005D01*
X005739Y001150D02*
X005739Y001246D01*
X005788Y001295D01*
X005884Y001295D01*
X005933Y001246D01*
X005933Y001198D01*
X005739Y001198D01*
X005739Y001150D02*
X005788Y001101D01*
X005884Y001101D01*
X006034Y001101D02*
X006034Y001295D01*
X006179Y001295D01*
X006227Y001246D01*
X006227Y001101D01*
X006329Y001101D02*
X006329Y001392D01*
X006377Y001295D02*
X006474Y001295D01*
X006522Y001246D01*
X006522Y001101D01*
X006623Y001150D02*
X006672Y001198D01*
X006817Y001198D01*
X006817Y001246D02*
X006817Y001101D01*
X006672Y001101D01*
X006623Y001150D01*
X006672Y001295D02*
X006768Y001295D01*
X006817Y001246D01*
X006918Y001246D02*
X006918Y001150D01*
X006966Y001101D01*
X007111Y001101D01*
X007111Y001053D02*
X007111Y001295D01*
X006966Y001295D01*
X006918Y001246D01*
X007015Y001005D02*
X007063Y001005D01*
X007111Y001053D01*
X007212Y001150D02*
X007212Y001246D01*
X007261Y001295D01*
X007358Y001295D01*
X007406Y001246D01*
X007406Y001198D01*
X007212Y001198D01*
X007212Y001150D02*
X007261Y001101D01*
X007358Y001101D01*
X007507Y001101D02*
X007507Y001295D01*
X007652Y001295D01*
X007701Y001246D01*
X007701Y001101D01*
X008096Y001101D02*
X008193Y001101D01*
X008145Y001101D02*
X008145Y001392D01*
X008193Y001392D02*
X008096Y001392D01*
X008293Y001295D02*
X008438Y001295D01*
X008486Y001246D01*
X008486Y001101D01*
X008587Y001101D02*
X008733Y001101D01*
X008781Y001150D01*
X008733Y001198D01*
X008636Y001198D01*
X008587Y001246D01*
X008636Y001295D01*
X008781Y001295D01*
X008882Y001295D02*
X008979Y001295D01*
X008930Y001343D02*
X008930Y001150D01*
X008979Y001101D01*
X009079Y001101D02*
X009175Y001101D01*
X009127Y001101D02*
X009127Y001295D01*
X009079Y001295D01*
X009127Y001392D02*
X009127Y001440D01*
X009275Y001295D02*
X009372Y001295D01*
X009323Y001343D02*
X009323Y001150D01*
X009372Y001101D01*
X009471Y001150D02*
X009520Y001101D01*
X009665Y001101D01*
X009665Y001295D01*
X009766Y001295D02*
X009863Y001295D01*
X009814Y001343D02*
X009814Y001150D01*
X009863Y001101D01*
X009962Y001150D02*
X009962Y001246D01*
X010011Y001295D01*
X010108Y001295D01*
X010156Y001246D01*
X010156Y001198D01*
X009962Y001198D01*
X009962Y001150D02*
X010011Y001101D01*
X010108Y001101D01*
X010552Y001150D02*
X010600Y001101D01*
X010697Y001101D01*
X010745Y001150D01*
X010745Y001246D01*
X010697Y001295D01*
X010600Y001295D01*
X010552Y001246D01*
X010552Y001150D01*
X010846Y001246D02*
X010943Y001246D01*
X010895Y001343D02*
X010895Y001101D01*
X010895Y001343D02*
X010943Y001392D01*
X011337Y001392D02*
X011434Y001392D01*
X011386Y001392D02*
X011386Y001101D01*
X011434Y001101D02*
X011337Y001101D01*
X011534Y001101D02*
X011534Y001295D01*
X011679Y001295D01*
X011727Y001246D01*
X011727Y001101D01*
X011877Y001150D02*
X011877Y001343D01*
X011829Y001295D02*
X011925Y001295D01*
X012025Y001246D02*
X012073Y001295D01*
X012170Y001295D01*
X012218Y001246D01*
X012218Y001198D01*
X012025Y001198D01*
X012025Y001150D02*
X012025Y001246D01*
X012025Y001150D02*
X012073Y001101D01*
X012170Y001101D01*
X012320Y001101D02*
X012320Y001295D01*
X012416Y001295D02*
X012320Y001198D01*
X012416Y001295D02*
X012465Y001295D01*
X012613Y001295D02*
X012710Y001295D01*
X012759Y001246D01*
X012759Y001101D01*
X012613Y001101D01*
X012565Y001150D01*
X012613Y001198D01*
X012759Y001198D01*
X012860Y001150D02*
X012908Y001101D01*
X013053Y001101D01*
X013203Y001150D02*
X013203Y001343D01*
X013251Y001295D02*
X013154Y001295D01*
X013053Y001295D02*
X012908Y001295D01*
X012860Y001246D01*
X012860Y001150D01*
X013203Y001150D02*
X013251Y001101D01*
X013351Y001101D02*
X013448Y001101D01*
X013399Y001101D02*
X013399Y001295D01*
X013351Y001295D01*
X013399Y001392D02*
X013399Y001440D01*
X013547Y001246D02*
X013547Y001150D01*
X013596Y001101D01*
X013692Y001101D01*
X013741Y001150D01*
X013741Y001246D01*
X013692Y001295D01*
X013596Y001295D01*
X013547Y001246D01*
X013842Y001295D02*
X013987Y001295D01*
X014035Y001246D01*
X014035Y001101D01*
X013842Y001101D02*
X013842Y001295D01*
X014431Y001392D02*
X014431Y001101D01*
X014576Y001101D01*
X014625Y001150D01*
X014625Y001343D01*
X014576Y001392D01*
X014431Y001392D01*
X014726Y001246D02*
X014774Y001295D01*
X014871Y001295D01*
X014919Y001246D01*
X014919Y001198D01*
X014726Y001198D01*
X014726Y001150D02*
X014726Y001246D01*
X014726Y001150D02*
X014774Y001101D01*
X014871Y001101D01*
X015020Y001101D02*
X015166Y001101D01*
X015214Y001150D01*
X015166Y001198D01*
X015069Y001198D01*
X015020Y001246D01*
X015069Y001295D01*
X015214Y001295D01*
X015315Y001295D02*
X015363Y001295D01*
X015363Y001101D01*
X015315Y001101D02*
X015412Y001101D01*
X015511Y001150D02*
X015560Y001101D01*
X015705Y001101D01*
X015705Y001053D02*
X015705Y001295D01*
X015560Y001295D01*
X015511Y001246D01*
X015511Y001150D01*
X015608Y001005D02*
X015657Y001005D01*
X015705Y001053D01*
X015806Y001101D02*
X015806Y001295D01*
X015951Y001295D01*
X016000Y001246D01*
X016000Y001101D01*
X015363Y001392D02*
X015363Y001440D01*
X011925Y001101D02*
X011877Y001150D01*
X009471Y001150D02*
X009471Y001295D01*
X008293Y001295D02*
X008293Y001101D01*
X006377Y001295D02*
X006329Y001246D01*
X012777Y015870D02*
X012901Y015870D01*
X012963Y015932D01*
X013084Y015870D02*
X013331Y015870D01*
X013452Y015870D02*
X013699Y016117D01*
X013699Y016179D01*
X013637Y016241D01*
X013514Y016241D01*
X013452Y016179D01*
X013207Y016241D02*
X013207Y015870D01*
X013452Y015870D02*
X013699Y015870D01*
X013207Y016241D02*
X013084Y016117D01*
X012963Y016179D02*
X012901Y016241D01*
X012777Y016241D01*
X012716Y016179D01*
X012716Y015932D01*
X012777Y015870D01*
X011207Y016817D02*
X011207Y016941D01*
X011145Y017002D01*
X011207Y017124D02*
X011207Y017371D01*
X011207Y017247D02*
X010837Y017247D01*
X010960Y017124D01*
X010899Y017002D02*
X010837Y016941D01*
X010837Y016817D01*
X010899Y016755D01*
X011145Y016755D01*
X011207Y016817D01*
X011145Y017492D02*
X010899Y017492D01*
X010837Y017554D01*
X010837Y017677D01*
X010899Y017739D01*
X011145Y017492D01*
X011207Y017554D01*
X011207Y017677D01*
X011145Y017739D01*
X010899Y017739D01*
D12*
X012010Y020756D02*
X012010Y023456D01*
X009210Y023456D01*
X007610Y023456D02*
X007210Y023456D01*
X006610Y023456D02*
X004810Y023456D01*
X004810Y020756D01*
X012010Y020756D01*
X006636Y017596D02*
X006636Y017449D01*
X006416Y017449D01*
X006416Y017596D01*
X006526Y017522D02*
X006526Y017449D01*
X006563Y017375D02*
X006416Y017375D01*
X006563Y017375D02*
X006636Y017301D01*
X006563Y017228D01*
X006416Y017228D01*
X006416Y017154D02*
X006416Y017081D01*
X006416Y017117D02*
X006636Y017117D01*
X006636Y017081D02*
X006636Y017154D01*
X006636Y017006D02*
X006563Y016933D01*
X006563Y016970D02*
X006563Y016860D01*
X006636Y016860D02*
X006416Y016860D01*
X006416Y016970D01*
X006453Y017006D01*
X006526Y017006D01*
X006563Y016970D01*
X006600Y016785D02*
X006453Y016785D01*
X006416Y016749D01*
X006416Y016639D01*
X006636Y016639D01*
X006636Y016749D01*
X006600Y016785D01*
X006636Y016564D02*
X006416Y016564D01*
X006526Y016564D02*
X006526Y016418D01*
X006636Y016418D02*
X006416Y016418D01*
X003760Y016206D02*
X003760Y023406D01*
X001060Y023406D01*
X001060Y020606D01*
X001060Y019006D02*
X001060Y018606D01*
X001060Y018006D02*
X001060Y016206D01*
X003760Y016206D01*
X002204Y010192D02*
X002167Y010192D01*
X002130Y010155D01*
X002130Y010119D01*
X002130Y010155D02*
X002094Y010192D01*
X002057Y010192D01*
X002020Y010155D01*
X002020Y010082D01*
X002057Y010045D01*
X002057Y009971D02*
X002020Y009934D01*
X002020Y009824D01*
X002240Y009824D01*
X002240Y009934D01*
X002204Y009971D01*
X002057Y009971D01*
X002204Y010045D02*
X002240Y010082D01*
X002240Y010155D01*
X002204Y010192D01*
X002240Y009750D02*
X002240Y009603D01*
X002020Y009603D01*
X002020Y009750D01*
X002130Y009677D02*
X002130Y009603D01*
X002240Y009529D02*
X002240Y009382D01*
X002020Y009382D01*
X001410Y008927D02*
X001337Y008817D01*
X001264Y008927D01*
X001190Y008817D02*
X001410Y008817D01*
X001410Y008742D02*
X001300Y008742D01*
X001264Y008706D01*
X001264Y008596D01*
X001410Y008596D01*
X001410Y008521D02*
X001300Y008521D01*
X001264Y008485D01*
X001264Y008411D01*
X001337Y008411D02*
X001337Y008521D01*
X001410Y008521D02*
X001410Y008411D01*
X001374Y008375D01*
X001337Y008411D01*
X001410Y008301D02*
X001410Y008227D01*
X001410Y008264D02*
X001190Y008264D01*
X001190Y008227D01*
X001300Y008153D02*
X001374Y008153D01*
X001410Y008116D01*
X001410Y008006D01*
X001484Y008006D02*
X001264Y008006D01*
X001264Y008116D01*
X001300Y008153D01*
X001264Y007932D02*
X001264Y007896D01*
X001337Y007822D01*
X001410Y007822D02*
X001264Y007822D01*
X001300Y007748D02*
X001337Y007748D01*
X001337Y007601D01*
X001374Y007601D02*
X001300Y007601D01*
X001264Y007638D01*
X001264Y007711D01*
X001300Y007748D01*
X001410Y007711D02*
X001410Y007638D01*
X001374Y007601D01*
X001337Y007527D02*
X001190Y007527D01*
X001190Y007380D02*
X001337Y007380D01*
X001410Y007454D01*
X001337Y007527D01*
X001560Y007343D02*
X001780Y007343D01*
X001780Y007453D01*
X001744Y007490D01*
X001670Y007490D01*
X001634Y007453D01*
X001634Y007343D01*
X001670Y007269D02*
X001634Y007232D01*
X001634Y007159D01*
X001670Y007122D01*
X001744Y007122D01*
X001780Y007159D01*
X001780Y007232D01*
X001744Y007269D01*
X001670Y007269D01*
X001634Y007048D02*
X001707Y006938D01*
X001780Y007048D01*
X001780Y006938D02*
X001560Y006938D01*
X001670Y006864D02*
X001780Y006864D01*
X001780Y006754D01*
X001744Y006717D01*
X001707Y006754D01*
X001707Y006864D01*
X001670Y006864D02*
X001634Y006827D01*
X001634Y006754D01*
X001560Y006643D02*
X001560Y006570D01*
X001560Y006606D02*
X001744Y006606D01*
X001780Y006570D01*
X001780Y006533D01*
X001744Y006496D01*
X001410Y006496D02*
X001410Y006606D01*
X001374Y006643D01*
X001337Y006643D01*
X001300Y006606D01*
X001300Y006496D01*
X001190Y006496D02*
X001190Y006606D01*
X001227Y006643D01*
X001264Y006643D01*
X001300Y006606D01*
X001264Y006717D02*
X001264Y006754D01*
X001410Y006754D01*
X001410Y006717D02*
X001410Y006791D01*
X001410Y006865D02*
X001410Y006938D01*
X001410Y006901D02*
X001190Y006901D01*
X001190Y006865D01*
X001190Y006754D02*
X001153Y006754D01*
X001030Y006754D02*
X000994Y006717D01*
X000957Y006754D01*
X000957Y006864D01*
X000920Y006864D02*
X001030Y006864D01*
X001030Y006754D01*
X000994Y006643D02*
X000847Y006643D01*
X000810Y006606D01*
X000810Y006496D01*
X001030Y006496D01*
X001030Y006606D01*
X000994Y006643D01*
X000884Y006754D02*
X000884Y006827D01*
X000920Y006864D01*
X000884Y006938D02*
X001030Y007012D01*
X000884Y007085D01*
X000884Y007159D02*
X000884Y007196D01*
X001030Y007196D01*
X001030Y007159D02*
X001030Y007233D01*
X001030Y007307D02*
X001030Y007380D01*
X001030Y007343D02*
X000884Y007343D01*
X000884Y007307D01*
X000810Y007343D02*
X000773Y007343D01*
X000773Y007196D02*
X000810Y007196D01*
X000920Y007454D02*
X000884Y007491D01*
X000884Y007601D01*
X000810Y007601D02*
X001030Y007601D01*
X001030Y007491D01*
X000994Y007454D01*
X000920Y007454D01*
X001190Y007049D02*
X001410Y007049D01*
X001410Y007085D02*
X001410Y007012D01*
X001190Y007012D02*
X001190Y007049D01*
X001190Y006496D02*
X001410Y006496D01*
X001560Y007785D02*
X001560Y007895D01*
X001597Y007932D01*
X001634Y007932D01*
X001670Y007895D01*
X001670Y007785D01*
X001780Y007785D02*
X001560Y007785D01*
X001670Y007895D02*
X001707Y007932D01*
X001744Y007932D01*
X001780Y007895D01*
X001780Y007785D01*
X001744Y008006D02*
X001707Y008043D01*
X001707Y008153D01*
X001670Y008153D02*
X001780Y008153D01*
X001780Y008043D01*
X001744Y008006D01*
X001634Y008043D02*
X001634Y008116D01*
X001670Y008153D01*
X001707Y008227D02*
X001634Y008337D01*
X001707Y008227D02*
X001780Y008337D01*
X001780Y008227D02*
X001560Y008227D01*
X001030Y008264D02*
X001030Y008154D01*
X000994Y008117D01*
X000957Y008154D01*
X000957Y008264D01*
X000920Y008264D02*
X001030Y008264D01*
X000994Y008338D02*
X001030Y008375D01*
X001030Y008485D01*
X000884Y008485D01*
X000884Y008559D02*
X000884Y008632D01*
X000847Y008596D02*
X000994Y008596D01*
X001030Y008632D01*
X001030Y008706D02*
X000810Y008706D01*
X000884Y008743D02*
X000884Y008816D01*
X000920Y008853D01*
X001030Y008853D01*
X001030Y008927D02*
X001030Y009001D01*
X001030Y008964D02*
X000884Y008964D01*
X000884Y008927D01*
X000810Y008964D02*
X000773Y008964D01*
X000773Y009111D02*
X000810Y009111D01*
X000884Y009111D02*
X001030Y009111D01*
X001030Y009074D02*
X001030Y009148D01*
X000994Y009222D02*
X001030Y009258D01*
X001030Y009332D01*
X000957Y009369D02*
X000957Y009222D01*
X000994Y009222D02*
X000920Y009222D01*
X000884Y009258D01*
X000884Y009332D01*
X000920Y009369D01*
X000957Y009369D01*
X000957Y009443D02*
X000884Y009516D01*
X000884Y009553D01*
X000884Y009443D02*
X001030Y009443D01*
X000884Y009111D02*
X000884Y009074D01*
X000884Y008743D02*
X000920Y008706D01*
X000884Y008338D02*
X000994Y008338D01*
X000920Y008264D02*
X000884Y008227D01*
X000884Y008154D01*
X000920Y008043D02*
X000920Y007969D01*
X000920Y008043D02*
X000994Y008043D01*
X001030Y008006D01*
X001030Y007933D01*
X000994Y007896D01*
X000847Y007896D01*
X000810Y007933D01*
X000810Y008006D01*
X000847Y008043D01*
X003978Y009426D02*
X004088Y009426D01*
X004125Y009463D01*
X004125Y009610D01*
X004088Y009646D01*
X003978Y009646D01*
X003978Y009426D01*
X004199Y009426D02*
X004346Y009573D01*
X004346Y009610D01*
X004309Y009646D01*
X004236Y009646D01*
X004199Y009610D01*
X004199Y009426D02*
X004346Y009426D01*
X005325Y008772D02*
X005435Y008662D01*
X005435Y008809D01*
X005545Y008772D02*
X005325Y008772D01*
X005325Y008514D02*
X005545Y008514D01*
X005545Y008441D02*
X005545Y008588D01*
X005398Y008441D02*
X005325Y008514D01*
X005361Y008367D02*
X005325Y008330D01*
X005325Y008257D01*
X005361Y008220D01*
X005508Y008220D01*
X005545Y008257D01*
X005545Y008330D01*
X005508Y008367D01*
X004396Y007226D02*
X004249Y007226D01*
X004323Y007226D02*
X004323Y007446D01*
X004249Y007373D01*
X004175Y007410D02*
X004138Y007446D01*
X004028Y007446D01*
X004028Y007226D01*
X004138Y007226D01*
X004175Y007263D01*
X004175Y007410D01*
X005335Y006618D02*
X005371Y006544D01*
X005445Y006471D01*
X005445Y006581D01*
X005481Y006618D01*
X005518Y006618D01*
X005555Y006581D01*
X005555Y006508D01*
X005518Y006471D01*
X005445Y006471D01*
X005518Y006397D02*
X005555Y006360D01*
X005555Y006287D01*
X005518Y006250D01*
X005371Y006250D01*
X005335Y006287D01*
X005335Y006360D01*
X005371Y006397D01*
X007345Y006340D02*
X007345Y006267D01*
X007381Y006230D01*
X007528Y006230D01*
X007565Y006267D01*
X007565Y006340D01*
X007528Y006377D01*
X007528Y006451D02*
X007491Y006451D01*
X007455Y006488D01*
X007455Y006561D01*
X007491Y006598D01*
X007528Y006598D01*
X007565Y006561D01*
X007565Y006488D01*
X007528Y006451D01*
X007455Y006488D02*
X007418Y006451D01*
X007381Y006451D01*
X007345Y006488D01*
X007345Y006561D01*
X007381Y006598D01*
X007418Y006598D01*
X007455Y006561D01*
X007381Y006377D02*
X007345Y006340D01*
X009255Y007097D02*
X009291Y007060D01*
X009438Y007060D01*
X009475Y007097D01*
X009475Y007170D01*
X009438Y007207D01*
X009438Y007281D02*
X009475Y007318D01*
X009475Y007391D01*
X009438Y007428D01*
X009401Y007428D01*
X009365Y007391D01*
X009365Y007354D01*
X009365Y007391D02*
X009328Y007428D01*
X009291Y007428D01*
X009255Y007391D01*
X009255Y007318D01*
X009291Y007281D01*
X009291Y007207D02*
X009255Y007170D01*
X009255Y007097D01*
X009468Y005356D02*
X009615Y005356D01*
X009542Y005356D02*
X009542Y005136D01*
X009689Y005136D02*
X009836Y005283D01*
X009836Y005320D01*
X009799Y005356D01*
X009726Y005356D01*
X009689Y005320D01*
X009689Y005136D02*
X009836Y005136D01*
X011110Y004692D02*
X011330Y004692D01*
X011257Y004619D01*
X011330Y004545D01*
X011110Y004545D01*
X011147Y004471D02*
X011110Y004434D01*
X011110Y004361D01*
X011147Y004324D01*
X011184Y004324D01*
X011220Y004361D01*
X011220Y004434D01*
X011257Y004471D01*
X011294Y004471D01*
X011330Y004434D01*
X011330Y004361D01*
X011294Y004324D01*
X011330Y004250D02*
X011257Y004177D01*
X011257Y004213D02*
X011257Y004103D01*
X011330Y004103D02*
X011110Y004103D01*
X011110Y004213D01*
X011147Y004250D01*
X011220Y004250D01*
X011257Y004213D01*
X011330Y004029D02*
X011110Y004029D01*
X011110Y003882D02*
X011330Y003882D01*
X011257Y003956D01*
X011330Y004029D01*
X011220Y003808D02*
X011147Y003808D01*
X011110Y003771D01*
X011110Y003661D01*
X011330Y003661D01*
X011257Y003661D02*
X011257Y003771D01*
X011220Y003808D01*
X011207Y002906D02*
X011060Y002906D01*
X011134Y002906D02*
X011134Y002686D01*
X011281Y002686D02*
X011428Y002686D01*
X011355Y002686D02*
X011355Y002906D01*
X011281Y002833D01*
X011820Y006636D02*
X011820Y006783D01*
X011894Y006857D02*
X011820Y006931D01*
X012040Y006931D01*
X012040Y007004D02*
X012040Y006857D01*
X011930Y006710D02*
X011930Y006636D01*
X012040Y006636D02*
X011820Y006636D01*
X015370Y009732D02*
X015590Y009732D01*
X015590Y009879D01*
X015590Y009953D02*
X015590Y010100D01*
X015590Y010174D02*
X015590Y010284D01*
X015554Y010321D01*
X015407Y010321D01*
X015370Y010284D01*
X015370Y010174D01*
X015590Y010174D01*
X015480Y010027D02*
X015480Y009953D01*
X015370Y009953D02*
X015590Y009953D01*
X015370Y009953D02*
X015370Y010100D01*
X015407Y010395D02*
X015370Y010432D01*
X015370Y010505D01*
X015407Y010542D01*
X015444Y010542D01*
X015590Y010395D01*
X015590Y010542D01*
X016620Y010469D02*
X016840Y010469D01*
X016840Y010542D02*
X016840Y010395D01*
X016804Y010321D02*
X016657Y010321D01*
X016620Y010284D01*
X016620Y010174D01*
X016840Y010174D01*
X016840Y010284D01*
X016804Y010321D01*
X016694Y010395D02*
X016620Y010469D01*
X016620Y010100D02*
X016620Y009953D01*
X016840Y009953D01*
X016840Y010100D01*
X016730Y010027D02*
X016730Y009953D01*
X016840Y009879D02*
X016840Y009732D01*
X016620Y009732D01*
X014293Y013505D02*
X014219Y013505D01*
X014183Y013542D01*
X014108Y013505D02*
X013962Y013505D01*
X014035Y013505D02*
X014035Y013725D01*
X013962Y013652D01*
X013887Y013689D02*
X013851Y013725D01*
X013777Y013725D01*
X013741Y013689D01*
X013741Y013542D01*
X013777Y013505D01*
X013851Y013505D01*
X013887Y013542D01*
X014183Y013689D02*
X014219Y013725D01*
X014293Y013725D01*
X014329Y013689D01*
X014329Y013652D01*
X014293Y013615D01*
X014329Y013579D01*
X014329Y013542D01*
X014293Y013505D01*
X014293Y013615D02*
X014256Y013615D01*
X013116Y013743D02*
X013079Y013706D01*
X013006Y013706D01*
X012969Y013743D01*
X012969Y013890D01*
X013006Y013926D01*
X013079Y013926D01*
X013116Y013890D01*
X013116Y013816D02*
X013043Y013816D01*
X013116Y013816D02*
X013116Y013743D01*
X012895Y013706D02*
X012895Y013853D01*
X012822Y013926D01*
X012748Y013853D01*
X012748Y013706D01*
X012748Y013816D02*
X012895Y013816D01*
X012674Y013816D02*
X012527Y013816D01*
X012453Y013816D02*
X012380Y013816D01*
X012453Y013816D02*
X012453Y013743D01*
X012416Y013706D01*
X012343Y013706D01*
X012306Y013743D01*
X012306Y013890D01*
X012343Y013926D01*
X012416Y013926D01*
X012453Y013890D01*
X007734Y003681D02*
X007661Y003681D01*
X007624Y003645D01*
X007624Y003498D01*
X007661Y003461D01*
X007734Y003461D01*
X007771Y003498D01*
X007771Y003571D01*
X007698Y003571D01*
X007771Y003645D02*
X007734Y003681D01*
X007550Y003681D02*
X007403Y003681D01*
X007403Y003461D01*
X007550Y003461D01*
X007477Y003571D02*
X007403Y003571D01*
X007329Y003571D02*
X007329Y003645D01*
X007292Y003681D01*
X007182Y003681D01*
X007182Y003461D01*
X007182Y003535D02*
X007292Y003535D01*
X007329Y003571D01*
X007256Y003535D02*
X007329Y003461D01*
X007108Y003535D02*
X007108Y003681D01*
X007108Y003535D02*
X007035Y003461D01*
X006961Y003535D01*
X006961Y003681D01*
X006002Y001826D02*
X005928Y001826D01*
X005892Y001790D01*
X006002Y001826D02*
X006038Y001790D01*
X006038Y001753D01*
X005892Y001606D01*
X006038Y001606D01*
X005817Y001606D02*
X005671Y001606D01*
X005744Y001606D02*
X005744Y001826D01*
X005671Y001753D01*
X005596Y001790D02*
X005450Y001643D01*
X005486Y001606D01*
X005560Y001606D01*
X005596Y001643D01*
X005596Y001790D01*
X005560Y001826D01*
X005486Y001826D01*
X005450Y001790D01*
X005450Y001643D01*
X005375Y001606D02*
X005229Y001606D01*
X005375Y001753D01*
X005375Y001790D01*
X005339Y001826D01*
X005265Y001826D01*
X005229Y001790D01*
X004934Y001716D02*
X004934Y001570D01*
X004934Y001680D02*
X004860Y001680D01*
X004860Y001716D02*
X004934Y001716D01*
D13*
X004502Y001687D02*
X000959Y001687D01*
X000959Y005900D01*
X001785Y005900D01*
X003357Y007913D02*
X003357Y008700D01*
X003898Y008306D01*
X003357Y007913D01*
X003898Y007913D02*
X003898Y008700D01*
X003848Y010113D02*
X003848Y010900D01*
X003848Y010506D02*
X003307Y010900D01*
X003307Y010113D01*
X003848Y010506D01*
X003810Y011556D02*
X002310Y011556D01*
X002060Y011806D01*
X002060Y012306D01*
X002310Y012556D01*
X003810Y012556D01*
X004060Y012806D01*
X004060Y013306D01*
X003810Y013556D01*
X002310Y013556D01*
X002060Y013806D01*
X002060Y014306D01*
X002310Y014556D01*
X003810Y014556D01*
X004060Y014306D01*
X004060Y013806D01*
X003810Y013556D01*
X003810Y012556D02*
X004060Y012306D01*
X004060Y011806D01*
X003810Y011556D01*
X004192Y011806D02*
X004192Y012306D01*
X004730Y011918D02*
X004730Y012906D01*
X005124Y013406D02*
X006337Y013406D01*
X006730Y012894D02*
X006730Y011918D01*
X006337Y011406D02*
X005124Y011406D01*
X005230Y012406D02*
X005232Y012450D01*
X005238Y012494D01*
X005248Y012537D01*
X005261Y012579D01*
X005278Y012620D01*
X005299Y012659D01*
X005323Y012696D01*
X005350Y012731D01*
X005380Y012763D01*
X005413Y012793D01*
X005449Y012819D01*
X005486Y012843D01*
X005526Y012862D01*
X005567Y012879D01*
X005610Y012891D01*
X005653Y012900D01*
X005697Y012905D01*
X005741Y012906D01*
X005785Y012903D01*
X005829Y012896D01*
X005872Y012885D01*
X005914Y012871D01*
X005954Y012853D01*
X005993Y012831D01*
X006029Y012807D01*
X006063Y012779D01*
X006095Y012748D01*
X006124Y012714D01*
X006150Y012678D01*
X006172Y012640D01*
X006191Y012600D01*
X006206Y012558D01*
X006218Y012516D01*
X006226Y012472D01*
X006230Y012428D01*
X006230Y012384D01*
X006226Y012340D01*
X006218Y012296D01*
X006206Y012254D01*
X006191Y012212D01*
X006172Y012172D01*
X006150Y012134D01*
X006124Y012098D01*
X006095Y012064D01*
X006063Y012033D01*
X006029Y012005D01*
X005993Y011981D01*
X005954Y011959D01*
X005914Y011941D01*
X005872Y011927D01*
X005829Y011916D01*
X005785Y011909D01*
X005741Y011906D01*
X005697Y011907D01*
X005653Y011912D01*
X005610Y011921D01*
X005567Y011933D01*
X005526Y011950D01*
X005486Y011969D01*
X005449Y011993D01*
X005413Y012019D01*
X005380Y012049D01*
X005350Y012081D01*
X005323Y012116D01*
X005299Y012153D01*
X005278Y012192D01*
X005261Y012233D01*
X005248Y012275D01*
X005238Y012318D01*
X005232Y012362D01*
X005230Y012406D01*
X005487Y014569D02*
X007534Y014569D01*
X007534Y019844D01*
X005487Y019844D01*
X005487Y014569D01*
X007082Y014893D02*
X007084Y014918D01*
X007090Y014942D01*
X007099Y014964D01*
X007112Y014985D01*
X007128Y015004D01*
X007147Y015020D01*
X007168Y015033D01*
X007190Y015042D01*
X007214Y015048D01*
X007239Y015050D01*
X007264Y015048D01*
X007288Y015042D01*
X007310Y015033D01*
X007331Y015020D01*
X007350Y015004D01*
X007366Y014985D01*
X007379Y014964D01*
X007388Y014942D01*
X007394Y014918D01*
X007396Y014893D01*
X007394Y014868D01*
X007388Y014844D01*
X007379Y014822D01*
X007366Y014801D01*
X007350Y014782D01*
X007331Y014766D01*
X007310Y014753D01*
X007288Y014744D01*
X007264Y014738D01*
X007239Y014736D01*
X007214Y014738D01*
X007190Y014744D01*
X007168Y014753D01*
X007147Y014766D01*
X007128Y014782D01*
X007112Y014801D01*
X007099Y014822D01*
X007090Y014844D01*
X007084Y014868D01*
X007082Y014893D01*
X005723Y019096D02*
X005725Y019139D01*
X005731Y019181D01*
X005741Y019223D01*
X005754Y019264D01*
X005771Y019304D01*
X005792Y019341D01*
X005816Y019377D01*
X005843Y019410D01*
X005873Y019441D01*
X005906Y019469D01*
X005941Y019494D01*
X005978Y019515D01*
X006017Y019533D01*
X006057Y019547D01*
X006099Y019558D01*
X006141Y019565D01*
X006184Y019568D01*
X006227Y019567D01*
X006270Y019562D01*
X006312Y019553D01*
X006353Y019541D01*
X006393Y019525D01*
X006431Y019505D01*
X006467Y019482D01*
X006501Y019455D01*
X006533Y019426D01*
X006561Y019394D01*
X006587Y019359D01*
X006609Y019323D01*
X006628Y019284D01*
X006643Y019244D01*
X006655Y019203D01*
X006663Y019160D01*
X006667Y019117D01*
X006667Y019075D01*
X006663Y019032D01*
X006655Y018989D01*
X006643Y018948D01*
X006628Y018908D01*
X006609Y018869D01*
X006587Y018833D01*
X006561Y018798D01*
X006533Y018766D01*
X006501Y018737D01*
X006467Y018710D01*
X006431Y018687D01*
X006393Y018667D01*
X006353Y018651D01*
X006312Y018639D01*
X006270Y018630D01*
X006227Y018625D01*
X006184Y018624D01*
X006141Y018627D01*
X006099Y018634D01*
X006057Y018645D01*
X006017Y018659D01*
X005978Y018677D01*
X005941Y018698D01*
X005906Y018723D01*
X005873Y018751D01*
X005843Y018782D01*
X005816Y018815D01*
X005792Y018851D01*
X005771Y018888D01*
X005754Y018928D01*
X005741Y018969D01*
X005731Y019011D01*
X005725Y019053D01*
X005723Y019096D01*
X002310Y013556D02*
X002060Y013306D01*
X002060Y012806D01*
X002310Y012556D01*
X001854Y010851D02*
X001067Y010851D01*
X001067Y010300D01*
X001224Y010024D02*
X001460Y009788D01*
X001697Y010024D01*
X001224Y010024D01*
X001185Y009788D02*
X001460Y009788D01*
X001736Y009788D01*
X001854Y009513D02*
X001854Y008961D01*
X001067Y008961D01*
X001067Y009513D01*
X001854Y010300D02*
X001854Y010851D01*
X003675Y005900D02*
X004502Y005900D01*
X004502Y005624D01*
X004502Y003774D02*
X004502Y001687D01*
X006070Y002956D02*
X008650Y002956D01*
X008650Y004256D01*
X006070Y004256D01*
X006070Y002956D01*
X014064Y003121D02*
X014064Y002294D01*
X014340Y004106D02*
X014694Y004106D01*
X016426Y004106D02*
X016781Y004106D01*
X017056Y003121D02*
X017056Y002294D01*
X016454Y009311D02*
X015667Y009311D01*
X015667Y009863D01*
X015785Y010138D02*
X016060Y010138D01*
X015824Y010374D01*
X016297Y010374D01*
X016060Y010138D01*
X016336Y010138D01*
X016454Y009863D02*
X016454Y009311D01*
X015204Y009311D02*
X014417Y009311D01*
X014417Y009863D01*
X014535Y010138D02*
X014810Y010138D01*
X014574Y010374D01*
X015047Y010374D01*
X014810Y010138D01*
X015086Y010138D01*
X015204Y009863D02*
X015204Y009311D01*
X015204Y010650D02*
X015204Y011201D01*
X014417Y011201D01*
X014417Y010650D01*
X015667Y010650D02*
X015667Y011201D01*
X016454Y011201D01*
X016454Y010650D01*
D14*
X016612Y009154D02*
X014309Y009154D01*
X014309Y005059D01*
X016612Y005059D01*
X016612Y009154D01*
X014512Y008770D02*
X014514Y008796D01*
X014520Y008822D01*
X014529Y008847D01*
X014542Y008870D01*
X014558Y008891D01*
X014577Y008909D01*
X014599Y008925D01*
X014622Y008937D01*
X014647Y008945D01*
X014673Y008950D01*
X014700Y008951D01*
X014726Y008948D01*
X014751Y008941D01*
X014776Y008931D01*
X014798Y008917D01*
X014819Y008900D01*
X014836Y008881D01*
X014851Y008859D01*
X014862Y008835D01*
X014870Y008809D01*
X014874Y008783D01*
X014874Y008757D01*
X014870Y008731D01*
X014862Y008705D01*
X014851Y008681D01*
X014836Y008659D01*
X014819Y008640D01*
X014798Y008623D01*
X014776Y008609D01*
X014751Y008599D01*
X014726Y008592D01*
X014700Y008589D01*
X014673Y008590D01*
X014647Y008595D01*
X014622Y008603D01*
X014599Y008615D01*
X014577Y008631D01*
X014558Y008649D01*
X014542Y008670D01*
X014529Y008693D01*
X014520Y008718D01*
X014514Y008744D01*
X014512Y008770D01*
X011797Y005824D02*
X011797Y005588D01*
X011324Y005588D02*
X011324Y005824D01*
X011097Y005824D02*
X011097Y005588D01*
X010624Y005588D02*
X010624Y005824D01*
X010270Y005806D02*
X010270Y005506D01*
X009130Y005506D01*
X009130Y005806D01*
X010270Y005806D01*
X009597Y003074D02*
X009597Y002838D01*
X009124Y002838D02*
X009124Y003074D01*
X010650Y002606D02*
X010650Y002306D01*
X011790Y002306D01*
X011790Y002606D01*
X010650Y002606D01*
X009647Y008988D02*
X009647Y009224D01*
X009174Y009224D02*
X009174Y008988D01*
X008897Y008988D02*
X008897Y009224D01*
X008424Y009224D02*
X008424Y008988D01*
X008180Y010576D02*
X008180Y013336D01*
X010800Y013336D01*
X010940Y013196D01*
X010940Y010576D01*
X008180Y010576D01*
X010499Y013036D02*
X010501Y013059D01*
X010507Y013082D01*
X010516Y013103D01*
X010529Y013123D01*
X010545Y013140D01*
X010563Y013154D01*
X010583Y013165D01*
X010605Y013173D01*
X010628Y013177D01*
X010652Y013177D01*
X010675Y013173D01*
X010697Y013165D01*
X010717Y013154D01*
X010735Y013140D01*
X010751Y013123D01*
X010764Y013103D01*
X010773Y013082D01*
X010779Y013059D01*
X010781Y013036D01*
X010779Y013013D01*
X010773Y012990D01*
X010764Y012969D01*
X010751Y012949D01*
X010735Y012932D01*
X010717Y012918D01*
X010697Y012907D01*
X010675Y012899D01*
X010652Y012895D01*
X010628Y012895D01*
X010605Y012899D01*
X010583Y012907D01*
X010563Y012918D01*
X010545Y012932D01*
X010529Y012949D01*
X010516Y012969D01*
X010507Y012990D01*
X010501Y013013D01*
X010499Y013036D01*
X012110Y014106D02*
X012110Y014706D01*
X012112Y014723D01*
X012116Y014740D01*
X012123Y014756D01*
X012133Y014770D01*
X012146Y014783D01*
X012160Y014793D01*
X012176Y014800D01*
X012193Y014804D01*
X012210Y014806D01*
X013310Y014806D01*
X013327Y014804D01*
X013344Y014800D01*
X013360Y014793D01*
X013374Y014783D01*
X013387Y014770D01*
X013397Y014756D01*
X013404Y014740D01*
X013408Y014723D01*
X013410Y014706D01*
X013410Y014106D01*
X013408Y014089D01*
X013404Y014072D01*
X013397Y014056D01*
X013387Y014042D01*
X013374Y014029D01*
X013360Y014019D01*
X013344Y014012D01*
X013327Y014008D01*
X013310Y014006D01*
X012210Y014006D01*
X012193Y014008D01*
X012176Y014012D01*
X012160Y014019D01*
X012146Y014029D01*
X012133Y014042D01*
X012123Y014056D01*
X012116Y014072D01*
X012112Y014089D01*
X012110Y014106D01*
X012472Y017970D02*
X012708Y017970D01*
X012708Y018443D02*
X012472Y018443D01*
X012660Y019306D02*
X013960Y019306D01*
X013848Y018443D02*
X013612Y018443D01*
X013612Y017970D02*
X013848Y017970D01*
X014710Y019306D02*
X018260Y019306D01*
X018260Y020406D01*
X018260Y022806D01*
X019460Y022806D01*
X019460Y020406D01*
X019660Y020606D01*
X019660Y022606D01*
X019460Y022806D01*
X018260Y022806D02*
X018260Y023906D01*
X016560Y023906D01*
X015710Y023906D02*
X012660Y023906D01*
X012660Y019306D01*
X012410Y020356D02*
X011910Y020356D01*
X011910Y020256D01*
X011410Y020256D01*
X011410Y020356D01*
X008660Y020356D01*
X008660Y020256D01*
X008160Y020256D01*
X008160Y020356D01*
X005410Y020356D01*
X005410Y020256D01*
X004910Y020256D01*
X004910Y020356D01*
X004410Y020356D01*
X004410Y023856D01*
X006260Y023856D01*
X006410Y023656D01*
X006610Y023656D01*
X007210Y023656D01*
X007410Y023656D01*
X007560Y023856D01*
X007610Y023856D01*
X007610Y023456D01*
X007610Y023356D01*
X007210Y023356D01*
X006610Y023356D01*
X006610Y023456D01*
X006610Y023656D01*
X006610Y023356D02*
X004910Y023356D01*
X004910Y020856D01*
X011910Y020856D01*
X011910Y023356D01*
X009210Y023356D01*
X009210Y023456D01*
X009210Y023856D01*
X010160Y023856D01*
X010160Y023806D01*
X010660Y023806D01*
X010660Y023856D01*
X012410Y023856D01*
X012410Y020356D01*
X009210Y023056D02*
X009210Y023356D01*
X009210Y023056D02*
X007610Y023056D01*
X007610Y023356D01*
X007210Y023356D02*
X007210Y023456D01*
X007210Y023656D01*
X007610Y023856D02*
X009210Y023856D01*
X004260Y023306D02*
X004260Y022806D01*
X004160Y022806D01*
X004160Y020056D01*
X004260Y020056D01*
X004260Y019556D01*
X004160Y019556D01*
X004160Y016806D01*
X004260Y016806D01*
X004260Y016306D01*
X004160Y016306D01*
X004160Y015806D01*
X000660Y015806D01*
X000660Y017656D01*
X000860Y017806D01*
X000860Y018006D01*
X000860Y018606D01*
X000860Y018806D01*
X000660Y018956D01*
X000660Y019006D01*
X001060Y019006D01*
X001160Y019006D01*
X001160Y018606D01*
X001160Y018006D01*
X001060Y018006D01*
X000860Y018006D01*
X001160Y018006D02*
X001160Y016306D01*
X003660Y016306D01*
X003660Y023306D01*
X001160Y023306D01*
X001160Y020606D01*
X001060Y020606D01*
X000660Y020606D01*
X000660Y021556D01*
X000710Y021556D01*
X000710Y022056D01*
X000660Y022056D01*
X000660Y023806D01*
X004160Y023806D01*
X004160Y023306D01*
X004260Y023306D01*
X001460Y020606D02*
X001160Y020606D01*
X001460Y020606D02*
X001460Y019006D01*
X001160Y019006D01*
X001160Y018606D02*
X001060Y018606D01*
X000860Y018606D01*
X000660Y019006D02*
X000660Y020606D01*
X004592Y014593D02*
X004828Y014593D01*
X004828Y014120D02*
X004592Y014120D01*
X004592Y013993D02*
X004828Y013993D01*
X004828Y013520D02*
X004592Y013520D01*
X015924Y013938D02*
X015924Y014174D01*
X016397Y014174D02*
X016397Y013938D01*
X018260Y020406D02*
X019460Y020406D01*
D15*
X016615Y014314D02*
X016640Y014289D01*
X016640Y014239D01*
X016615Y014214D01*
X016640Y014167D02*
X016640Y014067D01*
X016640Y014019D02*
X016590Y013969D01*
X016590Y013994D02*
X016590Y013919D01*
X016640Y013919D02*
X016490Y013919D01*
X016490Y013994D01*
X016515Y014019D01*
X016565Y014019D01*
X016590Y013994D01*
X016540Y014067D02*
X016490Y014117D01*
X016640Y014117D01*
X016515Y014214D02*
X016490Y014239D01*
X016490Y014289D01*
X016515Y014314D01*
X016540Y014314D01*
X016565Y014289D01*
X016590Y014314D01*
X016615Y014314D01*
X016565Y014289D02*
X016565Y014264D01*
X016068Y011551D02*
X015968Y011551D01*
X015871Y011551D02*
X015871Y011401D01*
X015821Y011401D02*
X015921Y011401D01*
X015968Y011401D02*
X015968Y011426D01*
X016068Y011526D01*
X016068Y011551D01*
X015871Y011551D02*
X015821Y011501D01*
X015773Y011526D02*
X015748Y011551D01*
X015698Y011551D01*
X015673Y011526D01*
X015673Y011426D01*
X015698Y011401D01*
X015748Y011401D01*
X015773Y011426D01*
X015990Y008564D02*
X016015Y008564D01*
X016040Y008539D01*
X016065Y008564D01*
X016090Y008564D01*
X016115Y008539D01*
X016115Y008489D01*
X016090Y008464D01*
X016090Y008417D02*
X016115Y008392D01*
X016115Y008342D01*
X016090Y008317D01*
X015990Y008317D01*
X015965Y008342D01*
X015965Y008392D01*
X015990Y008417D01*
X015990Y008464D02*
X015965Y008489D01*
X015965Y008539D01*
X015990Y008564D01*
X016040Y008539D02*
X016040Y008514D01*
X015965Y008269D02*
X015965Y008218D01*
X015965Y008243D02*
X016115Y008243D01*
X016115Y008218D02*
X016115Y008269D01*
X013495Y008731D02*
X013345Y008731D01*
X013345Y008806D01*
X013370Y008831D01*
X013420Y008831D01*
X013445Y008806D01*
X013445Y008731D01*
X013445Y008781D02*
X013495Y008831D01*
X013470Y008879D02*
X013445Y008879D01*
X013420Y008904D01*
X013420Y008954D01*
X013445Y008979D01*
X013470Y008979D01*
X013495Y008954D01*
X013495Y008904D01*
X013470Y008879D01*
X013420Y008904D02*
X013395Y008879D01*
X013370Y008879D01*
X013345Y008904D01*
X013345Y008954D01*
X013370Y008979D01*
X013395Y008979D01*
X013420Y008954D01*
X012465Y008874D02*
X012440Y008874D01*
X012340Y008974D01*
X012315Y008974D01*
X012315Y008874D01*
X012340Y008827D02*
X012390Y008827D01*
X012415Y008802D01*
X012415Y008727D01*
X012415Y008777D02*
X012465Y008827D01*
X012465Y008727D02*
X012315Y008727D01*
X012315Y008802D01*
X012340Y008827D01*
X011495Y008841D02*
X011445Y008791D01*
X011445Y008816D02*
X011445Y008741D01*
X011495Y008741D02*
X011345Y008741D01*
X011345Y008816D01*
X011370Y008841D01*
X011420Y008841D01*
X011445Y008816D01*
X011470Y008889D02*
X011495Y008914D01*
X011495Y008964D01*
X011470Y008989D01*
X011370Y008989D01*
X011345Y008964D01*
X011345Y008914D01*
X011370Y008889D01*
X011395Y008889D01*
X011420Y008914D01*
X011420Y008989D01*
X011716Y007701D02*
X011691Y007676D01*
X011691Y007576D01*
X011716Y007551D01*
X011766Y007551D01*
X011791Y007576D01*
X011838Y007551D02*
X011938Y007651D01*
X011938Y007676D01*
X011913Y007701D01*
X011863Y007701D01*
X011838Y007676D01*
X011791Y007676D02*
X011766Y007701D01*
X011716Y007701D01*
X011838Y007551D02*
X011938Y007551D01*
X012030Y005844D02*
X012030Y005744D01*
X012030Y005697D02*
X012030Y005597D01*
X012030Y005549D02*
X011980Y005499D01*
X011980Y005524D02*
X011980Y005449D01*
X012030Y005449D02*
X011880Y005449D01*
X011880Y005524D01*
X011905Y005549D01*
X011955Y005549D01*
X011980Y005524D01*
X011930Y005597D02*
X011880Y005647D01*
X012030Y005647D01*
X011930Y005744D02*
X011880Y005794D01*
X012030Y005794D01*
X010540Y005759D02*
X010540Y005659D01*
X010540Y005611D02*
X010490Y005561D01*
X010490Y005586D02*
X010490Y005511D01*
X010540Y005511D02*
X010390Y005511D01*
X010390Y005586D01*
X010415Y005611D01*
X010465Y005611D01*
X010490Y005586D01*
X010440Y005659D02*
X010390Y005709D01*
X010540Y005709D01*
X010515Y005806D02*
X010415Y005906D01*
X010515Y005906D01*
X010540Y005881D01*
X010540Y005831D01*
X010515Y005806D01*
X010415Y005806D01*
X010390Y005831D01*
X010390Y005881D01*
X010415Y005906D01*
X009715Y003214D02*
X009815Y003114D01*
X009840Y003114D01*
X009815Y003067D02*
X009840Y003042D01*
X009840Y002992D01*
X009815Y002967D01*
X009715Y002967D01*
X009690Y002992D01*
X009690Y003042D01*
X009715Y003067D01*
X009690Y003114D02*
X009690Y003214D01*
X009715Y003214D01*
X009735Y008947D02*
X009835Y008947D01*
X009860Y008972D01*
X009860Y009022D01*
X009835Y009047D01*
X009835Y009094D02*
X009860Y009119D01*
X009860Y009169D01*
X009835Y009194D01*
X009735Y009194D01*
X009710Y009169D01*
X009710Y009119D01*
X009735Y009094D01*
X009760Y009094D01*
X009785Y009119D01*
X009785Y009194D01*
X009735Y009047D02*
X009710Y009022D01*
X009710Y008972D01*
X009735Y008947D01*
X009110Y008972D02*
X009110Y009022D01*
X009085Y009047D01*
X009035Y009094D02*
X008960Y009169D01*
X009110Y009169D01*
X009035Y009194D02*
X009035Y009094D01*
X008985Y009047D02*
X008960Y009022D01*
X008960Y008972D01*
X008985Y008947D01*
X009085Y008947D01*
X009110Y008972D01*
X010555Y012368D02*
X010555Y012419D01*
X010555Y012393D02*
X010705Y012393D01*
X010705Y012368D02*
X010705Y012419D01*
X010680Y012467D02*
X010580Y012467D01*
X010555Y012492D01*
X010555Y012542D01*
X010580Y012567D01*
X010605Y012614D02*
X010555Y012664D01*
X010705Y012664D01*
X010705Y012614D02*
X010705Y012714D01*
X010680Y012567D02*
X010705Y012542D01*
X010705Y012492D01*
X010680Y012467D01*
X012453Y017726D02*
X012453Y017876D01*
X012528Y017876D01*
X012553Y017851D01*
X012553Y017801D01*
X012528Y017776D01*
X012453Y017776D01*
X012503Y017776D02*
X012553Y017726D01*
X012601Y017726D02*
X012701Y017726D01*
X012651Y017726D02*
X012651Y017876D01*
X012601Y017826D01*
X012748Y017801D02*
X012798Y017826D01*
X012823Y017826D01*
X012848Y017801D01*
X012848Y017751D01*
X012823Y017726D01*
X012773Y017726D01*
X012748Y017751D01*
X012748Y017801D02*
X012748Y017876D01*
X012848Y017876D01*
X013655Y017871D02*
X013655Y017771D01*
X013680Y017746D01*
X013730Y017746D01*
X013755Y017771D01*
X013803Y017746D02*
X013903Y017746D01*
X013853Y017746D02*
X013853Y017896D01*
X013803Y017846D01*
X013755Y017871D02*
X013730Y017896D01*
X013680Y017896D01*
X013655Y017871D01*
X013950Y017896D02*
X013950Y017821D01*
X014000Y017846D01*
X014025Y017846D01*
X014050Y017821D01*
X014050Y017771D01*
X014025Y017746D01*
X013975Y017746D01*
X013950Y017771D01*
X013950Y017896D02*
X014050Y017896D01*
X005633Y013111D02*
X005533Y013111D01*
X005583Y013111D02*
X005583Y013261D01*
X005533Y013211D01*
X005485Y013236D02*
X005460Y013261D01*
X005410Y013261D01*
X005385Y013236D01*
X005385Y013211D01*
X005410Y013186D01*
X005460Y013186D01*
X005485Y013161D01*
X005485Y013136D01*
X005460Y013111D01*
X005410Y013111D01*
X005385Y013136D01*
X004838Y013246D02*
X004738Y013246D01*
X004788Y013246D02*
X004788Y013396D01*
X004738Y013346D01*
X004691Y013371D02*
X004666Y013396D01*
X004616Y013396D01*
X004591Y013371D01*
X004591Y013271D01*
X004616Y013246D01*
X004666Y013246D01*
X004691Y013271D01*
X004671Y014686D02*
X004671Y014836D01*
X004621Y014786D01*
X004573Y014811D02*
X004548Y014836D01*
X004498Y014836D01*
X004473Y014811D01*
X004473Y014711D01*
X004498Y014686D01*
X004548Y014686D01*
X004573Y014711D01*
X004621Y014686D02*
X004721Y014686D01*
X004768Y014711D02*
X004793Y014686D01*
X004843Y014686D01*
X004868Y014711D01*
X004868Y014736D01*
X004843Y014761D01*
X004768Y014761D01*
X004768Y014711D01*
X004768Y014761D02*
X004818Y014811D01*
X004868Y014836D01*
X001155Y011681D02*
X001005Y011681D01*
X001080Y011606D01*
X001080Y011706D01*
X001155Y011559D02*
X001155Y011459D01*
X001155Y011411D02*
X001105Y011361D01*
X001105Y011386D02*
X001105Y011311D01*
X001155Y011311D02*
X001005Y011311D01*
X001005Y011386D01*
X001030Y011411D01*
X001080Y011411D01*
X001105Y011386D01*
X001055Y011459D02*
X001005Y011509D01*
X001155Y011509D01*
X001285Y002661D02*
X001335Y002661D01*
X001310Y002661D02*
X001310Y002536D01*
X001285Y002511D01*
X001260Y002511D01*
X001235Y002536D01*
X001383Y002511D02*
X001483Y002611D01*
X001483Y002636D01*
X001458Y002661D01*
X001408Y002661D01*
X001383Y002636D01*
X001383Y002511D02*
X001483Y002511D01*
X014905Y001509D02*
X015055Y001509D01*
X015055Y001459D02*
X015055Y001559D01*
X014955Y001459D02*
X014905Y001509D01*
X014905Y001411D02*
X015055Y001311D01*
X015055Y001411D02*
X014905Y001311D01*
D16*
X012110Y007994D02*
X012110Y008018D01*
X015760Y011844D02*
X015760Y011868D01*
D17*
X013050Y009166D03*
X012010Y009156D03*
X011060Y009156D03*
X001460Y011656D03*
D18*
X001335Y011731D02*
X001335Y011882D01*
X001335Y011806D02*
X001710Y011806D01*
X001785Y011731D01*
X001785Y011656D01*
X001710Y011581D01*
X001785Y012042D02*
X001785Y012342D01*
X001785Y012192D02*
X001335Y012192D01*
X001485Y012042D01*
X001285Y019311D02*
X001285Y019611D01*
X001285Y019461D02*
X000835Y019461D01*
X000985Y019311D01*
X000910Y019771D02*
X000835Y019846D01*
X000835Y019996D01*
X000910Y020071D01*
X001210Y019771D01*
X001285Y019846D01*
X001285Y019996D01*
X001210Y020071D01*
X000910Y020071D01*
X000910Y019771D02*
X001210Y019771D01*
X001835Y022371D02*
X001685Y022521D01*
X002135Y022521D01*
X002135Y022371D02*
X002135Y022671D01*
X002685Y022596D02*
X002685Y022446D01*
X002760Y022371D01*
X002685Y022596D02*
X002760Y022671D01*
X002835Y022671D01*
X003135Y022371D01*
X003135Y022671D01*
X007915Y023231D02*
X008215Y023231D01*
X008065Y023231D02*
X008065Y023682D01*
X007915Y023532D01*
X008375Y023607D02*
X008375Y023306D01*
X008675Y023607D01*
X008675Y023306D01*
X008600Y023231D01*
X008450Y023231D01*
X008375Y023306D01*
X008375Y023607D02*
X008450Y023682D01*
X008600Y023682D01*
X008675Y023607D01*
X010975Y022682D02*
X011125Y022832D01*
X011125Y022381D01*
X010975Y022381D02*
X011275Y022381D01*
X011200Y021832D02*
X011050Y021832D01*
X010975Y021757D01*
X011275Y021682D02*
X010975Y021381D01*
X011275Y021381D01*
X011275Y021682D02*
X011275Y021757D01*
X011200Y021832D01*
X015987Y020007D02*
X016062Y020082D01*
X016212Y020082D01*
X016287Y020007D01*
X016287Y019932D01*
X016212Y019856D01*
X016287Y019781D01*
X016287Y019706D01*
X016212Y019631D01*
X016062Y019631D01*
X015987Y019706D01*
X016137Y019856D02*
X016212Y019856D01*
X016522Y019706D02*
X016522Y019631D01*
X016597Y019631D01*
X016597Y019706D01*
X016522Y019706D01*
X016597Y019631D02*
X016447Y019481D01*
X016754Y019706D02*
X016829Y019631D01*
X016979Y019631D01*
X017054Y019706D01*
X017054Y019856D01*
X016979Y019932D01*
X016904Y019932D01*
X016754Y019856D01*
X016754Y020082D01*
X017054Y020082D01*
X017214Y019932D02*
X017289Y019932D01*
X017365Y019856D01*
X017440Y019932D01*
X017515Y019856D01*
X017515Y019631D01*
X017365Y019631D02*
X017365Y019856D01*
X017214Y019932D02*
X017214Y019631D01*
X017675Y019631D02*
X017675Y019932D01*
X017750Y019932D01*
X017825Y019856D01*
X017900Y019932D01*
X017975Y019856D01*
X017975Y019631D01*
X017825Y019631D02*
X017825Y019856D01*
X017500Y019082D02*
X017350Y019082D01*
X017275Y019007D01*
X017115Y019082D02*
X016815Y018631D01*
X017115Y018631D02*
X016815Y019082D01*
X017275Y018631D02*
X017575Y018932D01*
X017575Y019007D01*
X017500Y019082D01*
X017575Y018631D02*
X017275Y018631D01*
X014803Y016656D02*
X014806Y016780D01*
X014815Y016903D01*
X014830Y017026D01*
X014851Y017148D01*
X014879Y017268D01*
X014912Y017388D01*
X014950Y017505D01*
X014995Y017620D01*
X015045Y017733D01*
X015101Y017844D01*
X015162Y017952D01*
X015228Y018056D01*
X015299Y018157D01*
X015375Y018255D01*
X015456Y018348D01*
X015541Y018438D01*
X015631Y018523D01*
X015724Y018604D01*
X015822Y018680D01*
X015923Y018751D01*
X016027Y018817D01*
X016135Y018878D01*
X016246Y018934D01*
X016359Y018984D01*
X016474Y019029D01*
X016591Y019067D01*
X016711Y019100D01*
X016831Y019128D01*
X016953Y019149D01*
X017076Y019164D01*
X017199Y019173D01*
X017323Y019176D01*
X017447Y019173D01*
X017570Y019164D01*
X017693Y019149D01*
X017815Y019128D01*
X017935Y019100D01*
X018055Y019067D01*
X018172Y019029D01*
X018287Y018984D01*
X018400Y018934D01*
X018511Y018878D01*
X018619Y018817D01*
X018723Y018751D01*
X018824Y018680D01*
X018922Y018604D01*
X019015Y018523D01*
X019105Y018438D01*
X019190Y018348D01*
X019271Y018255D01*
X019347Y018157D01*
X019418Y018056D01*
X019484Y017952D01*
X019545Y017844D01*
X019601Y017733D01*
X019651Y017620D01*
X019696Y017505D01*
X019734Y017388D01*
X019767Y017268D01*
X019795Y017148D01*
X019816Y017026D01*
X019831Y016903D01*
X019840Y016780D01*
X019843Y016656D01*
X019840Y016532D01*
X019831Y016409D01*
X019816Y016286D01*
X019795Y016164D01*
X019767Y016044D01*
X019734Y015924D01*
X019696Y015807D01*
X019651Y015692D01*
X019601Y015579D01*
X019545Y015468D01*
X019484Y015360D01*
X019418Y015256D01*
X019347Y015155D01*
X019271Y015057D01*
X019190Y014964D01*
X019105Y014874D01*
X019015Y014789D01*
X018922Y014708D01*
X018824Y014632D01*
X018723Y014561D01*
X018619Y014495D01*
X018511Y014434D01*
X018400Y014378D01*
X018287Y014328D01*
X018172Y014283D01*
X018055Y014245D01*
X017935Y014212D01*
X017815Y014184D01*
X017693Y014163D01*
X017570Y014148D01*
X017447Y014139D01*
X017323Y014136D01*
X017199Y014139D01*
X017076Y014148D01*
X016953Y014163D01*
X016831Y014184D01*
X016711Y014212D01*
X016591Y014245D01*
X016474Y014283D01*
X016359Y014328D01*
X016246Y014378D01*
X016135Y014434D01*
X016027Y014495D01*
X015923Y014561D01*
X015822Y014632D01*
X015724Y014708D01*
X015631Y014789D01*
X015541Y014874D01*
X015456Y014964D01*
X015375Y015057D01*
X015299Y015155D01*
X015228Y015256D01*
X015162Y015360D01*
X015101Y015468D01*
X015045Y015579D01*
X014995Y015692D01*
X014950Y015807D01*
X014912Y015924D01*
X014879Y016044D01*
X014851Y016164D01*
X014830Y016286D01*
X014815Y016409D01*
X014806Y016532D01*
X014803Y016656D01*
D19*
X013901Y016602D02*
X013625Y016326D01*
X012680Y016326D01*
X012680Y016582D01*
X012877Y017330D02*
X012909Y017364D01*
X012944Y017395D01*
X012981Y017424D01*
X013020Y017449D01*
X013061Y017471D01*
X013104Y017490D01*
X013149Y017505D01*
X013194Y017516D01*
X013240Y017524D01*
X013287Y017528D01*
X013333Y017528D01*
X013380Y017524D01*
X013426Y017516D01*
X013471Y017505D01*
X013516Y017490D01*
X013559Y017471D01*
X013600Y017449D01*
X013639Y017424D01*
X013676Y017395D01*
X013711Y017364D01*
X013743Y017330D01*
X013901Y017311D02*
X013625Y017586D01*
X012680Y017586D01*
X012680Y017330D01*
X012877Y016582D02*
X012908Y016548D01*
X012942Y016517D01*
X012979Y016489D01*
X013017Y016464D01*
X013058Y016441D01*
X013100Y016423D01*
X013143Y016407D01*
X013188Y016396D01*
X013233Y016387D01*
X013279Y016383D01*
X013325Y016382D01*
X013371Y016385D01*
X013416Y016392D01*
X013461Y016402D01*
X013505Y016415D01*
X013548Y016433D01*
X013589Y016453D01*
X013628Y016477D01*
X013666Y016504D01*
X013701Y016534D01*
X013733Y016566D01*
X013763Y016601D01*
X013730Y015086D02*
X014675Y015086D01*
X014951Y014811D01*
X014813Y014101D02*
X014783Y014066D01*
X014751Y014034D01*
X014716Y014004D01*
X014678Y013977D01*
X014639Y013953D01*
X014598Y013933D01*
X014555Y013915D01*
X014511Y013902D01*
X014466Y013892D01*
X014421Y013885D01*
X014375Y013882D01*
X014329Y013883D01*
X014283Y013887D01*
X014238Y013896D01*
X014193Y013907D01*
X014150Y013923D01*
X014108Y013941D01*
X014067Y013964D01*
X014029Y013989D01*
X013992Y014017D01*
X013958Y014048D01*
X013927Y014082D01*
X013730Y014082D02*
X013730Y013826D01*
X014675Y013826D01*
X014951Y014102D01*
X014793Y014830D02*
X014761Y014864D01*
X014726Y014895D01*
X014689Y014924D01*
X014650Y014949D01*
X014609Y014971D01*
X014566Y014990D01*
X014521Y015005D01*
X014476Y015016D01*
X014430Y015024D01*
X014383Y015028D01*
X014337Y015028D01*
X014290Y015024D01*
X014244Y015016D01*
X014199Y015005D01*
X014154Y014990D01*
X014111Y014971D01*
X014070Y014949D01*
X014031Y014924D01*
X013994Y014895D01*
X013959Y014864D01*
X013927Y014830D01*
X013730Y014830D02*
X013730Y015086D01*
X011924Y016448D02*
X011019Y015542D01*
X010704Y015542D01*
X009917Y015542D02*
X009602Y015542D01*
X008696Y016448D01*
X008696Y018770D01*
X009917Y018770D01*
X010704Y018770D02*
X011924Y018770D01*
X011924Y016448D01*
X009956Y015640D02*
X009879Y015660D01*
X009804Y015683D01*
X009730Y015711D01*
X009658Y015742D01*
X009587Y015777D01*
X009518Y015815D01*
X009452Y015857D01*
X009387Y015902D01*
X009325Y015950D01*
X009265Y016002D01*
X009208Y016056D01*
X009154Y016113D01*
X009102Y016173D01*
X009054Y016235D01*
X009009Y016300D01*
X008968Y016367D01*
X008930Y016436D01*
X008895Y016507D01*
X008864Y016579D01*
X008836Y016653D01*
X008813Y016728D01*
X008793Y016804D01*
X008777Y016882D01*
X008765Y016960D01*
X008757Y017038D01*
X008753Y017117D01*
X008753Y017195D01*
X008757Y017274D01*
X008765Y017352D01*
X008777Y017430D01*
X008793Y017508D01*
X008813Y017584D01*
X008836Y017659D01*
X008864Y017733D01*
X008895Y017805D01*
X008930Y017876D01*
X008968Y017945D01*
X009009Y018012D01*
X009054Y018077D01*
X009102Y018139D01*
X009154Y018199D01*
X009208Y018256D01*
X009265Y018310D01*
X009325Y018362D01*
X009387Y018410D01*
X009452Y018455D01*
X009518Y018497D01*
X009587Y018535D01*
X009658Y018570D01*
X009730Y018601D01*
X009804Y018629D01*
X009879Y018652D01*
X009956Y018672D01*
X010664Y018672D02*
X010741Y018652D01*
X010816Y018629D01*
X010890Y018601D01*
X010962Y018570D01*
X011033Y018535D01*
X011102Y018497D01*
X011168Y018455D01*
X011233Y018410D01*
X011295Y018362D01*
X011355Y018310D01*
X011412Y018256D01*
X011466Y018199D01*
X011518Y018139D01*
X011566Y018077D01*
X011611Y018012D01*
X011652Y017945D01*
X011690Y017876D01*
X011725Y017805D01*
X011756Y017733D01*
X011784Y017659D01*
X011807Y017584D01*
X011827Y017508D01*
X011843Y017430D01*
X011855Y017352D01*
X011863Y017274D01*
X011867Y017195D01*
X011867Y017117D01*
X011863Y017038D01*
X011855Y016960D01*
X011843Y016882D01*
X011827Y016804D01*
X011807Y016728D01*
X011784Y016653D01*
X011756Y016579D01*
X011725Y016507D01*
X011690Y016436D01*
X011652Y016367D01*
X011611Y016300D01*
X011566Y016235D01*
X011518Y016173D01*
X011466Y016113D01*
X011412Y016056D01*
X011355Y016002D01*
X011295Y015950D01*
X011233Y015902D01*
X011168Y015857D01*
X011102Y015815D01*
X011033Y015777D01*
X010962Y015742D01*
X010890Y015711D01*
X010816Y015683D01*
X010741Y015660D01*
X010664Y015640D01*
X006854Y009883D02*
X007287Y009450D01*
X007287Y008230D01*
X006795Y008230D01*
X006795Y007433D02*
X007287Y007433D01*
X007287Y006213D01*
X006854Y005780D01*
X006125Y005917D02*
X006077Y005943D01*
X006030Y005972D01*
X005985Y006005D01*
X005943Y006041D01*
X005904Y006080D01*
X005867Y006121D01*
X005834Y006165D01*
X005803Y006211D01*
X005777Y006260D01*
X005754Y006310D01*
X005734Y006362D01*
X005718Y006415D01*
X005706Y006469D01*
X005698Y006523D01*
X005694Y006578D01*
X005694Y006634D01*
X005698Y006689D01*
X005706Y006743D01*
X005718Y006797D01*
X005734Y006850D01*
X005754Y006902D01*
X005777Y006952D01*
X005803Y007001D01*
X005834Y007047D01*
X005867Y007091D01*
X005904Y007132D01*
X005943Y007171D01*
X005985Y007207D01*
X006030Y007240D01*
X006077Y007269D01*
X006125Y007295D01*
X006126Y007433D02*
X005634Y007433D01*
X005634Y006213D01*
X006067Y005780D01*
X006795Y005917D02*
X006843Y005943D01*
X006890Y005972D01*
X006935Y006005D01*
X006977Y006041D01*
X007016Y006080D01*
X007053Y006121D01*
X007086Y006165D01*
X007117Y006211D01*
X007143Y006260D01*
X007166Y006310D01*
X007186Y006362D01*
X007202Y006415D01*
X007214Y006469D01*
X007222Y006523D01*
X007226Y006578D01*
X007226Y006634D01*
X007222Y006689D01*
X007214Y006743D01*
X007202Y006797D01*
X007186Y006850D01*
X007166Y006902D01*
X007143Y006952D01*
X007117Y007001D01*
X007086Y007047D01*
X007053Y007091D01*
X007016Y007132D01*
X006977Y007171D01*
X006935Y007207D01*
X006890Y007240D01*
X006843Y007269D01*
X006795Y007295D01*
X007634Y007433D02*
X008126Y007433D01*
X007634Y007433D02*
X007634Y006213D01*
X008067Y005780D01*
X008125Y005917D02*
X008077Y005943D01*
X008030Y005972D01*
X007985Y006005D01*
X007943Y006041D01*
X007904Y006080D01*
X007867Y006121D01*
X007834Y006165D01*
X007803Y006211D01*
X007777Y006260D01*
X007754Y006310D01*
X007734Y006362D01*
X007718Y006415D01*
X007706Y006469D01*
X007698Y006523D01*
X007694Y006578D01*
X007694Y006634D01*
X007698Y006689D01*
X007706Y006743D01*
X007718Y006797D01*
X007734Y006850D01*
X007754Y006902D01*
X007777Y006952D01*
X007803Y007001D01*
X007834Y007047D01*
X007867Y007091D01*
X007904Y007132D01*
X007943Y007171D01*
X007985Y007207D01*
X008030Y007240D01*
X008077Y007269D01*
X008125Y007295D01*
X008795Y007295D02*
X008843Y007269D01*
X008890Y007240D01*
X008935Y007207D01*
X008977Y007171D01*
X009016Y007132D01*
X009053Y007091D01*
X009086Y007047D01*
X009117Y007001D01*
X009143Y006952D01*
X009166Y006902D01*
X009186Y006850D01*
X009202Y006797D01*
X009214Y006743D01*
X009222Y006689D01*
X009226Y006634D01*
X009226Y006578D01*
X009222Y006523D01*
X009214Y006469D01*
X009202Y006415D01*
X009186Y006362D01*
X009166Y006310D01*
X009143Y006260D01*
X009117Y006211D01*
X009086Y006165D01*
X009053Y006121D01*
X009016Y006080D01*
X008977Y006041D01*
X008935Y006005D01*
X008890Y005972D01*
X008843Y005943D01*
X008795Y005917D01*
X008854Y005780D02*
X009287Y006213D01*
X009287Y007433D01*
X008795Y007433D01*
X009534Y007063D02*
X009534Y008283D01*
X010026Y008283D01*
X010695Y008283D02*
X011187Y008283D01*
X011187Y007063D01*
X010754Y006630D01*
X010025Y006767D02*
X009977Y006793D01*
X009930Y006822D01*
X009885Y006855D01*
X009843Y006891D01*
X009804Y006930D01*
X009767Y006971D01*
X009734Y007015D01*
X009703Y007061D01*
X009677Y007110D01*
X009654Y007160D01*
X009634Y007212D01*
X009618Y007265D01*
X009606Y007319D01*
X009598Y007373D01*
X009594Y007428D01*
X009594Y007484D01*
X009598Y007539D01*
X009606Y007593D01*
X009618Y007647D01*
X009634Y007700D01*
X009654Y007752D01*
X009677Y007802D01*
X009703Y007851D01*
X009734Y007897D01*
X009767Y007941D01*
X009804Y007982D01*
X009843Y008021D01*
X009885Y008057D01*
X009930Y008090D01*
X009977Y008119D01*
X010025Y008145D01*
X010695Y008145D02*
X010743Y008119D01*
X010790Y008090D01*
X010835Y008057D01*
X010877Y008021D01*
X010916Y007982D01*
X010953Y007941D01*
X010986Y007897D01*
X011017Y007851D01*
X011043Y007802D01*
X011066Y007752D01*
X011086Y007700D01*
X011102Y007647D01*
X011114Y007593D01*
X011122Y007539D01*
X011126Y007484D01*
X011126Y007428D01*
X011122Y007373D01*
X011114Y007319D01*
X011102Y007265D01*
X011086Y007212D01*
X011066Y007160D01*
X011043Y007110D01*
X011017Y007061D01*
X010986Y007015D01*
X010953Y006971D01*
X010916Y006930D01*
X010877Y006891D01*
X010835Y006855D01*
X010790Y006822D01*
X010743Y006793D01*
X010695Y006767D01*
X009967Y006630D02*
X009534Y007063D01*
X006795Y008367D02*
X006843Y008393D01*
X006890Y008422D01*
X006935Y008455D01*
X006977Y008491D01*
X007016Y008530D01*
X007053Y008571D01*
X007086Y008615D01*
X007117Y008661D01*
X007143Y008710D01*
X007166Y008760D01*
X007186Y008812D01*
X007202Y008865D01*
X007214Y008919D01*
X007222Y008973D01*
X007226Y009028D01*
X007226Y009084D01*
X007222Y009139D01*
X007214Y009193D01*
X007202Y009247D01*
X007186Y009300D01*
X007166Y009352D01*
X007143Y009402D01*
X007117Y009451D01*
X007086Y009497D01*
X007053Y009541D01*
X007016Y009582D01*
X006977Y009621D01*
X006935Y009657D01*
X006890Y009690D01*
X006843Y009719D01*
X006795Y009745D01*
X006125Y009745D02*
X006077Y009719D01*
X006030Y009690D01*
X005985Y009657D01*
X005943Y009621D01*
X005904Y009582D01*
X005867Y009541D01*
X005834Y009497D01*
X005803Y009451D01*
X005777Y009402D01*
X005754Y009352D01*
X005734Y009300D01*
X005718Y009247D01*
X005706Y009193D01*
X005698Y009139D01*
X005694Y009084D01*
X005694Y009028D01*
X005698Y008973D01*
X005706Y008919D01*
X005718Y008865D01*
X005734Y008812D01*
X005754Y008760D01*
X005777Y008710D01*
X005803Y008661D01*
X005834Y008615D01*
X005867Y008571D01*
X005904Y008530D01*
X005943Y008491D01*
X005985Y008455D01*
X006030Y008422D01*
X006077Y008393D01*
X006125Y008367D01*
X006126Y008230D02*
X005634Y008230D01*
X005634Y009450D01*
X006067Y009883D01*
X004450Y009756D02*
X002670Y009756D01*
X002720Y009056D02*
X004500Y009056D01*
X004500Y007556D02*
X002720Y007556D01*
X002670Y011256D02*
X004450Y011256D01*
D20*
X011801Y019441D02*
X011801Y019862D01*
X012011Y020072D01*
X012221Y019862D01*
X012221Y019441D01*
X012221Y019757D02*
X011801Y019757D01*
X005075Y023197D02*
X005075Y023512D01*
X004970Y023617D01*
X004865Y023617D01*
X004760Y023512D01*
X004760Y023197D01*
X004760Y023512D02*
X004655Y023617D01*
X004550Y023617D01*
X004445Y023512D01*
X004445Y023197D01*
X005075Y023197D01*
M02*
