G75*
G70*
%OFA0B0*%
%FSLAX24Y24*%
%IPPOS*%
%LPD*%
%AMOC8*
5,1,8,0,0,1.08239X$1,22.5*
%
%ADD10R,0.0315X0.0197*%
%ADD11R,0.0315X0.1122*%
%ADD12R,0.0315X0.0866*%
%ADD13R,0.0395X0.0552*%
%ADD14R,0.0630X0.0217*%
%ADD15R,0.0277X0.1064*%
%ADD16R,0.0867X0.1064*%
%ADD17C,0.0161*%
%ADD18R,0.0513X0.0474*%
%ADD19R,0.0631X0.0552*%
%ADD20R,0.0300X0.0580*%
%ADD21R,0.0580X0.0300*%
%ADD22R,0.0680X0.0380*%
%ADD23R,0.0474X0.0513*%
%ADD24R,0.0552X0.0395*%
%ADD25OC8,0.0820*%
%ADD26R,0.1419X0.0828*%
%ADD27R,0.0946X0.0316*%
%ADD28R,0.0390X0.0430*%
%ADD29C,0.1780*%
%ADD30R,0.1025X0.1025*%
%ADD31OC8,0.0640*%
%ADD32OC8,0.0965*%
%ADD33C,0.0965*%
%ADD34R,0.0560X0.0960*%
%ADD35R,0.1497X0.0946*%
%ADD36R,0.0540X0.0710*%
%ADD37R,0.0060X0.0720*%
%ADD38R,0.0631X0.0946*%
%ADD39R,0.0867X0.0671*%
%ADD40R,0.0710X0.1655*%
%ADD41OC8,0.0674*%
%ADD42R,0.0848X0.0848*%
%ADD43C,0.0476*%
%ADD44C,0.0437*%
D10*
X005063Y014844D03*
X005063Y014844D03*
X005063Y015159D03*
X005063Y015159D03*
X005063Y015474D03*
X005063Y015474D03*
X005063Y015789D03*
X005063Y015789D03*
X005063Y016104D03*
X005063Y016104D03*
X005063Y016419D03*
X005063Y016419D03*
X005063Y017994D03*
X005063Y017994D03*
X005063Y018309D03*
X005063Y018309D03*
X005063Y018624D03*
X005063Y018624D03*
X005063Y018939D03*
X005063Y018939D03*
X005063Y019254D03*
X005063Y019254D03*
X005063Y019569D03*
X005063Y019569D03*
X007957Y019569D03*
X007957Y019254D03*
X007957Y018939D03*
X007957Y018624D03*
X007957Y018309D03*
X007957Y017994D03*
X007957Y017679D03*
X007957Y016419D03*
X007957Y016104D03*
X007957Y015789D03*
X007957Y015474D03*
X007957Y015159D03*
X007957Y014844D03*
D11*
X005063Y017206D03*
D12*
X007957Y017049D03*
D13*
X005065Y014356D03*
X005065Y013756D03*
X004356Y013756D03*
X004356Y014356D03*
X012236Y018206D03*
X012945Y018206D03*
X013376Y018206D03*
X014085Y018206D03*
D14*
X014021Y008770D03*
X014021Y008514D03*
X014021Y008258D03*
X014021Y008002D03*
X014021Y007746D03*
X014021Y007490D03*
X014021Y007234D03*
X014021Y006978D03*
X014021Y006722D03*
X014021Y006467D03*
X014021Y006211D03*
X014021Y005955D03*
X014021Y005699D03*
X014021Y005443D03*
X016900Y005443D03*
X016900Y005699D03*
X016900Y005955D03*
X016900Y006211D03*
X016900Y006467D03*
X016900Y006722D03*
X016900Y006978D03*
X016900Y007234D03*
X016900Y007490D03*
X016900Y007746D03*
X016900Y008002D03*
X016900Y008258D03*
X016900Y008514D03*
X016900Y008770D03*
D15*
X016190Y003791D03*
X015875Y003791D03*
X015560Y003791D03*
X015245Y003791D03*
X014930Y003791D03*
D16*
X013789Y003791D03*
X013789Y001625D03*
X017332Y001625D03*
X017332Y003791D03*
D17*
X016288Y002806D02*
X016290Y002829D01*
X016296Y002852D01*
X016306Y002873D01*
X016319Y002893D01*
X016335Y002910D01*
X016354Y002924D01*
X016375Y002934D01*
X016397Y002941D01*
X016420Y002944D01*
X016444Y002943D01*
X016466Y002938D01*
X016488Y002929D01*
X016508Y002917D01*
X016526Y002901D01*
X016540Y002883D01*
X016552Y002863D01*
X016560Y002841D01*
X016564Y002818D01*
X016564Y002794D01*
X016560Y002771D01*
X016552Y002749D01*
X016540Y002729D01*
X016526Y002711D01*
X016508Y002695D01*
X016488Y002683D01*
X016466Y002674D01*
X016444Y002669D01*
X016420Y002668D01*
X016397Y002671D01*
X016375Y002678D01*
X016354Y002688D01*
X016335Y002702D01*
X016319Y002719D01*
X016306Y002739D01*
X016296Y002760D01*
X016290Y002783D01*
X016288Y002806D01*
X014556Y002806D02*
X014558Y002829D01*
X014564Y002852D01*
X014574Y002873D01*
X014587Y002893D01*
X014603Y002910D01*
X014622Y002924D01*
X014643Y002934D01*
X014665Y002941D01*
X014688Y002944D01*
X014712Y002943D01*
X014734Y002938D01*
X014756Y002929D01*
X014776Y002917D01*
X014794Y002901D01*
X014808Y002883D01*
X014820Y002863D01*
X014828Y002841D01*
X014832Y002818D01*
X014832Y002794D01*
X014828Y002771D01*
X014820Y002749D01*
X014808Y002729D01*
X014794Y002711D01*
X014776Y002695D01*
X014756Y002683D01*
X014734Y002674D01*
X014712Y002669D01*
X014688Y002668D01*
X014665Y002671D01*
X014643Y002678D01*
X014622Y002688D01*
X014603Y002702D01*
X014587Y002719D01*
X014574Y002739D01*
X014564Y002760D01*
X014558Y002783D01*
X014556Y002806D01*
D18*
X012445Y008006D03*
X011776Y008006D03*
X015426Y011856D03*
X016095Y011856D03*
D19*
X016060Y010847D03*
X016060Y009666D03*
X014810Y009666D03*
X014810Y010847D03*
X001460Y010497D03*
X001460Y009316D03*
D20*
X008458Y010266D03*
X008773Y010266D03*
X009088Y010266D03*
X009403Y010266D03*
X009718Y010266D03*
X010033Y010266D03*
X010348Y010266D03*
X010663Y010266D03*
X010663Y013646D03*
X010348Y013646D03*
X010033Y013646D03*
X009718Y013646D03*
X009403Y013646D03*
X009088Y013646D03*
X008773Y013646D03*
X008458Y013646D03*
D21*
X007870Y013059D03*
X007870Y012744D03*
X007870Y012429D03*
X007870Y012114D03*
X007870Y011799D03*
X007870Y011484D03*
X007870Y011169D03*
X007870Y010854D03*
X011250Y010854D03*
X011250Y011169D03*
X011250Y011484D03*
X011250Y011799D03*
X011250Y012114D03*
X011250Y012429D03*
X011250Y012744D03*
X011250Y013059D03*
D22*
X006730Y013156D03*
X006730Y011656D03*
X004730Y011656D03*
X004730Y013156D03*
D23*
X001460Y011991D03*
X001460Y011322D03*
X011060Y009491D03*
X011060Y008822D03*
X012010Y008822D03*
X012010Y009491D03*
X013050Y009501D03*
X013050Y008832D03*
D24*
X011560Y006061D03*
X010860Y006061D03*
X010860Y005352D03*
X011560Y005352D03*
X009360Y003311D03*
X009360Y002602D03*
X009410Y008752D03*
X009410Y009461D03*
X008660Y009461D03*
X008660Y008752D03*
X016160Y013702D03*
X016160Y014411D03*
D25*
X003560Y014056D03*
X003560Y013056D03*
X003560Y012056D03*
X002560Y012056D03*
X002560Y013056D03*
X002560Y014056D03*
D26*
X012810Y007174D03*
X012810Y005639D03*
D27*
X012284Y004856D03*
X012284Y004356D03*
X012284Y003856D03*
X012284Y003356D03*
X010237Y003356D03*
X010237Y003856D03*
X010237Y004356D03*
X010237Y004856D03*
D28*
X010080Y005256D03*
X009700Y006056D03*
X009320Y005256D03*
X010840Y002856D03*
X011600Y002856D03*
X011220Y002056D03*
D29*
X002730Y003538D03*
X004581Y004719D03*
X002730Y005900D03*
D30*
X002744Y008306D03*
X002694Y010506D03*
X004426Y010506D03*
X004476Y008306D03*
D31*
X002910Y017806D03*
X002910Y018806D03*
X002910Y019806D03*
X002910Y020806D03*
X002910Y021806D03*
X001910Y021806D03*
X001910Y020806D03*
X001910Y019806D03*
X001910Y018806D03*
X001910Y017806D03*
X006410Y021606D03*
X006410Y022606D03*
X007410Y022606D03*
X007410Y021606D03*
X008410Y021606D03*
X008410Y022606D03*
X009410Y022606D03*
X009410Y021606D03*
X010410Y021606D03*
X010410Y022606D03*
D32*
X013200Y023326D03*
X016150Y023536D03*
X017430Y021686D03*
D33*
X014890Y020666D03*
X014340Y019676D03*
D34*
X008270Y004826D03*
X007360Y004826D03*
X006450Y004826D03*
D35*
X007360Y002386D03*
D36*
X012460Y014406D03*
X013060Y014406D03*
D37*
X012760Y014406D03*
D38*
X010360Y008086D03*
X010360Y006826D03*
X008460Y007236D03*
X008460Y005976D03*
X006460Y005976D03*
X006460Y007236D03*
X006460Y008426D03*
X006460Y009686D03*
D39*
X012799Y016956D03*
X013822Y016956D03*
X013849Y014456D03*
X014872Y014456D03*
D40*
X010310Y015759D03*
X010310Y018554D03*
D41*
X014960Y017641D03*
X014960Y015672D03*
D42*
X017323Y014629D03*
X017323Y018684D03*
D43*
X014560Y018206D03*
X013910Y015306D03*
X012860Y015256D03*
X011660Y016256D03*
X011760Y018106D03*
X008760Y014336D03*
X007890Y014426D03*
X007210Y014006D03*
X005610Y014806D03*
X004610Y015456D03*
X004610Y015956D03*
X004560Y014906D03*
X005760Y012906D03*
X004210Y012006D03*
X005760Y010806D03*
X007810Y007906D03*
X007810Y007156D03*
X009660Y007406D03*
X010160Y006056D03*
X011210Y006606D03*
X012820Y006486D03*
X013440Y008406D03*
X013810Y010406D03*
X014200Y010856D03*
X012995Y010566D03*
X011110Y010036D03*
X010210Y009606D03*
X008120Y009396D03*
X005660Y005956D03*
X010510Y002356D03*
X013060Y003856D03*
X015210Y005956D03*
X016270Y006456D03*
X016660Y010856D03*
X016610Y011856D03*
X016710Y013706D03*
X015160Y013056D03*
X010360Y013106D03*
X008160Y019956D03*
X002410Y015556D03*
D44*
X002010Y014906D03*
X001010Y012706D03*
X004560Y017306D03*
X005740Y018256D03*
X005670Y019356D03*
X005310Y020356D03*
X004610Y021806D03*
X004610Y023106D03*
X007210Y020606D03*
X008460Y018806D03*
X008410Y018356D03*
X008560Y017306D03*
X007260Y016606D03*
X006890Y017606D03*
X008650Y015806D03*
X008850Y014816D03*
X007400Y013576D03*
X006890Y014366D03*
X006910Y014856D03*
X006280Y014186D03*
X006145Y012406D03*
X006460Y012086D03*
X006710Y010806D03*
X007210Y010306D03*
X007650Y010386D03*
X008435Y011156D03*
X008360Y012706D03*
X009010Y012906D03*
X009460Y012881D03*
X009910Y012956D03*
X010685Y012031D03*
X011960Y013056D03*
X011510Y013856D03*
X011060Y013656D03*
X011460Y015106D03*
X014160Y013856D03*
X011985Y011906D03*
X012135Y011481D03*
X011710Y009996D03*
X012590Y009066D03*
X014860Y007156D03*
X017010Y009956D03*
X016310Y015856D03*
X016310Y017206D03*
X016410Y020206D03*
X011510Y019806D03*
X004560Y018906D03*
X009660Y008256D03*
X005460Y007356D03*
X005310Y003606D03*
X012810Y002656D03*
M02*
