G75*
G70*
%OFA0B0*%
%FSLAX24Y24*%
%IPPOS*%
%LPD*%
%AMOC8*
5,1,8,0,0,1.08239X$1,22.5*
%
%ADD10R,0.0276X0.0157*%
%ADD11R,0.0276X0.0827*%
%ADD12R,0.0276X0.1083*%
%ADD13R,0.0315X0.0472*%
%ADD14R,0.0550X0.0137*%
%ADD15R,0.0197X0.0984*%
%ADD16R,0.0787X0.0984*%
%ADD17C,0.0554*%
%ADD18R,0.0433X0.0394*%
%ADD19R,0.0551X0.0472*%
%ADD20R,0.0220X0.0500*%
%ADD21R,0.0500X0.0220*%
%ADD22R,0.0600X0.0300*%
%ADD23R,0.0394X0.0433*%
%ADD24R,0.0472X0.0315*%
%ADD25OC8,0.0740*%
%ADD26R,0.1339X0.0748*%
%ADD27R,0.0866X0.0236*%
%ADD28R,0.0310X0.0350*%
%ADD29C,0.1700*%
%ADD30R,0.0945X0.0945*%
%ADD31OC8,0.0560*%
%ADD32OC8,0.0885*%
%ADD33C,0.0885*%
%ADD34R,0.0480X0.0880*%
%ADD35R,0.1417X0.0866*%
%ADD36R,0.0460X0.0630*%
%ADD37R,0.0551X0.0866*%
%ADD38R,0.0787X0.0591*%
%ADD39R,0.0630X0.1575*%
%ADD40OC8,0.0594*%
%ADD41R,0.0768X0.0768*%
%ADD42C,0.0160*%
%ADD43C,0.0240*%
%ADD44C,0.0120*%
%ADD45C,0.0396*%
%ADD46C,0.0100*%
%ADD47C,0.0357*%
%ADD48C,0.0320*%
D10*
X005063Y014844D03*
X005063Y015159D03*
X005063Y015474D03*
X005063Y015789D03*
X005063Y016104D03*
X005063Y016419D03*
X005063Y017994D03*
X005063Y018309D03*
X005063Y018624D03*
X005063Y018939D03*
X005063Y019254D03*
X005063Y019569D03*
X007957Y019569D03*
X007957Y019254D03*
X007957Y018939D03*
X007957Y018624D03*
X007957Y018309D03*
X007957Y017994D03*
X007957Y017679D03*
X007957Y016419D03*
X007957Y016104D03*
X007957Y015789D03*
X007957Y015474D03*
X007957Y015159D03*
X007957Y014844D03*
D11*
X007957Y017049D03*
D12*
X005063Y017206D03*
D13*
X005065Y014356D03*
X005065Y013756D03*
X004356Y013756D03*
X004356Y014356D03*
X012236Y018206D03*
X012945Y018206D03*
X013376Y018206D03*
X014085Y018206D03*
D14*
X014021Y008770D03*
X014021Y008514D03*
X014021Y008258D03*
X014021Y008002D03*
X014021Y007746D03*
X014021Y007490D03*
X014021Y007234D03*
X014021Y006978D03*
X014021Y006722D03*
X014021Y006467D03*
X014021Y006211D03*
X014021Y005955D03*
X014021Y005699D03*
X014021Y005443D03*
X016900Y005443D03*
X016900Y005699D03*
X016900Y005955D03*
X016900Y006211D03*
X016900Y006467D03*
X016900Y006722D03*
X016900Y006978D03*
X016900Y007234D03*
X016900Y007490D03*
X016900Y007746D03*
X016900Y008002D03*
X016900Y008258D03*
X016900Y008514D03*
X016900Y008770D03*
D15*
X016190Y003791D03*
X015875Y003791D03*
X015560Y003791D03*
X015245Y003791D03*
X014930Y003791D03*
D16*
X013789Y003791D03*
X013789Y001625D03*
X017332Y001625D03*
X017332Y003791D03*
D17*
X016426Y002806D03*
X014694Y002806D03*
D18*
X012445Y008006D03*
X011776Y008006D03*
X015426Y011856D03*
X016095Y011856D03*
D19*
X016060Y010847D03*
X016060Y009666D03*
X014810Y009666D03*
X014810Y010847D03*
X001460Y010497D03*
X001460Y009316D03*
D20*
X008458Y010266D03*
X008773Y010266D03*
X009088Y010266D03*
X009403Y010266D03*
X009718Y010266D03*
X010033Y010266D03*
X010348Y010266D03*
X010663Y010266D03*
X010663Y013646D03*
X010348Y013646D03*
X010033Y013646D03*
X009718Y013646D03*
X009403Y013646D03*
X009088Y013646D03*
X008773Y013646D03*
X008458Y013646D03*
D21*
X007870Y013059D03*
X007870Y012744D03*
X007870Y012429D03*
X007870Y012114D03*
X007870Y011799D03*
X007870Y011484D03*
X007870Y011169D03*
X007870Y010854D03*
X011250Y010854D03*
X011250Y011169D03*
X011250Y011484D03*
X011250Y011799D03*
X011250Y012114D03*
X011250Y012429D03*
X011250Y012744D03*
X011250Y013059D03*
D22*
X006730Y013156D03*
X006730Y011656D03*
X004730Y011656D03*
X004730Y013156D03*
D23*
X001460Y011991D03*
X001460Y011322D03*
X011060Y009491D03*
X011060Y008822D03*
X012010Y008822D03*
X012010Y009491D03*
X013050Y009501D03*
X013050Y008832D03*
D24*
X011560Y006061D03*
X010860Y006061D03*
X010860Y005352D03*
X011560Y005352D03*
X009360Y003311D03*
X009360Y002602D03*
X009410Y008752D03*
X009410Y009461D03*
X008660Y009461D03*
X008660Y008752D03*
X016160Y013702D03*
X016160Y014411D03*
D25*
X003560Y014056D03*
X003560Y013056D03*
X003560Y012056D03*
X002560Y012056D03*
X002560Y013056D03*
X002560Y014056D03*
D26*
X012810Y007174D03*
X012810Y005639D03*
D27*
X012284Y004856D03*
X012284Y004356D03*
X012284Y003856D03*
X012284Y003356D03*
X010237Y003356D03*
X010237Y003856D03*
X010237Y004356D03*
X010237Y004856D03*
D28*
X010080Y005256D03*
X009700Y006056D03*
X009320Y005256D03*
X010840Y002856D03*
X011600Y002856D03*
X011220Y002056D03*
D29*
X004581Y004719D03*
X002730Y005900D03*
X002730Y003538D03*
D30*
X002744Y008306D03*
X002694Y010506D03*
X004426Y010506D03*
X004476Y008306D03*
D31*
X002910Y017806D03*
X002910Y018806D03*
X002910Y019806D03*
X002910Y020806D03*
X002910Y021806D03*
X001910Y021806D03*
X001910Y020806D03*
X001910Y019806D03*
X001910Y018806D03*
X001910Y017806D03*
X006410Y021606D03*
X006410Y022606D03*
X007410Y022606D03*
X007410Y021606D03*
X008410Y021606D03*
X008410Y022606D03*
X009410Y022606D03*
X009410Y021606D03*
X010410Y021606D03*
X010410Y022606D03*
D32*
X013200Y023326D03*
X016150Y023536D03*
X017430Y021686D03*
D33*
X014890Y020666D03*
X014340Y019676D03*
D34*
X008270Y004826D03*
X007360Y004826D03*
X006450Y004826D03*
D35*
X007360Y002386D03*
D36*
X012460Y014406D03*
X013060Y014406D03*
D37*
X010360Y008086D03*
X010360Y006826D03*
X008460Y007236D03*
X008460Y005976D03*
X006460Y005976D03*
X006460Y007236D03*
X006460Y008426D03*
X006460Y009686D03*
D38*
X012799Y016956D03*
X013822Y016956D03*
X013849Y014456D03*
X014872Y014456D03*
D39*
X010310Y015759D03*
X010310Y018554D03*
D40*
X014960Y017641D03*
X014960Y015672D03*
D41*
X017323Y014629D03*
X017323Y018684D03*
D42*
X014960Y015672D02*
X013849Y014560D01*
X013849Y014456D01*
X013910Y015306D02*
X014410Y015656D01*
X014410Y017556D01*
X014085Y017852D01*
X014085Y018206D01*
X014560Y018206D01*
X013822Y016956D02*
X013822Y015868D01*
X012860Y015256D01*
X011660Y016256D02*
X010460Y016256D01*
X010360Y016356D01*
X010360Y015809D01*
X010310Y015759D01*
X009610Y014756D02*
X009610Y019256D01*
X010860Y020506D01*
X010860Y022806D01*
X010610Y023056D01*
X009860Y023056D01*
X009410Y022606D01*
X009910Y022106D02*
X010410Y022606D01*
X009910Y022106D02*
X009910Y020406D01*
X009010Y019506D01*
X009010Y016806D01*
X008623Y016419D01*
X007957Y016419D01*
X009340Y015826D02*
X008358Y014844D01*
X007957Y014844D01*
X009340Y015826D02*
X009310Y019356D01*
X010410Y020456D01*
X010410Y021606D01*
X008410Y022506D02*
X007910Y022006D01*
X007910Y020206D01*
X008160Y019956D01*
X006410Y021606D02*
X005460Y022556D01*
X001960Y022556D01*
X001010Y021606D01*
X001010Y016806D01*
X001460Y016356D01*
X002910Y017806D01*
X003260Y018256D02*
X001610Y018256D01*
X001360Y018506D01*
X001360Y021256D01*
X001910Y021806D01*
X002910Y021806D02*
X005063Y019653D01*
X005063Y019569D01*
X005063Y017994D02*
X003523Y017994D01*
X003260Y018256D01*
X001460Y016356D02*
X001460Y012006D01*
X001510Y011956D01*
X002460Y011956D01*
X002560Y012056D01*
X002560Y011991D01*
X001460Y011991D01*
X001460Y011322D02*
X001460Y010497D01*
X004610Y015456D02*
X005046Y015456D01*
X005063Y015474D01*
X004650Y015856D02*
X004610Y015956D01*
X009110Y010289D02*
X009088Y010266D01*
X008660Y009461D02*
X008606Y009406D01*
X008120Y009396D01*
X009110Y007906D02*
X009160Y007856D01*
X009860Y006806D02*
X010340Y006806D01*
X010360Y006826D01*
X010360Y006906D01*
X010510Y007056D01*
X012610Y007056D01*
X012693Y007056D01*
X012810Y007174D01*
X011510Y006306D02*
X011510Y006111D01*
X011560Y006061D01*
X011510Y006306D02*
X011210Y006606D01*
X010860Y005352D02*
X011560Y005352D01*
X011560Y004506D01*
X011710Y004356D01*
X012284Y004356D01*
X012284Y003356D02*
X011710Y003356D01*
X011600Y003246D01*
X011600Y002856D01*
X010840Y002856D02*
X010840Y003276D01*
X010760Y003356D01*
X010237Y003356D01*
X009510Y003356D01*
X009465Y003311D01*
X009360Y003311D01*
X008006Y003311D01*
X007360Y003956D01*
X007360Y004826D01*
X006450Y004826D02*
X006450Y005966D01*
X006460Y005976D01*
X009160Y005656D02*
X009710Y005656D01*
X010080Y005286D01*
X010080Y005256D01*
X010160Y006056D02*
X009700Y006056D01*
X009700Y006646D01*
X009860Y006806D01*
X009320Y005256D02*
X009310Y005246D01*
X009310Y004106D01*
X009560Y003856D01*
X010237Y003856D01*
X010510Y002356D02*
X010810Y002056D01*
X011220Y002056D01*
X011400Y013046D02*
X011250Y013059D01*
X010348Y013646D02*
X010348Y014019D01*
X009610Y014756D01*
X011760Y018106D02*
X012156Y018106D01*
X012236Y018206D01*
X012945Y018206D02*
X013376Y018206D01*
X014872Y014456D02*
X014818Y014411D01*
X016160Y014411D01*
X008410Y022506D02*
X008410Y022606D01*
D43*
X010310Y018956D02*
X010310Y018554D01*
X010310Y018956D02*
X012810Y018956D01*
X013510Y019656D01*
X013530Y019676D01*
X014340Y019676D01*
X013510Y019656D02*
X013510Y020896D01*
X016150Y023536D01*
X005760Y013856D02*
X005760Y012906D01*
X005760Y013856D02*
X005460Y014156D01*
X005260Y014356D01*
X005065Y014356D01*
X005065Y014843D01*
X005063Y014844D01*
X005065Y014356D02*
X005065Y013756D01*
X005760Y010806D02*
X005760Y010506D01*
X006460Y009686D02*
X006490Y009656D01*
X006810Y009656D01*
X008560Y007906D01*
X009110Y007906D01*
X009160Y007856D02*
X009160Y005656D01*
X008460Y005976D02*
X007440Y005976D01*
X007360Y006056D01*
X007360Y007456D01*
X007810Y007906D01*
X007360Y006056D02*
X007360Y004826D01*
X012810Y005639D02*
X013693Y004756D01*
X014510Y004756D01*
X014930Y004336D01*
X014930Y003791D01*
D44*
X015245Y003791D02*
X015245Y005041D01*
X015910Y005706D01*
X016892Y005706D01*
X016900Y005699D01*
X016886Y005456D02*
X016900Y005443D01*
X016886Y005456D02*
X016060Y005456D01*
X015560Y004956D01*
X015560Y003791D01*
X015210Y005956D02*
X016901Y005956D01*
X016900Y005955D01*
X016900Y006722D02*
X016626Y006722D01*
X016270Y006456D01*
X014815Y008002D01*
X014021Y008002D01*
X014021Y007746D02*
X013371Y007746D01*
X012760Y008356D01*
X011476Y008356D01*
X011060Y008822D01*
X010060Y010239D02*
X010033Y010266D01*
X009410Y010259D02*
X009410Y009816D01*
X009410Y009461D01*
X009410Y010259D02*
X009403Y010266D01*
X008773Y010266D02*
X008760Y010254D01*
X008760Y009556D01*
X008665Y009461D01*
X008660Y009461D01*
X007650Y010386D02*
X006860Y011156D01*
X003680Y011156D01*
X004210Y011356D02*
X003560Y012006D01*
X003560Y012056D01*
X003060Y012606D02*
X003510Y013056D01*
X003560Y013056D01*
X003810Y013556D02*
X004210Y013156D01*
X004210Y012556D01*
X004360Y012406D01*
X006145Y012406D01*
X006730Y011656D02*
X004730Y011656D01*
X004560Y011656D01*
X004210Y012006D01*
X004210Y011356D02*
X006960Y011356D01*
X007520Y010856D01*
X007868Y010856D01*
X007870Y010854D01*
X007858Y011156D02*
X007870Y011169D01*
X007883Y011156D01*
X008435Y011156D01*
X007870Y012114D02*
X007653Y012114D01*
X007908Y012706D02*
X007870Y012744D01*
X007870Y013059D02*
X007860Y013069D01*
X007860Y013956D01*
X007310Y014356D01*
X006890Y014366D01*
X006910Y015606D02*
X005460Y014156D01*
X005610Y014806D02*
X005740Y014856D01*
X005740Y018256D01*
X006910Y017126D02*
X006910Y015606D01*
X006910Y017126D02*
X007658Y017884D01*
X007658Y018309D01*
X007460Y018506D01*
X007460Y019106D01*
X007610Y019256D01*
X007954Y019256D01*
X007957Y019254D01*
X007957Y019569D01*
X007957Y018309D02*
X007658Y018309D01*
X005096Y015806D02*
X005063Y015789D01*
X005096Y015806D02*
X004630Y015806D01*
X005063Y015159D02*
X005063Y014844D01*
X004560Y014906D02*
X003060Y014906D01*
X002410Y015556D01*
X003160Y013556D02*
X002660Y013056D01*
X002560Y013056D01*
X008420Y013646D02*
X008458Y013646D01*
X008760Y013659D02*
X008760Y014336D01*
X008760Y013659D02*
X008773Y013646D01*
X010663Y013646D02*
X010710Y013599D01*
X011263Y012756D02*
X011250Y012744D01*
X011985Y011906D02*
X011538Y011484D01*
X011250Y011484D01*
X011250Y011169D02*
X011263Y011156D01*
X011660Y011156D01*
X011935Y011481D01*
X012135Y011481D01*
X013810Y012456D02*
X013810Y010406D01*
X014200Y010856D02*
X014270Y010847D01*
X014810Y010847D01*
X014810Y009666D02*
X014810Y008506D01*
X016082Y007234D01*
X016900Y007234D01*
X016900Y007490D02*
X016376Y007490D01*
X016060Y007806D01*
X016060Y009666D01*
X016060Y010847D02*
X016601Y010847D01*
X016660Y010856D01*
X016610Y011856D02*
X016095Y011856D01*
X015160Y013056D02*
X014410Y013056D01*
X013810Y012456D01*
X016160Y013702D02*
X016706Y013702D01*
X016710Y013706D01*
X013050Y008832D02*
X012962Y008770D01*
X014021Y008770D01*
X014021Y008514D02*
X013568Y008514D01*
X013440Y008406D01*
X012445Y008006D02*
X012445Y007222D01*
X012610Y007056D01*
X012810Y007174D02*
X012820Y006486D01*
X011210Y004306D02*
X010287Y004306D01*
X010237Y004356D01*
X011210Y004306D02*
X011660Y003856D01*
X012284Y003856D01*
X013060Y003856D01*
D45*
X013060Y003856D03*
X012820Y006486D03*
X013440Y008406D03*
X013810Y010406D03*
X014200Y010856D03*
X012995Y010566D03*
X011110Y010036D03*
X010210Y009606D03*
X009660Y007406D03*
X010160Y006056D03*
X011210Y006606D03*
X008120Y009396D03*
X007810Y007906D03*
X007810Y007156D03*
X005660Y005956D03*
X005760Y010806D03*
X004210Y012006D03*
X005760Y012906D03*
X007210Y014006D03*
X007890Y014426D03*
X008760Y014336D03*
X010360Y013106D03*
X011660Y016256D03*
X012860Y015256D03*
X013910Y015306D03*
X015160Y013056D03*
X016710Y013706D03*
X016610Y011856D03*
X016660Y010856D03*
X016270Y006456D03*
X015210Y005956D03*
X010510Y002356D03*
X005610Y014806D03*
X004610Y015456D03*
X004610Y015956D03*
X004560Y014906D03*
X002410Y015556D03*
X008160Y019956D03*
X011760Y018106D03*
X014560Y018206D03*
D46*
X000710Y001656D02*
X000960Y001406D01*
X013265Y001406D01*
X013265Y002171D01*
X013341Y002247D01*
X014236Y002247D01*
X014312Y002171D01*
X014312Y001406D01*
X016808Y001406D01*
X016808Y002171D01*
X016884Y002247D01*
X017779Y002247D01*
X017856Y002171D01*
X017856Y001452D01*
X018010Y001606D01*
X018010Y013156D01*
X017910Y013356D01*
X015293Y013356D01*
X015346Y013334D01*
X015438Y013242D01*
X015488Y013122D01*
X015488Y012991D01*
X015438Y012870D01*
X015346Y012778D01*
X015226Y012728D01*
X015095Y012728D01*
X014974Y012778D01*
X014886Y012866D01*
X014489Y012866D01*
X014000Y012378D01*
X014000Y011120D01*
X014014Y011134D01*
X014135Y011184D01*
X014266Y011184D01*
X014386Y011134D01*
X014405Y011116D01*
X014405Y011137D01*
X014481Y011213D01*
X015140Y011213D01*
X015216Y011137D01*
X015216Y010557D01*
X015140Y010481D01*
X014481Y010481D01*
X014405Y010557D01*
X014405Y010597D01*
X014386Y010578D01*
X014266Y010528D01*
X014135Y010528D01*
X014111Y010538D01*
X014138Y010472D01*
X014138Y010341D01*
X014088Y010220D01*
X013996Y010128D01*
X013876Y010078D01*
X013745Y010078D01*
X013624Y010128D01*
X013532Y010220D01*
X013482Y010341D01*
X013482Y010472D01*
X013532Y010592D01*
X013620Y010680D01*
X013620Y012378D01*
X013620Y012535D01*
X014220Y013135D01*
X014332Y013246D01*
X014886Y013246D01*
X014974Y013334D01*
X015027Y013356D01*
X012910Y013356D01*
X012564Y013941D01*
X012510Y013941D01*
X012510Y014031D01*
X012410Y014200D01*
X012410Y013941D01*
X012211Y013941D01*
X012172Y013952D01*
X012140Y013970D01*
X012140Y013962D01*
X012145Y013894D01*
X012140Y013889D01*
X012140Y013312D01*
X012222Y013231D01*
X012269Y013118D01*
X012269Y012995D01*
X012239Y012924D01*
X012347Y012924D01*
X013110Y012161D01*
X013165Y012107D01*
X013165Y012106D01*
X013165Y012106D01*
X013165Y012032D01*
X013173Y010848D01*
X013181Y010844D01*
X013273Y010752D01*
X013323Y010632D01*
X013323Y010501D01*
X013273Y010380D01*
X013181Y010288D01*
X013061Y010238D01*
X012930Y010238D01*
X012840Y010275D01*
X012840Y009914D01*
X012919Y009847D01*
X013301Y009847D01*
X013377Y009771D01*
X013377Y009231D01*
X013313Y009166D01*
X013377Y009102D01*
X013377Y008960D01*
X013684Y008960D01*
X013692Y008968D01*
X014350Y008968D01*
X014426Y008892D01*
X014426Y008647D01*
X014420Y008642D01*
X014426Y008636D01*
X014426Y008391D01*
X014420Y008386D01*
X014426Y008380D01*
X014426Y008192D01*
X014739Y008192D01*
X014742Y008194D01*
X014818Y008192D01*
X014856Y008192D01*
X014732Y008316D01*
X014732Y008316D01*
X014620Y008428D01*
X014620Y009300D01*
X014481Y009300D01*
X014405Y009376D01*
X014405Y009956D01*
X014481Y010032D01*
X015140Y010032D01*
X015216Y009956D01*
X015216Y009376D01*
X015140Y009300D01*
X015000Y009300D01*
X015000Y008585D01*
X016161Y007424D01*
X016174Y007424D01*
X015982Y007616D01*
X015870Y007728D01*
X015870Y009300D01*
X015731Y009300D01*
X015655Y009376D01*
X015655Y009956D01*
X015731Y010032D01*
X016390Y010032D01*
X016466Y009956D01*
X016466Y009376D01*
X016390Y009300D01*
X016250Y009300D01*
X016250Y007885D01*
X016455Y007680D01*
X016495Y007680D01*
X016495Y007859D01*
X016485Y007876D01*
X016475Y007914D01*
X016475Y008002D01*
X016899Y008002D01*
X016899Y008002D01*
X016475Y008002D01*
X016475Y008090D01*
X016485Y008128D01*
X016486Y008130D01*
X016485Y008131D01*
X016475Y008170D01*
X016475Y008258D01*
X016899Y008258D01*
X016899Y008258D01*
X016475Y008258D01*
X016475Y008346D01*
X016485Y008384D01*
X016495Y008401D01*
X016495Y008636D01*
X016500Y008642D01*
X016495Y008647D01*
X016495Y008892D01*
X016571Y008968D01*
X017229Y008968D01*
X017305Y008892D01*
X017305Y008647D01*
X017299Y008642D01*
X017305Y008636D01*
X017305Y008401D01*
X017314Y008384D01*
X017325Y008346D01*
X017325Y008258D01*
X016900Y008258D01*
X016900Y008258D01*
X017325Y008258D01*
X017325Y008170D01*
X017314Y008131D01*
X017314Y008130D01*
X017314Y008128D01*
X017325Y008090D01*
X017325Y008002D01*
X016900Y008002D01*
X016900Y008002D01*
X017325Y008002D01*
X017325Y007914D01*
X017314Y007876D01*
X017305Y007859D01*
X017305Y007624D01*
X017299Y007618D01*
X017305Y007612D01*
X017305Y007368D01*
X017299Y007362D01*
X017305Y007357D01*
X017305Y007122D01*
X017314Y007105D01*
X017325Y007067D01*
X017325Y006979D01*
X016900Y006979D01*
X016900Y006978D01*
X017325Y006978D01*
X017325Y006890D01*
X017314Y006852D01*
X017305Y006835D01*
X017305Y006600D01*
X017299Y006594D01*
X017305Y006589D01*
X017305Y006354D01*
X017314Y006337D01*
X017325Y006299D01*
X017325Y006211D01*
X016900Y006211D01*
X016900Y006210D01*
X017325Y006210D01*
X017325Y006122D01*
X017314Y006084D01*
X017305Y006067D01*
X017305Y005832D01*
X017299Y005827D01*
X017305Y005821D01*
X017305Y005576D01*
X017299Y005571D01*
X017305Y005565D01*
X017305Y005321D01*
X017229Y005244D01*
X016571Y005244D01*
X016549Y005266D01*
X016139Y005266D01*
X015750Y004878D01*
X015750Y004413D01*
X016017Y004413D01*
X016034Y004422D01*
X016072Y004433D01*
X016190Y004433D01*
X016190Y003791D01*
X016190Y003791D01*
X016190Y004433D01*
X016308Y004433D01*
X016347Y004422D01*
X016381Y004403D01*
X016409Y004375D01*
X016428Y004341D01*
X016439Y004302D01*
X016439Y003791D01*
X016191Y003791D01*
X016191Y003790D01*
X016439Y003790D01*
X016439Y003279D01*
X016428Y003241D01*
X016413Y003213D01*
X016507Y003213D01*
X016657Y003151D01*
X016772Y003037D01*
X016834Y002887D01*
X016834Y002725D01*
X016772Y002576D01*
X016657Y002461D01*
X016507Y002399D01*
X016345Y002399D01*
X016196Y002461D01*
X016081Y002576D01*
X016019Y002725D01*
X016019Y002887D01*
X016081Y003037D01*
X016193Y003148D01*
X016190Y003148D01*
X016190Y003790D01*
X016190Y003790D01*
X016190Y003148D01*
X016072Y003148D01*
X016034Y003159D01*
X016017Y003168D01*
X015723Y003168D01*
X015718Y003174D01*
X015713Y003168D01*
X015408Y003168D01*
X015403Y003174D01*
X015398Y003168D01*
X015093Y003168D01*
X015088Y003174D01*
X015083Y003168D01*
X014884Y003168D01*
X014925Y003151D01*
X015039Y003037D01*
X015101Y002887D01*
X015101Y002725D01*
X015039Y002576D01*
X014925Y002461D01*
X014775Y002399D01*
X014613Y002399D01*
X014464Y002461D01*
X014349Y002576D01*
X014287Y002725D01*
X014287Y002887D01*
X014349Y003037D01*
X014464Y003151D01*
X014613Y003213D01*
X014733Y003213D01*
X014702Y003245D01*
X014702Y003689D01*
X014680Y003741D01*
X014680Y004233D01*
X014407Y004506D01*
X013742Y004506D01*
X013643Y004506D01*
X013551Y004544D01*
X012961Y005135D01*
X012087Y005135D01*
X012011Y005211D01*
X012011Y006066D01*
X012087Y006143D01*
X013533Y006143D01*
X013610Y006066D01*
X013610Y005211D01*
X013601Y005202D01*
X013796Y005006D01*
X014560Y005006D01*
X014652Y004968D01*
X014722Y004898D01*
X015055Y004565D01*
X015055Y004963D01*
X015055Y005120D01*
X015702Y005766D01*
X015484Y005766D01*
X015396Y005678D01*
X015276Y005628D01*
X015145Y005628D01*
X015024Y005678D01*
X014932Y005770D01*
X014882Y005891D01*
X014882Y006022D01*
X014932Y006142D01*
X015024Y006234D01*
X015145Y006284D01*
X015276Y006284D01*
X015396Y006234D01*
X015484Y006146D01*
X016161Y006146D01*
X016084Y006178D01*
X015992Y006270D01*
X015942Y006391D01*
X015942Y006522D01*
X014426Y006522D01*
X014426Y006589D02*
X014420Y006594D01*
X014426Y006600D01*
X014426Y006845D01*
X014420Y006850D01*
X014426Y006856D01*
X014426Y007091D01*
X014436Y007108D01*
X014446Y007146D01*
X014446Y007234D01*
X014021Y007234D01*
X014021Y007234D01*
X014446Y007234D01*
X014446Y007322D01*
X014436Y007361D01*
X014426Y007378D01*
X014426Y007612D01*
X014420Y007618D01*
X014426Y007624D01*
X014426Y007812D01*
X014733Y007812D01*
X015944Y006526D01*
X015942Y006522D01*
X015942Y006423D02*
X014426Y006423D01*
X014426Y006344D02*
X014426Y006589D01*
X014426Y006620D02*
X015855Y006620D01*
X015762Y006719D02*
X014426Y006719D01*
X014426Y006817D02*
X015669Y006817D01*
X015576Y006916D02*
X014426Y006916D01*
X014426Y007015D02*
X015484Y007015D01*
X015391Y007113D02*
X014437Y007113D01*
X014446Y007212D02*
X015298Y007212D01*
X015205Y007310D02*
X014446Y007310D01*
X014426Y007409D02*
X015112Y007409D01*
X015020Y007507D02*
X014426Y007507D01*
X014426Y007606D02*
X014927Y007606D01*
X014834Y007704D02*
X014426Y007704D01*
X014426Y007803D02*
X014741Y007803D01*
X014851Y008197D02*
X014426Y008197D01*
X014426Y008296D02*
X014752Y008296D01*
X014654Y008394D02*
X014426Y008394D01*
X014426Y008493D02*
X014620Y008493D01*
X014620Y008591D02*
X014426Y008591D01*
X014426Y008690D02*
X014620Y008690D01*
X014620Y008788D02*
X014426Y008788D01*
X014426Y008887D02*
X014620Y008887D01*
X014620Y008985D02*
X013377Y008985D01*
X013377Y009084D02*
X014620Y009084D01*
X014620Y009182D02*
X013329Y009182D01*
X013377Y009281D02*
X014620Y009281D01*
X014405Y009380D02*
X013377Y009380D01*
X013377Y009478D02*
X014405Y009478D01*
X014405Y009577D02*
X013377Y009577D01*
X013377Y009675D02*
X014405Y009675D01*
X014405Y009774D02*
X013375Y009774D01*
X013050Y009501D02*
X012660Y009831D01*
X012660Y012056D01*
X012288Y012429D01*
X011250Y012429D01*
X011250Y012114D02*
X011668Y012114D01*
X011810Y012231D01*
X012160Y012231D01*
X012460Y011931D01*
X012460Y010206D01*
X012010Y009756D01*
X012010Y009491D01*
X012010Y009696D01*
X011710Y009996D01*
X011110Y010036D02*
X011110Y009541D01*
X011060Y009491D01*
X010845Y009837D02*
X010810Y009837D01*
X010733Y009761D01*
X010733Y009221D01*
X010798Y009156D01*
X010733Y009092D01*
X010733Y008634D01*
X010728Y008639D01*
X010694Y008659D01*
X010656Y008669D01*
X010410Y008669D01*
X010410Y008136D01*
X010310Y008136D01*
X010310Y008036D01*
X009935Y008036D01*
X009935Y007633D01*
X009945Y007595D01*
X009965Y007561D01*
X009993Y007533D01*
X010027Y007513D01*
X010065Y007503D01*
X010310Y007503D01*
X010310Y008036D01*
X010410Y008036D01*
X010410Y007503D01*
X010656Y007503D01*
X010694Y007513D01*
X010728Y007533D01*
X010756Y007561D01*
X010776Y007595D01*
X010786Y007633D01*
X010786Y008036D01*
X010410Y008036D01*
X010410Y008136D01*
X010786Y008136D01*
X010786Y008499D01*
X010810Y008475D01*
X011115Y008475D01*
X011286Y008284D01*
X011286Y008278D01*
X011338Y008226D01*
X011386Y008171D01*
X011393Y008171D01*
X011397Y008166D01*
X011409Y008166D01*
X011409Y008055D01*
X011727Y008055D01*
X011727Y007958D01*
X011409Y007958D01*
X011409Y007790D01*
X011419Y007752D01*
X011439Y007717D01*
X011467Y007689D01*
X011501Y007670D01*
X011539Y007659D01*
X011727Y007659D01*
X011727Y007958D01*
X011824Y007958D01*
X011824Y007659D01*
X012012Y007659D01*
X012050Y007670D01*
X012084Y007689D01*
X012112Y007717D01*
X012121Y007733D01*
X012175Y007679D01*
X012255Y007679D01*
X012255Y007678D01*
X012087Y007678D01*
X012011Y007602D01*
X012011Y007266D01*
X010766Y007266D01*
X010766Y007313D01*
X010690Y007389D01*
X010031Y007389D01*
X009955Y007313D01*
X009955Y007016D01*
X009773Y007016D01*
X009650Y006893D01*
X009490Y006733D01*
X009490Y006559D01*
X009490Y006360D01*
X009415Y006285D01*
X009415Y005866D01*
X009410Y005866D01*
X009410Y007906D01*
X009372Y007998D01*
X009302Y008068D01*
X009302Y008068D01*
X009252Y008118D01*
X009160Y008156D01*
X008664Y008156D01*
X008364Y008456D01*
X008366Y008455D01*
X008404Y008444D01*
X008631Y008444D01*
X008631Y008723D01*
X008274Y008723D01*
X008274Y008575D01*
X008284Y008537D01*
X008286Y008534D01*
X007022Y009798D01*
X006952Y009868D01*
X006866Y009904D01*
X006866Y010173D01*
X006790Y010249D01*
X006750Y010249D01*
X006750Y010399D01*
X006750Y010498D01*
X006764Y010498D01*
X006902Y010360D01*
X006902Y010245D01*
X006949Y010132D01*
X007036Y010045D01*
X007149Y009998D01*
X007272Y009998D01*
X007385Y010045D01*
X007470Y010130D01*
X007476Y010125D01*
X007589Y010078D01*
X007712Y010078D01*
X007726Y010084D01*
X007784Y010086D01*
X008218Y010086D01*
X008218Y009962D01*
X008294Y009886D01*
X008570Y009886D01*
X008570Y009748D01*
X008370Y009748D01*
X008299Y009677D01*
X008186Y009724D01*
X008055Y009724D01*
X007934Y009674D01*
X007842Y009582D01*
X007792Y009462D01*
X007792Y009331D01*
X007842Y009210D01*
X007934Y009118D01*
X008055Y009068D01*
X008186Y009068D01*
X008306Y009118D01*
X008366Y009178D01*
X008370Y009173D01*
X008950Y009173D01*
X009026Y009249D01*
X009026Y009666D01*
X009044Y009666D01*
X009044Y009249D01*
X009120Y009173D01*
X009700Y009173D01*
X009776Y009249D01*
X009776Y009672D01*
X009700Y009748D01*
X009600Y009748D01*
X009600Y009866D01*
X009713Y009866D01*
X009713Y010261D01*
X009723Y010261D01*
X009723Y009866D01*
X009848Y009866D01*
X009853Y009868D01*
X009853Y009709D01*
X009885Y009677D01*
X009882Y009672D01*
X009882Y009541D01*
X009932Y009420D01*
X010024Y009328D01*
X010145Y009278D01*
X010276Y009278D01*
X010396Y009328D01*
X010488Y009420D01*
X010538Y009541D01*
X010538Y009672D01*
X010488Y009792D01*
X010396Y009884D01*
X010391Y009886D01*
X010499Y009886D01*
X010817Y009886D01*
X010832Y009850D01*
X010845Y009837D01*
X010823Y009872D02*
X010408Y009872D01*
X010496Y009774D02*
X010746Y009774D01*
X010733Y009675D02*
X010537Y009675D01*
X010538Y009577D02*
X010733Y009577D01*
X010733Y009478D02*
X010512Y009478D01*
X010448Y009380D02*
X010733Y009380D01*
X010733Y009281D02*
X010282Y009281D01*
X010138Y009281D02*
X009776Y009281D01*
X009776Y009380D02*
X009973Y009380D01*
X009908Y009478D02*
X009776Y009478D01*
X009776Y009577D02*
X009882Y009577D01*
X009884Y009675D02*
X009773Y009675D01*
X009810Y009706D02*
X009718Y009799D01*
X009718Y010266D01*
X009723Y010272D02*
X009713Y010272D01*
X009713Y010666D01*
X009588Y010666D01*
X009550Y010656D01*
X009533Y010646D01*
X009290Y010646D01*
X009290Y010681D01*
X009190Y010781D01*
X009190Y012650D01*
X009223Y012683D01*
X009280Y012625D01*
X009280Y011471D01*
X009280Y011322D01*
X009956Y010646D01*
X009903Y010646D01*
X009886Y010656D01*
X009848Y010666D01*
X009723Y010666D01*
X009723Y010272D01*
X009713Y010365D02*
X009723Y010365D01*
X009713Y010464D02*
X009723Y010464D01*
X009713Y010562D02*
X009723Y010562D01*
X009713Y010661D02*
X009723Y010661D01*
X009869Y010661D02*
X009941Y010661D01*
X009843Y010759D02*
X009212Y010759D01*
X009190Y010858D02*
X009744Y010858D01*
X009646Y010956D02*
X009190Y010956D01*
X009190Y011055D02*
X009547Y011055D01*
X009449Y011153D02*
X009190Y011153D01*
X009190Y011252D02*
X009350Y011252D01*
X009280Y011350D02*
X009190Y011350D01*
X009190Y011449D02*
X009280Y011449D01*
X009280Y011548D02*
X009190Y011548D01*
X009190Y011646D02*
X009280Y011646D01*
X009280Y011745D02*
X009190Y011745D01*
X009190Y011843D02*
X009280Y011843D01*
X009280Y011942D02*
X009190Y011942D01*
X009190Y012040D02*
X009280Y012040D01*
X009280Y012139D02*
X009190Y012139D01*
X009190Y012237D02*
X009280Y012237D01*
X009280Y012336D02*
X009190Y012336D01*
X009190Y012434D02*
X009280Y012434D01*
X009280Y012533D02*
X009190Y012533D01*
X009190Y012631D02*
X009274Y012631D01*
X009460Y012881D02*
X009460Y011396D01*
X010350Y010506D01*
X010350Y010269D01*
X010348Y010266D01*
X010033Y010266D02*
X010033Y009784D01*
X010210Y009606D01*
X009853Y009774D02*
X009600Y009774D01*
X009713Y009872D02*
X009723Y009872D01*
X009713Y009971D02*
X009723Y009971D01*
X009713Y010069D02*
X009723Y010069D01*
X009713Y010168D02*
X009723Y010168D01*
X009810Y009706D02*
X009810Y008906D01*
X009660Y008756D01*
X009415Y008756D01*
X009410Y008752D01*
X009381Y008781D02*
X009381Y008723D01*
X009024Y008723D01*
X008689Y008723D01*
X008689Y008444D01*
X008916Y008444D01*
X008954Y008455D01*
X008989Y008474D01*
X009017Y008502D01*
X009035Y008535D01*
X009054Y008502D01*
X009082Y008474D01*
X009116Y008455D01*
X009154Y008444D01*
X009381Y008444D01*
X009381Y008723D01*
X009439Y008723D01*
X009439Y008444D01*
X009666Y008444D01*
X009704Y008455D01*
X009739Y008474D01*
X009767Y008502D01*
X009786Y008537D01*
X009796Y008575D01*
X009796Y008723D01*
X009439Y008723D01*
X009439Y008781D01*
X009381Y008781D01*
X009024Y008781D01*
X008689Y008781D01*
X008631Y008781D01*
X008631Y008723D01*
X008689Y008723D01*
X008689Y008781D01*
X008689Y009059D01*
X008916Y009059D01*
X008954Y009049D01*
X008989Y009029D01*
X009017Y009002D01*
X009035Y008969D01*
X009054Y009002D01*
X009082Y009029D01*
X009116Y009049D01*
X009154Y009059D01*
X009381Y009059D01*
X009381Y008781D01*
X009381Y008788D02*
X009439Y008788D01*
X009439Y008781D02*
X009439Y009059D01*
X009666Y009059D01*
X009704Y009049D01*
X009739Y009029D01*
X009767Y009002D01*
X009786Y008967D01*
X009796Y008929D01*
X009796Y008781D01*
X009439Y008781D01*
X009439Y008690D02*
X009381Y008690D01*
X009381Y008591D02*
X009439Y008591D01*
X009439Y008493D02*
X009381Y008493D01*
X009064Y008493D02*
X009007Y008493D01*
X009272Y008099D02*
X010310Y008099D01*
X010310Y008136D02*
X009935Y008136D01*
X009935Y008539D01*
X009945Y008577D01*
X009965Y008611D01*
X009993Y008639D01*
X010027Y008659D01*
X010065Y008669D01*
X010310Y008669D01*
X010310Y008136D01*
X010310Y008197D02*
X010410Y008197D01*
X010410Y008099D02*
X011409Y008099D01*
X011363Y008197D02*
X010786Y008197D01*
X010786Y008296D02*
X011275Y008296D01*
X011187Y008394D02*
X010786Y008394D01*
X010786Y008493D02*
X010792Y008493D01*
X010733Y008690D02*
X009796Y008690D01*
X009796Y008788D02*
X010733Y008788D01*
X010733Y008887D02*
X009796Y008887D01*
X009776Y008985D02*
X010733Y008985D01*
X010733Y009084D02*
X008224Y009084D01*
X008304Y009002D02*
X008284Y008967D01*
X008274Y008929D01*
X008274Y008781D01*
X008631Y008781D01*
X008631Y009059D01*
X008404Y009059D01*
X008366Y009049D01*
X008332Y009029D01*
X008304Y009002D01*
X008295Y008985D02*
X007835Y008985D01*
X007933Y008887D02*
X008274Y008887D01*
X008274Y008788D02*
X008032Y008788D01*
X008130Y008690D02*
X008274Y008690D01*
X008274Y008591D02*
X008229Y008591D01*
X008426Y008394D02*
X009935Y008394D01*
X009935Y008296D02*
X008524Y008296D01*
X008623Y008197D02*
X009935Y008197D01*
X009935Y008000D02*
X009370Y008000D01*
X009410Y007901D02*
X009935Y007901D01*
X009935Y007803D02*
X009410Y007803D01*
X009410Y007704D02*
X009935Y007704D01*
X009942Y007606D02*
X009410Y007606D01*
X009410Y007507D02*
X010050Y007507D01*
X009955Y007310D02*
X009410Y007310D01*
X009410Y007212D02*
X009955Y007212D01*
X009955Y007113D02*
X009410Y007113D01*
X009410Y007015D02*
X009772Y007015D01*
X009673Y006916D02*
X009410Y006916D01*
X009410Y006817D02*
X009574Y006817D01*
X009490Y006719D02*
X009410Y006719D01*
X009410Y006620D02*
X009490Y006620D01*
X009490Y006522D02*
X009410Y006522D01*
X009410Y006423D02*
X009490Y006423D01*
X009455Y006325D02*
X009410Y006325D01*
X009410Y006226D02*
X009415Y006226D01*
X009410Y006128D02*
X009415Y006128D01*
X009410Y006029D02*
X009415Y006029D01*
X009410Y005931D02*
X009415Y005931D01*
X009605Y005446D02*
X009623Y005446D01*
X009795Y005274D01*
X009795Y005104D01*
X009750Y005104D01*
X009674Y005028D01*
X009674Y004684D01*
X009750Y004608D01*
X010724Y004608D01*
X010800Y004684D01*
X010800Y005028D01*
X010763Y005064D01*
X011150Y005064D01*
X011210Y005124D01*
X011270Y005064D01*
X011350Y005064D01*
X011350Y004435D01*
X011289Y004496D01*
X010800Y004496D01*
X010800Y004528D01*
X010724Y004604D01*
X009750Y004604D01*
X009674Y004528D01*
X009674Y004184D01*
X009750Y004108D01*
X010724Y004108D01*
X010732Y004116D01*
X011132Y004116D01*
X011582Y003666D01*
X011739Y003666D01*
X011797Y003608D01*
X012771Y003608D01*
X012808Y003645D01*
X012874Y003578D01*
X012995Y003528D01*
X013126Y003528D01*
X013246Y003578D01*
X013265Y003597D01*
X013265Y003245D01*
X013341Y003168D01*
X014236Y003168D01*
X014312Y003245D01*
X014312Y004336D01*
X014236Y004413D01*
X013341Y004413D01*
X013265Y004336D01*
X013265Y004116D01*
X013246Y004134D01*
X013126Y004184D01*
X012995Y004184D01*
X012874Y004134D01*
X012808Y004068D01*
X012771Y004104D01*
X011797Y004104D01*
X011739Y004046D01*
X011639Y004146D01*
X011759Y004146D01*
X011797Y004108D01*
X012771Y004108D01*
X012847Y004184D01*
X012847Y004528D01*
X012776Y004599D01*
X012809Y004618D01*
X012837Y004646D01*
X012857Y004680D01*
X012867Y004718D01*
X012867Y004847D01*
X012293Y004847D01*
X012293Y004865D01*
X012867Y004865D01*
X012867Y004994D01*
X012857Y005032D01*
X012837Y005066D01*
X012809Y005094D01*
X012775Y005114D01*
X012737Y005124D01*
X012293Y005124D01*
X012293Y004866D01*
X012275Y004866D01*
X012275Y005124D01*
X011910Y005124D01*
X011926Y005141D01*
X011926Y005563D01*
X011850Y005639D01*
X011270Y005639D01*
X011210Y005579D01*
X011150Y005639D01*
X010570Y005639D01*
X010494Y005563D01*
X010494Y005368D01*
X010365Y005239D01*
X010365Y005485D01*
X010289Y005561D01*
X010102Y005561D01*
X009920Y005743D01*
X009911Y005753D01*
X009955Y005797D01*
X009974Y005778D01*
X010095Y005728D01*
X010226Y005728D01*
X010346Y005778D01*
X010438Y005870D01*
X010474Y005957D01*
X010474Y005883D01*
X010484Y005845D01*
X010504Y005811D01*
X010532Y005783D01*
X010566Y005763D01*
X010604Y005753D01*
X010831Y005753D01*
X010831Y006032D01*
X010889Y006032D01*
X010889Y005753D01*
X011116Y005753D01*
X011154Y005763D01*
X011189Y005783D01*
X011217Y005811D01*
X011222Y005821D01*
X011270Y005773D01*
X011850Y005773D01*
X011926Y005849D01*
X011926Y006272D01*
X011850Y006348D01*
X011720Y006348D01*
X011720Y006393D01*
X011597Y006516D01*
X011538Y006575D01*
X011538Y006672D01*
X011488Y006792D01*
X011434Y006846D01*
X012011Y006846D01*
X012011Y006746D01*
X012087Y006670D01*
X012541Y006670D01*
X012492Y006552D01*
X012492Y006421D01*
X012542Y006300D01*
X012634Y006208D01*
X012755Y006158D01*
X012886Y006158D01*
X013006Y006208D01*
X013098Y006300D01*
X013148Y006421D01*
X013148Y006552D01*
X013099Y006670D01*
X013533Y006670D01*
X013610Y006746D01*
X013610Y007102D01*
X013616Y007091D01*
X013616Y006856D01*
X013622Y006850D01*
X013616Y006845D01*
X013616Y006600D01*
X013622Y006594D01*
X013616Y006589D01*
X013616Y006344D01*
X013622Y006339D01*
X013616Y006333D01*
X013616Y006088D01*
X013622Y006083D01*
X013616Y006077D01*
X013616Y005832D01*
X013610Y005832D01*
X013616Y005832D02*
X013622Y005827D01*
X013616Y005821D01*
X013616Y005576D01*
X013622Y005571D01*
X013616Y005565D01*
X013616Y005321D01*
X013692Y005244D01*
X014350Y005244D01*
X014426Y005321D01*
X014426Y005565D01*
X014420Y005571D01*
X014426Y005576D01*
X014426Y005821D01*
X014420Y005827D01*
X014426Y005832D01*
X014426Y006077D01*
X014420Y006083D01*
X014426Y006088D01*
X014426Y006333D01*
X014420Y006339D01*
X014426Y006344D01*
X014426Y006325D02*
X015970Y006325D01*
X016036Y006226D02*
X015404Y006226D01*
X015016Y006226D02*
X014426Y006226D01*
X014426Y006128D02*
X014926Y006128D01*
X014885Y006029D02*
X014426Y006029D01*
X014426Y005931D02*
X014882Y005931D01*
X014907Y005832D02*
X014426Y005832D01*
X014426Y005733D02*
X014969Y005733D01*
X015129Y005635D02*
X014426Y005635D01*
X014426Y005536D02*
X015472Y005536D01*
X015373Y005438D02*
X014426Y005438D01*
X014426Y005339D02*
X015275Y005339D01*
X015176Y005241D02*
X013610Y005241D01*
X013610Y005339D02*
X013616Y005339D01*
X013610Y005438D02*
X013616Y005438D01*
X013610Y005536D02*
X013616Y005536D01*
X013610Y005635D02*
X013616Y005635D01*
X013610Y005733D02*
X013616Y005733D01*
X013610Y005931D02*
X013616Y005931D01*
X013610Y006029D02*
X013616Y006029D01*
X013616Y006128D02*
X013548Y006128D01*
X013616Y006226D02*
X013024Y006226D01*
X013108Y006325D02*
X013616Y006325D01*
X013616Y006423D02*
X013148Y006423D01*
X013148Y006522D02*
X013616Y006522D01*
X013616Y006620D02*
X013120Y006620D01*
X012616Y006226D02*
X011926Y006226D01*
X011926Y006128D02*
X012072Y006128D01*
X012011Y006029D02*
X011926Y006029D01*
X011926Y005931D02*
X012011Y005931D01*
X012011Y005832D02*
X011909Y005832D01*
X012011Y005733D02*
X010238Y005733D01*
X010082Y005733D02*
X009930Y005733D01*
X010029Y005635D02*
X010566Y005635D01*
X010494Y005536D02*
X010314Y005536D01*
X010365Y005438D02*
X010494Y005438D01*
X010465Y005339D02*
X010365Y005339D01*
X010365Y005241D02*
X010367Y005241D01*
X010732Y005352D02*
X010237Y004856D01*
X009795Y005142D02*
X009605Y005142D01*
X009605Y005044D02*
X009689Y005044D01*
X009605Y005027D02*
X009605Y005446D01*
X009605Y005438D02*
X009632Y005438D01*
X009605Y005339D02*
X009730Y005339D01*
X009795Y005241D02*
X009605Y005241D01*
X009605Y005027D02*
X009529Y004951D01*
X009520Y004951D01*
X009520Y004193D01*
X009647Y004066D01*
X009712Y004066D01*
X009750Y004104D01*
X010724Y004104D01*
X010800Y004028D01*
X010800Y003684D01*
X010724Y003608D01*
X009750Y003608D01*
X009712Y003646D01*
X009647Y003646D01*
X009473Y003646D01*
X009223Y003896D01*
X009100Y004019D01*
X009100Y004962D01*
X009035Y005027D01*
X009035Y005437D01*
X009019Y005444D01*
X008948Y005515D01*
X008910Y005607D01*
X008910Y007656D01*
X008886Y007656D01*
X008886Y007286D01*
X008510Y007286D01*
X008510Y007186D01*
X008510Y006653D01*
X008756Y006653D01*
X008794Y006663D01*
X008828Y006683D01*
X008856Y006711D01*
X008876Y006745D01*
X008886Y006783D01*
X008886Y007186D01*
X008510Y007186D01*
X008410Y007186D01*
X008035Y007186D01*
X008035Y006783D01*
X008045Y006745D01*
X008065Y006711D01*
X008093Y006683D01*
X008127Y006663D01*
X008165Y006653D01*
X008410Y006653D01*
X008410Y007186D01*
X008410Y007286D01*
X008035Y007286D01*
X008035Y007667D01*
X007996Y007628D01*
X007876Y007578D01*
X007836Y007578D01*
X007610Y007353D01*
X007610Y006226D01*
X008055Y006226D01*
X008055Y006463D01*
X008131Y006539D01*
X008790Y006539D01*
X008866Y006463D01*
X008866Y005489D01*
X008790Y005413D01*
X008541Y005413D01*
X008568Y005406D01*
X008602Y005386D01*
X008630Y005358D01*
X008650Y005324D01*
X008660Y005286D01*
X008660Y004876D01*
X008320Y004876D01*
X008320Y004776D01*
X008320Y004236D01*
X008530Y004236D01*
X008568Y004247D01*
X008602Y004266D01*
X008630Y004294D01*
X008650Y004328D01*
X008660Y004367D01*
X008660Y004776D01*
X008320Y004776D01*
X008220Y004776D01*
X008220Y004236D01*
X008011Y004236D01*
X007972Y004247D01*
X007938Y004266D01*
X007910Y004294D01*
X007891Y004328D01*
X007880Y004367D01*
X007880Y004776D01*
X008220Y004776D01*
X008220Y004876D01*
X007880Y004876D01*
X007880Y005286D01*
X007891Y005324D01*
X007910Y005358D01*
X007938Y005386D01*
X007972Y005406D01*
X008011Y005416D01*
X008128Y005416D01*
X008055Y005489D01*
X008055Y005726D01*
X007610Y005726D01*
X007610Y005396D01*
X007654Y005396D01*
X007730Y005320D01*
X007730Y004332D01*
X007654Y004256D01*
X007570Y004256D01*
X007570Y004043D01*
X008093Y003521D01*
X008994Y003521D01*
X008994Y003522D01*
X009070Y003598D01*
X009650Y003598D01*
X009682Y003566D01*
X009712Y003566D01*
X009750Y003604D01*
X010724Y003604D01*
X010762Y003566D01*
X010847Y003566D01*
X010970Y003443D01*
X011050Y003363D01*
X011050Y003189D01*
X011050Y003160D01*
X011125Y003085D01*
X011125Y002627D01*
X011049Y002551D01*
X010779Y002551D01*
X010788Y002542D01*
X010838Y002422D01*
X010838Y002325D01*
X010897Y002266D01*
X010935Y002266D01*
X010935Y002285D01*
X011011Y002361D01*
X011429Y002361D01*
X011505Y002285D01*
X011505Y001827D01*
X011429Y001751D01*
X011011Y001751D01*
X010935Y001827D01*
X010935Y001846D01*
X010723Y001846D01*
X010600Y001969D01*
X010541Y002028D01*
X010445Y002028D01*
X010324Y002078D01*
X010232Y002170D01*
X010182Y002291D01*
X010182Y002422D01*
X010232Y002542D01*
X010324Y002634D01*
X010445Y002684D01*
X010555Y002684D01*
X010555Y003085D01*
X010578Y003108D01*
X009750Y003108D01*
X009726Y003131D01*
X009726Y003099D01*
X009650Y003023D01*
X009070Y003023D01*
X008994Y003099D01*
X008994Y003101D01*
X008093Y003101D01*
X007919Y003101D01*
X007273Y003746D01*
X007150Y003869D01*
X007150Y004256D01*
X007066Y004256D01*
X006990Y004332D01*
X006990Y005320D01*
X007066Y005396D01*
X007110Y005396D01*
X007110Y006007D01*
X007110Y006106D01*
X007110Y007407D01*
X007110Y007506D01*
X007148Y007598D01*
X007482Y007932D01*
X007482Y007972D01*
X007532Y008092D01*
X007624Y008184D01*
X007745Y008234D01*
X007876Y008234D01*
X007881Y008232D01*
X006866Y009247D01*
X006866Y009199D01*
X006790Y009123D01*
X006131Y009123D01*
X006055Y009199D01*
X006055Y010173D01*
X006098Y010216D01*
X005703Y010216D01*
X005029Y010216D01*
X005029Y009980D01*
X004953Y009904D01*
X003900Y009904D01*
X003824Y009980D01*
X003824Y010966D01*
X003602Y010966D01*
X003490Y011078D01*
X003490Y011092D01*
X002897Y011686D01*
X002767Y011556D01*
X002353Y011556D01*
X002163Y011746D01*
X001787Y011746D01*
X001787Y011721D01*
X001723Y011656D01*
X001787Y011592D01*
X001787Y011051D01*
X001711Y010975D01*
X001670Y010975D01*
X001670Y010863D01*
X001790Y010863D01*
X001866Y010787D01*
X001866Y010207D01*
X001790Y010131D01*
X001131Y010131D01*
X001055Y010207D01*
X001055Y010787D01*
X001131Y010863D01*
X001250Y010863D01*
X001250Y010975D01*
X001210Y010975D01*
X001133Y011051D01*
X001133Y011592D01*
X001198Y011656D01*
X001133Y011721D01*
X001133Y012261D01*
X001210Y012337D01*
X001250Y012337D01*
X001250Y016269D01*
X000800Y016719D01*
X000800Y016893D01*
X000800Y021693D01*
X000923Y021816D01*
X001873Y022766D01*
X002047Y022766D01*
X005547Y022766D01*
X005670Y022643D01*
X006297Y022016D01*
X006580Y022016D01*
X006820Y021776D01*
X006820Y021436D01*
X006580Y021196D01*
X006240Y021196D01*
X006000Y021436D01*
X006000Y021719D01*
X005373Y022346D01*
X002047Y022346D01*
X001917Y022216D01*
X002080Y022216D01*
X002320Y021976D01*
X002320Y021636D01*
X002080Y021396D01*
X001797Y021396D01*
X001570Y021169D01*
X001570Y021046D01*
X001740Y021216D01*
X002080Y021216D01*
X002320Y020976D01*
X002320Y020636D01*
X002080Y020396D01*
X001740Y020396D01*
X001570Y020567D01*
X001570Y020046D01*
X001740Y020216D01*
X002080Y020216D01*
X002320Y019976D01*
X002320Y019636D01*
X002080Y019396D01*
X001740Y019396D01*
X001570Y019567D01*
X001570Y019046D01*
X001740Y019216D01*
X002080Y019216D01*
X002320Y018976D01*
X002320Y018636D01*
X002150Y018466D01*
X002671Y018466D01*
X002500Y018636D01*
X002500Y018976D01*
X002740Y019216D01*
X003080Y019216D01*
X003320Y018976D01*
X003320Y018636D01*
X003150Y018466D01*
X003347Y018466D01*
X003470Y018343D01*
X003610Y018204D01*
X004796Y018204D01*
X004796Y018441D01*
X004821Y018466D01*
X004796Y018491D01*
X004796Y018756D01*
X004806Y018767D01*
X004806Y018768D01*
X004786Y018802D01*
X004776Y018840D01*
X004776Y018938D01*
X003320Y018938D01*
X003320Y018840D02*
X004776Y018840D01*
X004776Y018938D02*
X005063Y018938D01*
X005063Y018939D01*
X004776Y018939D01*
X004776Y019037D01*
X004786Y019075D01*
X004806Y019109D01*
X004806Y019110D01*
X004796Y019121D01*
X004796Y019386D01*
X004821Y019411D01*
X004796Y019436D01*
X004796Y019624D01*
X003023Y021396D01*
X002740Y021396D01*
X002500Y021636D01*
X002500Y021976D01*
X002740Y022216D01*
X003080Y022216D01*
X003320Y021976D01*
X003320Y021693D01*
X005236Y019777D01*
X005255Y019777D01*
X005331Y019701D01*
X005331Y019436D01*
X005306Y019411D01*
X005331Y019386D01*
X005331Y019121D01*
X005320Y019110D01*
X005321Y019109D01*
X005341Y019075D01*
X005351Y019037D01*
X005351Y018939D01*
X005064Y018939D01*
X005064Y018938D01*
X005351Y018938D01*
X005906Y018938D01*
X005980Y018879D02*
X005980Y018452D01*
X005915Y018518D01*
X005802Y018565D01*
X005679Y018565D01*
X005566Y018518D01*
X005479Y018431D01*
X005432Y018318D01*
X005432Y018195D01*
X005479Y018082D01*
X005550Y018010D01*
X005550Y016171D01*
X005545Y016176D01*
X005437Y016284D01*
X005341Y016284D01*
X005351Y016320D01*
X005351Y016419D01*
X005351Y016517D01*
X005341Y016556D01*
X005321Y016590D01*
X005316Y016595D01*
X005331Y016611D01*
X005331Y017801D01*
X005301Y017831D01*
X005331Y017861D01*
X005331Y018126D01*
X005306Y018151D01*
X005331Y018176D01*
X005331Y018441D01*
X005306Y018466D01*
X005331Y018491D01*
X005331Y018756D01*
X005320Y018767D01*
X005321Y018768D01*
X005341Y018802D01*
X005351Y018840D01*
X005351Y018938D01*
X005351Y018840D02*
X005980Y018840D01*
X005980Y018879D02*
X005756Y019058D01*
X005732Y019048D01*
X005609Y019048D01*
X005496Y019095D01*
X005409Y019182D01*
X005362Y019295D01*
X005362Y019418D01*
X005409Y019531D01*
X005496Y019618D01*
X005609Y019665D01*
X005732Y019665D01*
X005845Y019618D01*
X005932Y019531D01*
X005979Y019418D01*
X005979Y019341D01*
X006223Y019146D01*
X006235Y019146D01*
X006280Y019101D01*
X006331Y019061D01*
X006332Y019049D01*
X006340Y019041D01*
X006340Y018977D01*
X006348Y018913D01*
X006340Y018903D01*
X006340Y017881D01*
X006435Y017786D01*
X006634Y017786D01*
X006716Y017868D01*
X006829Y017915D01*
X006952Y017915D01*
X007065Y017868D01*
X007152Y017781D01*
X007192Y017683D01*
X007468Y017962D01*
X007468Y018230D01*
X007382Y018316D01*
X007270Y018428D01*
X007270Y019028D01*
X007270Y019185D01*
X007420Y019335D01*
X007532Y019446D01*
X007689Y019446D01*
X007689Y019701D01*
X007766Y019777D01*
X007879Y019777D01*
X007832Y019891D01*
X007832Y019987D01*
X007700Y020119D01*
X007700Y020293D01*
X007700Y021317D01*
X007580Y021196D01*
X007240Y021196D01*
X007000Y021436D01*
X007000Y021776D01*
X007240Y022016D01*
X007580Y022016D01*
X007700Y021896D01*
X007700Y022093D01*
X007823Y022216D01*
X008022Y022415D01*
X008000Y022436D01*
X008000Y022776D01*
X008240Y023016D01*
X008580Y023016D01*
X008820Y022776D01*
X008820Y022436D01*
X008580Y022196D01*
X008397Y022196D01*
X008120Y021919D01*
X008120Y021896D01*
X008240Y022016D01*
X008580Y022016D01*
X008820Y021776D01*
X008820Y021436D01*
X008580Y021196D01*
X008240Y021196D01*
X008120Y021317D01*
X008120Y020293D01*
X008129Y020284D01*
X008226Y020284D01*
X008346Y020234D01*
X008438Y020142D01*
X008488Y020022D01*
X009229Y020022D01*
X009131Y019924D02*
X008488Y019924D01*
X008488Y019891D02*
X008488Y020022D01*
X008447Y020121D02*
X009328Y020121D01*
X009426Y020219D02*
X008361Y020219D01*
X008120Y020318D02*
X009525Y020318D01*
X009623Y020416D02*
X008120Y020416D01*
X008120Y020515D02*
X009700Y020515D01*
X009700Y020493D02*
X008800Y019593D01*
X008800Y019419D01*
X008800Y016893D01*
X008536Y016629D01*
X008225Y016629D01*
X008225Y017516D01*
X008210Y017531D01*
X008225Y017546D01*
X008225Y017811D01*
X008214Y017822D01*
X008215Y017823D01*
X008235Y017857D01*
X008245Y017895D01*
X008245Y017993D01*
X007958Y017993D01*
X007958Y017994D01*
X008245Y017994D01*
X008245Y018091D01*
X008349Y018048D01*
X008472Y018048D01*
X008585Y018095D01*
X008672Y018182D01*
X008719Y018295D01*
X008719Y018418D01*
X008672Y018531D01*
X008646Y018556D01*
X008722Y018632D01*
X008769Y018745D01*
X008769Y018868D01*
X008722Y018981D01*
X008635Y019068D01*
X008522Y019115D01*
X008406Y019115D01*
X008403Y019119D01*
X008253Y019119D01*
X008222Y019119D01*
X008225Y019121D01*
X008225Y019386D01*
X008200Y019411D01*
X008225Y019436D01*
X008225Y019628D01*
X008835Y019628D01*
X008800Y019530D02*
X008225Y019530D01*
X008226Y019628D02*
X008346Y019678D01*
X008438Y019770D01*
X008488Y019891D01*
X008461Y019825D02*
X009032Y019825D01*
X008934Y019727D02*
X008395Y019727D01*
X008226Y019628D02*
X008225Y019628D01*
X008220Y019431D02*
X008800Y019431D01*
X008800Y019332D02*
X008225Y019332D01*
X008225Y019234D02*
X008800Y019234D01*
X008800Y019135D02*
X008225Y019135D01*
X008328Y018939D02*
X008460Y018806D01*
X008328Y018939D02*
X007957Y018939D01*
X007957Y018624D02*
X008143Y018624D01*
X008410Y018356D01*
X008699Y018248D02*
X008800Y018248D01*
X008800Y018150D02*
X008640Y018150D01*
X008480Y018051D02*
X008800Y018051D01*
X008800Y017953D02*
X008245Y017953D01*
X008245Y018051D02*
X008340Y018051D01*
X008233Y017854D02*
X008800Y017854D01*
X008800Y017756D02*
X008225Y017756D01*
X008225Y017657D02*
X008800Y017657D01*
X008800Y017559D02*
X008225Y017559D01*
X008225Y017460D02*
X008800Y017460D01*
X008800Y017362D02*
X008225Y017362D01*
X008225Y017263D02*
X008800Y017263D01*
X008800Y017164D02*
X008225Y017164D01*
X008225Y017066D02*
X008800Y017066D01*
X008800Y016967D02*
X008225Y016967D01*
X008225Y016869D02*
X008776Y016869D01*
X008677Y016770D02*
X008225Y016770D01*
X008225Y016672D02*
X008579Y016672D01*
X008877Y016376D02*
X009126Y016376D01*
X009126Y016278D02*
X008779Y016278D01*
X008710Y016209D02*
X009097Y016596D01*
X009124Y016623D01*
X009130Y015913D01*
X008271Y015054D01*
X008225Y015054D01*
X008225Y015292D01*
X008214Y015302D01*
X008215Y015303D01*
X008235Y015337D01*
X008245Y015376D01*
X008245Y015474D01*
X008245Y015572D01*
X008235Y015611D01*
X008215Y015645D01*
X008214Y015646D01*
X008225Y015656D01*
X008225Y015922D01*
X008200Y015946D01*
X008225Y015971D01*
X008225Y016209D01*
X008536Y016209D01*
X008710Y016209D01*
X008976Y016475D02*
X009125Y016475D01*
X009124Y016573D02*
X009074Y016573D01*
X009097Y016596D02*
X009097Y016596D01*
X009127Y016179D02*
X008225Y016179D01*
X008225Y016081D02*
X009128Y016081D01*
X009129Y015982D02*
X008225Y015982D01*
X008225Y015883D02*
X009100Y015883D01*
X009002Y015785D02*
X008225Y015785D01*
X008225Y015686D02*
X008903Y015686D01*
X008805Y015588D02*
X008241Y015588D01*
X008245Y015489D02*
X008706Y015489D01*
X008608Y015391D02*
X008245Y015391D01*
X008245Y015474D02*
X007958Y015474D01*
X008245Y015474D01*
X008224Y015292D02*
X008509Y015292D01*
X008411Y015194D02*
X008225Y015194D01*
X008225Y015095D02*
X008312Y015095D01*
X008610Y014799D02*
X009400Y014799D01*
X009400Y014701D02*
X008512Y014701D01*
X008445Y014634D02*
X009400Y015589D01*
X009400Y014669D01*
X009523Y014546D01*
X010023Y014046D01*
X009903Y014046D01*
X009865Y014036D01*
X009848Y014026D01*
X009588Y014026D01*
X009571Y014036D01*
X009533Y014046D01*
X009408Y014046D01*
X009408Y013652D01*
X009398Y013652D01*
X009398Y014046D01*
X009273Y014046D01*
X009235Y014036D01*
X009218Y014026D01*
X008950Y014026D01*
X008950Y014062D01*
X009038Y014150D01*
X009088Y014271D01*
X009088Y014402D01*
X009038Y014522D01*
X008946Y014614D01*
X008826Y014664D01*
X008695Y014664D01*
X008574Y014614D01*
X008482Y014522D01*
X008432Y014402D01*
X008432Y014271D01*
X008482Y014150D01*
X008570Y014062D01*
X008570Y014026D01*
X008545Y014026D01*
X008216Y014355D01*
X008218Y014361D01*
X008218Y014492D01*
X008168Y014612D01*
X008146Y014634D01*
X008271Y014634D01*
X008445Y014634D01*
X008562Y014602D02*
X008172Y014602D01*
X008213Y014504D02*
X008475Y014504D01*
X008434Y014405D02*
X008218Y014405D01*
X008264Y014307D02*
X008432Y014307D01*
X008458Y014208D02*
X008363Y014208D01*
X008461Y014110D02*
X008523Y014110D01*
X008420Y013896D02*
X007890Y014426D01*
X007920Y014416D01*
X007700Y014700D02*
X007612Y014612D01*
X007562Y014492D01*
X007562Y014408D01*
X007436Y014500D01*
X007394Y014544D01*
X007374Y014545D01*
X007358Y014556D01*
X007298Y014547D01*
X007142Y014550D01*
X007065Y014628D01*
X006952Y014675D01*
X006829Y014675D01*
X006716Y014628D01*
X006629Y014541D01*
X006582Y014428D01*
X006582Y014305D01*
X006629Y014192D01*
X006716Y014105D01*
X006829Y014058D01*
X006882Y014058D01*
X006882Y013941D01*
X006900Y013897D01*
X006900Y013802D01*
X006900Y013456D01*
X006755Y013456D01*
X006755Y013182D01*
X006705Y013182D01*
X006705Y013456D01*
X006480Y013456D01*
X006480Y013950D01*
X006542Y014012D01*
X006589Y014125D01*
X006589Y014248D01*
X006542Y014361D01*
X006455Y014448D01*
X006357Y014488D01*
X007399Y015561D01*
X007451Y015614D01*
X007451Y015614D01*
X007451Y015614D01*
X007450Y015691D01*
X007443Y016353D01*
X007522Y016432D01*
X007569Y016545D01*
X007569Y016668D01*
X007522Y016781D01*
X007435Y016868D01*
X007322Y016915D01*
X007199Y016915D01*
X007100Y016874D01*
X007100Y017048D01*
X007689Y017645D01*
X007689Y017546D01*
X007704Y017531D01*
X007689Y017516D01*
X007689Y016582D01*
X007704Y016567D01*
X007689Y016551D01*
X007689Y016286D01*
X007714Y016261D01*
X007689Y016236D01*
X007689Y015971D01*
X007714Y015946D01*
X007689Y015922D01*
X007689Y015656D01*
X007700Y015646D01*
X007699Y015645D01*
X007680Y015611D01*
X007669Y015572D01*
X007669Y015474D01*
X007957Y015474D01*
X007428Y015474D01*
X006910Y014856D01*
X006510Y014456D01*
X006660Y014056D01*
X006660Y013256D01*
X006730Y013156D01*
X006705Y013131D02*
X006755Y013131D01*
X006755Y012856D01*
X007030Y012856D01*
X007030Y012513D01*
X006661Y012856D01*
X006705Y012856D01*
X006705Y013131D01*
X006705Y013124D02*
X006755Y013124D01*
X006755Y013026D02*
X006705Y013026D01*
X006705Y012927D02*
X006755Y012927D01*
X006691Y012829D02*
X007030Y012829D01*
X007030Y012730D02*
X006797Y012730D01*
X006903Y012631D02*
X007030Y012631D01*
X007030Y012533D02*
X007008Y012533D01*
X007210Y012356D02*
X007210Y013326D01*
X007080Y013456D01*
X007080Y013876D01*
X007210Y014006D01*
X007432Y014504D02*
X007567Y014504D01*
X007608Y014602D02*
X007090Y014602D01*
X006851Y014997D02*
X007709Y014997D01*
X007714Y015002D02*
X007689Y014977D01*
X007689Y014711D01*
X007700Y014700D01*
X007700Y014701D02*
X006564Y014701D01*
X006660Y014799D02*
X007689Y014799D01*
X007689Y014898D02*
X006755Y014898D01*
X006947Y015095D02*
X007689Y015095D01*
X007689Y015026D02*
X007689Y015292D01*
X007700Y015302D01*
X007699Y015303D01*
X007680Y015337D01*
X007669Y015376D01*
X007669Y015474D01*
X007957Y015474D01*
X007957Y015474D01*
X007958Y015474D02*
X007958Y015474D01*
X007669Y015489D02*
X007330Y015489D01*
X007234Y015391D02*
X007669Y015391D01*
X007690Y015292D02*
X007138Y015292D01*
X007043Y015194D02*
X007689Y015194D01*
X007689Y015026D02*
X007714Y015002D01*
X007674Y015588D02*
X007426Y015588D01*
X007450Y015686D02*
X007689Y015686D01*
X007689Y015785D02*
X007449Y015785D01*
X007448Y015883D02*
X007689Y015883D01*
X007689Y015982D02*
X007447Y015982D01*
X007446Y016081D02*
X007689Y016081D01*
X007689Y016179D02*
X007445Y016179D01*
X007444Y016278D02*
X007698Y016278D01*
X007689Y016376D02*
X007466Y016376D01*
X007540Y016475D02*
X007689Y016475D01*
X007698Y016573D02*
X007569Y016573D01*
X007567Y016672D02*
X007689Y016672D01*
X007689Y016770D02*
X007526Y016770D01*
X007432Y016869D02*
X007689Y016869D01*
X007689Y016967D02*
X007100Y016967D01*
X007118Y017066D02*
X007689Y017066D01*
X007689Y017164D02*
X007215Y017164D01*
X007312Y017263D02*
X007689Y017263D01*
X007689Y017362D02*
X007409Y017362D01*
X007507Y017460D02*
X007689Y017460D01*
X007689Y017559D02*
X007604Y017559D01*
X007362Y017854D02*
X007078Y017854D01*
X007162Y017756D02*
X007265Y017756D01*
X007459Y017953D02*
X006340Y017953D01*
X006340Y018051D02*
X007468Y018051D01*
X007468Y018150D02*
X006340Y018150D01*
X006340Y018248D02*
X007449Y018248D01*
X007351Y018347D02*
X006340Y018347D01*
X006340Y018446D02*
X007270Y018446D01*
X007270Y018544D02*
X006340Y018544D01*
X006340Y018643D02*
X007270Y018643D01*
X007270Y018741D02*
X006340Y018741D01*
X006340Y018840D02*
X007270Y018840D01*
X007270Y018938D02*
X006345Y018938D01*
X006340Y019037D02*
X007270Y019037D01*
X007270Y019135D02*
X006246Y019135D01*
X006113Y019234D02*
X007319Y019234D01*
X007418Y019332D02*
X005989Y019332D01*
X005973Y019431D02*
X007516Y019431D01*
X007689Y019530D02*
X005932Y019530D01*
X005820Y019628D02*
X007689Y019628D01*
X007715Y019727D02*
X005306Y019727D01*
X005331Y019628D02*
X005521Y019628D01*
X005408Y019530D02*
X005331Y019530D01*
X005326Y019431D02*
X005367Y019431D01*
X005362Y019332D02*
X005331Y019332D01*
X005331Y019234D02*
X005387Y019234D01*
X005331Y019135D02*
X005455Y019135D01*
X005351Y019037D02*
X005783Y019037D01*
X005670Y019356D02*
X006160Y018966D01*
X006160Y017806D01*
X006360Y017606D01*
X006890Y017606D01*
X006702Y017854D02*
X006367Y017854D01*
X005980Y018544D02*
X005851Y018544D01*
X005980Y018643D02*
X005331Y018643D01*
X005331Y018741D02*
X005980Y018741D01*
X005629Y018544D02*
X005331Y018544D01*
X005327Y018446D02*
X005493Y018446D01*
X005444Y018347D02*
X005331Y018347D01*
X005331Y018248D02*
X005432Y018248D01*
X005451Y018150D02*
X005308Y018150D01*
X005331Y018051D02*
X005509Y018051D01*
X005550Y017953D02*
X005331Y017953D01*
X005324Y017854D02*
X005550Y017854D01*
X005550Y017756D02*
X005331Y017756D01*
X005331Y017657D02*
X005550Y017657D01*
X005550Y017559D02*
X005331Y017559D01*
X005331Y017460D02*
X005550Y017460D01*
X005550Y017362D02*
X005331Y017362D01*
X005331Y017263D02*
X005550Y017263D01*
X005550Y017164D02*
X005331Y017164D01*
X005331Y017066D02*
X005550Y017066D01*
X005550Y016967D02*
X005331Y016967D01*
X005331Y016869D02*
X005550Y016869D01*
X005550Y016770D02*
X005331Y016770D01*
X005331Y016672D02*
X005550Y016672D01*
X005550Y016573D02*
X005331Y016573D01*
X005351Y016475D02*
X005550Y016475D01*
X005550Y016376D02*
X005351Y016376D01*
X005351Y016419D02*
X005064Y016419D01*
X005351Y016419D01*
X005444Y016278D02*
X005550Y016278D01*
X005542Y016179D02*
X005550Y016179D01*
X005470Y015996D02*
X005470Y015266D01*
X005370Y015166D01*
X005071Y015166D01*
X005063Y015159D01*
X004813Y014695D02*
X004746Y014628D01*
X004663Y014594D01*
X004663Y014385D01*
X004385Y014385D01*
X004385Y014327D01*
X004385Y013970D01*
X004385Y013785D01*
X004663Y013785D01*
X004663Y014012D01*
X004653Y014050D01*
X004650Y014056D01*
X004653Y014062D01*
X004663Y014100D01*
X004663Y014327D01*
X004385Y014327D01*
X004327Y014327D01*
X004327Y013970D01*
X004327Y013785D01*
X004327Y013727D01*
X004049Y013727D01*
X004049Y013587D01*
X003923Y013712D01*
X004049Y013837D01*
X004049Y013785D01*
X004327Y013785D01*
X004385Y013785D01*
X004385Y013727D01*
X004663Y013727D01*
X004663Y013500D01*
X004653Y013462D01*
X004650Y013456D01*
X004705Y013456D01*
X004705Y013182D01*
X004755Y013182D01*
X004755Y013456D01*
X004787Y013456D01*
X004777Y013466D01*
X004777Y014046D01*
X004787Y014056D01*
X004777Y014066D01*
X004777Y014646D01*
X004815Y014684D01*
X004815Y014693D01*
X004813Y014695D01*
X004777Y014602D02*
X004684Y014602D01*
X004663Y014504D02*
X004777Y014504D01*
X004777Y014405D02*
X004663Y014405D01*
X004663Y014307D02*
X004777Y014307D01*
X004777Y014208D02*
X004663Y014208D01*
X004663Y014110D02*
X004777Y014110D01*
X004777Y014011D02*
X004663Y014011D01*
X004663Y013913D02*
X004777Y013913D01*
X004777Y013814D02*
X004663Y013814D01*
X004663Y013715D02*
X004777Y013715D01*
X004777Y013617D02*
X004663Y013617D01*
X004663Y013518D02*
X004777Y013518D01*
X004755Y013420D02*
X004705Y013420D01*
X004705Y013321D02*
X004755Y013321D01*
X004755Y013223D02*
X004705Y013223D01*
X004756Y013181D02*
X005180Y013181D01*
X005180Y013326D01*
X005170Y013364D01*
X005155Y013390D01*
X005276Y013390D01*
X005352Y013466D01*
X005352Y013911D01*
X005510Y013753D01*
X005510Y013120D01*
X005482Y013092D01*
X005432Y012972D01*
X005432Y012841D01*
X005482Y012720D01*
X005574Y012628D01*
X005651Y012596D01*
X004439Y012596D01*
X004400Y012635D01*
X004400Y012859D01*
X004411Y012856D01*
X004705Y012856D01*
X004705Y013131D01*
X004755Y013131D01*
X004755Y012856D01*
X005050Y012856D01*
X005088Y012867D01*
X005122Y012886D01*
X005150Y012914D01*
X005170Y012948D01*
X005180Y012987D01*
X005180Y013131D01*
X004756Y013131D01*
X004756Y013181D01*
X004755Y013124D02*
X004705Y013124D01*
X004705Y013026D02*
X004755Y013026D01*
X004755Y012927D02*
X004705Y012927D01*
X004400Y012829D02*
X005437Y012829D01*
X005432Y012927D02*
X005158Y012927D01*
X005180Y013026D02*
X005455Y013026D01*
X005510Y013124D02*
X005180Y013124D01*
X005180Y013223D02*
X005510Y013223D01*
X005510Y013321D02*
X005180Y013321D01*
X005306Y013420D02*
X005510Y013420D01*
X005510Y013518D02*
X005352Y013518D01*
X005352Y013617D02*
X005510Y013617D01*
X005510Y013715D02*
X005352Y013715D01*
X005352Y013814D02*
X005449Y013814D01*
X005910Y014156D02*
X005910Y014286D01*
X007270Y015686D01*
X007260Y016606D01*
X008709Y014898D02*
X009400Y014898D01*
X009400Y014997D02*
X008807Y014997D01*
X008906Y015095D02*
X009400Y015095D01*
X009400Y015194D02*
X009005Y015194D01*
X009103Y015292D02*
X009400Y015292D01*
X009400Y015391D02*
X009202Y015391D01*
X009300Y015489D02*
X009400Y015489D01*
X009399Y015588D02*
X009400Y015588D01*
X009820Y015588D02*
X009865Y015588D01*
X009865Y015686D02*
X009820Y015686D01*
X009820Y015785D02*
X009865Y015785D01*
X009865Y015883D02*
X009820Y015883D01*
X009820Y015982D02*
X009865Y015982D01*
X009865Y016081D02*
X009820Y016081D01*
X009820Y016179D02*
X009865Y016179D01*
X009865Y016278D02*
X009820Y016278D01*
X009820Y016376D02*
X009865Y016376D01*
X009865Y016475D02*
X009820Y016475D01*
X009820Y016573D02*
X009865Y016573D01*
X009865Y016600D02*
X009865Y014917D01*
X009941Y014841D01*
X010679Y014841D01*
X010755Y014917D01*
X010755Y016046D01*
X011406Y016046D01*
X011474Y015978D01*
X011595Y015928D01*
X011726Y015928D01*
X011760Y015943D01*
X011760Y015296D01*
X012083Y014752D01*
X012080Y014741D01*
X012080Y014456D01*
X012258Y014456D01*
X012317Y014356D01*
X012080Y014356D01*
X012080Y014091D01*
X012035Y014136D01*
X012028Y014136D01*
X011683Y014438D01*
X011635Y014486D01*
X011628Y014486D01*
X011623Y014491D01*
X011554Y014486D01*
X010853Y014486D01*
X010824Y014501D01*
X010781Y014486D01*
X010736Y014486D01*
X010713Y014464D01*
X010683Y014453D01*
X010662Y014413D01*
X010630Y014381D01*
X010630Y014349D01*
X010525Y014138D01*
X009820Y014843D01*
X009820Y019169D01*
X009865Y019214D01*
X009865Y017713D01*
X009941Y017637D01*
X010679Y017637D01*
X010755Y017713D01*
X010755Y018706D01*
X011760Y018706D01*
X011760Y018434D01*
X011695Y018434D01*
X011574Y018384D01*
X011482Y018292D01*
X011432Y018172D01*
X011432Y018041D01*
X011482Y017920D01*
X011574Y017828D01*
X011695Y017778D01*
X011760Y017778D01*
X011760Y016570D01*
X011726Y016584D01*
X011595Y016584D01*
X011474Y016534D01*
X011406Y016466D01*
X010755Y016466D01*
X010755Y016600D01*
X010679Y016676D01*
X009941Y016676D01*
X009865Y016600D01*
X009820Y016672D02*
X009937Y016672D01*
X009820Y016770D02*
X011760Y016770D01*
X011760Y016672D02*
X010683Y016672D01*
X010755Y016573D02*
X011568Y016573D01*
X011415Y016475D02*
X010755Y016475D01*
X010755Y015982D02*
X011471Y015982D01*
X011760Y015883D02*
X010755Y015883D01*
X010755Y015785D02*
X011760Y015785D01*
X011760Y015686D02*
X010755Y015686D01*
X010755Y015588D02*
X011760Y015588D01*
X011760Y015489D02*
X010755Y015489D01*
X010755Y015391D02*
X011760Y015391D01*
X011763Y015292D02*
X010755Y015292D01*
X010755Y015194D02*
X011821Y015194D01*
X011880Y015095D02*
X010755Y015095D01*
X010755Y014997D02*
X011938Y014997D01*
X011996Y014898D02*
X010736Y014898D01*
X010655Y014405D02*
X010258Y014405D01*
X010357Y014307D02*
X010609Y014307D01*
X010560Y014208D02*
X010455Y014208D01*
X010660Y014006D02*
X010660Y013649D01*
X010663Y013646D01*
X010903Y013617D02*
X011314Y013617D01*
X011336Y013595D02*
X011449Y013548D01*
X011480Y013548D01*
X011480Y013299D01*
X010946Y013299D01*
X010870Y013222D01*
X010870Y012895D01*
X010870Y012580D01*
X010870Y012282D01*
X010860Y012293D01*
X010747Y012340D01*
X010624Y012340D01*
X010540Y012305D01*
X010540Y012826D01*
X010546Y012828D01*
X010638Y012920D01*
X010688Y013041D01*
X010688Y013172D01*
X010649Y013266D01*
X010826Y013266D01*
X010903Y013342D01*
X010903Y013950D01*
X010856Y013996D01*
X010922Y014126D01*
X011356Y014126D01*
X011336Y014118D01*
X011249Y014031D01*
X011202Y013918D01*
X011202Y013795D01*
X011249Y013682D01*
X011336Y013595D01*
X011235Y013715D02*
X010903Y013715D01*
X010903Y013814D02*
X011202Y013814D01*
X011202Y013913D02*
X010903Y013913D01*
X010864Y014011D02*
X011241Y014011D01*
X011328Y014110D02*
X010913Y014110D01*
X010810Y014306D02*
X010660Y014006D01*
X010810Y014306D02*
X011560Y014306D01*
X011960Y013956D01*
X011960Y013056D01*
X012140Y013321D02*
X014961Y013321D01*
X015359Y013321D02*
X017928Y013321D01*
X017977Y013223D02*
X015446Y013223D01*
X015487Y013124D02*
X018010Y013124D01*
X018010Y013026D02*
X015488Y013026D01*
X015462Y012927D02*
X018010Y012927D01*
X018010Y012829D02*
X015397Y012829D01*
X015230Y012730D02*
X018010Y012730D01*
X018010Y012631D02*
X014254Y012631D01*
X014156Y012533D02*
X018010Y012533D01*
X018010Y012434D02*
X014057Y012434D01*
X014000Y012336D02*
X018010Y012336D01*
X018010Y012237D02*
X014000Y012237D01*
X014000Y012139D02*
X015085Y012139D01*
X015089Y012145D02*
X015069Y012111D01*
X015059Y012073D01*
X015059Y011905D01*
X015377Y011905D01*
X015377Y012203D01*
X015189Y012203D01*
X015151Y012193D01*
X015117Y012173D01*
X015089Y012145D01*
X015059Y012040D02*
X014000Y012040D01*
X014000Y011942D02*
X015059Y011942D01*
X015059Y011808D02*
X015059Y011640D01*
X015069Y011602D01*
X015089Y011567D01*
X015117Y011539D01*
X015151Y011520D01*
X015189Y011509D01*
X015377Y011509D01*
X015377Y011808D01*
X015059Y011808D01*
X015059Y011745D02*
X014000Y011745D01*
X014000Y011843D02*
X015377Y011843D01*
X015377Y011808D02*
X015377Y011905D01*
X015474Y011905D01*
X015474Y012203D01*
X015662Y012203D01*
X015700Y012193D01*
X015734Y012173D01*
X015762Y012145D01*
X015771Y012130D01*
X015825Y012183D01*
X016365Y012183D01*
X016419Y012129D01*
X016424Y012134D01*
X016545Y012184D01*
X016676Y012184D01*
X016796Y012134D01*
X016888Y012042D01*
X016938Y011922D01*
X016938Y011791D01*
X016888Y011670D01*
X016796Y011578D01*
X016676Y011528D01*
X016545Y011528D01*
X016424Y011578D01*
X016419Y011583D01*
X016365Y011529D01*
X015825Y011529D01*
X015771Y011583D01*
X015762Y011567D01*
X015734Y011539D01*
X015700Y011520D01*
X015662Y011509D01*
X015474Y011509D01*
X015474Y011808D01*
X015377Y011808D01*
X015377Y011745D02*
X015474Y011745D01*
X015474Y011646D02*
X015377Y011646D01*
X015377Y011548D02*
X015474Y011548D01*
X015742Y011548D02*
X015806Y011548D01*
X015731Y011213D02*
X015655Y011137D01*
X015655Y010557D01*
X015731Y010481D01*
X016390Y010481D01*
X016466Y010557D01*
X016466Y010587D01*
X016474Y010578D01*
X016595Y010528D01*
X016726Y010528D01*
X016846Y010578D01*
X016938Y010670D01*
X016988Y010791D01*
X016988Y010922D01*
X016938Y011042D01*
X016846Y011134D01*
X016726Y011184D01*
X016595Y011184D01*
X016474Y011134D01*
X016466Y011126D01*
X016466Y011137D01*
X016390Y011213D01*
X015731Y011213D01*
X015671Y011153D02*
X015199Y011153D01*
X015216Y011055D02*
X015655Y011055D01*
X015655Y010956D02*
X015216Y010956D01*
X015216Y010858D02*
X015655Y010858D01*
X015655Y010759D02*
X015216Y010759D01*
X015216Y010661D02*
X015655Y010661D01*
X015655Y010562D02*
X015216Y010562D01*
X015201Y009971D02*
X015670Y009971D01*
X015655Y009872D02*
X015216Y009872D01*
X015216Y009774D02*
X015655Y009774D01*
X015655Y009675D02*
X015216Y009675D01*
X015216Y009577D02*
X015655Y009577D01*
X015655Y009478D02*
X015216Y009478D01*
X015216Y009380D02*
X015655Y009380D01*
X015870Y009281D02*
X015000Y009281D01*
X015000Y009182D02*
X015870Y009182D01*
X015870Y009084D02*
X015000Y009084D01*
X015000Y008985D02*
X015870Y008985D01*
X015870Y008887D02*
X015000Y008887D01*
X015000Y008788D02*
X015870Y008788D01*
X015870Y008690D02*
X015000Y008690D01*
X015000Y008591D02*
X015870Y008591D01*
X015870Y008493D02*
X015093Y008493D01*
X015191Y008394D02*
X015870Y008394D01*
X015870Y008296D02*
X015290Y008296D01*
X015388Y008197D02*
X015870Y008197D01*
X015870Y008099D02*
X015487Y008099D01*
X015585Y008000D02*
X015870Y008000D01*
X015870Y007901D02*
X015684Y007901D01*
X015782Y007803D02*
X015870Y007803D01*
X015881Y007704D02*
X015894Y007704D01*
X015979Y007606D02*
X015992Y007606D01*
X016078Y007507D02*
X016091Y007507D01*
X015836Y007212D02*
X015820Y007212D01*
X015892Y007156D02*
X015554Y007493D01*
X016222Y006784D01*
X016336Y006784D01*
X016372Y006769D01*
X016485Y006854D01*
X016475Y006890D01*
X016475Y006978D01*
X016899Y006978D01*
X016899Y006979D01*
X016475Y006979D01*
X016475Y007044D01*
X016004Y007044D01*
X015892Y007156D01*
X015892Y007156D01*
X015913Y007113D02*
X015935Y007113D01*
X016006Y007015D02*
X016475Y007015D01*
X016475Y006916D02*
X016098Y006916D01*
X016191Y006817D02*
X016436Y006817D01*
X016431Y007704D02*
X016495Y007704D01*
X016495Y007803D02*
X016332Y007803D01*
X016250Y007901D02*
X016478Y007901D01*
X016475Y008000D02*
X016250Y008000D01*
X016250Y008099D02*
X016477Y008099D01*
X016475Y008197D02*
X016250Y008197D01*
X016250Y008296D02*
X016475Y008296D01*
X016491Y008394D02*
X016250Y008394D01*
X016250Y008493D02*
X016495Y008493D01*
X016495Y008591D02*
X016250Y008591D01*
X016250Y008690D02*
X016495Y008690D01*
X016495Y008788D02*
X016250Y008788D01*
X016250Y008887D02*
X016495Y008887D01*
X016250Y008985D02*
X018010Y008985D01*
X018010Y008887D02*
X017305Y008887D01*
X017305Y008788D02*
X018010Y008788D01*
X018010Y008690D02*
X017305Y008690D01*
X017305Y008591D02*
X018010Y008591D01*
X018010Y008493D02*
X017305Y008493D01*
X017309Y008394D02*
X018010Y008394D01*
X018010Y008296D02*
X017325Y008296D01*
X017325Y008197D02*
X018010Y008197D01*
X018010Y008099D02*
X017322Y008099D01*
X017325Y008000D02*
X018010Y008000D01*
X018010Y007901D02*
X017321Y007901D01*
X017305Y007803D02*
X018010Y007803D01*
X018010Y007704D02*
X017305Y007704D01*
X017305Y007606D02*
X018010Y007606D01*
X018010Y007507D02*
X017305Y007507D01*
X017305Y007409D02*
X018010Y007409D01*
X018010Y007310D02*
X017305Y007310D01*
X017305Y007212D02*
X018010Y007212D01*
X018010Y007113D02*
X017310Y007113D01*
X017325Y007015D02*
X018010Y007015D01*
X018010Y006916D02*
X017325Y006916D01*
X017305Y006817D02*
X018010Y006817D01*
X018010Y006719D02*
X017305Y006719D01*
X017305Y006620D02*
X018010Y006620D01*
X018010Y006522D02*
X017305Y006522D01*
X017305Y006423D02*
X018010Y006423D01*
X018010Y006325D02*
X017318Y006325D01*
X017325Y006226D02*
X018010Y006226D01*
X018010Y006128D02*
X017325Y006128D01*
X017305Y006029D02*
X018010Y006029D01*
X018010Y005931D02*
X017305Y005931D01*
X017304Y005832D02*
X018010Y005832D01*
X018010Y005733D02*
X017305Y005733D01*
X017305Y005635D02*
X018010Y005635D01*
X018010Y005536D02*
X017305Y005536D01*
X017305Y005438D02*
X018010Y005438D01*
X018010Y005339D02*
X017305Y005339D01*
X016884Y004413D02*
X016808Y004336D01*
X016808Y003245D01*
X016884Y003168D01*
X017779Y003168D01*
X017856Y003245D01*
X017856Y004336D01*
X017779Y004413D01*
X016884Y004413D01*
X016826Y004354D02*
X016421Y004354D01*
X016439Y004255D02*
X016808Y004255D01*
X016808Y004157D02*
X016439Y004157D01*
X016439Y004058D02*
X016808Y004058D01*
X016808Y003960D02*
X016439Y003960D01*
X016439Y003861D02*
X016808Y003861D01*
X016808Y003763D02*
X016439Y003763D01*
X016439Y003664D02*
X016808Y003664D01*
X016808Y003566D02*
X016439Y003566D01*
X016439Y003467D02*
X016808Y003467D01*
X016808Y003368D02*
X016439Y003368D01*
X016436Y003270D02*
X016808Y003270D01*
X016881Y003171D02*
X016609Y003171D01*
X016736Y003073D02*
X018010Y003073D01*
X018010Y003171D02*
X017782Y003171D01*
X017856Y003270D02*
X018010Y003270D01*
X018010Y003368D02*
X017856Y003368D01*
X017856Y003467D02*
X018010Y003467D01*
X018010Y003566D02*
X017856Y003566D01*
X017856Y003664D02*
X018010Y003664D01*
X018010Y003763D02*
X017856Y003763D01*
X017856Y003861D02*
X018010Y003861D01*
X018010Y003960D02*
X017856Y003960D01*
X017856Y004058D02*
X018010Y004058D01*
X018010Y004157D02*
X017856Y004157D01*
X017856Y004255D02*
X018010Y004255D01*
X018010Y004354D02*
X017838Y004354D01*
X018010Y004452D02*
X015750Y004452D01*
X015750Y004551D02*
X018010Y004551D01*
X018010Y004649D02*
X015750Y004649D01*
X015750Y004748D02*
X018010Y004748D01*
X018010Y004847D02*
X015750Y004847D01*
X015818Y004945D02*
X018010Y004945D01*
X018010Y005044D02*
X015916Y005044D01*
X016015Y005142D02*
X018010Y005142D01*
X018010Y005241D02*
X016113Y005241D01*
X015669Y005733D02*
X015451Y005733D01*
X015570Y005635D02*
X015292Y005635D01*
X015078Y005142D02*
X013660Y005142D01*
X013759Y005044D02*
X015055Y005044D01*
X015055Y004945D02*
X014675Y004945D01*
X014774Y004847D02*
X015055Y004847D01*
X015055Y004748D02*
X014872Y004748D01*
X014971Y004649D02*
X015055Y004649D01*
X014658Y004255D02*
X014312Y004255D01*
X014312Y004157D02*
X014680Y004157D01*
X014680Y004058D02*
X014312Y004058D01*
X014312Y003960D02*
X014680Y003960D01*
X014680Y003861D02*
X014312Y003861D01*
X014312Y003763D02*
X014680Y003763D01*
X014702Y003664D02*
X014312Y003664D01*
X014312Y003566D02*
X014702Y003566D01*
X014702Y003467D02*
X014312Y003467D01*
X014312Y003368D02*
X014702Y003368D01*
X014702Y003270D02*
X014312Y003270D01*
X014239Y003171D02*
X014512Y003171D01*
X014385Y003073D02*
X011885Y003073D01*
X011885Y003085D02*
X011862Y003108D01*
X012771Y003108D01*
X012847Y003184D01*
X012847Y003528D01*
X012771Y003604D01*
X011797Y003604D01*
X011759Y003566D01*
X011623Y003566D01*
X011500Y003443D01*
X011390Y003333D01*
X011390Y003160D01*
X011315Y003085D01*
X011315Y002627D01*
X011391Y002551D01*
X011809Y002551D01*
X011885Y002627D01*
X011885Y003085D01*
X011885Y002974D02*
X014323Y002974D01*
X014287Y002876D02*
X011885Y002876D01*
X011885Y002777D02*
X014287Y002777D01*
X014306Y002679D02*
X011885Y002679D01*
X011838Y002580D02*
X014347Y002580D01*
X014443Y002482D02*
X010814Y002482D01*
X010838Y002383D02*
X018010Y002383D01*
X018010Y002482D02*
X016678Y002482D01*
X016773Y002580D02*
X018010Y002580D01*
X018010Y002679D02*
X016814Y002679D01*
X016834Y002777D02*
X018010Y002777D01*
X018010Y002876D02*
X016834Y002876D01*
X016798Y002974D02*
X018010Y002974D01*
X018010Y002284D02*
X011505Y002284D01*
X011505Y002186D02*
X013280Y002186D01*
X013265Y002087D02*
X011505Y002087D01*
X011505Y001989D02*
X013265Y001989D01*
X013265Y001890D02*
X011505Y001890D01*
X011470Y001792D02*
X013265Y001792D01*
X013265Y001693D02*
X000710Y001693D01*
X000710Y001656D02*
X000710Y023406D01*
X000960Y023706D01*
X011310Y023706D01*
X011760Y023206D01*
X011760Y019206D01*
X010755Y019206D01*
X010755Y019395D01*
X010679Y019471D01*
X010122Y019471D01*
X010947Y020296D01*
X011070Y020419D01*
X011070Y022719D01*
X011070Y022893D01*
X010820Y023143D01*
X010697Y023266D01*
X009947Y023266D01*
X009773Y023266D01*
X009523Y023016D01*
X009240Y023016D01*
X009000Y022776D01*
X009000Y022436D01*
X009240Y022196D01*
X009580Y022196D01*
X009820Y022436D01*
X009820Y022719D01*
X009947Y022846D01*
X010071Y022846D01*
X010000Y022776D01*
X010000Y022493D01*
X009700Y022193D01*
X009700Y022019D01*
X009700Y021896D01*
X009580Y022016D01*
X009240Y022016D01*
X009000Y021776D01*
X009000Y021436D01*
X009240Y021196D01*
X009580Y021196D01*
X009700Y021317D01*
X009700Y020493D01*
X009700Y020614D02*
X008120Y020614D01*
X008120Y020712D02*
X009700Y020712D01*
X009700Y020811D02*
X008120Y020811D01*
X008120Y020909D02*
X009700Y020909D01*
X009700Y021008D02*
X008120Y021008D01*
X008120Y021106D02*
X009700Y021106D01*
X009700Y021205D02*
X009589Y021205D01*
X009687Y021303D02*
X009700Y021303D01*
X009232Y021205D02*
X008589Y021205D01*
X008687Y021303D02*
X009133Y021303D01*
X009035Y021402D02*
X008786Y021402D01*
X008820Y021500D02*
X009000Y021500D01*
X009000Y021599D02*
X008820Y021599D01*
X008820Y021697D02*
X009000Y021697D01*
X009020Y021796D02*
X008800Y021796D01*
X008702Y021895D02*
X009119Y021895D01*
X009217Y021993D02*
X008603Y021993D01*
X008391Y022190D02*
X009700Y022190D01*
X009700Y022092D02*
X008293Y022092D01*
X008217Y021993D02*
X008194Y021993D01*
X007896Y022289D02*
X007673Y022289D01*
X007580Y022196D02*
X007820Y022436D01*
X007820Y022776D01*
X007580Y023016D01*
X007240Y023016D01*
X007000Y022776D01*
X007000Y022436D01*
X007240Y022196D01*
X007580Y022196D01*
X007700Y022092D02*
X006222Y022092D01*
X006232Y022176D02*
X006370Y022176D01*
X006370Y022566D01*
X006450Y022566D01*
X006450Y022176D01*
X006588Y022176D01*
X006840Y022428D01*
X006840Y022566D01*
X006451Y022566D01*
X006451Y022646D01*
X006840Y022646D01*
X006840Y022784D01*
X006588Y023036D01*
X006450Y023036D01*
X006450Y022647D01*
X006370Y022647D01*
X006370Y023036D01*
X006232Y023036D01*
X005980Y022784D01*
X005980Y022646D01*
X006370Y022646D01*
X006370Y022566D01*
X005980Y022566D01*
X005980Y022428D01*
X006232Y022176D01*
X006218Y022190D02*
X006123Y022190D01*
X006120Y022289D02*
X006025Y022289D01*
X006021Y022387D02*
X005926Y022387D01*
X005980Y022486D02*
X005828Y022486D01*
X005729Y022584D02*
X006370Y022584D01*
X006451Y022584D02*
X007000Y022584D01*
X007000Y022486D02*
X006840Y022486D01*
X006799Y022387D02*
X007049Y022387D01*
X007148Y022289D02*
X006701Y022289D01*
X006602Y022190D02*
X007797Y022190D01*
X007771Y022387D02*
X007994Y022387D01*
X008000Y022486D02*
X007820Y022486D01*
X007820Y022584D02*
X008000Y022584D01*
X008000Y022683D02*
X007820Y022683D01*
X007815Y022781D02*
X008006Y022781D01*
X008104Y022880D02*
X007716Y022880D01*
X007618Y022979D02*
X008203Y022979D01*
X008618Y022979D02*
X009203Y022979D01*
X009104Y022880D02*
X008716Y022880D01*
X008815Y022781D02*
X009006Y022781D01*
X009000Y022683D02*
X008820Y022683D01*
X008820Y022584D02*
X009000Y022584D01*
X009000Y022486D02*
X008820Y022486D01*
X008771Y022387D02*
X009049Y022387D01*
X009148Y022289D02*
X008673Y022289D01*
X008133Y021303D02*
X008120Y021303D01*
X008120Y021205D02*
X008232Y021205D01*
X007700Y021205D02*
X007589Y021205D01*
X007687Y021303D02*
X007700Y021303D01*
X007700Y021106D02*
X003907Y021106D01*
X003809Y021205D02*
X006232Y021205D01*
X006133Y021303D02*
X003710Y021303D01*
X003612Y021402D02*
X006035Y021402D01*
X006000Y021500D02*
X003513Y021500D01*
X003415Y021599D02*
X006000Y021599D01*
X006000Y021697D02*
X003320Y021697D01*
X003320Y021796D02*
X005924Y021796D01*
X005825Y021895D02*
X003320Y021895D01*
X003303Y021993D02*
X005726Y021993D01*
X005628Y022092D02*
X003205Y022092D01*
X003106Y022190D02*
X005529Y022190D01*
X005431Y022289D02*
X001990Y022289D01*
X002106Y022190D02*
X002714Y022190D01*
X002616Y022092D02*
X002205Y022092D01*
X002303Y021993D02*
X002517Y021993D01*
X002500Y021895D02*
X002320Y021895D01*
X002320Y021796D02*
X002500Y021796D01*
X002500Y021697D02*
X002320Y021697D01*
X002283Y021599D02*
X002538Y021599D01*
X002636Y021500D02*
X002184Y021500D01*
X002086Y021402D02*
X002735Y021402D01*
X002740Y021216D02*
X002500Y020976D01*
X002500Y020636D01*
X002740Y020396D01*
X003080Y020396D01*
X003320Y020636D01*
X003320Y020976D01*
X003080Y021216D01*
X002740Y021216D01*
X002729Y021205D02*
X002092Y021205D01*
X002190Y021106D02*
X002630Y021106D01*
X002532Y021008D02*
X002289Y021008D01*
X002320Y020909D02*
X002500Y020909D01*
X002500Y020811D02*
X002320Y020811D01*
X002320Y020712D02*
X002500Y020712D01*
X002523Y020614D02*
X002297Y020614D01*
X002199Y020515D02*
X002622Y020515D01*
X002720Y020416D02*
X002100Y020416D01*
X002176Y020121D02*
X002645Y020121D01*
X002740Y020216D02*
X002500Y019976D01*
X002500Y019636D01*
X002740Y019396D01*
X003080Y019396D01*
X003320Y019636D01*
X003320Y019976D01*
X003080Y020216D01*
X002740Y020216D01*
X002546Y020022D02*
X002274Y020022D01*
X002320Y019924D02*
X002500Y019924D01*
X002500Y019825D02*
X002320Y019825D01*
X002320Y019727D02*
X002500Y019727D01*
X002509Y019628D02*
X002312Y019628D01*
X002213Y019530D02*
X002607Y019530D01*
X002706Y019431D02*
X002115Y019431D01*
X002161Y019135D02*
X002660Y019135D01*
X002561Y019037D02*
X002260Y019037D01*
X002320Y018938D02*
X002500Y018938D01*
X002500Y018840D02*
X002320Y018840D01*
X002320Y018741D02*
X002500Y018741D01*
X002500Y018643D02*
X002320Y018643D01*
X002228Y018544D02*
X002593Y018544D01*
X002571Y018046D02*
X002278Y018046D01*
X002340Y017984D01*
X002340Y017846D01*
X001951Y017846D01*
X001951Y017766D01*
X002340Y017766D01*
X002340Y017628D01*
X002088Y017376D01*
X001950Y017376D01*
X001950Y017766D01*
X001870Y017766D01*
X001480Y017766D01*
X001480Y017628D01*
X001732Y017376D01*
X001870Y017376D01*
X001870Y017766D01*
X001870Y017846D01*
X001480Y017846D01*
X001480Y017984D01*
X001542Y018046D01*
X001523Y018046D01*
X001273Y018296D01*
X001220Y018349D01*
X001220Y016893D01*
X001460Y016653D01*
X002500Y017693D01*
X002500Y017976D01*
X002571Y018046D01*
X002500Y017953D02*
X002340Y017953D01*
X002340Y017854D02*
X002500Y017854D01*
X002500Y017756D02*
X002340Y017756D01*
X002340Y017657D02*
X002464Y017657D01*
X002366Y017559D02*
X002271Y017559D01*
X002267Y017460D02*
X002172Y017460D01*
X002169Y017362D02*
X001220Y017362D01*
X001220Y017460D02*
X001648Y017460D01*
X001550Y017559D02*
X001220Y017559D01*
X001220Y017657D02*
X001480Y017657D01*
X001480Y017756D02*
X001220Y017756D01*
X001220Y017854D02*
X001480Y017854D01*
X001480Y017953D02*
X001220Y017953D01*
X001220Y018051D02*
X001518Y018051D01*
X001420Y018150D02*
X001220Y018150D01*
X001220Y018248D02*
X001321Y018248D01*
X001223Y018347D02*
X001220Y018347D01*
X000800Y018347D02*
X000710Y018347D01*
X000710Y018248D02*
X000800Y018248D01*
X000800Y018150D02*
X000710Y018150D01*
X000710Y018051D02*
X000800Y018051D01*
X000800Y017953D02*
X000710Y017953D01*
X000710Y017854D02*
X000800Y017854D01*
X000800Y017756D02*
X000710Y017756D01*
X000710Y017657D02*
X000800Y017657D01*
X000800Y017559D02*
X000710Y017559D01*
X000710Y017460D02*
X000800Y017460D01*
X000800Y017362D02*
X000710Y017362D01*
X000710Y017263D02*
X000800Y017263D01*
X000800Y017164D02*
X000710Y017164D01*
X000710Y017066D02*
X000800Y017066D01*
X000800Y016967D02*
X000710Y016967D01*
X000710Y016869D02*
X000800Y016869D01*
X000800Y016770D02*
X000710Y016770D01*
X000710Y016672D02*
X000848Y016672D01*
X000946Y016573D02*
X000710Y016573D01*
X000710Y016475D02*
X001045Y016475D01*
X001143Y016376D02*
X000710Y016376D01*
X000710Y016278D02*
X001242Y016278D01*
X001250Y016179D02*
X000710Y016179D01*
X000710Y016081D02*
X001250Y016081D01*
X001250Y015982D02*
X000710Y015982D01*
X000710Y015883D02*
X001250Y015883D01*
X001250Y015785D02*
X000710Y015785D01*
X000710Y015686D02*
X001250Y015686D01*
X001250Y015588D02*
X000710Y015588D01*
X000710Y015489D02*
X001250Y015489D01*
X001250Y015391D02*
X000710Y015391D01*
X000710Y015292D02*
X001250Y015292D01*
X001250Y015194D02*
X000710Y015194D01*
X000710Y015095D02*
X001250Y015095D01*
X001250Y014997D02*
X000710Y014997D01*
X000710Y014898D02*
X001250Y014898D01*
X001250Y014799D02*
X000710Y014799D01*
X000710Y014701D02*
X001250Y014701D01*
X001250Y014602D02*
X000710Y014602D01*
X000710Y014504D02*
X001250Y014504D01*
X001250Y014405D02*
X000710Y014405D01*
X000710Y014307D02*
X001250Y014307D01*
X001250Y014208D02*
X000710Y014208D01*
X000710Y014110D02*
X001250Y014110D01*
X001250Y014011D02*
X000710Y014011D01*
X000710Y013913D02*
X001250Y013913D01*
X001250Y013814D02*
X000710Y013814D01*
X000710Y013715D02*
X001250Y013715D01*
X001250Y013617D02*
X000710Y013617D01*
X000710Y013518D02*
X001250Y013518D01*
X001250Y013420D02*
X000710Y013420D01*
X000710Y013321D02*
X001250Y013321D01*
X001250Y013223D02*
X000710Y013223D01*
X000710Y013124D02*
X001250Y013124D01*
X001250Y013026D02*
X000710Y013026D01*
X000710Y012927D02*
X001250Y012927D01*
X001250Y012829D02*
X000710Y012829D01*
X000710Y012730D02*
X001250Y012730D01*
X001250Y012631D02*
X000710Y012631D01*
X000710Y012533D02*
X001250Y012533D01*
X001250Y012434D02*
X000710Y012434D01*
X000710Y012336D02*
X001208Y012336D01*
X001133Y012237D02*
X000710Y012237D01*
X000710Y012139D02*
X001133Y012139D01*
X001133Y012040D02*
X000710Y012040D01*
X000710Y011942D02*
X001133Y011942D01*
X001133Y011843D02*
X000710Y011843D01*
X000710Y011745D02*
X001133Y011745D01*
X001188Y011646D02*
X000710Y011646D01*
X000710Y011548D02*
X001133Y011548D01*
X001133Y011449D02*
X000710Y011449D01*
X000710Y011350D02*
X001133Y011350D01*
X001133Y011252D02*
X000710Y011252D01*
X000710Y011153D02*
X001133Y011153D01*
X001133Y011055D02*
X000710Y011055D01*
X000710Y010956D02*
X001250Y010956D01*
X001126Y010858D02*
X000710Y010858D01*
X000710Y010759D02*
X001055Y010759D01*
X001055Y010661D02*
X000710Y010661D01*
X000710Y010562D02*
X001055Y010562D01*
X001055Y010464D02*
X000710Y010464D01*
X000710Y010365D02*
X001055Y010365D01*
X001055Y010266D02*
X000710Y010266D01*
X000710Y010168D02*
X001094Y010168D01*
X000710Y010069D02*
X002092Y010069D01*
X002092Y009980D02*
X002168Y009904D01*
X002404Y009904D01*
X002404Y008909D01*
X002218Y008909D01*
X002142Y008833D01*
X002142Y007780D01*
X002218Y007704D01*
X002454Y007704D01*
X002454Y006846D01*
X002175Y006731D01*
X001899Y006455D01*
X001750Y006095D01*
X001750Y005705D01*
X001899Y005345D01*
X002175Y005069D01*
X002535Y004920D01*
X002925Y004920D01*
X003285Y005069D01*
X003561Y005345D01*
X003710Y005705D01*
X003710Y006095D01*
X003561Y006455D01*
X003285Y006731D01*
X003034Y006835D01*
X003034Y007704D01*
X003270Y007704D01*
X003347Y007780D01*
X003347Y008833D01*
X003270Y008909D01*
X002984Y008909D01*
X002984Y009904D01*
X003220Y009904D01*
X003297Y009980D01*
X003297Y011033D01*
X003220Y011109D01*
X002168Y011109D01*
X002092Y011033D01*
X002092Y009980D01*
X002101Y009971D02*
X000710Y009971D01*
X000710Y009872D02*
X002404Y009872D01*
X002404Y009774D02*
X000710Y009774D01*
X000710Y009675D02*
X001098Y009675D01*
X001093Y009672D02*
X001065Y009644D01*
X001045Y009610D01*
X001035Y009572D01*
X001035Y009366D01*
X001410Y009366D01*
X001410Y009266D01*
X001035Y009266D01*
X001035Y009060D01*
X001045Y009022D01*
X001065Y008987D01*
X001093Y008959D01*
X001127Y008940D01*
X001165Y008930D01*
X001410Y008930D01*
X001410Y009266D01*
X001510Y009266D01*
X001510Y008930D01*
X001756Y008930D01*
X001794Y008940D01*
X001828Y008959D01*
X001856Y008987D01*
X001876Y009022D01*
X001886Y009060D01*
X001886Y009266D01*
X001510Y009266D01*
X001510Y009366D01*
X001410Y009366D01*
X001410Y009702D01*
X001165Y009702D01*
X001127Y009692D01*
X001093Y009672D01*
X001036Y009577D02*
X000710Y009577D01*
X000710Y009478D02*
X001035Y009478D01*
X001035Y009380D02*
X000710Y009380D01*
X000710Y009281D02*
X001410Y009281D01*
X001410Y009182D02*
X001510Y009182D01*
X001510Y009084D02*
X001410Y009084D01*
X001410Y008985D02*
X001510Y008985D01*
X001510Y009281D02*
X002404Y009281D01*
X002404Y009182D02*
X001886Y009182D01*
X001886Y009084D02*
X002404Y009084D01*
X002404Y008985D02*
X001854Y008985D01*
X002142Y008788D02*
X000710Y008788D01*
X000710Y008690D02*
X002142Y008690D01*
X002142Y008591D02*
X000710Y008591D01*
X000710Y008493D02*
X002142Y008493D01*
X002142Y008394D02*
X000710Y008394D01*
X000710Y008296D02*
X002142Y008296D01*
X002142Y008197D02*
X000710Y008197D01*
X000710Y008099D02*
X002142Y008099D01*
X002142Y008000D02*
X000710Y008000D01*
X000710Y007901D02*
X002142Y007901D01*
X002142Y007803D02*
X000710Y007803D01*
X000710Y007704D02*
X002217Y007704D01*
X002454Y007606D02*
X000710Y007606D01*
X000710Y007507D02*
X002454Y007507D01*
X002454Y007409D02*
X000710Y007409D01*
X000710Y007310D02*
X002454Y007310D01*
X002454Y007212D02*
X000710Y007212D01*
X000710Y007113D02*
X002454Y007113D01*
X002454Y007015D02*
X000710Y007015D01*
X000710Y006916D02*
X002454Y006916D01*
X002384Y006817D02*
X000710Y006817D01*
X000710Y006719D02*
X002163Y006719D01*
X002065Y006620D02*
X000710Y006620D01*
X000710Y006522D02*
X001966Y006522D01*
X001886Y006423D02*
X000710Y006423D01*
X000710Y006325D02*
X001846Y006325D01*
X001805Y006226D02*
X000710Y006226D01*
X000710Y006128D02*
X001764Y006128D01*
X001750Y006029D02*
X000710Y006029D01*
X000710Y005931D02*
X001750Y005931D01*
X001750Y005832D02*
X000710Y005832D01*
X000710Y005733D02*
X001750Y005733D01*
X001779Y005635D02*
X000710Y005635D01*
X000710Y005536D02*
X001820Y005536D01*
X001861Y005438D02*
X000710Y005438D01*
X000710Y005339D02*
X001905Y005339D01*
X002004Y005241D02*
X000710Y005241D01*
X000710Y005142D02*
X002102Y005142D01*
X002237Y005044D02*
X000710Y005044D01*
X000710Y004945D02*
X002475Y004945D01*
X002563Y004525D02*
X002453Y004500D01*
X002347Y004463D01*
X002246Y004414D01*
X002151Y004355D01*
X002063Y004285D01*
X001984Y004205D01*
X001913Y004117D01*
X001854Y004022D01*
X001805Y003921D01*
X001768Y003815D01*
X001743Y003706D01*
X001730Y003594D01*
X001730Y003588D01*
X002680Y003588D01*
X002680Y003488D01*
X001730Y003488D01*
X001730Y003482D01*
X001743Y003370D01*
X001768Y003261D01*
X001805Y003154D01*
X001854Y003053D01*
X001913Y002958D01*
X001984Y002870D01*
X002063Y002791D01*
X002151Y002721D01*
X002246Y002661D01*
X002347Y002612D01*
X002453Y002575D01*
X002563Y002550D01*
X002674Y002538D01*
X002680Y002538D01*
X002680Y003488D01*
X002780Y003488D01*
X002780Y002538D01*
X002786Y002538D01*
X002898Y002550D01*
X003008Y002575D01*
X003114Y002612D01*
X003215Y002661D01*
X003310Y002721D01*
X003398Y002791D01*
X003477Y002870D01*
X003547Y002958D01*
X003607Y003053D01*
X003656Y003154D01*
X003693Y003261D01*
X003718Y003370D01*
X003730Y003482D01*
X003730Y003488D01*
X002780Y003488D01*
X002780Y003588D01*
X002680Y003588D01*
X002680Y004538D01*
X002674Y004538D01*
X002563Y004525D01*
X002680Y004452D02*
X002780Y004452D01*
X002786Y004538D02*
X002780Y004538D01*
X002780Y003588D01*
X003730Y003588D01*
X003730Y003594D01*
X003718Y003706D01*
X003693Y003815D01*
X003656Y003921D01*
X003607Y004022D01*
X003547Y004117D01*
X003477Y004205D01*
X003398Y004285D01*
X003310Y004355D01*
X003215Y004414D01*
X003114Y004463D01*
X003008Y004500D01*
X002898Y004525D01*
X002786Y004538D01*
X002780Y004354D02*
X002680Y004354D01*
X002680Y004255D02*
X002780Y004255D01*
X002780Y004157D02*
X002680Y004157D01*
X002680Y004058D02*
X002780Y004058D01*
X002780Y003960D02*
X002680Y003960D01*
X002680Y003861D02*
X002780Y003861D01*
X002780Y003763D02*
X002680Y003763D01*
X002680Y003664D02*
X002780Y003664D01*
X002780Y003566D02*
X007454Y003566D01*
X007356Y003664D02*
X003722Y003664D01*
X003705Y003763D02*
X004286Y003763D01*
X004303Y003756D02*
X004413Y003731D01*
X004525Y003719D01*
X004531Y003719D01*
X004531Y004669D01*
X004631Y004669D01*
X004631Y004769D01*
X005581Y004769D01*
X005581Y004775D01*
X005568Y004887D01*
X005543Y004996D01*
X005506Y005102D01*
X005457Y005203D01*
X005398Y005298D01*
X005327Y005386D01*
X005248Y005466D01*
X005160Y005536D01*
X005065Y005595D01*
X004964Y005644D01*
X004858Y005681D01*
X004748Y005706D01*
X004637Y005719D01*
X004631Y005719D01*
X004631Y004769D01*
X004531Y004769D01*
X004531Y005719D01*
X004525Y005719D01*
X004413Y005706D01*
X004303Y005681D01*
X004197Y005644D01*
X004096Y005595D01*
X004001Y005536D01*
X003913Y005466D01*
X003834Y005386D01*
X003764Y005298D01*
X003704Y005203D01*
X003655Y005102D01*
X003618Y004996D01*
X003593Y004887D01*
X003581Y004775D01*
X003581Y004769D01*
X004531Y004769D01*
X004531Y004669D01*
X003581Y004669D01*
X003581Y004663D01*
X003593Y004551D01*
X000710Y004551D01*
X000710Y004649D02*
X003582Y004649D01*
X003593Y004551D02*
X003618Y004442D01*
X003655Y004336D01*
X003704Y004234D01*
X003764Y004139D01*
X003834Y004051D01*
X003913Y003972D01*
X004001Y003902D01*
X004096Y003842D01*
X004197Y003794D01*
X004303Y003756D01*
X004531Y003763D02*
X004631Y003763D01*
X004631Y003719D02*
X004637Y003719D01*
X004748Y003731D01*
X004858Y003756D01*
X004964Y003794D01*
X005065Y003842D01*
X005160Y003902D01*
X005248Y003972D01*
X005327Y004051D01*
X005398Y004139D01*
X005457Y004234D01*
X005506Y004336D01*
X005543Y004442D01*
X005568Y004551D01*
X006080Y004551D01*
X006080Y004649D02*
X005579Y004649D01*
X005581Y004663D02*
X005581Y004669D01*
X004631Y004669D01*
X004631Y003719D01*
X004631Y003861D02*
X004531Y003861D01*
X004531Y003960D02*
X004631Y003960D01*
X004631Y004058D02*
X004531Y004058D01*
X004531Y004157D02*
X004631Y004157D01*
X004631Y004255D02*
X004531Y004255D01*
X004531Y004354D02*
X004631Y004354D01*
X004631Y004452D02*
X004531Y004452D01*
X004531Y004551D02*
X004631Y004551D01*
X004631Y004649D02*
X004531Y004649D01*
X004531Y004748D02*
X000710Y004748D01*
X000710Y004847D02*
X003589Y004847D01*
X003607Y004945D02*
X002986Y004945D01*
X003224Y005044D02*
X003635Y005044D01*
X003675Y005142D02*
X003358Y005142D01*
X003457Y005241D02*
X003728Y005241D01*
X003796Y005339D02*
X003556Y005339D01*
X003600Y005438D02*
X003885Y005438D01*
X004002Y005536D02*
X003640Y005536D01*
X003681Y005635D02*
X004178Y005635D01*
X004531Y005635D02*
X004631Y005635D01*
X004631Y005536D02*
X004531Y005536D01*
X004531Y005438D02*
X004631Y005438D01*
X004631Y005339D02*
X004531Y005339D01*
X004531Y005241D02*
X004631Y005241D01*
X004631Y005142D02*
X004531Y005142D01*
X004531Y005044D02*
X004631Y005044D01*
X004631Y004945D02*
X004531Y004945D01*
X004531Y004847D02*
X004631Y004847D01*
X004631Y004748D02*
X006080Y004748D01*
X006080Y004847D02*
X005573Y004847D01*
X005555Y004945D02*
X006080Y004945D01*
X006080Y005044D02*
X005526Y005044D01*
X005487Y005142D02*
X006080Y005142D01*
X006080Y005241D02*
X005434Y005241D01*
X005365Y005339D02*
X006099Y005339D01*
X006080Y005320D02*
X006080Y004332D01*
X006156Y004256D01*
X006744Y004256D01*
X006820Y004332D01*
X006820Y005320D01*
X006744Y005396D01*
X006660Y005396D01*
X006660Y005413D01*
X006790Y005413D01*
X006866Y005489D01*
X006866Y006463D01*
X006790Y006539D01*
X006131Y006539D01*
X006055Y006463D01*
X006055Y006266D01*
X005769Y006266D01*
X005754Y006273D01*
X004766Y007260D01*
X004766Y007704D01*
X005003Y007704D01*
X005079Y007780D01*
X005079Y008833D01*
X005003Y008909D01*
X003950Y008909D01*
X003874Y008833D01*
X003874Y007780D01*
X003950Y007704D01*
X004186Y007704D01*
X004186Y007198D01*
X004186Y007082D01*
X004231Y006976D01*
X005344Y005862D01*
X005382Y005770D01*
X005474Y005678D01*
X005595Y005628D01*
X005726Y005628D01*
X005846Y005678D01*
X005854Y005686D01*
X006055Y005686D01*
X006055Y005489D01*
X006131Y005413D01*
X006240Y005413D01*
X006240Y005396D01*
X006156Y005396D01*
X006080Y005320D01*
X006106Y005438D02*
X005276Y005438D01*
X005159Y005536D02*
X006055Y005536D01*
X006055Y005635D02*
X005742Y005635D01*
X005579Y005635D02*
X004983Y005635D01*
X005276Y005931D02*
X003710Y005931D01*
X003710Y006029D02*
X005177Y006029D01*
X005079Y006128D02*
X003697Y006128D01*
X003656Y006226D02*
X004980Y006226D01*
X004882Y006325D02*
X003615Y006325D01*
X003574Y006423D02*
X004783Y006423D01*
X004685Y006522D02*
X003494Y006522D01*
X003396Y006620D02*
X004586Y006620D01*
X004488Y006719D02*
X003297Y006719D01*
X003076Y006817D02*
X004389Y006817D01*
X004290Y006916D02*
X003034Y006916D01*
X003034Y007015D02*
X004215Y007015D01*
X004186Y007113D02*
X003034Y007113D01*
X003034Y007212D02*
X004186Y007212D01*
X004186Y007310D02*
X003034Y007310D01*
X003034Y007409D02*
X004186Y007409D01*
X004186Y007507D02*
X003034Y007507D01*
X003034Y007606D02*
X004186Y007606D01*
X003950Y007704D02*
X003271Y007704D01*
X003347Y007803D02*
X003874Y007803D01*
X003874Y007901D02*
X003347Y007901D01*
X003347Y008000D02*
X003874Y008000D01*
X003874Y008099D02*
X003347Y008099D01*
X003347Y008197D02*
X003874Y008197D01*
X003874Y008296D02*
X003347Y008296D01*
X003347Y008394D02*
X003874Y008394D01*
X003874Y008493D02*
X003347Y008493D01*
X003347Y008591D02*
X003874Y008591D01*
X003874Y008690D02*
X003347Y008690D01*
X003347Y008788D02*
X003874Y008788D01*
X003928Y008887D02*
X003292Y008887D01*
X002984Y008985D02*
X006103Y008985D01*
X006093Y008979D02*
X006065Y008952D01*
X006045Y008917D01*
X006035Y008879D01*
X006035Y008476D01*
X006410Y008476D01*
X006410Y008376D01*
X006510Y008376D01*
X006510Y007843D01*
X006756Y007843D01*
X006794Y007854D01*
X006828Y007873D01*
X006856Y007901D01*
X006876Y007935D01*
X006886Y007974D01*
X006886Y008376D01*
X006510Y008376D01*
X006510Y008476D01*
X006410Y008476D01*
X006410Y009009D01*
X006165Y009009D01*
X006127Y008999D01*
X006093Y008979D01*
X006037Y008887D02*
X005025Y008887D01*
X005079Y008788D02*
X006035Y008788D01*
X006035Y008690D02*
X005079Y008690D01*
X005079Y008591D02*
X006035Y008591D01*
X006035Y008493D02*
X005079Y008493D01*
X005079Y008394D02*
X006410Y008394D01*
X006410Y008376D02*
X006035Y008376D01*
X006035Y007974D01*
X006045Y007935D01*
X006065Y007901D01*
X006093Y007873D01*
X006127Y007854D01*
X006165Y007843D01*
X006410Y007843D01*
X006410Y008376D01*
X006410Y008296D02*
X006510Y008296D01*
X006510Y008394D02*
X007719Y008394D01*
X007818Y008296D02*
X006886Y008296D01*
X006886Y008197D02*
X007655Y008197D01*
X007539Y008099D02*
X006886Y008099D01*
X006886Y008000D02*
X007494Y008000D01*
X007452Y007901D02*
X006856Y007901D01*
X006804Y007803D02*
X007353Y007803D01*
X007255Y007704D02*
X006882Y007704D01*
X006886Y007689D02*
X006876Y007727D01*
X006856Y007761D01*
X006828Y007789D01*
X006794Y007809D01*
X006756Y007819D01*
X006510Y007819D01*
X006510Y007286D01*
X006410Y007286D01*
X006410Y007186D01*
X006035Y007186D01*
X006035Y006783D01*
X006045Y006745D01*
X006065Y006711D01*
X006093Y006683D01*
X006127Y006663D01*
X006165Y006653D01*
X006410Y006653D01*
X006410Y007186D01*
X006510Y007186D01*
X006510Y006653D01*
X006756Y006653D01*
X006794Y006663D01*
X006828Y006683D01*
X006856Y006711D01*
X006876Y006745D01*
X006886Y006783D01*
X006886Y007186D01*
X006510Y007186D01*
X006510Y007286D01*
X006886Y007286D01*
X006886Y007689D01*
X006886Y007606D02*
X007156Y007606D01*
X007111Y007507D02*
X006886Y007507D01*
X006886Y007409D02*
X007110Y007409D01*
X007110Y007310D02*
X006886Y007310D01*
X006886Y007113D02*
X007110Y007113D01*
X007110Y007015D02*
X006886Y007015D01*
X006886Y006916D02*
X007110Y006916D01*
X007110Y006817D02*
X006886Y006817D01*
X006860Y006719D02*
X007110Y006719D01*
X007110Y006620D02*
X005406Y006620D01*
X005505Y006522D02*
X006113Y006522D01*
X006055Y006423D02*
X005603Y006423D01*
X005702Y006325D02*
X006055Y006325D01*
X006060Y006719D02*
X005308Y006719D01*
X005209Y006817D02*
X006035Y006817D01*
X006035Y006916D02*
X005111Y006916D01*
X005012Y007015D02*
X006035Y007015D01*
X006035Y007113D02*
X004914Y007113D01*
X004815Y007212D02*
X006410Y007212D01*
X006410Y007286D02*
X006035Y007286D01*
X006035Y007689D01*
X006045Y007727D01*
X006065Y007761D01*
X006093Y007789D01*
X006127Y007809D01*
X006165Y007819D01*
X006410Y007819D01*
X006410Y007286D01*
X006410Y007310D02*
X006510Y007310D01*
X006510Y007212D02*
X007110Y007212D01*
X007110Y006522D02*
X006807Y006522D01*
X006866Y006423D02*
X007110Y006423D01*
X007110Y006325D02*
X006866Y006325D01*
X006866Y006226D02*
X007110Y006226D01*
X007110Y006128D02*
X006866Y006128D01*
X006866Y006029D02*
X007110Y006029D01*
X007110Y005931D02*
X006866Y005931D01*
X006866Y005832D02*
X007110Y005832D01*
X007110Y005733D02*
X006866Y005733D01*
X006866Y005635D02*
X007110Y005635D01*
X007110Y005536D02*
X006866Y005536D01*
X006814Y005438D02*
X007110Y005438D01*
X007009Y005339D02*
X006801Y005339D01*
X006820Y005241D02*
X006990Y005241D01*
X006990Y005142D02*
X006820Y005142D01*
X006820Y005044D02*
X006990Y005044D01*
X006990Y004945D02*
X006820Y004945D01*
X006820Y004847D02*
X006990Y004847D01*
X006990Y004748D02*
X006820Y004748D01*
X006820Y004649D02*
X006990Y004649D01*
X006990Y004551D02*
X006820Y004551D01*
X006820Y004452D02*
X006990Y004452D01*
X006990Y004354D02*
X006820Y004354D01*
X007150Y004255D02*
X005467Y004255D01*
X005512Y004354D02*
X006080Y004354D01*
X006080Y004452D02*
X005546Y004452D01*
X005568Y004551D02*
X005581Y004663D01*
X005408Y004157D02*
X007150Y004157D01*
X007150Y004058D02*
X005333Y004058D01*
X005233Y003960D02*
X007150Y003960D01*
X007158Y003861D02*
X005095Y003861D01*
X004875Y003763D02*
X007257Y003763D01*
X007553Y003467D02*
X003729Y003467D01*
X003717Y003368D02*
X007651Y003368D01*
X007750Y003270D02*
X003695Y003270D01*
X003661Y003171D02*
X007848Y003171D01*
X008123Y002949D02*
X006598Y002949D01*
X006522Y002873D01*
X006522Y001899D01*
X006598Y001823D01*
X008123Y001823D01*
X008199Y001899D01*
X008199Y002873D01*
X008123Y002949D01*
X008196Y002876D02*
X009028Y002876D01*
X009032Y002879D02*
X009004Y002852D01*
X008984Y002817D01*
X008974Y002779D01*
X008974Y002631D01*
X009331Y002631D01*
X009331Y002573D01*
X008974Y002573D01*
X008974Y002425D01*
X008984Y002387D01*
X009004Y002352D01*
X009032Y002324D01*
X009066Y002305D01*
X009104Y002294D01*
X009331Y002294D01*
X009331Y002573D01*
X009389Y002573D01*
X009389Y002294D01*
X009616Y002294D01*
X009654Y002305D01*
X009689Y002324D01*
X009717Y002352D01*
X009736Y002387D01*
X009746Y002425D01*
X009746Y002573D01*
X009389Y002573D01*
X009389Y002631D01*
X009331Y002631D01*
X009331Y002909D01*
X009104Y002909D01*
X009066Y002899D01*
X009032Y002879D01*
X008974Y002777D02*
X008199Y002777D01*
X008199Y002679D02*
X008974Y002679D01*
X008974Y002482D02*
X008199Y002482D01*
X008199Y002580D02*
X009331Y002580D01*
X009389Y002580D02*
X010270Y002580D01*
X010207Y002482D02*
X009746Y002482D01*
X009734Y002383D02*
X010182Y002383D01*
X010185Y002284D02*
X008199Y002284D01*
X008199Y002186D02*
X010226Y002186D01*
X010315Y002087D02*
X008199Y002087D01*
X008199Y001989D02*
X010581Y001989D01*
X010679Y001890D02*
X008190Y001890D01*
X008199Y002383D02*
X008986Y002383D01*
X009331Y002383D02*
X009389Y002383D01*
X009389Y002482D02*
X009331Y002482D01*
X009389Y002631D02*
X009746Y002631D01*
X009746Y002779D01*
X009736Y002817D01*
X009717Y002852D01*
X009689Y002879D01*
X009654Y002899D01*
X009616Y002909D01*
X009389Y002909D01*
X009389Y002631D01*
X009389Y002679D02*
X009331Y002679D01*
X009331Y002777D02*
X009389Y002777D01*
X009389Y002876D02*
X009331Y002876D01*
X009021Y003073D02*
X003616Y003073D01*
X003557Y002974D02*
X010555Y002974D01*
X010555Y002876D02*
X009692Y002876D01*
X009746Y002777D02*
X010555Y002777D01*
X010431Y002679D02*
X009746Y002679D01*
X009700Y003073D02*
X010555Y003073D01*
X010947Y003467D02*
X011524Y003467D01*
X011623Y003566D02*
X010848Y003566D01*
X010779Y003664D02*
X011741Y003664D01*
X011485Y003763D02*
X010800Y003763D01*
X010800Y003861D02*
X011387Y003861D01*
X011288Y003960D02*
X010800Y003960D01*
X010770Y004058D02*
X011190Y004058D01*
X011333Y004452D02*
X011350Y004452D01*
X011350Y004551D02*
X010777Y004551D01*
X010765Y004649D02*
X011350Y004649D01*
X011350Y004748D02*
X010800Y004748D01*
X010800Y004847D02*
X011350Y004847D01*
X011350Y004945D02*
X010800Y004945D01*
X010784Y005044D02*
X011350Y005044D01*
X010860Y005352D02*
X010732Y005352D01*
X010831Y005832D02*
X010889Y005832D01*
X010889Y005931D02*
X010831Y005931D01*
X010831Y006029D02*
X010889Y006029D01*
X010889Y006090D02*
X010831Y006090D01*
X010831Y006368D01*
X010766Y006368D01*
X010766Y006846D01*
X010986Y006846D01*
X010932Y006792D01*
X010882Y006672D01*
X010882Y006541D01*
X010932Y006420D01*
X010985Y006368D01*
X010889Y006368D01*
X010889Y006090D01*
X010889Y006128D02*
X010831Y006128D01*
X010831Y006226D02*
X010889Y006226D01*
X010889Y006325D02*
X010831Y006325D01*
X010766Y006423D02*
X010931Y006423D01*
X010890Y006522D02*
X010766Y006522D01*
X010766Y006620D02*
X010882Y006620D01*
X010902Y006719D02*
X010766Y006719D01*
X010766Y006817D02*
X010958Y006817D01*
X010766Y007310D02*
X012011Y007310D01*
X012011Y007409D02*
X009410Y007409D01*
X008910Y007409D02*
X008886Y007409D01*
X008886Y007507D02*
X008910Y007507D01*
X008910Y007606D02*
X008886Y007606D01*
X008886Y007310D02*
X008910Y007310D01*
X008910Y007212D02*
X008510Y007212D01*
X008510Y007113D02*
X008410Y007113D01*
X008410Y007015D02*
X008510Y007015D01*
X008510Y006916D02*
X008410Y006916D01*
X008410Y006817D02*
X008510Y006817D01*
X008510Y006719D02*
X008410Y006719D01*
X008060Y006719D02*
X007610Y006719D01*
X007610Y006817D02*
X008035Y006817D01*
X008035Y006916D02*
X007610Y006916D01*
X007610Y007015D02*
X008035Y007015D01*
X008035Y007113D02*
X007610Y007113D01*
X007610Y007212D02*
X008410Y007212D01*
X008035Y007310D02*
X007610Y007310D01*
X007666Y007409D02*
X008035Y007409D01*
X008035Y007507D02*
X007765Y007507D01*
X007942Y007606D02*
X008035Y007606D01*
X007620Y008493D02*
X006886Y008493D01*
X006886Y008476D02*
X006886Y008879D01*
X006876Y008917D01*
X006856Y008952D01*
X006828Y008979D01*
X006794Y008999D01*
X006756Y009009D01*
X006510Y009009D01*
X006510Y008476D01*
X006886Y008476D01*
X006886Y008591D02*
X007522Y008591D01*
X007423Y008690D02*
X006886Y008690D01*
X006886Y008788D02*
X007325Y008788D01*
X007226Y008887D02*
X006884Y008887D01*
X006818Y008985D02*
X007128Y008985D01*
X007029Y009084D02*
X002984Y009084D01*
X002984Y009182D02*
X006072Y009182D01*
X006055Y009281D02*
X002984Y009281D01*
X002984Y009380D02*
X006055Y009380D01*
X006055Y009478D02*
X002984Y009478D01*
X002984Y009577D02*
X006055Y009577D01*
X006055Y009675D02*
X002984Y009675D01*
X002984Y009774D02*
X006055Y009774D01*
X006055Y009872D02*
X002984Y009872D01*
X003287Y009971D02*
X003833Y009971D01*
X003824Y010069D02*
X003297Y010069D01*
X003297Y010168D02*
X003824Y010168D01*
X003824Y010266D02*
X003297Y010266D01*
X003297Y010365D02*
X003824Y010365D01*
X003824Y010464D02*
X003297Y010464D01*
X003297Y010562D02*
X003824Y010562D01*
X003824Y010661D02*
X003297Y010661D01*
X003297Y010759D02*
X003824Y010759D01*
X003824Y010858D02*
X003297Y010858D01*
X003297Y010956D02*
X003824Y010956D01*
X003680Y011156D02*
X003060Y011776D01*
X003060Y012606D01*
X002870Y012631D02*
X002843Y012631D01*
X002870Y012659D02*
X002870Y012528D01*
X002880Y012518D01*
X002880Y012443D01*
X002767Y012556D01*
X002870Y012659D01*
X002870Y012533D02*
X002791Y012533D01*
X002767Y012556D02*
X002353Y012556D01*
X002060Y012263D01*
X002060Y012201D01*
X001787Y012201D01*
X001787Y012261D01*
X001711Y012337D01*
X001670Y012337D01*
X001670Y016269D01*
X001670Y016269D01*
X002797Y017396D01*
X003080Y017396D01*
X003320Y017636D01*
X003320Y017899D01*
X003436Y017784D01*
X003610Y017784D01*
X004796Y017784D01*
X004796Y016611D01*
X004811Y016595D01*
X004806Y016590D01*
X004786Y016556D01*
X004776Y016517D01*
X004776Y016419D01*
X005063Y016419D01*
X005063Y016419D01*
X004776Y016419D01*
X004776Y016320D01*
X004786Y016282D01*
X004806Y016248D01*
X004806Y016247D01*
X004796Y016236D01*
X004796Y016235D01*
X004676Y016284D01*
X004545Y016284D01*
X004424Y016234D01*
X004332Y016142D01*
X004282Y016022D01*
X004282Y015891D01*
X004332Y015770D01*
X004396Y015706D01*
X004332Y015642D01*
X004282Y015522D01*
X004282Y015391D01*
X004332Y015270D01*
X004405Y015197D01*
X004374Y015184D01*
X004286Y015096D01*
X003139Y015096D01*
X002738Y015497D01*
X002738Y015622D01*
X002688Y015742D01*
X002596Y015834D01*
X002476Y015884D01*
X002345Y015884D01*
X002224Y015834D01*
X002132Y015742D01*
X002082Y015622D01*
X002082Y015491D01*
X002132Y015370D01*
X002224Y015278D01*
X002345Y015228D01*
X002470Y015228D01*
X002870Y014828D01*
X002982Y014716D01*
X004113Y014716D01*
X004106Y014713D01*
X004078Y014685D01*
X004059Y014650D01*
X004049Y014612D01*
X004049Y014385D01*
X004327Y014385D01*
X004327Y014327D01*
X004049Y014327D01*
X004049Y014275D01*
X003767Y014556D01*
X003353Y014556D01*
X003074Y014277D01*
X002776Y014576D01*
X002610Y014576D01*
X002610Y014106D01*
X002510Y014106D01*
X002510Y014006D01*
X002040Y014006D01*
X002040Y013841D01*
X002339Y013542D01*
X002060Y013263D01*
X002060Y012849D01*
X002353Y012556D01*
X002767Y012556D01*
X002330Y012533D02*
X001670Y012533D01*
X001670Y012631D02*
X002278Y012631D01*
X002179Y012730D02*
X001670Y012730D01*
X001670Y012829D02*
X002081Y012829D01*
X002060Y012927D02*
X001670Y012927D01*
X001670Y013026D02*
X002060Y013026D01*
X002060Y013124D02*
X001670Y013124D01*
X001670Y013223D02*
X002060Y013223D01*
X002118Y013321D02*
X001670Y013321D01*
X001670Y013420D02*
X002217Y013420D01*
X002315Y013518D02*
X001670Y013518D01*
X001670Y013617D02*
X002264Y013617D01*
X002166Y013715D02*
X001670Y013715D01*
X001670Y013814D02*
X002067Y013814D01*
X002040Y013913D02*
X001670Y013913D01*
X001670Y014011D02*
X002510Y014011D01*
X002510Y014106D02*
X002040Y014106D01*
X002040Y014272D01*
X002345Y014576D01*
X002510Y014576D01*
X002510Y014106D01*
X002510Y014110D02*
X002610Y014110D01*
X002610Y014208D02*
X002510Y014208D01*
X002510Y014307D02*
X002610Y014307D01*
X002610Y014405D02*
X002510Y014405D01*
X002510Y014504D02*
X002610Y014504D01*
X002848Y014504D02*
X003301Y014504D01*
X003202Y014405D02*
X002947Y014405D01*
X003045Y014307D02*
X003104Y014307D01*
X002898Y014799D02*
X001670Y014799D01*
X001670Y014701D02*
X004095Y014701D01*
X004049Y014602D02*
X001670Y014602D01*
X001670Y014504D02*
X002272Y014504D01*
X002174Y014405D02*
X001670Y014405D01*
X001670Y014307D02*
X002075Y014307D01*
X002040Y014208D02*
X001670Y014208D01*
X001670Y014110D02*
X002040Y014110D01*
X001670Y014898D02*
X002800Y014898D01*
X002701Y014997D02*
X001670Y014997D01*
X001670Y015095D02*
X002603Y015095D01*
X002504Y015194D02*
X001670Y015194D01*
X001670Y015292D02*
X002210Y015292D01*
X002124Y015391D02*
X001670Y015391D01*
X001670Y015489D02*
X002083Y015489D01*
X002082Y015588D02*
X001670Y015588D01*
X001670Y015686D02*
X002109Y015686D01*
X002175Y015785D02*
X001670Y015785D01*
X001670Y015883D02*
X002343Y015883D01*
X002478Y015883D02*
X004285Y015883D01*
X004282Y015982D02*
X001670Y015982D01*
X001670Y016081D02*
X004307Y016081D01*
X004369Y016179D02*
X001670Y016179D01*
X001679Y016278D02*
X004529Y016278D01*
X004692Y016278D02*
X004789Y016278D01*
X004776Y016376D02*
X001777Y016376D01*
X001876Y016475D02*
X004776Y016475D01*
X004796Y016573D02*
X001974Y016573D01*
X002073Y016672D02*
X004796Y016672D01*
X004796Y016770D02*
X002171Y016770D01*
X002270Y016869D02*
X004796Y016869D01*
X004796Y016967D02*
X002368Y016967D01*
X002467Y017066D02*
X004796Y017066D01*
X004796Y017164D02*
X002565Y017164D01*
X002664Y017263D02*
X004796Y017263D01*
X004796Y017362D02*
X002763Y017362D01*
X003144Y017460D02*
X004796Y017460D01*
X004796Y017559D02*
X003242Y017559D01*
X003320Y017657D02*
X004796Y017657D01*
X004796Y017756D02*
X003320Y017756D01*
X003320Y017854D02*
X003365Y017854D01*
X003565Y018248D02*
X004796Y018248D01*
X004796Y018347D02*
X003467Y018347D01*
X003368Y018446D02*
X004800Y018446D01*
X004796Y018544D02*
X003228Y018544D01*
X003320Y018643D02*
X004796Y018643D01*
X004796Y018741D02*
X003320Y018741D01*
X003260Y019037D02*
X004776Y019037D01*
X004796Y019135D02*
X003161Y019135D01*
X003115Y019431D02*
X004801Y019431D01*
X004796Y019332D02*
X001570Y019332D01*
X001570Y019234D02*
X004796Y019234D01*
X004796Y019530D02*
X003213Y019530D01*
X003312Y019628D02*
X004792Y019628D01*
X004693Y019727D02*
X003320Y019727D01*
X003320Y019825D02*
X004594Y019825D01*
X004496Y019924D02*
X003320Y019924D01*
X003274Y020022D02*
X004397Y020022D01*
X004299Y020121D02*
X003176Y020121D01*
X003100Y020416D02*
X004003Y020416D01*
X004102Y020318D02*
X001570Y020318D01*
X001570Y020416D02*
X001720Y020416D01*
X001622Y020515D02*
X001570Y020515D01*
X001570Y020219D02*
X004200Y020219D01*
X004499Y020515D02*
X007700Y020515D01*
X007700Y020614D02*
X004400Y020614D01*
X004301Y020712D02*
X007700Y020712D01*
X007700Y020811D02*
X004203Y020811D01*
X004104Y020909D02*
X007700Y020909D01*
X007700Y021008D02*
X004006Y021008D01*
X003708Y020712D02*
X003320Y020712D01*
X003320Y020811D02*
X003609Y020811D01*
X003511Y020909D02*
X003320Y020909D01*
X003289Y021008D02*
X003412Y021008D01*
X003313Y021106D02*
X003190Y021106D01*
X003215Y021205D02*
X003092Y021205D01*
X003116Y021303D02*
X001704Y021303D01*
X001729Y021205D02*
X001606Y021205D01*
X001630Y021106D02*
X001570Y021106D01*
X000800Y021106D02*
X000710Y021106D01*
X000710Y021008D02*
X000800Y021008D01*
X000800Y020909D02*
X000710Y020909D01*
X000710Y020811D02*
X000800Y020811D01*
X000800Y020712D02*
X000710Y020712D01*
X000710Y020614D02*
X000800Y020614D01*
X000800Y020515D02*
X000710Y020515D01*
X000710Y020416D02*
X000800Y020416D01*
X000800Y020318D02*
X000710Y020318D01*
X000710Y020219D02*
X000800Y020219D01*
X000800Y020121D02*
X000710Y020121D01*
X000710Y020022D02*
X000800Y020022D01*
X000800Y019924D02*
X000710Y019924D01*
X000710Y019825D02*
X000800Y019825D01*
X000800Y019727D02*
X000710Y019727D01*
X000710Y019628D02*
X000800Y019628D01*
X000800Y019530D02*
X000710Y019530D01*
X000710Y019431D02*
X000800Y019431D01*
X000800Y019332D02*
X000710Y019332D01*
X000710Y019234D02*
X000800Y019234D01*
X000800Y019135D02*
X000710Y019135D01*
X000710Y019037D02*
X000800Y019037D01*
X000800Y018938D02*
X000710Y018938D01*
X000710Y018840D02*
X000800Y018840D01*
X000800Y018741D02*
X000710Y018741D01*
X000710Y018643D02*
X000800Y018643D01*
X000800Y018544D02*
X000710Y018544D01*
X000710Y018446D02*
X000800Y018446D01*
X001570Y019135D02*
X001660Y019135D01*
X001706Y019431D02*
X001570Y019431D01*
X001570Y019530D02*
X001607Y019530D01*
X001570Y020121D02*
X001645Y020121D01*
X000800Y021205D02*
X000710Y021205D01*
X000710Y021303D02*
X000800Y021303D01*
X000800Y021402D02*
X000710Y021402D01*
X000710Y021500D02*
X000800Y021500D01*
X000800Y021599D02*
X000710Y021599D01*
X000710Y021697D02*
X000805Y021697D01*
X000710Y021796D02*
X000903Y021796D01*
X001002Y021895D02*
X000710Y021895D01*
X000710Y021993D02*
X001100Y021993D01*
X001199Y022092D02*
X000710Y022092D01*
X000710Y022190D02*
X001297Y022190D01*
X001396Y022289D02*
X000710Y022289D01*
X000710Y022387D02*
X001494Y022387D01*
X001593Y022486D02*
X000710Y022486D01*
X000710Y022584D02*
X001691Y022584D01*
X001790Y022683D02*
X000710Y022683D01*
X000710Y022781D02*
X005980Y022781D01*
X005980Y022683D02*
X005631Y022683D01*
X006076Y022880D02*
X000710Y022880D01*
X000710Y022979D02*
X006174Y022979D01*
X006370Y022979D02*
X006450Y022979D01*
X006450Y022880D02*
X006370Y022880D01*
X006370Y022781D02*
X006450Y022781D01*
X006450Y022683D02*
X006370Y022683D01*
X006370Y022486D02*
X006450Y022486D01*
X006450Y022387D02*
X006370Y022387D01*
X006370Y022289D02*
X006450Y022289D01*
X006450Y022190D02*
X006370Y022190D01*
X006603Y021993D02*
X007217Y021993D01*
X007119Y021895D02*
X006702Y021895D01*
X006800Y021796D02*
X007020Y021796D01*
X007000Y021697D02*
X006820Y021697D01*
X006820Y021599D02*
X007000Y021599D01*
X007000Y021500D02*
X006820Y021500D01*
X006786Y021402D02*
X007035Y021402D01*
X007133Y021303D02*
X006687Y021303D01*
X006589Y021205D02*
X007232Y021205D01*
X007603Y021993D02*
X007700Y021993D01*
X007000Y022683D02*
X006840Y022683D01*
X006840Y022781D02*
X007006Y022781D01*
X007104Y022880D02*
X006745Y022880D01*
X006646Y022979D02*
X007203Y022979D01*
X007700Y020416D02*
X004597Y020416D01*
X004696Y020318D02*
X007700Y020318D01*
X007700Y020219D02*
X004794Y020219D01*
X004893Y020121D02*
X007700Y020121D01*
X007797Y020022D02*
X004991Y020022D01*
X005090Y019924D02*
X007832Y019924D01*
X007859Y019825D02*
X005188Y019825D01*
X003905Y020515D02*
X003199Y020515D01*
X003297Y020614D02*
X003806Y020614D01*
X001950Y017756D02*
X001870Y017756D01*
X001870Y017657D02*
X001950Y017657D01*
X001950Y017559D02*
X001870Y017559D01*
X001870Y017460D02*
X001950Y017460D01*
X002070Y017263D02*
X001220Y017263D01*
X001220Y017164D02*
X001972Y017164D01*
X001873Y017066D02*
X001220Y017066D01*
X001220Y016967D02*
X001774Y016967D01*
X001676Y016869D02*
X001245Y016869D01*
X001343Y016770D02*
X001577Y016770D01*
X001479Y016672D02*
X001442Y016672D01*
X002646Y015785D02*
X004326Y015785D01*
X004376Y015686D02*
X002712Y015686D01*
X002738Y015588D02*
X004310Y015588D01*
X004282Y015489D02*
X002746Y015489D01*
X002845Y015391D02*
X004282Y015391D01*
X004323Y015292D02*
X002943Y015292D01*
X003042Y015194D02*
X004397Y015194D01*
X004630Y015806D02*
X004650Y015856D01*
X005063Y016104D02*
X005363Y016104D01*
X005470Y015996D01*
X005064Y016419D02*
X005064Y016419D01*
X006468Y014602D02*
X006690Y014602D01*
X006613Y014504D02*
X006372Y014504D01*
X006497Y014405D02*
X006582Y014405D01*
X006582Y014307D02*
X006564Y014307D01*
X006589Y014208D02*
X006622Y014208D01*
X006582Y014110D02*
X006711Y014110D01*
X006541Y014011D02*
X006882Y014011D01*
X006894Y013913D02*
X006480Y013913D01*
X006480Y013814D02*
X006900Y013814D01*
X006900Y013715D02*
X006480Y013715D01*
X006480Y013617D02*
X006900Y013617D01*
X006900Y013518D02*
X006480Y013518D01*
X006705Y013420D02*
X006755Y013420D01*
X006755Y013321D02*
X006705Y013321D01*
X006705Y013223D02*
X006755Y013223D01*
X006300Y012946D02*
X006300Y014131D01*
X006280Y014186D01*
X006060Y013906D02*
X006090Y013831D01*
X006090Y012891D01*
X007593Y011489D01*
X007870Y011484D01*
X007870Y011799D02*
X007533Y011799D01*
X006300Y012946D01*
X006460Y012086D02*
X006460Y011956D01*
X006730Y011656D01*
X007210Y012356D02*
X007470Y012116D01*
X007650Y012116D01*
X007653Y012114D01*
X007638Y012429D02*
X007400Y012666D01*
X007400Y013576D01*
X007908Y012706D02*
X008360Y012706D01*
X008685Y013106D02*
X009088Y013334D01*
X009088Y013279D01*
X009110Y013256D01*
X009710Y013256D01*
X009710Y013639D01*
X009718Y013646D01*
X009403Y013646D02*
X009403Y014049D01*
X009510Y014156D01*
X009910Y014156D01*
X010010Y014056D01*
X010010Y013669D01*
X010033Y013646D01*
X010038Y013641D02*
X010038Y013246D01*
X010063Y013246D01*
X010056Y013230D01*
X010016Y013246D01*
X010028Y013246D01*
X010028Y013641D01*
X010038Y013641D01*
X010038Y013617D02*
X010028Y013617D01*
X010028Y013518D02*
X010038Y013518D01*
X010028Y013420D02*
X010038Y013420D01*
X010028Y013321D02*
X010038Y013321D01*
X010360Y013106D02*
X010360Y011216D01*
X010730Y010846D01*
X011243Y010846D01*
X011250Y010854D01*
X010660Y010586D02*
X010660Y010269D01*
X010663Y010266D01*
X010660Y010586D02*
X009910Y011336D01*
X009910Y012956D01*
X010547Y012829D02*
X010870Y012829D01*
X010870Y012927D02*
X010641Y012927D01*
X010682Y013026D02*
X010870Y013026D01*
X010870Y013124D02*
X010688Y013124D01*
X010667Y013223D02*
X010871Y013223D01*
X010881Y013321D02*
X011480Y013321D01*
X011480Y013420D02*
X010903Y013420D01*
X010903Y013518D02*
X011480Y013518D01*
X011660Y013706D02*
X011510Y013856D01*
X011660Y013706D02*
X011660Y013206D01*
X011500Y013046D01*
X011400Y013046D01*
X011250Y012744D02*
X012273Y012744D01*
X012985Y012031D01*
X012995Y010566D01*
X012862Y010266D02*
X012840Y010266D01*
X012840Y010168D02*
X013585Y010168D01*
X013513Y010266D02*
X013129Y010266D01*
X013258Y010365D02*
X013482Y010365D01*
X013482Y010464D02*
X013308Y010464D01*
X013323Y010562D02*
X013520Y010562D01*
X013601Y010661D02*
X013311Y010661D01*
X013266Y010759D02*
X013620Y010759D01*
X013620Y010858D02*
X013173Y010858D01*
X013173Y010956D02*
X013620Y010956D01*
X013620Y011055D02*
X013172Y011055D01*
X013171Y011153D02*
X013620Y011153D01*
X013620Y011252D02*
X013171Y011252D01*
X013170Y011350D02*
X013620Y011350D01*
X013620Y011449D02*
X013169Y011449D01*
X013169Y011548D02*
X013620Y011548D01*
X013620Y011646D02*
X013168Y011646D01*
X013167Y011745D02*
X013620Y011745D01*
X013620Y011843D02*
X013167Y011843D01*
X013166Y011942D02*
X013620Y011942D01*
X013620Y012040D02*
X013165Y012040D01*
X013133Y012139D02*
X013620Y012139D01*
X013620Y012237D02*
X013034Y012237D01*
X012935Y012336D02*
X013620Y012336D01*
X013620Y012434D02*
X012837Y012434D01*
X012738Y012533D02*
X013620Y012533D01*
X013717Y012631D02*
X012640Y012631D01*
X012541Y012730D02*
X013815Y012730D01*
X013914Y012829D02*
X012443Y012829D01*
X012241Y012927D02*
X014012Y012927D01*
X014111Y013026D02*
X012269Y013026D01*
X012266Y013124D02*
X014210Y013124D01*
X014308Y013223D02*
X012225Y013223D01*
X012140Y013420D02*
X012873Y013420D01*
X012814Y013518D02*
X012140Y013518D01*
X012140Y013617D02*
X012756Y013617D01*
X012697Y013715D02*
X012140Y013715D01*
X012140Y013814D02*
X012639Y013814D01*
X012581Y013913D02*
X012144Y013913D01*
X012080Y014110D02*
X012061Y014110D01*
X012080Y014208D02*
X011946Y014208D01*
X011833Y014307D02*
X012080Y014307D01*
X012080Y014504D02*
X010160Y014504D01*
X010061Y014602D02*
X012080Y014602D01*
X012080Y014701D02*
X009963Y014701D01*
X009864Y014799D02*
X012055Y014799D01*
X012285Y014898D02*
X013889Y014898D01*
X013873Y014882D02*
X013401Y014882D01*
X013369Y014849D01*
X013348Y014861D01*
X013310Y014871D01*
X013110Y014871D01*
X013110Y014456D01*
X013010Y014456D01*
X013010Y014871D01*
X012811Y014871D01*
X012772Y014861D01*
X012748Y014847D01*
X012744Y014851D01*
X012313Y014851D01*
X012310Y014856D01*
X012010Y015356D01*
X012042Y017840D01*
X012447Y017840D01*
X012523Y017916D01*
X012523Y018496D01*
X012447Y018572D01*
X012051Y018572D01*
X012053Y018706D01*
X012860Y018706D01*
X012952Y018744D01*
X013022Y018815D01*
X013634Y019426D01*
X013824Y019426D01*
X013855Y019352D01*
X014016Y019191D01*
X014226Y019104D01*
X014454Y019104D01*
X014665Y019191D01*
X014826Y019352D01*
X014913Y019562D01*
X014913Y019790D01*
X014826Y020001D01*
X014701Y020125D01*
X014776Y020094D01*
X015004Y020094D01*
X015215Y020181D01*
X015376Y020342D01*
X015463Y020552D01*
X015463Y020780D01*
X015376Y020991D01*
X015215Y021152D01*
X015004Y021239D01*
X014776Y021239D01*
X014566Y021152D01*
X014405Y020991D01*
X014318Y020780D01*
X014318Y020552D01*
X014405Y020342D01*
X014529Y020218D01*
X014454Y020249D01*
X014226Y020249D01*
X014016Y020162D01*
X013855Y020001D01*
X013824Y019926D01*
X013760Y019926D01*
X013760Y020793D01*
X015931Y022964D01*
X016387Y022964D01*
X016723Y023299D01*
X016723Y023706D01*
X017810Y023706D01*
X018010Y023556D01*
X018010Y021944D01*
X017676Y022279D01*
X017480Y022279D01*
X017480Y021736D01*
X017380Y021736D01*
X017380Y021636D01*
X017480Y021636D01*
X017480Y021094D01*
X017676Y021094D01*
X018010Y021428D01*
X018010Y013656D01*
X017910Y013556D01*
X017003Y013556D01*
X017038Y013641D01*
X017038Y013772D01*
X016988Y013892D01*
X016896Y013984D01*
X016776Y014034D01*
X016645Y014034D01*
X016524Y013984D01*
X016490Y013950D01*
X016450Y013989D01*
X015870Y013989D01*
X015794Y013913D01*
X015794Y013556D01*
X013060Y013556D01*
X012838Y013941D01*
X013010Y013941D01*
X013010Y014356D01*
X013110Y014356D01*
X013110Y013941D01*
X013310Y013941D01*
X013348Y013952D01*
X013382Y013971D01*
X013410Y013999D01*
X013429Y014031D01*
X014296Y014031D01*
X014360Y014095D01*
X014425Y014031D01*
X015320Y014031D01*
X015396Y014107D01*
X015396Y014201D01*
X015794Y014201D01*
X015794Y014199D01*
X015870Y014123D01*
X016450Y014123D01*
X016526Y014199D01*
X016526Y014622D01*
X016450Y014698D01*
X015870Y014698D01*
X015794Y014622D01*
X015794Y014621D01*
X015396Y014621D01*
X015396Y014805D01*
X015320Y014882D01*
X014467Y014882D01*
X014830Y015245D01*
X015137Y015245D01*
X015387Y015495D01*
X015387Y015849D01*
X015137Y016099D01*
X014784Y016099D01*
X014620Y015936D01*
X014620Y017349D01*
X014775Y017194D01*
X014912Y017194D01*
X014912Y017592D01*
X015009Y017592D01*
X015009Y017689D01*
X015407Y017689D01*
X015407Y017826D01*
X015145Y018087D01*
X015009Y018087D01*
X015009Y017689D01*
X014912Y017689D01*
X014912Y018087D01*
X014866Y018087D01*
X014888Y018141D01*
X014888Y018272D01*
X014838Y018392D01*
X014746Y018484D01*
X014626Y018534D01*
X014495Y018534D01*
X014374Y018484D01*
X014372Y018482D01*
X014372Y018496D01*
X014296Y018572D01*
X013873Y018572D01*
X013797Y018496D01*
X013797Y017916D01*
X013873Y017840D01*
X013875Y017840D01*
X013875Y017765D01*
X013879Y017761D01*
X013879Y017755D01*
X013940Y017700D01*
X013998Y017642D01*
X014004Y017642D01*
X014200Y017463D01*
X014200Y017382D01*
X013375Y017382D01*
X013321Y017328D01*
X013312Y017344D01*
X013284Y017372D01*
X013250Y017391D01*
X013212Y017402D01*
X012848Y017402D01*
X012848Y017006D01*
X012749Y017006D01*
X012749Y017402D01*
X012385Y017402D01*
X012347Y017391D01*
X012313Y017372D01*
X012285Y017344D01*
X012265Y017309D01*
X012255Y017271D01*
X012255Y017006D01*
X012748Y017006D01*
X012748Y016906D01*
X012255Y016906D01*
X012255Y016641D01*
X012265Y016603D01*
X012285Y016569D01*
X012313Y016541D01*
X012347Y016521D01*
X012385Y016511D01*
X012749Y016511D01*
X012749Y016906D01*
X012848Y016906D01*
X012848Y016511D01*
X013212Y016511D01*
X013250Y016521D01*
X013284Y016541D01*
X013312Y016569D01*
X013321Y016584D01*
X013375Y016531D01*
X013612Y016531D01*
X013612Y015983D01*
X012961Y015569D01*
X012926Y015584D01*
X012795Y015584D01*
X012674Y015534D01*
X012582Y015442D01*
X012532Y015322D01*
X012532Y015191D01*
X012582Y015070D01*
X012674Y014978D01*
X012795Y014928D01*
X012926Y014928D01*
X013046Y014978D01*
X013138Y015070D01*
X013188Y015191D01*
X013188Y015216D01*
X013650Y015510D01*
X013632Y015492D01*
X013582Y015372D01*
X013582Y015241D01*
X013632Y015120D01*
X013724Y015028D01*
X013845Y014978D01*
X013970Y014978D01*
X013873Y014882D01*
X013801Y014997D02*
X013065Y014997D01*
X013149Y015095D02*
X013658Y015095D01*
X013602Y015194D02*
X013188Y015194D01*
X013308Y015292D02*
X013582Y015292D01*
X013590Y015391D02*
X013463Y015391D01*
X013618Y015489D02*
X013631Y015489D01*
X013455Y015883D02*
X012017Y015883D01*
X012016Y015785D02*
X013300Y015785D01*
X013145Y015686D02*
X012014Y015686D01*
X012013Y015588D02*
X012990Y015588D01*
X012629Y015489D02*
X012012Y015489D01*
X012011Y015391D02*
X012561Y015391D01*
X012532Y015292D02*
X012049Y015292D01*
X012108Y015194D02*
X012532Y015194D01*
X012572Y015095D02*
X012167Y015095D01*
X012226Y014997D02*
X012656Y014997D01*
X013010Y014799D02*
X013110Y014799D01*
X013110Y014701D02*
X013010Y014701D01*
X013010Y014602D02*
X013110Y014602D01*
X013110Y014504D02*
X013010Y014504D01*
X013010Y014307D02*
X013110Y014307D01*
X013110Y014208D02*
X013010Y014208D01*
X013010Y014110D02*
X013110Y014110D01*
X013110Y014011D02*
X013010Y014011D01*
X012855Y013913D02*
X015794Y013913D01*
X015794Y013814D02*
X012912Y013814D01*
X012968Y013715D02*
X015794Y013715D01*
X015794Y013617D02*
X013025Y013617D01*
X013417Y014011D02*
X016589Y014011D01*
X016526Y014208D02*
X016809Y014208D01*
X016809Y014191D02*
X016885Y014115D01*
X017760Y014115D01*
X017836Y014191D01*
X017836Y015066D01*
X017760Y015143D01*
X016885Y015143D01*
X016809Y015066D01*
X016809Y014191D01*
X016809Y014307D02*
X016526Y014307D01*
X016526Y014405D02*
X016809Y014405D01*
X016809Y014504D02*
X016526Y014504D01*
X016526Y014602D02*
X016809Y014602D01*
X016809Y014701D02*
X015396Y014701D01*
X015396Y014799D02*
X016809Y014799D01*
X016809Y014898D02*
X014483Y014898D01*
X014582Y014997D02*
X016809Y014997D01*
X016837Y015095D02*
X014680Y015095D01*
X014779Y015194D02*
X018010Y015194D01*
X018010Y015292D02*
X015184Y015292D01*
X015283Y015391D02*
X018010Y015391D01*
X018010Y015489D02*
X015381Y015489D01*
X015387Y015588D02*
X018010Y015588D01*
X018010Y015686D02*
X015387Y015686D01*
X015387Y015785D02*
X018010Y015785D01*
X018010Y015883D02*
X015353Y015883D01*
X015254Y015982D02*
X018010Y015982D01*
X018010Y016081D02*
X015155Y016081D01*
X014765Y016081D02*
X014620Y016081D01*
X014620Y016179D02*
X018010Y016179D01*
X018010Y016278D02*
X014620Y016278D01*
X014620Y016376D02*
X018010Y016376D01*
X018010Y016475D02*
X014620Y016475D01*
X014620Y016573D02*
X018010Y016573D01*
X018010Y016672D02*
X014620Y016672D01*
X014620Y016770D02*
X018010Y016770D01*
X018010Y016869D02*
X014620Y016869D01*
X014620Y016967D02*
X018010Y016967D01*
X018010Y017066D02*
X014620Y017066D01*
X014620Y017164D02*
X018010Y017164D01*
X018010Y017263D02*
X015215Y017263D01*
X015145Y017194D02*
X015407Y017455D01*
X015407Y017592D01*
X015009Y017592D01*
X015009Y017194D01*
X015145Y017194D01*
X015009Y017263D02*
X014912Y017263D01*
X014912Y017362D02*
X015009Y017362D01*
X015009Y017460D02*
X014912Y017460D01*
X014912Y017559D02*
X015009Y017559D01*
X015009Y017657D02*
X018010Y017657D01*
X018010Y017559D02*
X015407Y017559D01*
X015407Y017460D02*
X018010Y017460D01*
X018010Y017362D02*
X015313Y017362D01*
X015407Y017756D02*
X018010Y017756D01*
X018010Y017854D02*
X015378Y017854D01*
X015280Y017953D02*
X018010Y017953D01*
X018010Y018051D02*
X015181Y018051D01*
X015009Y018051D02*
X014912Y018051D01*
X014912Y017953D02*
X015009Y017953D01*
X015009Y017854D02*
X014912Y017854D01*
X014912Y017756D02*
X015009Y017756D01*
X014888Y018150D02*
X018010Y018150D01*
X018010Y018248D02*
X017836Y018248D01*
X017836Y018246D02*
X017836Y019122D01*
X017760Y019198D01*
X016885Y019198D01*
X016809Y019122D01*
X016809Y018246D01*
X016885Y018170D01*
X017760Y018170D01*
X017836Y018246D01*
X017836Y018347D02*
X018010Y018347D01*
X018010Y018446D02*
X017836Y018446D01*
X017836Y018544D02*
X018010Y018544D01*
X018010Y018643D02*
X017836Y018643D01*
X017836Y018741D02*
X018010Y018741D01*
X018010Y018840D02*
X017836Y018840D01*
X017836Y018938D02*
X018010Y018938D01*
X018010Y019037D02*
X017836Y019037D01*
X017823Y019135D02*
X018010Y019135D01*
X018010Y019234D02*
X014708Y019234D01*
X014806Y019332D02*
X018010Y019332D01*
X018010Y019431D02*
X014858Y019431D01*
X014899Y019530D02*
X018010Y019530D01*
X018010Y019628D02*
X014913Y019628D01*
X014913Y019727D02*
X018010Y019727D01*
X018010Y019825D02*
X014898Y019825D01*
X014857Y019924D02*
X018010Y019924D01*
X018010Y020022D02*
X014804Y020022D01*
X014711Y020121D02*
X014705Y020121D01*
X014528Y020219D02*
X014525Y020219D01*
X014429Y020318D02*
X013760Y020318D01*
X013760Y020416D02*
X014374Y020416D01*
X014333Y020515D02*
X013760Y020515D01*
X013760Y020614D02*
X014318Y020614D01*
X014318Y020712D02*
X013760Y020712D01*
X013778Y020811D02*
X014330Y020811D01*
X014371Y020909D02*
X013877Y020909D01*
X013975Y021008D02*
X014422Y021008D01*
X014521Y021106D02*
X014074Y021106D01*
X014172Y021205D02*
X014694Y021205D01*
X014468Y021500D02*
X016838Y021500D01*
X016838Y021441D02*
X017185Y021094D01*
X017380Y021094D01*
X017380Y021636D01*
X016838Y021636D01*
X016838Y021441D01*
X016877Y021402D02*
X014369Y021402D01*
X014271Y021303D02*
X016975Y021303D01*
X017074Y021205D02*
X015086Y021205D01*
X015260Y021106D02*
X017172Y021106D01*
X017380Y021106D02*
X017480Y021106D01*
X017480Y021205D02*
X017380Y021205D01*
X017380Y021303D02*
X017480Y021303D01*
X017480Y021402D02*
X017380Y021402D01*
X017380Y021500D02*
X017480Y021500D01*
X017480Y021599D02*
X017380Y021599D01*
X017380Y021697D02*
X014665Y021697D01*
X014566Y021599D02*
X016838Y021599D01*
X016838Y021736D02*
X017380Y021736D01*
X017380Y022279D01*
X017185Y022279D01*
X016838Y021932D01*
X016838Y021736D01*
X016838Y021796D02*
X014764Y021796D01*
X014862Y021895D02*
X016838Y021895D01*
X016899Y021993D02*
X014961Y021993D01*
X015059Y022092D02*
X016998Y022092D01*
X017096Y022190D02*
X015158Y022190D01*
X015256Y022289D02*
X018010Y022289D01*
X018010Y022387D02*
X015355Y022387D01*
X015453Y022486D02*
X018010Y022486D01*
X018010Y022584D02*
X015552Y022584D01*
X015650Y022683D02*
X018010Y022683D01*
X018010Y022781D02*
X015749Y022781D01*
X015847Y022880D02*
X018010Y022880D01*
X018010Y022979D02*
X016402Y022979D01*
X016501Y023077D02*
X018010Y023077D01*
X018010Y023176D02*
X016599Y023176D01*
X016698Y023274D02*
X018010Y023274D01*
X018010Y023373D02*
X016723Y023373D01*
X016723Y023471D02*
X018010Y023471D01*
X017992Y023570D02*
X016723Y023570D01*
X016723Y023668D02*
X017861Y023668D01*
X017764Y022190D02*
X018010Y022190D01*
X018010Y022092D02*
X017863Y022092D01*
X017961Y021993D02*
X018010Y021993D01*
X017984Y021402D02*
X018010Y021402D01*
X018010Y021303D02*
X017885Y021303D01*
X017787Y021205D02*
X018010Y021205D01*
X018010Y021106D02*
X017688Y021106D01*
X018010Y021008D02*
X015359Y021008D01*
X015409Y020909D02*
X018010Y020909D01*
X018010Y020811D02*
X015450Y020811D01*
X015463Y020712D02*
X018010Y020712D01*
X018010Y020614D02*
X015463Y020614D01*
X015447Y020515D02*
X018010Y020515D01*
X018010Y020416D02*
X015406Y020416D01*
X015352Y020318D02*
X018010Y020318D01*
X018010Y020219D02*
X015253Y020219D01*
X015069Y020121D02*
X018010Y020121D01*
X016822Y019135D02*
X014530Y019135D01*
X014150Y019135D02*
X013343Y019135D01*
X013244Y019037D02*
X016809Y019037D01*
X016809Y018938D02*
X013146Y018938D01*
X013047Y018840D02*
X016809Y018840D01*
X016809Y018741D02*
X012944Y018741D01*
X012733Y018572D02*
X012657Y018496D01*
X012657Y017916D01*
X012733Y017840D01*
X013156Y017840D01*
X013160Y017844D01*
X013165Y017840D01*
X013587Y017840D01*
X013663Y017916D01*
X013663Y018496D01*
X013587Y018572D01*
X013165Y018572D01*
X013160Y018568D01*
X013156Y018572D01*
X012733Y018572D01*
X012705Y018544D02*
X012476Y018544D01*
X012523Y018446D02*
X012657Y018446D01*
X012657Y018347D02*
X012523Y018347D01*
X012523Y018248D02*
X012657Y018248D01*
X012657Y018150D02*
X012523Y018150D01*
X012523Y018051D02*
X012657Y018051D01*
X012657Y017953D02*
X012523Y017953D01*
X012461Y017854D02*
X012719Y017854D01*
X012749Y017362D02*
X012848Y017362D01*
X012848Y017263D02*
X012749Y017263D01*
X012749Y017164D02*
X012848Y017164D01*
X012848Y017066D02*
X012749Y017066D01*
X012748Y016967D02*
X012031Y016967D01*
X012030Y016869D02*
X012255Y016869D01*
X012255Y016770D02*
X012028Y016770D01*
X012027Y016672D02*
X012255Y016672D01*
X012282Y016573D02*
X012026Y016573D01*
X012025Y016475D02*
X013612Y016475D01*
X013612Y016376D02*
X012023Y016376D01*
X012022Y016278D02*
X013612Y016278D01*
X013612Y016179D02*
X012021Y016179D01*
X012020Y016081D02*
X013612Y016081D01*
X013610Y015982D02*
X012018Y015982D01*
X011760Y016573D02*
X011752Y016573D01*
X011760Y016869D02*
X009820Y016869D01*
X009820Y016967D02*
X011760Y016967D01*
X011760Y017066D02*
X009820Y017066D01*
X009820Y017164D02*
X011760Y017164D01*
X011760Y017263D02*
X009820Y017263D01*
X009820Y017362D02*
X011760Y017362D01*
X011760Y017460D02*
X009820Y017460D01*
X009820Y017559D02*
X011760Y017559D01*
X011760Y017657D02*
X010700Y017657D01*
X010755Y017756D02*
X011760Y017756D01*
X011548Y017854D02*
X010755Y017854D01*
X010755Y017953D02*
X011469Y017953D01*
X011432Y018051D02*
X010755Y018051D01*
X010755Y018150D02*
X011432Y018150D01*
X011464Y018248D02*
X010755Y018248D01*
X010755Y018347D02*
X011537Y018347D01*
X011760Y018446D02*
X010755Y018446D01*
X010755Y018544D02*
X011760Y018544D01*
X011760Y018643D02*
X010755Y018643D01*
X010755Y019234D02*
X011760Y019234D01*
X011760Y019332D02*
X010755Y019332D01*
X010719Y019431D02*
X011760Y019431D01*
X011760Y019530D02*
X010180Y019530D01*
X010279Y019628D02*
X011760Y019628D01*
X011760Y019727D02*
X010378Y019727D01*
X010476Y019825D02*
X011760Y019825D01*
X011760Y019924D02*
X010575Y019924D01*
X010673Y020022D02*
X011760Y020022D01*
X011760Y020121D02*
X010772Y020121D01*
X010870Y020219D02*
X011760Y020219D01*
X011760Y020318D02*
X010969Y020318D01*
X011067Y020416D02*
X011760Y020416D01*
X011760Y020515D02*
X011070Y020515D01*
X011070Y020614D02*
X011760Y020614D01*
X011760Y020712D02*
X011070Y020712D01*
X011070Y020811D02*
X011760Y020811D01*
X011760Y020909D02*
X011070Y020909D01*
X011070Y021008D02*
X011760Y021008D01*
X011760Y021106D02*
X011070Y021106D01*
X011070Y021205D02*
X011760Y021205D01*
X011760Y021303D02*
X011070Y021303D01*
X011070Y021402D02*
X011760Y021402D01*
X011760Y021500D02*
X011070Y021500D01*
X011070Y021599D02*
X011760Y021599D01*
X011760Y021697D02*
X011070Y021697D01*
X011070Y021796D02*
X011760Y021796D01*
X011760Y021895D02*
X011070Y021895D01*
X011070Y021993D02*
X011760Y021993D01*
X011760Y022092D02*
X011070Y022092D01*
X011070Y022190D02*
X011760Y022190D01*
X011760Y022289D02*
X011070Y022289D01*
X011070Y022387D02*
X011760Y022387D01*
X011760Y022486D02*
X011070Y022486D01*
X011070Y022584D02*
X011760Y022584D01*
X011760Y022683D02*
X011070Y022683D01*
X011070Y022781D02*
X011760Y022781D01*
X011760Y022880D02*
X011070Y022880D01*
X010985Y022979D02*
X011760Y022979D01*
X011760Y023077D02*
X010886Y023077D01*
X010788Y023176D02*
X011760Y023176D01*
X011699Y023274D02*
X000710Y023274D01*
X000710Y023176D02*
X009683Y023176D01*
X009584Y023077D02*
X000710Y023077D01*
X000710Y023373D02*
X011611Y023373D01*
X011522Y023471D02*
X000764Y023471D01*
X000847Y023570D02*
X011433Y023570D01*
X011344Y023668D02*
X000929Y023668D01*
X003820Y014504D02*
X004049Y014504D01*
X004049Y014405D02*
X003918Y014405D01*
X004017Y014307D02*
X004049Y014307D01*
X004327Y014307D02*
X004385Y014307D01*
X004385Y014208D02*
X004327Y014208D01*
X004327Y014110D02*
X004385Y014110D01*
X004385Y014011D02*
X004327Y014011D01*
X004327Y013913D02*
X004385Y013913D01*
X004385Y013814D02*
X004327Y013814D01*
X004049Y013814D02*
X004025Y013814D01*
X004049Y013715D02*
X003927Y013715D01*
X004018Y013617D02*
X004049Y013617D01*
X003810Y013556D02*
X003160Y013556D01*
X002231Y012434D02*
X001670Y012434D01*
X001713Y012336D02*
X002133Y012336D01*
X002060Y012237D02*
X001787Y012237D01*
X001787Y011745D02*
X002165Y011745D01*
X002263Y011646D02*
X001733Y011646D01*
X001787Y011548D02*
X003035Y011548D01*
X003133Y011449D02*
X001787Y011449D01*
X001787Y011350D02*
X003232Y011350D01*
X003330Y011252D02*
X001787Y011252D01*
X001787Y011153D02*
X003429Y011153D01*
X003513Y011055D02*
X003274Y011055D01*
X002936Y011646D02*
X002857Y011646D01*
X002114Y011055D02*
X001787Y011055D01*
X001670Y010956D02*
X002092Y010956D01*
X002092Y010858D02*
X001795Y010858D01*
X001866Y010759D02*
X002092Y010759D01*
X002092Y010661D02*
X001866Y010661D01*
X001866Y010562D02*
X002092Y010562D01*
X002092Y010464D02*
X001866Y010464D01*
X001866Y010365D02*
X002092Y010365D01*
X002092Y010266D02*
X001866Y010266D01*
X001827Y010168D02*
X002092Y010168D01*
X001822Y009675D02*
X002404Y009675D01*
X002404Y009577D02*
X001885Y009577D01*
X001886Y009572D02*
X001876Y009610D01*
X001856Y009644D01*
X001828Y009672D01*
X001794Y009692D01*
X001756Y009702D01*
X001510Y009702D01*
X001510Y009366D01*
X001886Y009366D01*
X001886Y009572D01*
X001886Y009478D02*
X002404Y009478D01*
X002404Y009380D02*
X001886Y009380D01*
X001510Y009380D02*
X001410Y009380D01*
X001410Y009478D02*
X001510Y009478D01*
X001510Y009577D02*
X001410Y009577D01*
X001410Y009675D02*
X001510Y009675D01*
X001035Y009182D02*
X000710Y009182D01*
X000710Y009084D02*
X001035Y009084D01*
X001067Y008985D02*
X000710Y008985D01*
X000710Y008887D02*
X002196Y008887D01*
X003710Y005832D02*
X005357Y005832D01*
X005419Y005733D02*
X003710Y005733D01*
X003616Y004452D02*
X003136Y004452D01*
X003311Y004354D02*
X003649Y004354D01*
X003694Y004255D02*
X003427Y004255D01*
X003516Y004157D02*
X003753Y004157D01*
X003829Y004058D02*
X003584Y004058D01*
X003637Y003960D02*
X003929Y003960D01*
X004066Y003861D02*
X003677Y003861D01*
X003481Y002876D02*
X006524Y002876D01*
X006522Y002777D02*
X003380Y002777D01*
X003243Y002679D02*
X006522Y002679D01*
X006522Y002580D02*
X003021Y002580D01*
X002780Y002580D02*
X002680Y002580D01*
X002680Y002679D02*
X002780Y002679D01*
X002780Y002777D02*
X002680Y002777D01*
X002680Y002876D02*
X002780Y002876D01*
X002780Y002974D02*
X002680Y002974D01*
X002680Y003073D02*
X002780Y003073D01*
X002780Y003171D02*
X002680Y003171D01*
X002680Y003270D02*
X002780Y003270D01*
X002780Y003368D02*
X002680Y003368D01*
X002680Y003467D02*
X002780Y003467D01*
X002680Y003566D02*
X000710Y003566D01*
X000710Y003664D02*
X001738Y003664D01*
X001756Y003763D02*
X000710Y003763D01*
X000710Y003861D02*
X001784Y003861D01*
X001824Y003960D02*
X000710Y003960D01*
X000710Y004058D02*
X001876Y004058D01*
X001945Y004157D02*
X000710Y004157D01*
X000710Y004255D02*
X002034Y004255D01*
X002150Y004354D02*
X000710Y004354D01*
X000710Y004452D02*
X002325Y004452D01*
X001732Y003467D02*
X000710Y003467D01*
X000710Y003368D02*
X001743Y003368D01*
X001766Y003270D02*
X000710Y003270D01*
X000710Y003171D02*
X001799Y003171D01*
X001844Y003073D02*
X000710Y003073D01*
X000710Y002974D02*
X001903Y002974D01*
X001979Y002876D02*
X000710Y002876D01*
X000710Y002777D02*
X002080Y002777D01*
X002218Y002679D02*
X000710Y002679D01*
X000710Y002580D02*
X002439Y002580D01*
X000871Y001496D02*
X013265Y001496D01*
X013265Y001595D02*
X000772Y001595D01*
X000710Y001792D02*
X010971Y001792D01*
X010935Y002284D02*
X010879Y002284D01*
X011078Y002580D02*
X011363Y002580D01*
X011315Y002679D02*
X011125Y002679D01*
X011125Y002777D02*
X011315Y002777D01*
X011315Y002876D02*
X011125Y002876D01*
X011125Y002974D02*
X011315Y002974D01*
X011315Y003073D02*
X011125Y003073D01*
X011050Y003171D02*
X011390Y003171D01*
X011390Y003270D02*
X011050Y003270D01*
X011045Y003368D02*
X011425Y003368D01*
X011727Y004058D02*
X011751Y004058D01*
X012275Y004945D02*
X012293Y004945D01*
X012293Y005044D02*
X012275Y005044D01*
X012080Y005142D02*
X011926Y005142D01*
X011926Y005241D02*
X012011Y005241D01*
X012011Y005339D02*
X011926Y005339D01*
X011926Y005438D02*
X012011Y005438D01*
X012011Y005536D02*
X011926Y005536D01*
X011855Y005635D02*
X012011Y005635D01*
X011874Y006325D02*
X012532Y006325D01*
X012492Y006423D02*
X011690Y006423D01*
X011592Y006522D02*
X012492Y006522D01*
X012521Y006620D02*
X011538Y006620D01*
X011519Y006719D02*
X012038Y006719D01*
X012011Y006817D02*
X011463Y006817D01*
X012011Y007507D02*
X010671Y007507D01*
X010778Y007606D02*
X012015Y007606D01*
X012099Y007704D02*
X012150Y007704D01*
X011824Y007704D02*
X011727Y007704D01*
X011727Y007803D02*
X011824Y007803D01*
X011824Y007901D02*
X011727Y007901D01*
X011727Y008000D02*
X010786Y008000D01*
X010786Y007901D02*
X011409Y007901D01*
X011409Y007803D02*
X010786Y007803D01*
X010786Y007704D02*
X011452Y007704D01*
X010410Y007704D02*
X010310Y007704D01*
X010310Y007606D02*
X010410Y007606D01*
X010410Y007507D02*
X010310Y007507D01*
X010310Y007803D02*
X010410Y007803D01*
X010410Y007901D02*
X010310Y007901D01*
X010310Y008000D02*
X010410Y008000D01*
X010410Y008296D02*
X010310Y008296D01*
X010310Y008394D02*
X010410Y008394D01*
X010410Y008493D02*
X010310Y008493D01*
X010310Y008591D02*
X010410Y008591D01*
X010772Y009182D02*
X009710Y009182D01*
X009439Y008985D02*
X009381Y008985D01*
X009381Y008887D02*
X009439Y008887D01*
X009045Y008985D02*
X009026Y008985D01*
X008960Y009182D02*
X009111Y009182D01*
X009044Y009281D02*
X009026Y009281D01*
X009026Y009380D02*
X009044Y009380D01*
X009044Y009478D02*
X009026Y009478D01*
X009026Y009577D02*
X009044Y009577D01*
X008780Y009846D02*
X009380Y009846D01*
X009410Y009816D01*
X009110Y010289D02*
X009110Y010606D01*
X009010Y010706D01*
X009010Y012906D01*
X008685Y013106D02*
X008685Y012156D01*
X008760Y012106D01*
X008760Y010279D01*
X008773Y010266D01*
X008773Y009854D01*
X008780Y009846D01*
X008570Y009872D02*
X006942Y009872D01*
X006866Y009971D02*
X008218Y009971D01*
X008218Y010069D02*
X007410Y010069D01*
X007210Y010306D02*
X006710Y010806D01*
X006750Y010464D02*
X006799Y010464D01*
X006750Y010365D02*
X006897Y010365D01*
X006902Y010266D02*
X006750Y010266D01*
X006866Y010168D02*
X006934Y010168D01*
X006866Y010069D02*
X007011Y010069D01*
X007046Y009774D02*
X008570Y009774D01*
X008458Y010266D02*
X007780Y010266D01*
X007650Y010386D01*
X007936Y009675D02*
X007145Y009675D01*
X007243Y009577D02*
X007840Y009577D01*
X007799Y009478D02*
X007342Y009478D01*
X007441Y009380D02*
X007792Y009380D01*
X007813Y009281D02*
X007539Y009281D01*
X007638Y009182D02*
X007870Y009182D01*
X007736Y009084D02*
X008017Y009084D01*
X008631Y008985D02*
X008689Y008985D01*
X008689Y008887D02*
X008631Y008887D01*
X008631Y008788D02*
X008689Y008788D01*
X008689Y008690D02*
X008631Y008690D01*
X008631Y008591D02*
X008689Y008591D01*
X008689Y008493D02*
X008631Y008493D01*
X009757Y008493D02*
X009935Y008493D01*
X009953Y008591D02*
X009796Y008591D01*
X008910Y007113D02*
X008886Y007113D01*
X008886Y007015D02*
X008910Y007015D01*
X008910Y006916D02*
X008886Y006916D01*
X008886Y006817D02*
X008910Y006817D01*
X008910Y006719D02*
X008860Y006719D01*
X008910Y006620D02*
X007610Y006620D01*
X007610Y006522D02*
X008113Y006522D01*
X008055Y006423D02*
X007610Y006423D01*
X007610Y006325D02*
X008055Y006325D01*
X008055Y005635D02*
X007610Y005635D01*
X007610Y005536D02*
X008055Y005536D01*
X008106Y005438D02*
X007610Y005438D01*
X007711Y005339D02*
X007899Y005339D01*
X007880Y005241D02*
X007730Y005241D01*
X007730Y005142D02*
X007880Y005142D01*
X007880Y005044D02*
X007730Y005044D01*
X007730Y004945D02*
X007880Y004945D01*
X007730Y004847D02*
X008220Y004847D01*
X008220Y004748D02*
X008320Y004748D01*
X008320Y004649D02*
X008220Y004649D01*
X008220Y004551D02*
X008320Y004551D01*
X008320Y004452D02*
X008220Y004452D01*
X008220Y004354D02*
X008320Y004354D01*
X008320Y004255D02*
X008220Y004255D01*
X008583Y004255D02*
X009100Y004255D01*
X009100Y004157D02*
X007570Y004157D01*
X007570Y004255D02*
X007957Y004255D01*
X007884Y004354D02*
X007730Y004354D01*
X007730Y004452D02*
X007880Y004452D01*
X007880Y004551D02*
X007730Y004551D01*
X007730Y004649D02*
X007880Y004649D01*
X007880Y004748D02*
X007730Y004748D01*
X008320Y004847D02*
X009100Y004847D01*
X009100Y004945D02*
X008660Y004945D01*
X008660Y005044D02*
X009035Y005044D01*
X009035Y005142D02*
X008660Y005142D01*
X008660Y005241D02*
X009035Y005241D01*
X009035Y005339D02*
X008641Y005339D01*
X008814Y005438D02*
X009034Y005438D01*
X008939Y005536D02*
X008866Y005536D01*
X008866Y005635D02*
X008910Y005635D01*
X008910Y005733D02*
X008866Y005733D01*
X008866Y005832D02*
X008910Y005832D01*
X008910Y005931D02*
X008866Y005931D01*
X008866Y006029D02*
X008910Y006029D01*
X008910Y006128D02*
X008866Y006128D01*
X008866Y006226D02*
X008910Y006226D01*
X008910Y006325D02*
X008866Y006325D01*
X008866Y006423D02*
X008910Y006423D01*
X008910Y006522D02*
X008807Y006522D01*
X009520Y004945D02*
X009674Y004945D01*
X009674Y004847D02*
X009520Y004847D01*
X009520Y004748D02*
X009674Y004748D01*
X009708Y004649D02*
X009520Y004649D01*
X009520Y004551D02*
X009696Y004551D01*
X009674Y004452D02*
X009520Y004452D01*
X009520Y004354D02*
X009674Y004354D01*
X009674Y004255D02*
X009520Y004255D01*
X009557Y004157D02*
X009701Y004157D01*
X009357Y003763D02*
X007851Y003763D01*
X007752Y003861D02*
X009258Y003861D01*
X009160Y003960D02*
X007654Y003960D01*
X007570Y004058D02*
X009100Y004058D01*
X009100Y004354D02*
X008657Y004354D01*
X008660Y004452D02*
X009100Y004452D01*
X009100Y004551D02*
X008660Y004551D01*
X008660Y004649D02*
X009100Y004649D01*
X009100Y004748D02*
X008660Y004748D01*
X007949Y003664D02*
X009456Y003664D01*
X009038Y003566D02*
X008048Y003566D01*
X006522Y002482D02*
X000710Y002482D01*
X000710Y002383D02*
X006522Y002383D01*
X006522Y002284D02*
X000710Y002284D01*
X000710Y002186D02*
X006522Y002186D01*
X006522Y002087D02*
X000710Y002087D01*
X000710Y001989D02*
X006522Y001989D01*
X006531Y001890D02*
X000710Y001890D01*
X004766Y007310D02*
X006035Y007310D01*
X006035Y007409D02*
X004766Y007409D01*
X004766Y007507D02*
X006035Y007507D01*
X006035Y007606D02*
X004766Y007606D01*
X005003Y007704D02*
X006039Y007704D01*
X006116Y007803D02*
X005079Y007803D01*
X005079Y007901D02*
X006065Y007901D01*
X006035Y008000D02*
X005079Y008000D01*
X005079Y008099D02*
X006035Y008099D01*
X006035Y008197D02*
X005079Y008197D01*
X005079Y008296D02*
X006035Y008296D01*
X006410Y008197D02*
X006510Y008197D01*
X006510Y008099D02*
X006410Y008099D01*
X006410Y008000D02*
X006510Y008000D01*
X006510Y007901D02*
X006410Y007901D01*
X006410Y007803D02*
X006510Y007803D01*
X006510Y007704D02*
X006410Y007704D01*
X006410Y007606D02*
X006510Y007606D01*
X006510Y007507D02*
X006410Y007507D01*
X006410Y007409D02*
X006510Y007409D01*
X006510Y007113D02*
X006410Y007113D01*
X006410Y007015D02*
X006510Y007015D01*
X006510Y006916D02*
X006410Y006916D01*
X006410Y006817D02*
X006510Y006817D01*
X006510Y006719D02*
X006410Y006719D01*
X006410Y008493D02*
X006510Y008493D01*
X006510Y008591D02*
X006410Y008591D01*
X006410Y008690D02*
X006510Y008690D01*
X006510Y008788D02*
X006410Y008788D01*
X006410Y008887D02*
X006510Y008887D01*
X006510Y008985D02*
X006410Y008985D01*
X006849Y009182D02*
X006931Y009182D01*
X006055Y009971D02*
X005020Y009971D01*
X005029Y010069D02*
X006055Y010069D01*
X006055Y010168D02*
X005029Y010168D01*
X005571Y012631D02*
X004404Y012631D01*
X004400Y012730D02*
X005478Y012730D01*
X006060Y013906D02*
X005910Y014156D01*
X007638Y012429D02*
X007870Y012429D01*
X008420Y013646D02*
X008420Y013896D01*
X008998Y014110D02*
X009960Y014110D01*
X009861Y014208D02*
X009062Y014208D01*
X009088Y014307D02*
X009763Y014307D01*
X009664Y014405D02*
X009087Y014405D01*
X009046Y014504D02*
X009566Y014504D01*
X009467Y014602D02*
X008958Y014602D01*
X009398Y014011D02*
X009408Y014011D01*
X009398Y013913D02*
X009408Y013913D01*
X009398Y013814D02*
X009408Y013814D01*
X009398Y013715D02*
X009408Y013715D01*
X009088Y013646D02*
X009088Y013334D01*
X009820Y014898D02*
X009885Y014898D01*
X009865Y014997D02*
X009820Y014997D01*
X009820Y015095D02*
X009865Y015095D01*
X009865Y015194D02*
X009820Y015194D01*
X009820Y015292D02*
X009865Y015292D01*
X009865Y015391D02*
X009820Y015391D01*
X009820Y015489D02*
X009865Y015489D01*
X011720Y014405D02*
X012288Y014405D01*
X012410Y014110D02*
X012464Y014110D01*
X012510Y014011D02*
X012410Y014011D01*
X010870Y012730D02*
X010540Y012730D01*
X010540Y012631D02*
X010870Y012631D01*
X010870Y012533D02*
X010540Y012533D01*
X010540Y012434D02*
X010870Y012434D01*
X010870Y012336D02*
X010756Y012336D01*
X010615Y012336D02*
X010540Y012336D01*
X010685Y012031D02*
X010918Y011799D01*
X011250Y011799D01*
X012840Y010069D02*
X018010Y010069D01*
X018010Y009971D02*
X016451Y009971D01*
X016466Y009872D02*
X018010Y009872D01*
X018010Y009774D02*
X016466Y009774D01*
X016466Y009675D02*
X018010Y009675D01*
X018010Y009577D02*
X016466Y009577D01*
X016466Y009478D02*
X018010Y009478D01*
X018010Y009380D02*
X016466Y009380D01*
X016250Y009281D02*
X018010Y009281D01*
X018010Y009182D02*
X016250Y009182D01*
X016250Y009084D02*
X018010Y009084D01*
X018010Y010168D02*
X014036Y010168D01*
X014107Y010266D02*
X018010Y010266D01*
X018010Y010365D02*
X014138Y010365D01*
X014138Y010464D02*
X018010Y010464D01*
X018010Y010562D02*
X016807Y010562D01*
X016929Y010661D02*
X018010Y010661D01*
X018010Y010759D02*
X016975Y010759D01*
X016988Y010858D02*
X018010Y010858D01*
X018010Y010956D02*
X016974Y010956D01*
X016926Y011055D02*
X018010Y011055D01*
X018010Y011153D02*
X016800Y011153D01*
X016722Y011548D02*
X018010Y011548D01*
X018010Y011646D02*
X016864Y011646D01*
X016919Y011745D02*
X018010Y011745D01*
X018010Y011843D02*
X016938Y011843D01*
X016930Y011942D02*
X018010Y011942D01*
X018010Y012040D02*
X016889Y012040D01*
X016786Y012139D02*
X018010Y012139D01*
X018010Y011449D02*
X014000Y011449D01*
X014000Y011548D02*
X015109Y011548D01*
X015059Y011646D02*
X014000Y011646D01*
X014000Y011350D02*
X018010Y011350D01*
X018010Y011252D02*
X014000Y011252D01*
X014000Y011153D02*
X014060Y011153D01*
X014340Y011153D02*
X014421Y011153D01*
X014405Y010562D02*
X014347Y010562D01*
X014420Y009971D02*
X012840Y009971D01*
X012890Y009872D02*
X014405Y009872D01*
X015377Y011942D02*
X015474Y011942D01*
X015474Y012040D02*
X015377Y012040D01*
X015377Y012139D02*
X015474Y012139D01*
X015766Y012139D02*
X015780Y012139D01*
X016410Y012139D02*
X016435Y012139D01*
X016383Y011548D02*
X016498Y011548D01*
X016520Y011153D02*
X016449Y011153D01*
X016466Y010562D02*
X016513Y010562D01*
X016899Y008257D02*
X016900Y008257D01*
X016900Y008220D01*
X016900Y008002D01*
X016899Y008002D01*
X016899Y008220D01*
X016899Y008257D01*
X016899Y008197D02*
X016900Y008197D01*
X016899Y008099D02*
X016900Y008099D01*
X015738Y007310D02*
X015727Y007310D01*
X015639Y007409D02*
X015634Y007409D01*
X013616Y007015D02*
X013610Y007015D01*
X013610Y006916D02*
X013616Y006916D01*
X013610Y006817D02*
X013616Y006817D01*
X013616Y006719D02*
X013582Y006719D01*
X013052Y005044D02*
X012850Y005044D01*
X012867Y004945D02*
X013150Y004945D01*
X013249Y004847D02*
X012867Y004847D01*
X012867Y004748D02*
X013347Y004748D01*
X013446Y004649D02*
X012839Y004649D01*
X012824Y004551D02*
X013544Y004551D01*
X013282Y004354D02*
X012847Y004354D01*
X012847Y004452D02*
X014461Y004452D01*
X014559Y004354D02*
X014295Y004354D01*
X015086Y003171D02*
X015090Y003171D01*
X015003Y003073D02*
X016117Y003073D01*
X016055Y002974D02*
X015065Y002974D01*
X015101Y002876D02*
X016019Y002876D01*
X016019Y002777D02*
X015101Y002777D01*
X015082Y002679D02*
X016039Y002679D01*
X016079Y002580D02*
X015041Y002580D01*
X014945Y002482D02*
X016175Y002482D01*
X016190Y003171D02*
X016190Y003171D01*
X016190Y003270D02*
X016190Y003270D01*
X016190Y003368D02*
X016190Y003368D01*
X016190Y003467D02*
X016190Y003467D01*
X016190Y003566D02*
X016190Y003566D01*
X016190Y003664D02*
X016190Y003664D01*
X016190Y003763D02*
X016190Y003763D01*
X016190Y003861D02*
X016190Y003861D01*
X016190Y003960D02*
X016190Y003960D01*
X016190Y004058D02*
X016190Y004058D01*
X016190Y004157D02*
X016190Y004157D01*
X016190Y004255D02*
X016190Y004255D01*
X016190Y004354D02*
X016190Y004354D01*
X015720Y003171D02*
X015715Y003171D01*
X015405Y003171D02*
X015401Y003171D01*
X014298Y002186D02*
X016823Y002186D01*
X016808Y002087D02*
X014312Y002087D01*
X014312Y001989D02*
X016808Y001989D01*
X016808Y001890D02*
X014312Y001890D01*
X014312Y001792D02*
X016808Y001792D01*
X016808Y001693D02*
X014312Y001693D01*
X014312Y001595D02*
X016808Y001595D01*
X016808Y001496D02*
X014312Y001496D01*
X013338Y003171D02*
X012834Y003171D01*
X012847Y003270D02*
X013265Y003270D01*
X013265Y003368D02*
X012847Y003368D01*
X012847Y003467D02*
X013265Y003467D01*
X013265Y003566D02*
X013216Y003566D01*
X012905Y003566D02*
X012810Y003566D01*
X012819Y004157D02*
X012928Y004157D01*
X012847Y004255D02*
X013265Y004255D01*
X013265Y004157D02*
X013192Y004157D01*
X011266Y005635D02*
X011155Y005635D01*
X010492Y005832D02*
X010400Y005832D01*
X010463Y005931D02*
X010474Y005931D01*
X012010Y008822D02*
X012296Y008822D01*
X012590Y009066D01*
X014353Y012730D02*
X015091Y012730D01*
X014924Y012829D02*
X014451Y012829D01*
X015396Y014110D02*
X018010Y014110D01*
X018010Y014208D02*
X017836Y014208D01*
X017836Y014307D02*
X018010Y014307D01*
X018010Y014405D02*
X017836Y014405D01*
X017836Y014504D02*
X018010Y014504D01*
X018010Y014602D02*
X017836Y014602D01*
X017836Y014701D02*
X018010Y014701D01*
X018010Y014799D02*
X017836Y014799D01*
X017836Y014898D02*
X018010Y014898D01*
X018010Y014997D02*
X017836Y014997D01*
X017808Y015095D02*
X018010Y015095D01*
X018010Y014011D02*
X016832Y014011D01*
X016968Y013913D02*
X018010Y013913D01*
X018010Y013814D02*
X017021Y013814D01*
X017038Y013715D02*
X018010Y013715D01*
X017971Y013617D02*
X017028Y013617D01*
X014667Y015982D02*
X014620Y015982D01*
X014620Y017263D02*
X014706Y017263D01*
X014200Y017460D02*
X012037Y017460D01*
X012036Y017362D02*
X012303Y017362D01*
X012255Y017263D02*
X012035Y017263D01*
X012033Y017164D02*
X012255Y017164D01*
X012255Y017066D02*
X012032Y017066D01*
X012038Y017559D02*
X014095Y017559D01*
X013982Y017657D02*
X012040Y017657D01*
X012041Y017756D02*
X013879Y017756D01*
X013859Y017854D02*
X013601Y017854D01*
X013663Y017953D02*
X013797Y017953D01*
X013797Y018051D02*
X013663Y018051D01*
X013663Y018150D02*
X013797Y018150D01*
X013797Y018248D02*
X013663Y018248D01*
X013663Y018347D02*
X013797Y018347D01*
X013797Y018446D02*
X013663Y018446D01*
X013616Y018544D02*
X013845Y018544D01*
X014324Y018544D02*
X016809Y018544D01*
X016809Y018446D02*
X014785Y018446D01*
X014857Y018347D02*
X016809Y018347D01*
X016809Y018248D02*
X014888Y018248D01*
X013973Y019234D02*
X013441Y019234D01*
X013540Y019332D02*
X013874Y019332D01*
X013877Y020022D02*
X013760Y020022D01*
X013760Y020121D02*
X013975Y020121D01*
X014155Y020219D02*
X013760Y020219D01*
X012052Y018643D02*
X016809Y018643D01*
X017380Y021796D02*
X017480Y021796D01*
X017480Y021895D02*
X017380Y021895D01*
X017380Y021993D02*
X017480Y021993D01*
X017480Y022092D02*
X017380Y022092D01*
X017380Y022190D02*
X017480Y022190D01*
X013355Y017362D02*
X013294Y017362D01*
X012848Y016869D02*
X012749Y016869D01*
X012749Y016770D02*
X012848Y016770D01*
X012848Y016672D02*
X012749Y016672D01*
X012749Y016573D02*
X012848Y016573D01*
X013315Y016573D02*
X013332Y016573D01*
X009921Y017657D02*
X009820Y017657D01*
X009820Y017756D02*
X009865Y017756D01*
X009865Y017854D02*
X009820Y017854D01*
X009820Y017953D02*
X009865Y017953D01*
X009865Y018051D02*
X009820Y018051D01*
X009820Y018150D02*
X009865Y018150D01*
X009865Y018248D02*
X009820Y018248D01*
X009820Y018347D02*
X009865Y018347D01*
X009865Y018446D02*
X009820Y018446D01*
X009820Y018544D02*
X009865Y018544D01*
X009865Y018643D02*
X009820Y018643D01*
X009820Y018741D02*
X009865Y018741D01*
X009865Y018840D02*
X009820Y018840D01*
X009820Y018938D02*
X009865Y018938D01*
X009865Y019037D02*
X009820Y019037D01*
X009820Y019135D02*
X009865Y019135D01*
X008800Y019037D02*
X008666Y019037D01*
X008739Y018938D02*
X008800Y018938D01*
X008800Y018840D02*
X008769Y018840D01*
X008767Y018741D02*
X008800Y018741D01*
X008800Y018643D02*
X008726Y018643D01*
X008659Y018544D02*
X008800Y018544D01*
X008800Y018446D02*
X008707Y018446D01*
X008719Y018347D02*
X008800Y018347D01*
X009603Y021993D02*
X009700Y021993D01*
X009673Y022289D02*
X009796Y022289D01*
X009771Y022387D02*
X009894Y022387D01*
X009820Y022486D02*
X009993Y022486D01*
X010000Y022584D02*
X009820Y022584D01*
X009820Y022683D02*
X010000Y022683D01*
X010006Y022781D02*
X009882Y022781D01*
X009567Y010661D02*
X009290Y010661D01*
X017841Y002186D02*
X018010Y002186D01*
X018010Y002087D02*
X017856Y002087D01*
X017856Y001989D02*
X018010Y001989D01*
X018010Y001890D02*
X017856Y001890D01*
X017856Y001792D02*
X018010Y001792D01*
X018010Y001693D02*
X017856Y001693D01*
X017856Y001595D02*
X017999Y001595D01*
X017900Y001496D02*
X017856Y001496D01*
D47*
X014860Y007156D03*
X012590Y009066D03*
X011710Y009996D03*
X012135Y011481D03*
X011985Y011906D03*
X011960Y013056D03*
X011510Y013856D03*
X011060Y013656D03*
X009910Y012956D03*
X009460Y012881D03*
X009010Y012906D03*
X008360Y012706D03*
X007400Y013576D03*
X006890Y014366D03*
X006910Y014856D03*
X006280Y014186D03*
X006145Y012406D03*
X006460Y012086D03*
X006710Y010806D03*
X007210Y010306D03*
X007650Y010386D03*
X008435Y011156D03*
X010685Y012031D03*
X008850Y014816D03*
X008650Y015806D03*
X008560Y017306D03*
X008410Y018356D03*
X008460Y018806D03*
X007210Y020606D03*
X005670Y019356D03*
X005310Y020356D03*
X004610Y021806D03*
X004610Y023106D03*
X004560Y018906D03*
X005740Y018256D03*
X006890Y017606D03*
X007260Y016606D03*
X004560Y017306D03*
X002010Y014906D03*
X001010Y012706D03*
X005460Y007356D03*
X005310Y003606D03*
X009660Y008256D03*
X012810Y002656D03*
X017010Y009956D03*
X014160Y013856D03*
X016310Y015856D03*
X016310Y017206D03*
X016410Y020206D03*
X011510Y019806D03*
X011460Y015106D03*
D48*
X006460Y010456D02*
X006460Y009686D01*
X006460Y010456D02*
X006410Y010506D01*
X005760Y010506D01*
X004426Y010506D01*
X004476Y008306D02*
X004476Y007140D01*
X005660Y005956D01*
X005680Y005976D01*
X006460Y005976D01*
X002744Y006216D02*
X002730Y005900D01*
X002744Y006216D02*
X002744Y008306D01*
X002694Y008356D01*
X002694Y010506D01*
M02*
