%
M48
M72
T01C0.0197
T02C0.0236
T03C0.0354
T04C0.0360
T05C0.0394
T06C0.0400
T07C0.0512
T08C0.0590
T09C0.1180
%
T01
X5310Y3606
X5460Y7356
X7210Y10306
X7650Y10386
X8435Y11156
X8360Y12706
X9010Y12906
X9460Y12881
X9910Y12956
X10685Y12031
X11960Y13056
X11510Y13856
X11060Y13656
X11460Y15106
X8850Y14816
X8650Y15806
X8560Y17306
X8410Y18356
X8460Y18806
X7210Y20606
X5670Y19356
X5310Y20356
X4610Y21806
X4610Y23106
X4560Y18906
X5740Y18256
X6890Y17606
X7260Y16606
X6910Y14856
X6890Y14366
X6280Y14186
X7400Y13576
X6460Y12086
X6145Y12406
X6710Y10806
X9660Y8256
X11710Y9996
X12590Y9066
X12135Y11481
X11985Y11906
X14160Y13856
X16310Y15856
X16310Y17206
X16410Y20206
X11510Y19806
X4560Y17306
X2010Y14906
X1010Y12706
X12810Y2656
X14860Y7156
X17010Y9956
T02
X16660Y10856
X16610Y11856
X16710Y13706
X15160Y13056
X14200Y10856
X13810Y10406
X12995Y10566
X13440Y8406
X12820Y6486
X11210Y6606
X10160Y6056
X9660Y7406
X8120Y9396
X7810Y7906
X7810Y7156
X5660Y5956
X5760Y10806
X4210Y12006
X5760Y12906
X7210Y14006
X7890Y14426
X8760Y14336
X10360Y13106
X11110Y10036
X10210Y9606
X12860Y15256
X13910Y15306
X11660Y16256
X11760Y18106
X14560Y18206
X8160Y19956
X4610Y15956
X4610Y15456
X4560Y14906
X5610Y14806
X2410Y15556
X10510Y2356
X13060Y3856
X15210Y5956
X16270Y6456
T03
X16426Y2806
X14694Y2806
T04
X2910Y17806
X2910Y18806
X2910Y19806
X2910Y20806
X2910Y21806
X1910Y21806
X1910Y20806
X1910Y19806
X1910Y18806
X1910Y17806
X6410Y21606
X6410Y22606
X7410Y22606
X7410Y21606
X8410Y21606
X8410Y22606
X9410Y22606
X9410Y21606
X10410Y21606
X10410Y22606
T05
X14960Y17641
X14960Y15672
T06
X3560Y14056
X3560Y13056
X3560Y12056
X2560Y12056
X2560Y13056
X2560Y14056
T07
X17323Y14629
X17323Y18684
T08
X17430Y21686
X16150Y23536
X14890Y20666
X14340Y19676
X13200Y23326
T09
X2730Y3538
X4581Y4719
X2730Y5900
M30
