G75*
G70*
%OFA0B0*%
%FSLAX24Y24*%
%IPPOS*%
%LPD*%
%AMOC8*
5,1,8,0,0,1.08239X$1,22.5*
%
%ADD10R,0.0354X0.0236*%
%ADD11R,0.0472X0.0315*%
%ADD12R,0.0315X0.0472*%
%ADD13C,0.0554*%
%ADD14R,0.0394X0.0433*%
%ADD15R,0.0276X0.0669*%
%ADD16OC8,0.0740*%
%ADD17C,0.1700*%
%ADD18OC8,0.0560*%
%ADD19R,0.0630X0.0460*%
%ADD20OC8,0.0885*%
%ADD21C,0.0885*%
%ADD22R,0.0236X0.0866*%
%ADD23OC8,0.0594*%
%ADD24R,0.0768X0.0768*%
%ADD25C,0.0396*%
%ADD26C,0.0160*%
%ADD27C,0.0120*%
%ADD28C,0.0357*%
%ADD29C,0.0100*%
%ADD30C,0.0240*%
D10*
X006108Y015482D03*
X006108Y015856D03*
X006108Y016230D03*
X007013Y016230D03*
X007013Y015856D03*
X007013Y015482D03*
X007013Y018632D03*
X007013Y019006D03*
X007013Y019380D03*
X006108Y019380D03*
X006108Y019006D03*
X006108Y018632D03*
D11*
X006110Y017311D03*
X006110Y016602D03*
D12*
X006206Y018106D03*
X006915Y018106D03*
X006915Y019906D03*
X006206Y019906D03*
X006206Y014956D03*
X006915Y014956D03*
X014606Y016356D03*
X014606Y016956D03*
X015315Y016956D03*
X015315Y016356D03*
D13*
X014694Y002806D03*
X016426Y002806D03*
D14*
X016110Y005222D03*
X016110Y005891D03*
X016060Y009872D03*
X016060Y010541D03*
X014810Y010541D03*
X014810Y009872D03*
D15*
X008783Y013706D03*
X008310Y013706D03*
X007838Y013706D03*
D16*
X003560Y014056D03*
X003560Y013056D03*
X003560Y012056D03*
X002560Y012056D03*
X002560Y013056D03*
X002560Y014056D03*
D17*
X002730Y005900D03*
X004581Y004719D03*
X002730Y003538D03*
D18*
X002910Y017806D03*
X002910Y018806D03*
X002910Y019806D03*
X002910Y020806D03*
X002910Y021806D03*
X001910Y021806D03*
X001910Y020806D03*
X001910Y019806D03*
X001910Y018806D03*
X001910Y017806D03*
X006410Y021606D03*
X006410Y022606D03*
X007410Y022606D03*
X007410Y021606D03*
X008410Y021606D03*
X008410Y022606D03*
X009410Y022606D03*
X009410Y021606D03*
X010410Y021606D03*
X010410Y022606D03*
D19*
X012010Y009406D03*
X012010Y008806D03*
D20*
X017430Y021686D03*
X016150Y023536D03*
X013200Y023326D03*
D21*
X014890Y020666D03*
X014340Y019676D03*
D22*
X013860Y018130D03*
X013360Y018130D03*
X012860Y018130D03*
X012360Y018130D03*
X012360Y016083D03*
X012860Y016083D03*
X013360Y016083D03*
X013860Y016083D03*
X014660Y014030D03*
X015160Y014030D03*
X015660Y014030D03*
X016160Y014030D03*
X016160Y011983D03*
X015660Y011983D03*
X015160Y011983D03*
X014660Y011983D03*
D23*
X014960Y015672D03*
X014960Y017641D03*
D24*
X017323Y018684D03*
X017323Y014629D03*
D25*
X016710Y013706D03*
X016610Y011856D03*
X016660Y010856D03*
X015160Y013056D03*
X014200Y010856D03*
X013810Y010406D03*
X012995Y010566D03*
X013440Y008406D03*
X012820Y006486D03*
X011210Y006606D03*
X010160Y006056D03*
X009660Y007406D03*
X008120Y009396D03*
X007810Y007906D03*
X007810Y007156D03*
X005660Y005956D03*
X005760Y010806D03*
X004210Y012006D03*
X005760Y012906D03*
X007210Y014006D03*
X007890Y014426D03*
X008760Y014336D03*
X010360Y013106D03*
X011110Y010036D03*
X010210Y009606D03*
X012860Y015256D03*
X013910Y015306D03*
X011660Y016256D03*
X011760Y018106D03*
X014560Y018206D03*
X008160Y019956D03*
X004610Y015956D03*
X004610Y015456D03*
X004560Y014906D03*
X005610Y014806D03*
X002410Y015556D03*
X010510Y002356D03*
X013060Y003856D03*
X015210Y005956D03*
X016270Y006456D03*
D26*
X013810Y008106D02*
X013560Y007856D01*
X007860Y007856D01*
X007810Y007906D01*
X007760Y007956D01*
X003360Y007956D01*
X002560Y008756D01*
X002560Y012056D01*
X004610Y015456D02*
X004636Y015482D01*
X006108Y015482D01*
X006106Y016230D02*
X006108Y016230D01*
X006106Y016230D02*
X004934Y016230D01*
X004610Y015956D01*
X001360Y019256D02*
X001910Y019806D01*
X007410Y022606D02*
X007860Y023056D01*
X010660Y023056D01*
X011060Y022656D01*
X013460Y018856D02*
X013360Y018756D01*
X013360Y018130D01*
X013460Y018856D02*
X017260Y018856D01*
X017323Y018794D01*
X017323Y018684D01*
X017323Y014629D01*
X015315Y016356D02*
X015315Y016956D01*
X014606Y016956D02*
X014010Y016956D01*
X013860Y016806D01*
X013860Y016083D01*
X013910Y016033D01*
X013910Y015306D01*
X013360Y016083D02*
X013360Y013956D01*
X014335Y012981D01*
X015085Y012981D01*
X015160Y013056D01*
X012860Y015256D02*
X012860Y016083D01*
X011660Y016256D02*
X012760Y017356D01*
X013960Y017356D01*
X014560Y017956D01*
X014560Y018206D01*
X012360Y018130D02*
X011784Y018130D01*
X011760Y018106D01*
X008120Y009396D02*
X007810Y009006D01*
X007810Y007906D01*
X007460Y006606D02*
X006810Y005956D01*
X005660Y005956D01*
X007460Y006606D02*
X011210Y006606D01*
X010510Y005706D02*
X010510Y002356D01*
X010510Y005706D02*
X010160Y006056D01*
X013810Y008106D02*
X013810Y009206D01*
D27*
X013810Y009906D01*
X013845Y009872D01*
X014810Y009872D01*
X016060Y009872D01*
X016060Y010541D02*
X016376Y010856D01*
X016660Y010856D01*
X016610Y011856D02*
X016287Y011856D01*
X016160Y011983D01*
X016160Y012656D01*
X015760Y013056D01*
X015160Y013056D01*
X015160Y014030D01*
X016160Y014030D02*
X016484Y013706D01*
X016710Y013706D01*
X015160Y011983D02*
X015160Y011556D01*
X015010Y011406D01*
X013260Y011406D01*
X012810Y010956D01*
X008960Y010956D01*
X008250Y010486D01*
X007750Y010486D01*
X007650Y010386D01*
X007510Y011156D02*
X008435Y011156D01*
X012660Y011156D01*
X013260Y011756D01*
X014660Y011756D01*
X014660Y011983D01*
X014495Y010856D02*
X014200Y010856D01*
X014495Y010856D02*
X014810Y010541D01*
X013810Y010406D02*
X013810Y009906D01*
X013440Y008406D02*
X012410Y008406D01*
X012010Y008806D01*
X012820Y006486D02*
X012960Y006456D01*
X016270Y006456D01*
X016160Y005956D02*
X015210Y005956D01*
X013110Y003856D01*
X013060Y003856D01*
X016110Y005891D02*
X016110Y005906D01*
X016160Y005956D01*
X011785Y011706D02*
X011985Y011906D01*
X010360Y013106D02*
X010360Y020656D01*
X009410Y021606D01*
X008410Y021606D02*
X009910Y020106D01*
X009910Y012956D01*
X009460Y012881D02*
X009460Y019556D01*
X007410Y021606D01*
X006560Y020306D02*
X006540Y020306D01*
X005490Y021356D01*
X002460Y021356D01*
X001910Y020806D01*
X002910Y020806D02*
X004160Y019456D01*
X003960Y018706D02*
X002910Y019806D01*
X002910Y018806D02*
X002910Y018706D01*
X003760Y017856D01*
X002410Y018306D02*
X002410Y015556D01*
X003560Y014056D02*
X003810Y014056D01*
X004210Y013656D01*
X004210Y012006D01*
X003060Y011556D02*
X004760Y009856D01*
X009960Y009856D01*
X010210Y009606D01*
X009110Y012906D02*
X009010Y012906D01*
X008783Y013706D02*
X008783Y014234D01*
X008760Y014336D01*
X007860Y013729D02*
X007838Y013706D01*
X006890Y014366D02*
X006560Y014706D01*
X006560Y020306D01*
X006915Y019906D02*
X007013Y019906D01*
X007013Y019380D01*
X007013Y018632D02*
X007013Y018106D01*
X006915Y018106D01*
X006108Y018632D02*
X005810Y018335D01*
X005740Y018256D01*
X006110Y016602D02*
X006106Y016230D01*
X006108Y015482D02*
X006108Y014956D01*
X006206Y014956D01*
X005610Y014806D02*
X006280Y014186D01*
X006145Y012406D02*
X006910Y012406D01*
X007160Y012156D01*
X007160Y011506D01*
X007510Y011156D01*
X006710Y010806D02*
X006610Y010906D01*
X011060Y014306D02*
X011060Y022656D01*
X002410Y018306D02*
X001910Y018806D01*
X001360Y019256D02*
X001360Y013206D01*
X002010Y012556D01*
D28*
X001010Y012706D03*
X002010Y014906D03*
X004560Y017306D03*
X005740Y018256D03*
X005670Y019356D03*
X005310Y020356D03*
X004610Y021806D03*
X004610Y023106D03*
X007210Y020606D03*
X008460Y018806D03*
X008410Y018356D03*
X008560Y017306D03*
X007260Y016606D03*
X006890Y017606D03*
X008650Y015806D03*
X008850Y014816D03*
X007400Y013576D03*
X006890Y014366D03*
X006910Y014856D03*
X006280Y014186D03*
X006145Y012406D03*
X006460Y012086D03*
X006710Y010806D03*
X007210Y010306D03*
X007650Y010386D03*
X008435Y011156D03*
X008360Y012706D03*
X009010Y012906D03*
X009460Y012881D03*
X009910Y012956D03*
X010685Y012031D03*
X011960Y013056D03*
X011510Y013856D03*
X011060Y013656D03*
X011460Y015106D03*
X014160Y013856D03*
X011985Y011906D03*
X012135Y011481D03*
X011710Y009996D03*
X012590Y009066D03*
X014860Y007156D03*
X017010Y009956D03*
X016310Y015856D03*
X016310Y017206D03*
X016410Y020206D03*
X011510Y019806D03*
X004560Y018906D03*
X009660Y008256D03*
X005460Y007356D03*
X005310Y003606D03*
X012810Y002656D03*
D29*
X000960Y001406D02*
X000710Y001656D01*
X000710Y023406D01*
X000960Y023706D01*
X011310Y023706D01*
X011800Y023006D01*
X011775Y018434D01*
X011695Y018434D01*
X011574Y018384D01*
X011482Y018292D01*
X011432Y018172D01*
X011432Y018041D01*
X011482Y017920D01*
X011574Y017828D01*
X011695Y017778D01*
X011772Y017778D01*
X011765Y016658D01*
X011691Y016584D01*
X011595Y016584D01*
X011474Y016534D01*
X011382Y016442D01*
X011332Y016322D01*
X011332Y016191D01*
X011382Y016070D01*
X011474Y015978D01*
X011595Y015928D01*
X011726Y015928D01*
X011761Y015943D01*
X011751Y014052D01*
X011685Y014118D01*
X011572Y014165D01*
X011456Y014165D01*
X011250Y014371D01*
X011250Y022549D01*
X011270Y022569D01*
X011270Y022743D01*
X010870Y023143D01*
X010747Y023266D01*
X007947Y023266D01*
X007773Y023266D01*
X007523Y023016D01*
X007240Y023016D01*
X007000Y022776D01*
X007000Y022436D01*
X007240Y022196D01*
X007580Y022196D01*
X007820Y022436D01*
X007820Y022719D01*
X007947Y022846D01*
X008071Y022846D01*
X008000Y022776D01*
X008000Y022436D01*
X008240Y022196D01*
X008580Y022196D01*
X008820Y022436D01*
X008820Y022776D01*
X008750Y022846D01*
X009071Y022846D01*
X009000Y022776D01*
X009000Y022436D01*
X009240Y022196D01*
X009580Y022196D01*
X009820Y022436D01*
X009820Y022776D01*
X009750Y022846D01*
X010071Y022846D01*
X010000Y022776D01*
X010000Y022436D01*
X010240Y022196D01*
X010580Y022196D01*
X010820Y022436D01*
X010820Y022599D01*
X010870Y022549D01*
X010870Y014228D01*
X010982Y014116D01*
X010996Y014116D01*
X011202Y013910D01*
X011202Y013795D01*
X011249Y013682D01*
X011336Y013595D01*
X011417Y013561D01*
X011333Y013561D01*
X011332Y013562D01*
X011259Y013561D01*
X011186Y013561D01*
X011185Y013560D01*
X011183Y013560D01*
X011133Y013508D01*
X011080Y013456D01*
X011080Y013454D01*
X010688Y013050D01*
X010688Y013172D01*
X010638Y013292D01*
X010550Y013380D01*
X010550Y020578D01*
X010550Y020735D01*
X009820Y021465D01*
X009820Y021776D01*
X009580Y022016D01*
X009240Y022016D01*
X009000Y021776D01*
X009000Y021436D01*
X009240Y021196D01*
X009552Y021196D01*
X010170Y020578D01*
X010170Y013380D01*
X010100Y013310D01*
X010100Y020028D01*
X010100Y020185D01*
X008820Y021465D01*
X008820Y021776D01*
X008580Y022016D01*
X008240Y022016D01*
X008000Y021776D01*
X008000Y021436D01*
X008240Y021196D01*
X008552Y021196D01*
X009720Y020028D01*
X009720Y013202D01*
X009650Y013132D01*
X009650Y019478D01*
X009650Y019635D01*
X007820Y021465D01*
X007820Y021776D01*
X007580Y022016D01*
X007240Y022016D01*
X007000Y021776D01*
X007000Y021436D01*
X007240Y021196D01*
X007552Y021196D01*
X009270Y019478D01*
X009270Y019101D01*
X008486Y019885D01*
X008488Y019891D01*
X008488Y020022D01*
X008726Y020022D01*
X008824Y019924D02*
X008488Y019924D01*
X008488Y020022D02*
X008438Y020142D01*
X008346Y020234D01*
X008226Y020284D01*
X008095Y020284D01*
X007974Y020234D01*
X007882Y020142D01*
X007832Y020022D01*
X007832Y019891D01*
X007882Y019770D01*
X007974Y019678D01*
X008095Y019628D01*
X008226Y019628D01*
X008231Y019631D01*
X009030Y018832D01*
X009030Y014530D01*
X008946Y014614D01*
X008826Y014664D01*
X008695Y014664D01*
X008574Y014614D01*
X008482Y014522D01*
X008432Y014402D01*
X008432Y014271D01*
X008465Y014191D01*
X008329Y014191D01*
X008329Y013725D01*
X008291Y013725D01*
X008291Y014191D01*
X008153Y014191D01*
X008115Y014181D01*
X008100Y014172D01*
X008168Y014240D01*
X008218Y014361D01*
X008218Y014492D01*
X008168Y014612D01*
X008076Y014704D01*
X007956Y014754D01*
X007825Y014754D01*
X007740Y014719D01*
X007740Y014782D01*
X007790Y014832D01*
X007790Y016941D01*
X007796Y016948D01*
X007790Y017015D01*
X007790Y017081D01*
X007784Y017087D01*
X007783Y017097D01*
X007732Y017139D01*
X007685Y017186D01*
X007675Y017186D01*
X007199Y017584D01*
X007199Y017668D01*
X007156Y017770D01*
X007202Y017816D01*
X007202Y018027D01*
X007203Y018028D01*
X007203Y018188D01*
X007214Y018176D01*
X007364Y018176D01*
X008154Y018176D01*
X008236Y018095D01*
X008349Y018048D01*
X008472Y018048D01*
X008585Y018095D01*
X008672Y018182D01*
X008719Y018295D01*
X008719Y018418D01*
X008672Y018531D01*
X008646Y018556D01*
X008722Y018632D01*
X008769Y018745D01*
X008769Y018868D01*
X008722Y018981D01*
X008635Y019068D01*
X008522Y019115D01*
X008399Y019115D01*
X008286Y019068D01*
X008204Y018986D01*
X007985Y018986D01*
X007540Y019431D01*
X008431Y019431D01*
X008333Y019530D02*
X007442Y019530D01*
X007435Y019536D02*
X007320Y019536D01*
X007320Y019552D01*
X007244Y019628D01*
X008234Y019628D01*
X008160Y019956D02*
X009210Y018906D01*
X009210Y013206D01*
X009110Y013106D01*
X009110Y012906D01*
X008964Y013215D02*
X008949Y013215D01*
X008836Y013168D01*
X008749Y013081D01*
X008702Y012968D01*
X008702Y012845D01*
X008747Y012736D01*
X008669Y012736D01*
X008669Y012768D01*
X008622Y012881D01*
X008535Y012968D01*
X008422Y013015D01*
X008299Y013015D01*
X008186Y012968D01*
X008099Y012881D01*
X008052Y012768D01*
X008052Y012719D01*
X007491Y013280D01*
X007574Y013314D01*
X007646Y013242D01*
X008029Y013242D01*
X008060Y013272D01*
X008080Y013252D01*
X008115Y013232D01*
X008153Y013222D01*
X008291Y013222D01*
X008291Y013687D01*
X008329Y013687D01*
X008329Y013222D01*
X008468Y013222D01*
X008506Y013232D01*
X008540Y013252D01*
X008561Y013272D01*
X008591Y013242D01*
X008974Y013242D01*
X009030Y013298D01*
X009030Y013281D01*
X008964Y013215D01*
X008972Y013223D02*
X008472Y013223D01*
X008329Y013223D02*
X008291Y013223D01*
X008291Y013321D02*
X008329Y013321D01*
X008329Y013420D02*
X008291Y013420D01*
X008291Y013518D02*
X008329Y013518D01*
X008329Y013617D02*
X008291Y013617D01*
X008291Y013814D02*
X008329Y013814D01*
X008329Y013913D02*
X008291Y013913D01*
X008291Y014011D02*
X008329Y014011D01*
X008329Y014110D02*
X008291Y014110D01*
X008136Y014208D02*
X008458Y014208D01*
X008432Y014307D02*
X008196Y014307D01*
X008218Y014405D02*
X008434Y014405D01*
X008475Y014504D02*
X008213Y014504D01*
X008172Y014602D02*
X008562Y014602D01*
X008958Y014602D02*
X009030Y014602D01*
X009030Y014701D02*
X008080Y014701D01*
X007890Y014426D02*
X007838Y014334D01*
X007838Y013706D01*
X007548Y013223D02*
X008149Y013223D01*
X008145Y012927D02*
X007844Y012927D01*
X007942Y012829D02*
X008077Y012829D01*
X008052Y012730D02*
X008041Y012730D01*
X008360Y012706D02*
X008510Y012556D01*
X010460Y012556D01*
X011260Y013381D01*
X013635Y013381D01*
X014360Y012656D01*
X015510Y012656D01*
X015660Y012506D01*
X015660Y011983D01*
X015279Y011406D02*
X017760Y011406D01*
X018010Y011006D01*
X018010Y001606D01*
X017810Y001406D01*
X000960Y001406D01*
X000871Y001496D02*
X017900Y001496D01*
X017999Y001595D02*
X000772Y001595D01*
X000710Y001693D02*
X018010Y001693D01*
X018010Y001792D02*
X000710Y001792D01*
X000710Y001890D02*
X018010Y001890D01*
X018010Y001989D02*
X000710Y001989D01*
X000710Y002087D02*
X010315Y002087D01*
X010324Y002078D02*
X010445Y002028D01*
X010576Y002028D01*
X010696Y002078D01*
X010788Y002170D01*
X010838Y002291D01*
X010838Y002422D01*
X010788Y002542D01*
X010720Y002610D01*
X010720Y005793D01*
X010597Y005916D01*
X010488Y006025D01*
X010488Y006122D01*
X010438Y006242D01*
X010346Y006334D01*
X010226Y006384D01*
X010095Y006384D01*
X009974Y006334D01*
X009882Y006242D01*
X009832Y006122D01*
X009832Y005991D01*
X009882Y005870D01*
X009974Y005778D01*
X010095Y005728D01*
X010191Y005728D01*
X010300Y005619D01*
X010300Y002610D01*
X010232Y002542D01*
X010182Y002422D01*
X010182Y002291D01*
X010232Y002170D01*
X010324Y002078D01*
X010226Y002186D02*
X000710Y002186D01*
X000710Y002284D02*
X010185Y002284D01*
X010182Y002383D02*
X000710Y002383D01*
X000710Y002482D02*
X010207Y002482D01*
X010270Y002580D02*
X003021Y002580D01*
X003008Y002575D02*
X003114Y002612D01*
X003215Y002661D01*
X003310Y002721D01*
X003398Y002791D01*
X003477Y002870D01*
X003547Y002958D01*
X003607Y003053D01*
X003656Y003154D01*
X003693Y003261D01*
X003718Y003370D01*
X003730Y003482D01*
X003730Y003488D01*
X002780Y003488D01*
X002780Y002538D01*
X002786Y002538D01*
X002898Y002550D01*
X003008Y002575D01*
X003243Y002679D02*
X010300Y002679D01*
X010300Y002777D02*
X003380Y002777D01*
X003481Y002876D02*
X010300Y002876D01*
X010300Y002974D02*
X003557Y002974D01*
X003616Y003073D02*
X010300Y003073D01*
X010300Y003171D02*
X003661Y003171D01*
X003695Y003270D02*
X010300Y003270D01*
X010300Y003368D02*
X003717Y003368D01*
X003729Y003467D02*
X010300Y003467D01*
X010300Y003566D02*
X002780Y003566D01*
X002780Y003588D02*
X003730Y003588D01*
X003730Y003594D01*
X003718Y003706D01*
X003693Y003815D01*
X003656Y003921D01*
X003607Y004022D01*
X003547Y004117D01*
X003477Y004205D01*
X003398Y004285D01*
X003310Y004355D01*
X003215Y004414D01*
X003114Y004463D01*
X003008Y004500D01*
X002898Y004525D01*
X002786Y004538D01*
X002780Y004538D01*
X002780Y003588D01*
X002680Y003588D01*
X002680Y003488D01*
X001730Y003488D01*
X001730Y003482D01*
X001743Y003370D01*
X001768Y003261D01*
X001805Y003154D01*
X001854Y003053D01*
X001913Y002958D01*
X001984Y002870D01*
X002063Y002791D01*
X002151Y002721D01*
X002246Y002661D01*
X002347Y002612D01*
X002453Y002575D01*
X002563Y002550D01*
X002674Y002538D01*
X002680Y002538D01*
X002680Y003488D01*
X002780Y003488D01*
X002780Y003588D01*
X002780Y003664D02*
X002680Y003664D01*
X002680Y003588D02*
X002680Y004538D01*
X002674Y004538D01*
X002563Y004525D01*
X002453Y004500D01*
X002347Y004463D01*
X002246Y004414D01*
X002151Y004355D01*
X002063Y004285D01*
X001984Y004205D01*
X001913Y004117D01*
X001854Y004022D01*
X001805Y003921D01*
X001768Y003815D01*
X001743Y003706D01*
X001730Y003594D01*
X001730Y003588D01*
X002680Y003588D01*
X002680Y003566D02*
X000710Y003566D01*
X000710Y003664D02*
X001738Y003664D01*
X001756Y003763D02*
X000710Y003763D01*
X000710Y003861D02*
X001784Y003861D01*
X001824Y003960D02*
X000710Y003960D01*
X000710Y004058D02*
X001876Y004058D01*
X001945Y004157D02*
X000710Y004157D01*
X000710Y004255D02*
X002034Y004255D01*
X002150Y004354D02*
X000710Y004354D01*
X000710Y004452D02*
X002325Y004452D01*
X002535Y004920D02*
X002925Y004920D01*
X003285Y005069D01*
X003561Y005345D01*
X003710Y005705D01*
X003710Y006095D01*
X003561Y006455D01*
X003285Y006731D01*
X002925Y006880D01*
X002535Y006880D01*
X002175Y006731D01*
X001899Y006455D01*
X001750Y006095D01*
X001750Y005705D01*
X001899Y005345D01*
X002175Y005069D01*
X002535Y004920D01*
X002475Y004945D02*
X000710Y004945D01*
X000710Y004847D02*
X003589Y004847D01*
X003593Y004887D02*
X003581Y004775D01*
X003581Y004769D01*
X004531Y004769D01*
X004531Y005719D01*
X004525Y005719D01*
X004413Y005706D01*
X004303Y005681D01*
X004197Y005644D01*
X004096Y005595D01*
X004001Y005536D01*
X003913Y005466D01*
X003834Y005386D01*
X003764Y005298D01*
X003704Y005203D01*
X003655Y005102D01*
X003618Y004996D01*
X003593Y004887D01*
X003607Y004945D02*
X002986Y004945D01*
X003224Y005044D02*
X003635Y005044D01*
X003675Y005142D02*
X003358Y005142D01*
X003457Y005241D02*
X003728Y005241D01*
X003796Y005339D02*
X003556Y005339D01*
X003600Y005438D02*
X003885Y005438D01*
X004002Y005536D02*
X003640Y005536D01*
X003681Y005635D02*
X004178Y005635D01*
X004531Y005635D02*
X004631Y005635D01*
X004631Y005719D02*
X004631Y004769D01*
X005581Y004769D01*
X005581Y004775D01*
X005568Y004887D01*
X005543Y004996D01*
X005506Y005102D01*
X005457Y005203D01*
X005398Y005298D01*
X005327Y005386D01*
X005248Y005466D01*
X005160Y005536D01*
X005065Y005595D01*
X004964Y005644D01*
X004858Y005681D01*
X004748Y005706D01*
X004637Y005719D01*
X004631Y005719D01*
X004631Y005536D02*
X004531Y005536D01*
X004531Y005438D02*
X004631Y005438D01*
X004631Y005339D02*
X004531Y005339D01*
X004531Y005241D02*
X004631Y005241D01*
X004631Y005142D02*
X004531Y005142D01*
X004531Y005044D02*
X004631Y005044D01*
X004631Y004945D02*
X004531Y004945D01*
X004531Y004847D02*
X004631Y004847D01*
X004631Y004769D02*
X004531Y004769D01*
X004531Y004669D01*
X004631Y004669D01*
X004631Y004769D01*
X004631Y004748D02*
X010300Y004748D01*
X010300Y004649D02*
X005579Y004649D01*
X005581Y004663D02*
X005581Y004669D01*
X004631Y004669D01*
X004631Y003719D01*
X004637Y003719D01*
X004748Y003731D01*
X004858Y003756D01*
X004964Y003794D01*
X005065Y003842D01*
X005160Y003902D01*
X005248Y003972D01*
X005327Y004051D01*
X005398Y004139D01*
X005457Y004234D01*
X005506Y004336D01*
X005543Y004442D01*
X005568Y004551D01*
X010300Y004551D01*
X010300Y004452D02*
X005546Y004452D01*
X005568Y004551D02*
X005581Y004663D01*
X005573Y004847D02*
X010300Y004847D01*
X010300Y004945D02*
X005555Y004945D01*
X005526Y005044D02*
X010300Y005044D01*
X010300Y005142D02*
X005487Y005142D01*
X005434Y005241D02*
X010300Y005241D01*
X010300Y005339D02*
X005365Y005339D01*
X005276Y005438D02*
X010300Y005438D01*
X010300Y005536D02*
X005159Y005536D01*
X004983Y005635D02*
X005579Y005635D01*
X005595Y005628D02*
X005474Y005678D01*
X005382Y005770D01*
X005332Y005891D01*
X005332Y006022D01*
X005382Y006142D01*
X005474Y006234D01*
X005595Y006284D01*
X005726Y006284D01*
X005846Y006234D01*
X005914Y006166D01*
X006723Y006166D01*
X007373Y006816D01*
X007547Y006816D01*
X010956Y006816D01*
X011024Y006884D01*
X011145Y006934D01*
X011276Y006934D01*
X011396Y006884D01*
X011488Y006792D01*
X011538Y006672D01*
X011538Y006541D01*
X011488Y006420D01*
X011396Y006328D01*
X011276Y006278D01*
X011145Y006278D01*
X011024Y006328D01*
X010956Y006396D01*
X007547Y006396D01*
X006897Y005746D01*
X006723Y005746D01*
X005914Y005746D01*
X005846Y005678D01*
X005726Y005628D01*
X005595Y005628D01*
X005742Y005635D02*
X010285Y005635D01*
X010082Y005733D02*
X005901Y005733D01*
X005419Y005733D02*
X003710Y005733D01*
X003710Y005832D02*
X005357Y005832D01*
X005332Y005931D02*
X003710Y005931D01*
X003710Y006029D02*
X005335Y006029D01*
X005376Y006128D02*
X003697Y006128D01*
X003656Y006226D02*
X005466Y006226D01*
X005854Y006226D02*
X006783Y006226D01*
X006882Y006325D02*
X003615Y006325D01*
X003574Y006423D02*
X006980Y006423D01*
X007079Y006522D02*
X003494Y006522D01*
X003396Y006620D02*
X007177Y006620D01*
X007276Y006719D02*
X003297Y006719D01*
X003076Y006817D02*
X010957Y006817D01*
X011101Y006916D02*
X000710Y006916D01*
X000710Y006817D02*
X002384Y006817D01*
X002163Y006719D02*
X000710Y006719D01*
X000710Y006620D02*
X002065Y006620D01*
X001966Y006522D02*
X000710Y006522D01*
X000710Y006423D02*
X001886Y006423D01*
X001846Y006325D02*
X000710Y006325D01*
X000710Y006226D02*
X001805Y006226D01*
X001764Y006128D02*
X000710Y006128D01*
X000710Y006029D02*
X001750Y006029D01*
X001750Y005931D02*
X000710Y005931D01*
X000710Y005832D02*
X001750Y005832D01*
X001750Y005733D02*
X000710Y005733D01*
X000710Y005635D02*
X001779Y005635D01*
X001820Y005536D02*
X000710Y005536D01*
X000710Y005438D02*
X001861Y005438D01*
X001905Y005339D02*
X000710Y005339D01*
X000710Y005241D02*
X002004Y005241D01*
X002102Y005142D02*
X000710Y005142D01*
X000710Y005044D02*
X002237Y005044D01*
X002680Y004452D02*
X002780Y004452D01*
X002780Y004354D02*
X002680Y004354D01*
X002680Y004255D02*
X002780Y004255D01*
X002780Y004157D02*
X002680Y004157D01*
X002680Y004058D02*
X002780Y004058D01*
X002780Y003960D02*
X002680Y003960D01*
X002680Y003861D02*
X002780Y003861D01*
X002780Y003763D02*
X002680Y003763D01*
X002680Y003467D02*
X002780Y003467D01*
X002780Y003368D02*
X002680Y003368D01*
X002680Y003270D02*
X002780Y003270D01*
X002780Y003171D02*
X002680Y003171D01*
X002680Y003073D02*
X002780Y003073D01*
X002780Y002974D02*
X002680Y002974D01*
X002680Y002876D02*
X002780Y002876D01*
X002780Y002777D02*
X002680Y002777D01*
X002680Y002679D02*
X002780Y002679D01*
X002780Y002580D02*
X002680Y002580D01*
X002439Y002580D02*
X000710Y002580D01*
X000710Y002679D02*
X002218Y002679D01*
X002080Y002777D02*
X000710Y002777D01*
X000710Y002876D02*
X001979Y002876D01*
X001903Y002974D02*
X000710Y002974D01*
X000710Y003073D02*
X001844Y003073D01*
X001799Y003171D02*
X000710Y003171D01*
X000710Y003270D02*
X001766Y003270D01*
X001743Y003368D02*
X000710Y003368D01*
X000710Y003467D02*
X001732Y003467D01*
X000710Y004551D02*
X003593Y004551D01*
X003618Y004442D01*
X003655Y004336D01*
X003704Y004234D01*
X003764Y004139D01*
X003834Y004051D01*
X003913Y003972D01*
X004001Y003902D01*
X004096Y003842D01*
X004197Y003794D01*
X004303Y003756D01*
X004413Y003731D01*
X004525Y003719D01*
X004531Y003719D01*
X004531Y004669D01*
X003581Y004669D01*
X003581Y004663D01*
X003593Y004551D01*
X003582Y004649D02*
X000710Y004649D01*
X000710Y004748D02*
X004531Y004748D01*
X004531Y004649D02*
X004631Y004649D01*
X004631Y004551D02*
X004531Y004551D01*
X004531Y004452D02*
X004631Y004452D01*
X004631Y004354D02*
X004531Y004354D01*
X004531Y004255D02*
X004631Y004255D01*
X004631Y004157D02*
X004531Y004157D01*
X004531Y004058D02*
X004631Y004058D01*
X004631Y003960D02*
X004531Y003960D01*
X004531Y003861D02*
X004631Y003861D01*
X004631Y003763D02*
X004531Y003763D01*
X004286Y003763D02*
X003705Y003763D01*
X003722Y003664D02*
X010300Y003664D01*
X010300Y003763D02*
X004875Y003763D01*
X005095Y003861D02*
X010300Y003861D01*
X010300Y003960D02*
X005233Y003960D01*
X005333Y004058D02*
X010300Y004058D01*
X010300Y004157D02*
X005408Y004157D01*
X005467Y004255D02*
X010300Y004255D01*
X010300Y004354D02*
X005512Y004354D01*
X004066Y003861D02*
X003677Y003861D01*
X003637Y003960D02*
X003929Y003960D01*
X003829Y004058D02*
X003584Y004058D01*
X003516Y004157D02*
X003753Y004157D01*
X003694Y004255D02*
X003427Y004255D01*
X003311Y004354D02*
X003649Y004354D01*
X003616Y004452D02*
X003136Y004452D01*
X003273Y007746D02*
X007521Y007746D01*
X007532Y007720D01*
X007624Y007628D01*
X007745Y007578D01*
X007876Y007578D01*
X007996Y007628D01*
X008014Y007646D01*
X013473Y007646D01*
X013647Y007646D01*
X014020Y008019D01*
X014020Y008193D01*
X014020Y009293D01*
X014000Y009313D01*
X014000Y009682D01*
X014483Y009682D01*
X014483Y009601D01*
X014560Y009525D01*
X015061Y009525D01*
X015137Y009601D01*
X015137Y009682D01*
X015733Y009682D01*
X015733Y009601D01*
X015810Y009525D01*
X016311Y009525D01*
X016387Y009601D01*
X016387Y010142D01*
X016323Y010206D01*
X016387Y010271D01*
X016387Y010599D01*
X016420Y010632D01*
X016474Y010578D01*
X016595Y010528D01*
X016726Y010528D01*
X016846Y010578D01*
X016938Y010670D01*
X016988Y010791D01*
X016988Y010922D01*
X016938Y011042D01*
X016846Y011134D01*
X016726Y011184D01*
X016595Y011184D01*
X016474Y011134D01*
X016386Y011046D01*
X016297Y011046D01*
X016138Y010887D01*
X015810Y010887D01*
X015733Y010811D01*
X015733Y010271D01*
X015798Y010206D01*
X015733Y010142D01*
X015733Y010062D01*
X015137Y010062D01*
X015137Y010142D01*
X015073Y010206D01*
X015137Y010271D01*
X015137Y010811D01*
X015061Y010887D01*
X014732Y010887D01*
X014574Y011046D01*
X014474Y011046D01*
X014386Y011134D01*
X014266Y011184D01*
X014135Y011184D01*
X014014Y011134D01*
X013922Y011042D01*
X013872Y010922D01*
X013872Y010791D01*
X013900Y010724D01*
X013876Y010734D01*
X013745Y010734D01*
X013624Y010684D01*
X013532Y010592D01*
X013482Y010472D01*
X013482Y010341D01*
X013532Y010220D01*
X013620Y010132D01*
X013620Y009985D01*
X013620Y009828D01*
X013620Y009313D01*
X013600Y009293D01*
X013600Y009251D01*
X013596Y009246D01*
X012846Y009246D01*
X012765Y009328D01*
X012652Y009375D01*
X012529Y009375D01*
X012455Y009344D01*
X012455Y009690D01*
X012379Y009766D01*
X012190Y009766D01*
X012190Y009771D01*
X012085Y009876D01*
X012019Y009942D01*
X012019Y010058D01*
X011982Y010146D01*
X012681Y010146D01*
X012830Y010146D01*
X012924Y010241D01*
X012930Y010238D01*
X013061Y010238D01*
X013181Y010288D01*
X013273Y010380D01*
X013323Y010501D01*
X013323Y010632D01*
X013273Y010752D01*
X013181Y010844D01*
X013061Y010894D01*
X013017Y010894D01*
X013339Y011216D01*
X014932Y011216D01*
X015089Y011216D01*
X015239Y011366D01*
X015279Y011406D01*
X015223Y011350D02*
X017795Y011350D01*
X017857Y011252D02*
X015125Y011252D01*
X015091Y010858D02*
X015780Y010858D01*
X015733Y010759D02*
X015137Y010759D01*
X015137Y010661D02*
X015733Y010661D01*
X015733Y010562D02*
X015137Y010562D01*
X015137Y010464D02*
X015733Y010464D01*
X015733Y010365D02*
X015137Y010365D01*
X015133Y010266D02*
X015738Y010266D01*
X015759Y010168D02*
X015111Y010168D01*
X015137Y010069D02*
X015733Y010069D01*
X015733Y009675D02*
X015137Y009675D01*
X015113Y009577D02*
X015758Y009577D01*
X016363Y009577D02*
X018010Y009577D01*
X018010Y009675D02*
X016387Y009675D01*
X016387Y009774D02*
X018010Y009774D01*
X018010Y009872D02*
X016387Y009872D01*
X016387Y009971D02*
X018010Y009971D01*
X018010Y010069D02*
X016387Y010069D01*
X016361Y010168D02*
X018010Y010168D01*
X018010Y010266D02*
X016383Y010266D01*
X016387Y010365D02*
X018010Y010365D01*
X018010Y010464D02*
X016387Y010464D01*
X016387Y010562D02*
X016513Y010562D01*
X016807Y010562D02*
X018010Y010562D01*
X018010Y010661D02*
X016929Y010661D01*
X016975Y010759D02*
X018010Y010759D01*
X018010Y010858D02*
X016988Y010858D01*
X016974Y010956D02*
X018010Y010956D01*
X017980Y011055D02*
X016926Y011055D01*
X016800Y011153D02*
X017918Y011153D01*
X016520Y011153D02*
X014340Y011153D01*
X014466Y011055D02*
X016395Y011055D01*
X016207Y010956D02*
X014664Y010956D01*
X014060Y011153D02*
X013276Y011153D01*
X013177Y011055D02*
X013935Y011055D01*
X013887Y010956D02*
X013079Y010956D01*
X013149Y010858D02*
X013872Y010858D01*
X013885Y010759D02*
X013266Y010759D01*
X013311Y010661D02*
X013601Y010661D01*
X013520Y010562D02*
X013323Y010562D01*
X013308Y010464D02*
X013482Y010464D01*
X013482Y010365D02*
X013258Y010365D01*
X013129Y010266D02*
X013513Y010266D01*
X013585Y010168D02*
X012851Y010168D01*
X012755Y010326D02*
X012995Y010566D01*
X012755Y010326D02*
X011380Y010326D01*
X011110Y010056D01*
X011110Y010036D01*
X010745Y009577D02*
X010538Y009577D01*
X010538Y009541D02*
X010538Y009672D01*
X010488Y009792D01*
X010396Y009884D01*
X010367Y009896D01*
X010426Y009896D01*
X011096Y009226D01*
X011245Y009226D01*
X011565Y009226D01*
X011565Y009122D01*
X011581Y009106D01*
X011565Y009090D01*
X011565Y008522D01*
X011641Y008446D01*
X012102Y008446D01*
X012332Y008216D01*
X012489Y008216D01*
X013166Y008216D01*
X013254Y008128D01*
X013375Y008078D01*
X013485Y008078D01*
X013473Y008066D01*
X008099Y008066D01*
X008088Y008092D01*
X008020Y008160D01*
X008020Y008933D01*
X008128Y009068D01*
X008186Y009068D01*
X008306Y009118D01*
X008398Y009210D01*
X008448Y009331D01*
X008448Y009462D01*
X008398Y009582D01*
X008314Y009666D01*
X009882Y009666D01*
X009882Y009541D01*
X009932Y009420D01*
X010024Y009328D01*
X010145Y009278D01*
X010276Y009278D01*
X010396Y009328D01*
X010488Y009420D01*
X010538Y009541D01*
X010512Y009478D02*
X010844Y009478D01*
X010942Y009380D02*
X010448Y009380D01*
X010282Y009281D02*
X011041Y009281D01*
X011170Y009406D02*
X010500Y010076D01*
X007410Y010076D01*
X007200Y010306D01*
X007210Y010306D01*
X006610Y010906D02*
X006510Y011006D01*
X006510Y011956D01*
X006460Y012086D01*
X006390Y013286D02*
X008210Y011481D01*
X012135Y011481D01*
X011785Y011706D02*
X008260Y011706D01*
X006470Y013496D01*
X005090Y013496D01*
X003960Y014726D01*
X003960Y018706D01*
X003780Y018620D02*
X003780Y018105D01*
X003285Y018601D01*
X003320Y018636D01*
X003320Y018976D01*
X003080Y019216D01*
X002740Y019216D01*
X002500Y018976D01*
X002500Y018636D01*
X002740Y018396D01*
X002952Y018396D01*
X003580Y017768D01*
X003580Y014683D01*
X003576Y014614D01*
X003580Y014609D01*
X003580Y014602D01*
X003626Y014556D01*
X003353Y014556D01*
X003074Y014277D01*
X002776Y014576D01*
X002610Y014576D01*
X002610Y014106D01*
X002510Y014106D01*
X002510Y014006D01*
X002040Y014006D01*
X002040Y013841D01*
X002339Y013542D01*
X002060Y013263D01*
X002060Y012849D01*
X002173Y012736D01*
X002099Y012736D01*
X001550Y013285D01*
X001550Y017558D01*
X001732Y017376D01*
X001870Y017376D01*
X001870Y017766D01*
X001950Y017766D01*
X001950Y017376D01*
X002088Y017376D01*
X002220Y017508D01*
X002220Y015830D01*
X002132Y015742D01*
X002082Y015622D01*
X002082Y015491D01*
X002132Y015370D01*
X002224Y015278D01*
X002345Y015228D01*
X002476Y015228D01*
X002596Y015278D01*
X002688Y015370D01*
X002738Y015491D01*
X002738Y015622D01*
X002688Y015742D01*
X002600Y015830D01*
X002600Y017537D01*
X002740Y017396D01*
X003080Y017396D01*
X003320Y017636D01*
X003320Y017976D01*
X003080Y018216D01*
X002740Y018216D01*
X002600Y018076D01*
X002600Y018385D01*
X002489Y018496D01*
X002320Y018665D01*
X002320Y018976D01*
X002080Y019216D01*
X001740Y019216D01*
X001550Y019026D01*
X001550Y019149D01*
X001797Y019396D01*
X002080Y019396D01*
X002320Y019636D01*
X002320Y019976D01*
X002080Y020216D01*
X001740Y020216D01*
X001500Y019976D01*
X001500Y019693D01*
X001150Y019343D01*
X001150Y019169D01*
X001170Y019149D01*
X001170Y013285D01*
X001170Y013128D01*
X001932Y012366D01*
X002089Y012366D01*
X002099Y012376D01*
X002173Y012376D01*
X002060Y012263D01*
X002060Y011849D01*
X002350Y011559D01*
X002350Y008843D01*
X002350Y008669D01*
X003150Y007869D01*
X003273Y007746D01*
X003217Y007803D02*
X000710Y007803D01*
X000710Y007901D02*
X003118Y007901D01*
X003020Y008000D02*
X000710Y008000D01*
X000710Y008099D02*
X002921Y008099D01*
X002823Y008197D02*
X000710Y008197D01*
X000710Y008296D02*
X002724Y008296D01*
X002625Y008394D02*
X000710Y008394D01*
X000710Y008493D02*
X002527Y008493D01*
X002428Y008591D02*
X000710Y008591D01*
X000710Y008690D02*
X002350Y008690D01*
X002350Y008788D02*
X000710Y008788D01*
X000710Y008887D02*
X002350Y008887D01*
X002350Y008985D02*
X000710Y008985D01*
X000710Y009084D02*
X002350Y009084D01*
X002350Y009182D02*
X000710Y009182D01*
X000710Y009281D02*
X002350Y009281D01*
X002350Y009380D02*
X000710Y009380D01*
X000710Y009478D02*
X002350Y009478D01*
X002350Y009577D02*
X000710Y009577D01*
X000710Y009675D02*
X002350Y009675D01*
X002350Y009774D02*
X000710Y009774D01*
X000710Y009872D02*
X002350Y009872D01*
X002350Y009971D02*
X000710Y009971D01*
X000710Y010069D02*
X002350Y010069D01*
X002350Y010168D02*
X000710Y010168D01*
X000710Y010266D02*
X002350Y010266D01*
X002350Y010365D02*
X000710Y010365D01*
X000710Y010464D02*
X002350Y010464D01*
X002350Y010562D02*
X000710Y010562D01*
X000710Y010661D02*
X002350Y010661D01*
X002350Y010759D02*
X000710Y010759D01*
X000710Y010858D02*
X002350Y010858D01*
X002350Y010956D02*
X000710Y010956D01*
X000710Y011055D02*
X002350Y011055D01*
X002350Y011153D02*
X000710Y011153D01*
X000710Y011252D02*
X002350Y011252D01*
X002350Y011350D02*
X000710Y011350D01*
X000710Y011449D02*
X002350Y011449D01*
X002350Y011548D02*
X000710Y011548D01*
X000710Y011646D02*
X002263Y011646D01*
X002165Y011745D02*
X000710Y011745D01*
X000710Y011843D02*
X002066Y011843D01*
X002060Y011942D02*
X000710Y011942D01*
X000710Y012040D02*
X002060Y012040D01*
X002060Y012139D02*
X000710Y012139D01*
X000710Y012237D02*
X002060Y012237D01*
X002133Y012336D02*
X000710Y012336D01*
X000710Y012434D02*
X001863Y012434D01*
X001765Y012533D02*
X000710Y012533D01*
X000710Y012631D02*
X001666Y012631D01*
X001568Y012730D02*
X000710Y012730D01*
X000710Y012829D02*
X001469Y012829D01*
X001371Y012927D02*
X000710Y012927D01*
X000710Y013026D02*
X001272Y013026D01*
X001174Y013124D02*
X000710Y013124D01*
X000710Y013223D02*
X001170Y013223D01*
X001170Y013321D02*
X000710Y013321D01*
X000710Y013420D02*
X001170Y013420D01*
X001170Y013518D02*
X000710Y013518D01*
X000710Y013617D02*
X001170Y013617D01*
X001170Y013715D02*
X000710Y013715D01*
X000710Y013814D02*
X001170Y013814D01*
X001170Y013913D02*
X000710Y013913D01*
X000710Y014011D02*
X001170Y014011D01*
X001170Y014110D02*
X000710Y014110D01*
X000710Y014208D02*
X001170Y014208D01*
X001170Y014307D02*
X000710Y014307D01*
X000710Y014405D02*
X001170Y014405D01*
X001170Y014504D02*
X000710Y014504D01*
X000710Y014602D02*
X001170Y014602D01*
X001170Y014701D02*
X000710Y014701D01*
X000710Y014799D02*
X001170Y014799D01*
X001170Y014898D02*
X000710Y014898D01*
X000710Y014997D02*
X001170Y014997D01*
X001170Y015095D02*
X000710Y015095D01*
X000710Y015194D02*
X001170Y015194D01*
X001170Y015292D02*
X000710Y015292D01*
X000710Y015391D02*
X001170Y015391D01*
X001170Y015489D02*
X000710Y015489D01*
X000710Y015588D02*
X001170Y015588D01*
X001170Y015686D02*
X000710Y015686D01*
X000710Y015785D02*
X001170Y015785D01*
X001170Y015883D02*
X000710Y015883D01*
X000710Y015982D02*
X001170Y015982D01*
X001170Y016081D02*
X000710Y016081D01*
X000710Y016179D02*
X001170Y016179D01*
X001170Y016278D02*
X000710Y016278D01*
X000710Y016376D02*
X001170Y016376D01*
X001170Y016475D02*
X000710Y016475D01*
X000710Y016573D02*
X001170Y016573D01*
X001170Y016672D02*
X000710Y016672D01*
X000710Y016770D02*
X001170Y016770D01*
X001170Y016869D02*
X000710Y016869D01*
X000710Y016967D02*
X001170Y016967D01*
X001170Y017066D02*
X000710Y017066D01*
X000710Y017164D02*
X001170Y017164D01*
X001170Y017263D02*
X000710Y017263D01*
X000710Y017362D02*
X001170Y017362D01*
X001170Y017460D02*
X000710Y017460D01*
X000710Y017559D02*
X001170Y017559D01*
X001170Y017657D02*
X000710Y017657D01*
X000710Y017756D02*
X001170Y017756D01*
X001170Y017854D02*
X000710Y017854D01*
X000710Y017953D02*
X001170Y017953D01*
X001170Y018051D02*
X000710Y018051D01*
X000710Y018150D02*
X001170Y018150D01*
X001170Y018248D02*
X000710Y018248D01*
X000710Y018347D02*
X001170Y018347D01*
X001170Y018446D02*
X000710Y018446D01*
X000710Y018544D02*
X001170Y018544D01*
X001170Y018643D02*
X000710Y018643D01*
X000710Y018741D02*
X001170Y018741D01*
X001170Y018840D02*
X000710Y018840D01*
X000710Y018938D02*
X001170Y018938D01*
X001170Y019037D02*
X000710Y019037D01*
X000710Y019135D02*
X001170Y019135D01*
X001150Y019234D02*
X000710Y019234D01*
X000710Y019332D02*
X001150Y019332D01*
X001238Y019431D02*
X000710Y019431D01*
X000710Y019530D02*
X001337Y019530D01*
X001435Y019628D02*
X000710Y019628D01*
X000710Y019727D02*
X001500Y019727D01*
X001500Y019825D02*
X000710Y019825D01*
X000710Y019924D02*
X001500Y019924D01*
X001546Y020022D02*
X000710Y020022D01*
X000710Y020121D02*
X001645Y020121D01*
X001740Y020396D02*
X002080Y020396D01*
X002320Y020636D01*
X002320Y020948D01*
X002539Y021166D01*
X002691Y021166D01*
X002500Y020976D01*
X002500Y020636D01*
X002740Y020396D01*
X003031Y020396D01*
X003980Y019371D01*
X003979Y018962D01*
X003320Y019652D01*
X003320Y019976D01*
X003080Y020216D01*
X002740Y020216D01*
X002500Y019976D01*
X002500Y019636D01*
X002740Y019396D01*
X003039Y019396D01*
X003780Y018620D01*
X003758Y018643D02*
X003320Y018643D01*
X003320Y018741D02*
X003664Y018741D01*
X003570Y018840D02*
X003320Y018840D01*
X003320Y018938D02*
X003476Y018938D01*
X003382Y019037D02*
X003260Y019037D01*
X003288Y019135D02*
X003161Y019135D01*
X003194Y019234D02*
X001635Y019234D01*
X001660Y019135D02*
X001550Y019135D01*
X001550Y019037D02*
X001561Y019037D01*
X001733Y019332D02*
X003100Y019332D01*
X003343Y019628D02*
X003742Y019628D01*
X003651Y019727D02*
X003320Y019727D01*
X003320Y019825D02*
X003560Y019825D01*
X003469Y019924D02*
X003320Y019924D01*
X003274Y020022D02*
X003377Y020022D01*
X003286Y020121D02*
X003176Y020121D01*
X003195Y020219D02*
X000710Y020219D01*
X000710Y020318D02*
X003104Y020318D01*
X003348Y020614D02*
X005964Y020614D01*
X005866Y020712D02*
X003320Y020712D01*
X003320Y020643D02*
X003320Y020976D01*
X003130Y021166D01*
X005412Y021166D01*
X006285Y020292D01*
X006235Y020292D01*
X006235Y019935D01*
X006177Y019935D01*
X006177Y019877D01*
X005899Y019877D01*
X005899Y019650D01*
X005904Y019628D01*
X005877Y019628D01*
X005855Y019607D01*
X005845Y019618D01*
X005732Y019665D01*
X005609Y019665D01*
X005496Y019618D01*
X005409Y019531D01*
X005362Y019418D01*
X005362Y019295D01*
X005409Y019182D01*
X005496Y019095D01*
X005609Y019048D01*
X005732Y019048D01*
X005800Y019076D01*
X005800Y018834D01*
X005815Y018819D01*
X005800Y018804D01*
X005800Y018594D01*
X005771Y018565D01*
X005679Y018565D01*
X005566Y018518D01*
X005479Y018431D01*
X005432Y018318D01*
X005432Y018195D01*
X005479Y018082D01*
X005566Y017995D01*
X005679Y017948D01*
X005802Y017948D01*
X005899Y017988D01*
X005899Y017850D01*
X005909Y017812D01*
X005928Y017778D01*
X005956Y017750D01*
X005991Y017730D01*
X006029Y017720D01*
X006177Y017720D01*
X006177Y018077D01*
X006235Y018077D01*
X006235Y017720D01*
X006370Y017720D01*
X006370Y017617D01*
X006366Y017618D01*
X006139Y017618D01*
X006139Y017340D01*
X006081Y017340D01*
X006081Y017618D01*
X005854Y017618D01*
X005816Y017608D01*
X005782Y017588D01*
X005754Y017560D01*
X005734Y017526D01*
X005724Y017488D01*
X005724Y017339D01*
X006081Y017339D01*
X006081Y017282D01*
X005724Y017282D01*
X005724Y017133D01*
X005734Y017095D01*
X005754Y017061D01*
X005782Y017033D01*
X005816Y017013D01*
X005854Y017003D01*
X006081Y017003D01*
X006081Y017282D01*
X006139Y017282D01*
X006139Y017003D01*
X006366Y017003D01*
X006370Y017004D01*
X006370Y016889D01*
X005820Y016889D01*
X005744Y016813D01*
X005744Y016440D01*
X004943Y016440D01*
X004865Y016447D01*
X004857Y016440D01*
X004847Y016440D01*
X004792Y016385D01*
X004673Y016284D01*
X004545Y016284D01*
X004424Y016234D01*
X004333Y016143D01*
X004340Y019364D01*
X004347Y019370D01*
X004353Y019528D01*
X003320Y020643D01*
X003320Y020811D02*
X005767Y020811D01*
X005669Y020909D02*
X003320Y020909D01*
X003289Y021008D02*
X005570Y021008D01*
X005472Y021106D02*
X003190Y021106D01*
X003230Y021546D02*
X003320Y021636D01*
X003320Y021976D01*
X003080Y022216D01*
X002740Y022216D01*
X002500Y021976D01*
X002500Y021636D01*
X002591Y021546D01*
X002382Y021546D01*
X002270Y021435D01*
X002052Y021216D01*
X001740Y021216D01*
X001500Y020976D01*
X001500Y020636D01*
X001740Y020396D01*
X001720Y020416D02*
X000710Y020416D01*
X000710Y020515D02*
X001622Y020515D01*
X001523Y020614D02*
X000710Y020614D01*
X000710Y020712D02*
X001500Y020712D01*
X001500Y020811D02*
X000710Y020811D01*
X000710Y020909D02*
X001500Y020909D01*
X001532Y021008D02*
X000710Y021008D01*
X000710Y021106D02*
X001630Y021106D01*
X001729Y021205D02*
X000710Y021205D01*
X000710Y021303D02*
X002139Y021303D01*
X002080Y021396D02*
X002320Y021636D01*
X002320Y021976D01*
X002080Y022216D01*
X001740Y022216D01*
X001500Y021976D01*
X001500Y021636D01*
X001740Y021396D01*
X002080Y021396D01*
X002086Y021402D02*
X002237Y021402D01*
X002184Y021500D02*
X002336Y021500D01*
X002283Y021599D02*
X002538Y021599D01*
X002500Y021697D02*
X002320Y021697D01*
X002320Y021796D02*
X002500Y021796D01*
X002500Y021895D02*
X002320Y021895D01*
X002303Y021993D02*
X002517Y021993D01*
X002616Y022092D02*
X002205Y022092D01*
X002106Y022190D02*
X002714Y022190D01*
X003106Y022190D02*
X006218Y022190D01*
X006232Y022176D02*
X006370Y022176D01*
X006370Y022566D01*
X006450Y022566D01*
X006450Y022176D01*
X006588Y022176D01*
X006840Y022428D01*
X006840Y022566D01*
X006451Y022566D01*
X006451Y022646D01*
X006840Y022646D01*
X006840Y022784D01*
X006588Y023036D01*
X006450Y023036D01*
X006450Y022647D01*
X006370Y022647D01*
X006370Y023036D01*
X006232Y023036D01*
X005980Y022784D01*
X005980Y022646D01*
X006370Y022646D01*
X006370Y022566D01*
X005980Y022566D01*
X005980Y022428D01*
X006232Y022176D01*
X006370Y022190D02*
X006450Y022190D01*
X006450Y022289D02*
X006370Y022289D01*
X006370Y022387D02*
X006450Y022387D01*
X006450Y022486D02*
X006370Y022486D01*
X006370Y022584D02*
X000710Y022584D01*
X000710Y022486D02*
X005980Y022486D01*
X006021Y022387D02*
X000710Y022387D01*
X000710Y022289D02*
X006120Y022289D01*
X006240Y022016D02*
X006000Y021776D01*
X006000Y021436D01*
X006240Y021196D01*
X006580Y021196D01*
X006820Y021436D01*
X006820Y021776D01*
X006580Y022016D01*
X006240Y022016D01*
X006217Y021993D02*
X003303Y021993D01*
X003320Y021895D02*
X006119Y021895D01*
X006020Y021796D02*
X003320Y021796D01*
X003320Y021697D02*
X006000Y021697D01*
X006000Y021599D02*
X003283Y021599D01*
X003230Y021546D02*
X005412Y021546D01*
X005569Y021546D01*
X006619Y020496D01*
X006639Y020496D01*
X006750Y020385D01*
X006750Y020272D01*
X007126Y020272D01*
X007202Y020196D01*
X007202Y019986D01*
X007203Y019985D01*
X007203Y019628D01*
X007244Y019628D01*
X007203Y019727D02*
X007926Y019727D01*
X007859Y019825D02*
X007203Y019825D01*
X007203Y019924D02*
X007832Y019924D01*
X007833Y020022D02*
X007202Y020022D01*
X007202Y020121D02*
X007873Y020121D01*
X007959Y020219D02*
X007179Y020219D01*
X006750Y020318D02*
X008430Y020318D01*
X008361Y020219D02*
X008529Y020219D01*
X008447Y020121D02*
X008627Y020121D01*
X008546Y019825D02*
X008923Y019825D01*
X009021Y019727D02*
X008644Y019727D01*
X008743Y019628D02*
X009120Y019628D01*
X009218Y019530D02*
X008842Y019530D01*
X008940Y019431D02*
X009270Y019431D01*
X009270Y019332D02*
X009039Y019332D01*
X009137Y019234D02*
X009270Y019234D01*
X009270Y019135D02*
X009236Y019135D01*
X009022Y018840D02*
X008769Y018840D01*
X008767Y018741D02*
X009030Y018741D01*
X009030Y018643D02*
X008726Y018643D01*
X008659Y018544D02*
X009030Y018544D01*
X009030Y018446D02*
X008707Y018446D01*
X008719Y018347D02*
X009030Y018347D01*
X009030Y018248D02*
X008699Y018248D01*
X008640Y018150D02*
X009030Y018150D01*
X009030Y018051D02*
X008480Y018051D01*
X008340Y018051D02*
X007203Y018051D01*
X007202Y017953D02*
X009030Y017953D01*
X009030Y017854D02*
X007202Y017854D01*
X007162Y017756D02*
X009030Y017756D01*
X009030Y017657D02*
X007199Y017657D01*
X007229Y017559D02*
X009030Y017559D01*
X009030Y017460D02*
X007347Y017460D01*
X007465Y017362D02*
X009030Y017362D01*
X009030Y017263D02*
X007583Y017263D01*
X007707Y017164D02*
X009030Y017164D01*
X009030Y017066D02*
X007790Y017066D01*
X007795Y016967D02*
X009030Y016967D01*
X009030Y016869D02*
X007790Y016869D01*
X007790Y016770D02*
X009030Y016770D01*
X009030Y016672D02*
X007790Y016672D01*
X007790Y016573D02*
X009030Y016573D01*
X009030Y016475D02*
X007790Y016475D01*
X007790Y016376D02*
X009030Y016376D01*
X009030Y016278D02*
X007790Y016278D01*
X007790Y016179D02*
X009030Y016179D01*
X009030Y016081D02*
X007790Y016081D01*
X007790Y015982D02*
X009030Y015982D01*
X009030Y015883D02*
X007790Y015883D01*
X007790Y015785D02*
X009030Y015785D01*
X009030Y015686D02*
X007790Y015686D01*
X007790Y015588D02*
X009030Y015588D01*
X009030Y015489D02*
X007790Y015489D01*
X007790Y015391D02*
X009030Y015391D01*
X009030Y015292D02*
X007790Y015292D01*
X007790Y015194D02*
X009030Y015194D01*
X009030Y015095D02*
X007790Y015095D01*
X007790Y014997D02*
X009030Y014997D01*
X009030Y014898D02*
X007790Y014898D01*
X007758Y014799D02*
X009030Y014799D01*
X009650Y014799D02*
X009720Y014799D01*
X009720Y014701D02*
X009650Y014701D01*
X009650Y014602D02*
X009720Y014602D01*
X009720Y014504D02*
X009650Y014504D01*
X009650Y014405D02*
X009720Y014405D01*
X009720Y014307D02*
X009650Y014307D01*
X009650Y014208D02*
X009720Y014208D01*
X009720Y014110D02*
X009650Y014110D01*
X009650Y014011D02*
X009720Y014011D01*
X009720Y013913D02*
X009650Y013913D01*
X009650Y013814D02*
X009720Y013814D01*
X009720Y013715D02*
X009650Y013715D01*
X009650Y013617D02*
X009720Y013617D01*
X009720Y013518D02*
X009650Y013518D01*
X009650Y013420D02*
X009720Y013420D01*
X009720Y013321D02*
X009650Y013321D01*
X009650Y013223D02*
X009720Y013223D01*
X010100Y013321D02*
X010111Y013321D01*
X010100Y013420D02*
X010170Y013420D01*
X010170Y013518D02*
X010100Y013518D01*
X010100Y013617D02*
X010170Y013617D01*
X010170Y013715D02*
X010100Y013715D01*
X010100Y013814D02*
X010170Y013814D01*
X010170Y013913D02*
X010100Y013913D01*
X010100Y014011D02*
X010170Y014011D01*
X010170Y014110D02*
X010100Y014110D01*
X010100Y014208D02*
X010170Y014208D01*
X010170Y014307D02*
X010100Y014307D01*
X010100Y014405D02*
X010170Y014405D01*
X010170Y014504D02*
X010100Y014504D01*
X010100Y014602D02*
X010170Y014602D01*
X010170Y014701D02*
X010100Y014701D01*
X010100Y014799D02*
X010170Y014799D01*
X010170Y014898D02*
X010100Y014898D01*
X010100Y014997D02*
X010170Y014997D01*
X010170Y015095D02*
X010100Y015095D01*
X010100Y015194D02*
X010170Y015194D01*
X010170Y015292D02*
X010100Y015292D01*
X010100Y015391D02*
X010170Y015391D01*
X010170Y015489D02*
X010100Y015489D01*
X010100Y015588D02*
X010170Y015588D01*
X010170Y015686D02*
X010100Y015686D01*
X010100Y015785D02*
X010170Y015785D01*
X010170Y015883D02*
X010100Y015883D01*
X010100Y015982D02*
X010170Y015982D01*
X010170Y016081D02*
X010100Y016081D01*
X010100Y016179D02*
X010170Y016179D01*
X010170Y016278D02*
X010100Y016278D01*
X010100Y016376D02*
X010170Y016376D01*
X010170Y016475D02*
X010100Y016475D01*
X010100Y016573D02*
X010170Y016573D01*
X010170Y016672D02*
X010100Y016672D01*
X010100Y016770D02*
X010170Y016770D01*
X010170Y016869D02*
X010100Y016869D01*
X010100Y016967D02*
X010170Y016967D01*
X010170Y017066D02*
X010100Y017066D01*
X010100Y017164D02*
X010170Y017164D01*
X010170Y017263D02*
X010100Y017263D01*
X010100Y017362D02*
X010170Y017362D01*
X010170Y017460D02*
X010100Y017460D01*
X010100Y017559D02*
X010170Y017559D01*
X010170Y017657D02*
X010100Y017657D01*
X010100Y017756D02*
X010170Y017756D01*
X010170Y017854D02*
X010100Y017854D01*
X010100Y017953D02*
X010170Y017953D01*
X010170Y018051D02*
X010100Y018051D01*
X010100Y018150D02*
X010170Y018150D01*
X010170Y018248D02*
X010100Y018248D01*
X010100Y018347D02*
X010170Y018347D01*
X010170Y018446D02*
X010100Y018446D01*
X010100Y018544D02*
X010170Y018544D01*
X010170Y018643D02*
X010100Y018643D01*
X010100Y018741D02*
X010170Y018741D01*
X010170Y018840D02*
X010100Y018840D01*
X010100Y018938D02*
X010170Y018938D01*
X010170Y019037D02*
X010100Y019037D01*
X010100Y019135D02*
X010170Y019135D01*
X010170Y019234D02*
X010100Y019234D01*
X010100Y019332D02*
X010170Y019332D01*
X010170Y019431D02*
X010100Y019431D01*
X010100Y019530D02*
X010170Y019530D01*
X010170Y019628D02*
X010100Y019628D01*
X010100Y019727D02*
X010170Y019727D01*
X010170Y019825D02*
X010100Y019825D01*
X010100Y019924D02*
X010170Y019924D01*
X010170Y020022D02*
X010100Y020022D01*
X010100Y020121D02*
X010170Y020121D01*
X010170Y020219D02*
X010066Y020219D01*
X009967Y020318D02*
X010170Y020318D01*
X010170Y020416D02*
X009869Y020416D01*
X009770Y020515D02*
X010170Y020515D01*
X010134Y020614D02*
X009672Y020614D01*
X009573Y020712D02*
X010036Y020712D01*
X009937Y020811D02*
X009475Y020811D01*
X009376Y020909D02*
X009839Y020909D01*
X009740Y021008D02*
X009278Y021008D01*
X009179Y021106D02*
X009642Y021106D01*
X009883Y021402D02*
X010035Y021402D01*
X010000Y021436D02*
X010240Y021196D01*
X010580Y021196D01*
X010820Y021436D01*
X010820Y021776D01*
X010580Y022016D01*
X010240Y022016D01*
X010000Y021776D01*
X010000Y021436D01*
X010000Y021500D02*
X009820Y021500D01*
X009820Y021599D02*
X010000Y021599D01*
X010000Y021697D02*
X009820Y021697D01*
X009800Y021796D02*
X010020Y021796D01*
X010119Y021895D02*
X009702Y021895D01*
X009603Y021993D02*
X010217Y021993D01*
X010148Y022289D02*
X009673Y022289D01*
X009771Y022387D02*
X010049Y022387D01*
X010000Y022486D02*
X009820Y022486D01*
X009820Y022584D02*
X010000Y022584D01*
X010000Y022683D02*
X009820Y022683D01*
X009815Y022781D02*
X010006Y022781D01*
X010673Y022289D02*
X010870Y022289D01*
X010870Y022387D02*
X010771Y022387D01*
X010820Y022486D02*
X010870Y022486D01*
X010835Y022584D02*
X010820Y022584D01*
X011134Y022880D02*
X011800Y022880D01*
X011800Y022979D02*
X011035Y022979D01*
X010936Y023077D02*
X011751Y023077D01*
X011682Y023176D02*
X010838Y023176D01*
X010870Y023143D02*
X010870Y023143D01*
X011232Y022781D02*
X011799Y022781D01*
X011799Y022683D02*
X011270Y022683D01*
X011270Y022584D02*
X011798Y022584D01*
X011797Y022486D02*
X011250Y022486D01*
X011250Y022387D02*
X011797Y022387D01*
X011796Y022289D02*
X011250Y022289D01*
X011250Y022190D02*
X011796Y022190D01*
X011795Y022092D02*
X011250Y022092D01*
X011250Y021993D02*
X011795Y021993D01*
X011794Y021895D02*
X011250Y021895D01*
X011250Y021796D02*
X011794Y021796D01*
X011793Y021697D02*
X011250Y021697D01*
X011250Y021599D02*
X011793Y021599D01*
X011792Y021500D02*
X011250Y021500D01*
X011250Y021402D02*
X011791Y021402D01*
X011791Y021303D02*
X011250Y021303D01*
X011250Y021205D02*
X011790Y021205D01*
X011790Y021106D02*
X011250Y021106D01*
X011250Y021008D02*
X011789Y021008D01*
X011789Y020909D02*
X011250Y020909D01*
X011250Y020811D02*
X011788Y020811D01*
X011788Y020712D02*
X011250Y020712D01*
X011250Y020614D02*
X011787Y020614D01*
X011787Y020515D02*
X011250Y020515D01*
X011250Y020416D02*
X011786Y020416D01*
X011786Y020318D02*
X011250Y020318D01*
X011250Y020219D02*
X011785Y020219D01*
X011784Y020121D02*
X011250Y020121D01*
X011250Y020022D02*
X011784Y020022D01*
X011783Y019924D02*
X011250Y019924D01*
X011250Y019825D02*
X011783Y019825D01*
X011782Y019727D02*
X011250Y019727D01*
X011250Y019628D02*
X011782Y019628D01*
X011781Y019530D02*
X011250Y019530D01*
X011250Y019431D02*
X011781Y019431D01*
X011780Y019332D02*
X011250Y019332D01*
X011250Y019234D02*
X011780Y019234D01*
X011779Y019135D02*
X011250Y019135D01*
X011250Y019037D02*
X011779Y019037D01*
X011778Y018938D02*
X011250Y018938D01*
X011250Y018840D02*
X011777Y018840D01*
X011777Y018741D02*
X011250Y018741D01*
X011250Y018643D02*
X011776Y018643D01*
X011776Y018544D02*
X011250Y018544D01*
X011250Y018446D02*
X011775Y018446D01*
X011537Y018347D02*
X011250Y018347D01*
X011250Y018248D02*
X011464Y018248D01*
X011432Y018150D02*
X011250Y018150D01*
X011250Y018051D02*
X011432Y018051D01*
X011469Y017953D02*
X011250Y017953D01*
X011250Y017854D02*
X011548Y017854D01*
X011771Y017756D02*
X011250Y017756D01*
X011250Y017657D02*
X011771Y017657D01*
X011770Y017559D02*
X011250Y017559D01*
X011250Y017460D02*
X011770Y017460D01*
X011769Y017362D02*
X011250Y017362D01*
X011250Y017263D02*
X011769Y017263D01*
X011768Y017164D02*
X011250Y017164D01*
X011250Y017066D02*
X011768Y017066D01*
X011767Y016967D02*
X011250Y016967D01*
X011250Y016869D02*
X011767Y016869D01*
X011766Y016770D02*
X011250Y016770D01*
X011250Y016672D02*
X011766Y016672D01*
X011568Y016573D02*
X011250Y016573D01*
X011250Y016475D02*
X011415Y016475D01*
X011355Y016376D02*
X011250Y016376D01*
X011250Y016278D02*
X011332Y016278D01*
X011337Y016179D02*
X011250Y016179D01*
X011250Y016081D02*
X011378Y016081D01*
X011471Y015982D02*
X011250Y015982D01*
X011250Y015883D02*
X011761Y015883D01*
X011761Y015785D02*
X011250Y015785D01*
X011250Y015686D02*
X011760Y015686D01*
X011760Y015588D02*
X011250Y015588D01*
X011250Y015489D02*
X011759Y015489D01*
X011758Y015391D02*
X011250Y015391D01*
X011250Y015292D02*
X011758Y015292D01*
X011757Y015194D02*
X011250Y015194D01*
X011250Y015095D02*
X011757Y015095D01*
X011756Y014997D02*
X011250Y014997D01*
X011250Y014898D02*
X011756Y014898D01*
X011755Y014799D02*
X011250Y014799D01*
X011250Y014701D02*
X011755Y014701D01*
X011754Y014602D02*
X011250Y014602D01*
X011250Y014504D02*
X011754Y014504D01*
X011753Y014405D02*
X011250Y014405D01*
X011314Y014307D02*
X011753Y014307D01*
X011752Y014208D02*
X011413Y014208D01*
X011693Y014110D02*
X011751Y014110D01*
X011510Y013856D02*
X011060Y014306D01*
X010870Y014307D02*
X010550Y014307D01*
X010550Y014405D02*
X010870Y014405D01*
X010870Y014504D02*
X010550Y014504D01*
X010550Y014602D02*
X010870Y014602D01*
X010870Y014701D02*
X010550Y014701D01*
X010550Y014799D02*
X010870Y014799D01*
X010870Y014898D02*
X010550Y014898D01*
X010550Y014997D02*
X010870Y014997D01*
X010870Y015095D02*
X010550Y015095D01*
X010550Y015194D02*
X010870Y015194D01*
X010870Y015292D02*
X010550Y015292D01*
X010550Y015391D02*
X010870Y015391D01*
X010870Y015489D02*
X010550Y015489D01*
X010550Y015588D02*
X010870Y015588D01*
X010870Y015686D02*
X010550Y015686D01*
X010550Y015785D02*
X010870Y015785D01*
X010870Y015883D02*
X010550Y015883D01*
X010550Y015982D02*
X010870Y015982D01*
X010870Y016081D02*
X010550Y016081D01*
X010550Y016179D02*
X010870Y016179D01*
X010870Y016278D02*
X010550Y016278D01*
X010550Y016376D02*
X010870Y016376D01*
X010870Y016475D02*
X010550Y016475D01*
X010550Y016573D02*
X010870Y016573D01*
X010870Y016672D02*
X010550Y016672D01*
X010550Y016770D02*
X010870Y016770D01*
X010870Y016869D02*
X010550Y016869D01*
X010550Y016967D02*
X010870Y016967D01*
X010870Y017066D02*
X010550Y017066D01*
X010550Y017164D02*
X010870Y017164D01*
X010870Y017263D02*
X010550Y017263D01*
X010550Y017362D02*
X010870Y017362D01*
X010870Y017460D02*
X010550Y017460D01*
X010550Y017559D02*
X010870Y017559D01*
X010870Y017657D02*
X010550Y017657D01*
X010550Y017756D02*
X010870Y017756D01*
X010870Y017854D02*
X010550Y017854D01*
X010550Y017953D02*
X010870Y017953D01*
X010870Y018051D02*
X010550Y018051D01*
X010550Y018150D02*
X010870Y018150D01*
X010870Y018248D02*
X010550Y018248D01*
X010550Y018347D02*
X010870Y018347D01*
X010870Y018446D02*
X010550Y018446D01*
X010550Y018544D02*
X010870Y018544D01*
X010870Y018643D02*
X010550Y018643D01*
X010550Y018741D02*
X010870Y018741D01*
X010870Y018840D02*
X010550Y018840D01*
X010550Y018938D02*
X010870Y018938D01*
X010870Y019037D02*
X010550Y019037D01*
X010550Y019135D02*
X010870Y019135D01*
X010870Y019234D02*
X010550Y019234D01*
X010550Y019332D02*
X010870Y019332D01*
X010870Y019431D02*
X010550Y019431D01*
X010550Y019530D02*
X010870Y019530D01*
X010870Y019628D02*
X010550Y019628D01*
X010550Y019727D02*
X010870Y019727D01*
X010870Y019825D02*
X010550Y019825D01*
X010550Y019924D02*
X010870Y019924D01*
X010870Y020022D02*
X010550Y020022D01*
X010550Y020121D02*
X010870Y020121D01*
X010870Y020219D02*
X010550Y020219D01*
X010550Y020318D02*
X010870Y020318D01*
X010870Y020416D02*
X010550Y020416D01*
X010550Y020515D02*
X010870Y020515D01*
X010870Y020614D02*
X010550Y020614D01*
X010550Y020712D02*
X010870Y020712D01*
X010870Y020811D02*
X010475Y020811D01*
X010376Y020909D02*
X010870Y020909D01*
X010870Y021008D02*
X010278Y021008D01*
X010179Y021106D02*
X010870Y021106D01*
X010870Y021205D02*
X010589Y021205D01*
X010687Y021303D02*
X010870Y021303D01*
X010870Y021402D02*
X010786Y021402D01*
X010820Y021500D02*
X010870Y021500D01*
X010870Y021599D02*
X010820Y021599D01*
X010820Y021697D02*
X010870Y021697D01*
X010870Y021796D02*
X010800Y021796D01*
X010870Y021895D02*
X010702Y021895D01*
X010603Y021993D02*
X010870Y021993D01*
X010870Y022092D02*
X003205Y022092D01*
X002630Y021106D02*
X002479Y021106D01*
X002532Y021008D02*
X002380Y021008D01*
X002320Y020909D02*
X002500Y020909D01*
X002500Y020811D02*
X002320Y020811D01*
X002320Y020712D02*
X002500Y020712D01*
X002523Y020614D02*
X002297Y020614D01*
X002199Y020515D02*
X002622Y020515D01*
X002720Y020416D02*
X002100Y020416D01*
X002176Y020121D02*
X002645Y020121D01*
X002546Y020022D02*
X002274Y020022D01*
X002320Y019924D02*
X002500Y019924D01*
X002500Y019825D02*
X002320Y019825D01*
X002320Y019727D02*
X002500Y019727D01*
X002509Y019628D02*
X002312Y019628D01*
X002213Y019530D02*
X002607Y019530D01*
X002706Y019431D02*
X002115Y019431D01*
X002161Y019135D02*
X002660Y019135D01*
X002561Y019037D02*
X002260Y019037D01*
X002320Y018938D02*
X002500Y018938D01*
X002500Y018840D02*
X002320Y018840D01*
X002320Y018741D02*
X002500Y018741D01*
X002500Y018643D02*
X002343Y018643D01*
X002441Y018544D02*
X002593Y018544D01*
X002540Y018446D02*
X002691Y018446D01*
X002600Y018347D02*
X003001Y018347D01*
X003099Y018248D02*
X002600Y018248D01*
X002600Y018150D02*
X002674Y018150D01*
X002220Y018150D02*
X002175Y018150D01*
X002220Y018104D02*
X002088Y018236D01*
X001950Y018236D01*
X001950Y017847D01*
X001870Y017847D01*
X001870Y018236D01*
X001732Y018236D01*
X001550Y018054D01*
X001550Y018587D01*
X001740Y018396D01*
X002052Y018396D01*
X002220Y018228D01*
X002220Y018104D01*
X002199Y018248D02*
X001550Y018248D01*
X001550Y018150D02*
X001646Y018150D01*
X001550Y018347D02*
X002101Y018347D01*
X001950Y018150D02*
X001870Y018150D01*
X001870Y018051D02*
X001950Y018051D01*
X001950Y017953D02*
X001870Y017953D01*
X001870Y017854D02*
X001950Y017854D01*
X001950Y017756D02*
X001870Y017756D01*
X001870Y017657D02*
X001950Y017657D01*
X001950Y017559D02*
X001870Y017559D01*
X001870Y017460D02*
X001950Y017460D01*
X002172Y017460D02*
X002220Y017460D01*
X002220Y017362D02*
X001550Y017362D01*
X001550Y017460D02*
X001648Y017460D01*
X001550Y017263D02*
X002220Y017263D01*
X002220Y017164D02*
X001550Y017164D01*
X001550Y017066D02*
X002220Y017066D01*
X002220Y016967D02*
X001550Y016967D01*
X001550Y016869D02*
X002220Y016869D01*
X002220Y016770D02*
X001550Y016770D01*
X001550Y016672D02*
X002220Y016672D01*
X002220Y016573D02*
X001550Y016573D01*
X001550Y016475D02*
X002220Y016475D01*
X002220Y016376D02*
X001550Y016376D01*
X001550Y016278D02*
X002220Y016278D01*
X002220Y016179D02*
X001550Y016179D01*
X001550Y016081D02*
X002220Y016081D01*
X002220Y015982D02*
X001550Y015982D01*
X001550Y015883D02*
X002220Y015883D01*
X002175Y015785D02*
X001550Y015785D01*
X001550Y015686D02*
X002109Y015686D01*
X002082Y015588D02*
X001550Y015588D01*
X001550Y015489D02*
X002083Y015489D01*
X002124Y015391D02*
X001550Y015391D01*
X001550Y015292D02*
X002210Y015292D01*
X002610Y015292D02*
X003580Y015292D01*
X003580Y015194D02*
X001550Y015194D01*
X001550Y015095D02*
X003580Y015095D01*
X003580Y014997D02*
X001550Y014997D01*
X001550Y014898D02*
X003580Y014898D01*
X003580Y014799D02*
X001550Y014799D01*
X001550Y014701D02*
X003580Y014701D01*
X003580Y014602D02*
X001550Y014602D01*
X001550Y014504D02*
X002272Y014504D01*
X002345Y014576D02*
X002040Y014272D01*
X002040Y014106D01*
X002510Y014106D01*
X002510Y014576D01*
X002345Y014576D01*
X002510Y014504D02*
X002610Y014504D01*
X002610Y014405D02*
X002510Y014405D01*
X002510Y014307D02*
X002610Y014307D01*
X002610Y014208D02*
X002510Y014208D01*
X002510Y014110D02*
X002610Y014110D01*
X002510Y014011D02*
X001550Y014011D01*
X001550Y013913D02*
X002040Y013913D01*
X002067Y013814D02*
X001550Y013814D01*
X001550Y013715D02*
X002166Y013715D01*
X002264Y013617D02*
X001550Y013617D01*
X001550Y013518D02*
X002315Y013518D01*
X002217Y013420D02*
X001550Y013420D01*
X001550Y013321D02*
X002118Y013321D01*
X002060Y013223D02*
X001613Y013223D01*
X001711Y013124D02*
X002060Y013124D01*
X002060Y013026D02*
X001810Y013026D01*
X001908Y012927D02*
X002060Y012927D01*
X002081Y012829D02*
X002007Y012829D01*
X002010Y012556D02*
X002910Y012556D01*
X003060Y012406D01*
X003060Y011556D01*
X004970Y013286D02*
X003760Y014676D01*
X003760Y017856D01*
X003580Y017756D02*
X003320Y017756D01*
X003320Y017854D02*
X003494Y017854D01*
X003395Y017953D02*
X003320Y017953D01*
X003296Y018051D02*
X003245Y018051D01*
X003198Y018150D02*
X003146Y018150D01*
X003341Y018544D02*
X003780Y018544D01*
X003780Y018446D02*
X003440Y018446D01*
X003538Y018347D02*
X003780Y018347D01*
X003780Y018248D02*
X003637Y018248D01*
X003735Y018150D02*
X003780Y018150D01*
X003580Y017657D02*
X003320Y017657D01*
X003242Y017559D02*
X003580Y017559D01*
X003580Y017460D02*
X003144Y017460D01*
X003580Y017362D02*
X002600Y017362D01*
X002600Y017460D02*
X002677Y017460D01*
X002600Y017263D02*
X003580Y017263D01*
X003580Y017164D02*
X002600Y017164D01*
X002600Y017066D02*
X003580Y017066D01*
X003580Y016967D02*
X002600Y016967D01*
X002600Y016869D02*
X003580Y016869D01*
X003580Y016770D02*
X002600Y016770D01*
X002600Y016672D02*
X003580Y016672D01*
X003580Y016573D02*
X002600Y016573D01*
X002600Y016475D02*
X003580Y016475D01*
X003580Y016376D02*
X002600Y016376D01*
X002600Y016278D02*
X003580Y016278D01*
X003580Y016179D02*
X002600Y016179D01*
X002600Y016081D02*
X003580Y016081D01*
X003580Y015982D02*
X002600Y015982D01*
X002600Y015883D02*
X003580Y015883D01*
X003580Y015785D02*
X002646Y015785D01*
X002712Y015686D02*
X003580Y015686D01*
X003580Y015588D02*
X002738Y015588D01*
X002738Y015489D02*
X003580Y015489D01*
X003580Y015391D02*
X002697Y015391D01*
X002848Y014504D02*
X003301Y014504D01*
X003202Y014405D02*
X002947Y014405D01*
X003045Y014307D02*
X003104Y014307D01*
X002174Y014405D02*
X001550Y014405D01*
X001550Y014307D02*
X002075Y014307D01*
X002040Y014208D02*
X001550Y014208D01*
X001550Y014110D02*
X002040Y014110D01*
X004150Y014786D02*
X005160Y013686D01*
X006550Y013686D01*
X008210Y012031D01*
X010685Y012031D01*
X010688Y013124D02*
X010760Y013124D01*
X010667Y013223D02*
X010856Y013223D01*
X010951Y013321D02*
X010609Y013321D01*
X010550Y013420D02*
X011047Y013420D01*
X011143Y013518D02*
X010550Y013518D01*
X010550Y013617D02*
X011314Y013617D01*
X011235Y013715D02*
X010550Y013715D01*
X010550Y013814D02*
X011202Y013814D01*
X011199Y013913D02*
X010550Y013913D01*
X010550Y014011D02*
X011101Y014011D01*
X011002Y014110D02*
X010550Y014110D01*
X010550Y014208D02*
X010890Y014208D01*
X011960Y013056D02*
X011960Y012606D01*
X011710Y012356D01*
X008160Y012356D01*
X006650Y013866D01*
X005600Y013866D01*
X004560Y014906D01*
X004150Y014786D02*
X004160Y019456D01*
X004349Y019431D02*
X005367Y019431D01*
X005362Y019332D02*
X004340Y019332D01*
X004340Y019234D02*
X005387Y019234D01*
X005455Y019135D02*
X004340Y019135D01*
X004339Y019037D02*
X005800Y019037D01*
X005800Y018938D02*
X004339Y018938D01*
X004339Y018840D02*
X005800Y018840D01*
X005800Y018741D02*
X004339Y018741D01*
X004339Y018643D02*
X005800Y018643D01*
X005629Y018544D02*
X004338Y018544D01*
X004338Y018446D02*
X005493Y018446D01*
X005444Y018347D02*
X004338Y018347D01*
X004338Y018248D02*
X005432Y018248D01*
X005451Y018150D02*
X004337Y018150D01*
X004337Y018051D02*
X005509Y018051D01*
X005667Y017953D02*
X004337Y017953D01*
X004337Y017854D02*
X005899Y017854D01*
X005899Y017953D02*
X005814Y017953D01*
X005951Y017756D02*
X004337Y017756D01*
X004336Y017657D02*
X006370Y017657D01*
X006235Y017756D02*
X006177Y017756D01*
X006177Y017854D02*
X006235Y017854D01*
X006235Y017953D02*
X006177Y017953D01*
X006177Y018051D02*
X006235Y018051D01*
X006139Y017559D02*
X006081Y017559D01*
X006081Y017460D02*
X006139Y017460D01*
X006139Y017362D02*
X006081Y017362D01*
X006081Y017263D02*
X006139Y017263D01*
X006139Y017164D02*
X006081Y017164D01*
X006081Y017066D02*
X006139Y017066D01*
X006370Y016967D02*
X004335Y016967D01*
X004335Y016869D02*
X005800Y016869D01*
X005744Y016770D02*
X004334Y016770D01*
X004334Y016672D02*
X005744Y016672D01*
X005744Y016573D02*
X004334Y016573D01*
X004334Y016475D02*
X005744Y016475D01*
X005751Y017066D02*
X004335Y017066D01*
X004335Y017164D02*
X005724Y017164D01*
X005724Y017263D02*
X004336Y017263D01*
X004336Y017362D02*
X005724Y017362D01*
X005724Y017460D02*
X004336Y017460D01*
X004336Y017559D02*
X005753Y017559D01*
X004782Y016376D02*
X004334Y016376D01*
X004333Y016278D02*
X004529Y016278D01*
X004369Y016179D02*
X004333Y016179D01*
X003979Y019037D02*
X003907Y019037D01*
X003980Y019135D02*
X003813Y019135D01*
X003719Y019234D02*
X003980Y019234D01*
X003980Y019332D02*
X003625Y019332D01*
X003531Y019431D02*
X003925Y019431D01*
X003834Y019530D02*
X003437Y019530D01*
X003895Y020022D02*
X005899Y020022D01*
X005899Y019935D02*
X005899Y020162D01*
X005909Y020200D01*
X005928Y020235D01*
X005956Y020263D01*
X005991Y020282D01*
X006029Y020292D01*
X006177Y020292D01*
X006177Y019935D01*
X005899Y019935D01*
X005899Y019825D02*
X004078Y019825D01*
X004169Y019727D02*
X005899Y019727D01*
X005876Y019628D02*
X005820Y019628D01*
X005670Y019356D02*
X006084Y019356D01*
X006108Y019380D01*
X006177Y019924D02*
X003986Y019924D01*
X003804Y020121D02*
X005899Y020121D01*
X005920Y020219D02*
X003713Y020219D01*
X003621Y020318D02*
X006260Y020318D01*
X006235Y020219D02*
X006177Y020219D01*
X006177Y020121D02*
X006235Y020121D01*
X006235Y020022D02*
X006177Y020022D01*
X006161Y020416D02*
X003530Y020416D01*
X003439Y020515D02*
X006063Y020515D01*
X006305Y020811D02*
X007937Y020811D01*
X007839Y020909D02*
X006206Y020909D01*
X006108Y021008D02*
X007740Y021008D01*
X007642Y021106D02*
X006009Y021106D01*
X005911Y021205D02*
X006232Y021205D01*
X006133Y021303D02*
X005812Y021303D01*
X005713Y021402D02*
X006035Y021402D01*
X006000Y021500D02*
X005615Y021500D01*
X006589Y021205D02*
X007232Y021205D01*
X007133Y021303D02*
X006687Y021303D01*
X006786Y021402D02*
X007035Y021402D01*
X007000Y021500D02*
X006820Y021500D01*
X006820Y021599D02*
X007000Y021599D01*
X007000Y021697D02*
X006820Y021697D01*
X006800Y021796D02*
X007020Y021796D01*
X007119Y021895D02*
X006702Y021895D01*
X006603Y021993D02*
X007217Y021993D01*
X007148Y022289D02*
X006701Y022289D01*
X006799Y022387D02*
X007049Y022387D01*
X007000Y022486D02*
X006840Y022486D01*
X007000Y022584D02*
X006451Y022584D01*
X006450Y022683D02*
X006370Y022683D01*
X006370Y022781D02*
X006450Y022781D01*
X006450Y022880D02*
X006370Y022880D01*
X006370Y022979D02*
X006450Y022979D01*
X006646Y022979D02*
X007203Y022979D01*
X007104Y022880D02*
X006745Y022880D01*
X006840Y022781D02*
X007006Y022781D01*
X007000Y022683D02*
X006840Y022683D01*
X006602Y022190D02*
X010870Y022190D01*
X010133Y021303D02*
X009982Y021303D01*
X010081Y021205D02*
X010232Y021205D01*
X009430Y020318D02*
X008967Y020318D01*
X008869Y020416D02*
X009331Y020416D01*
X009233Y020515D02*
X008770Y020515D01*
X008672Y020614D02*
X009134Y020614D01*
X009036Y020712D02*
X008573Y020712D01*
X008475Y020811D02*
X008937Y020811D01*
X008839Y020909D02*
X008376Y020909D01*
X008278Y021008D02*
X008740Y021008D01*
X008642Y021106D02*
X008179Y021106D01*
X008232Y021205D02*
X008081Y021205D01*
X008133Y021303D02*
X007982Y021303D01*
X008035Y021402D02*
X007883Y021402D01*
X007820Y021500D02*
X008000Y021500D01*
X008000Y021599D02*
X007820Y021599D01*
X007820Y021697D02*
X008000Y021697D01*
X008020Y021796D02*
X007800Y021796D01*
X007702Y021895D02*
X008119Y021895D01*
X008217Y021993D02*
X007603Y021993D01*
X007673Y022289D02*
X008148Y022289D01*
X008049Y022387D02*
X007771Y022387D01*
X007820Y022486D02*
X008000Y022486D01*
X008000Y022584D02*
X007820Y022584D01*
X007820Y022683D02*
X008000Y022683D01*
X008006Y022781D02*
X007882Y022781D01*
X007584Y023077D02*
X000710Y023077D01*
X000710Y022979D02*
X006174Y022979D01*
X006076Y022880D02*
X000710Y022880D01*
X000710Y022781D02*
X005980Y022781D01*
X005980Y022683D02*
X000710Y022683D01*
X000710Y023176D02*
X007683Y023176D01*
X008673Y022289D02*
X009148Y022289D01*
X009049Y022387D02*
X008771Y022387D01*
X008820Y022486D02*
X009000Y022486D01*
X009000Y022584D02*
X008820Y022584D01*
X008820Y022683D02*
X009000Y022683D01*
X009006Y022781D02*
X008815Y022781D01*
X008603Y021993D02*
X009217Y021993D01*
X009119Y021895D02*
X008702Y021895D01*
X008800Y021796D02*
X009020Y021796D01*
X009000Y021697D02*
X008820Y021697D01*
X008820Y021599D02*
X009000Y021599D01*
X009000Y021500D02*
X008820Y021500D01*
X008883Y021402D02*
X009035Y021402D01*
X008982Y021303D02*
X009133Y021303D01*
X009081Y021205D02*
X009232Y021205D01*
X009066Y020219D02*
X009529Y020219D01*
X009627Y020121D02*
X009164Y020121D01*
X009263Y020022D02*
X009720Y020022D01*
X009720Y019924D02*
X009362Y019924D01*
X009460Y019825D02*
X009720Y019825D01*
X009720Y019727D02*
X009559Y019727D01*
X009650Y019628D02*
X009720Y019628D01*
X009720Y019530D02*
X009650Y019530D01*
X009650Y019431D02*
X009720Y019431D01*
X009720Y019332D02*
X009650Y019332D01*
X009650Y019234D02*
X009720Y019234D01*
X009720Y019135D02*
X009650Y019135D01*
X009650Y019037D02*
X009720Y019037D01*
X009720Y018938D02*
X009650Y018938D01*
X009650Y018840D02*
X009720Y018840D01*
X009720Y018741D02*
X009650Y018741D01*
X009650Y018643D02*
X009720Y018643D01*
X009720Y018544D02*
X009650Y018544D01*
X009650Y018446D02*
X009720Y018446D01*
X009720Y018347D02*
X009650Y018347D01*
X009650Y018248D02*
X009720Y018248D01*
X009720Y018150D02*
X009650Y018150D01*
X009650Y018051D02*
X009720Y018051D01*
X009720Y017953D02*
X009650Y017953D01*
X009650Y017854D02*
X009720Y017854D01*
X009720Y017756D02*
X009650Y017756D01*
X009650Y017657D02*
X009720Y017657D01*
X009720Y017559D02*
X009650Y017559D01*
X009650Y017460D02*
X009720Y017460D01*
X009720Y017362D02*
X009650Y017362D01*
X009650Y017263D02*
X009720Y017263D01*
X009720Y017164D02*
X009650Y017164D01*
X009650Y017066D02*
X009720Y017066D01*
X009720Y016967D02*
X009650Y016967D01*
X009650Y016869D02*
X009720Y016869D01*
X009720Y016770D02*
X009650Y016770D01*
X009650Y016672D02*
X009720Y016672D01*
X009720Y016573D02*
X009650Y016573D01*
X009650Y016475D02*
X009720Y016475D01*
X009720Y016376D02*
X009650Y016376D01*
X009650Y016278D02*
X009720Y016278D01*
X009720Y016179D02*
X009650Y016179D01*
X009650Y016081D02*
X009720Y016081D01*
X009720Y015982D02*
X009650Y015982D01*
X009650Y015883D02*
X009720Y015883D01*
X009720Y015785D02*
X009650Y015785D01*
X009650Y015686D02*
X009720Y015686D01*
X009720Y015588D02*
X009650Y015588D01*
X009650Y015489D02*
X009720Y015489D01*
X009720Y015391D02*
X009650Y015391D01*
X009650Y015292D02*
X009720Y015292D01*
X009720Y015194D02*
X009650Y015194D01*
X009650Y015095D02*
X009720Y015095D01*
X009720Y014997D02*
X009650Y014997D01*
X009650Y014898D02*
X009720Y014898D01*
X008792Y013124D02*
X007647Y013124D01*
X007745Y013026D02*
X008726Y013026D01*
X008702Y012927D02*
X008576Y012927D01*
X008643Y012829D02*
X008709Y012829D01*
X007460Y013606D02*
X007560Y013756D01*
X007560Y014856D01*
X007610Y014906D01*
X007610Y017006D01*
X006890Y017606D01*
X007203Y018150D02*
X008181Y018150D01*
X008410Y018356D02*
X007289Y018356D01*
X007013Y018632D01*
X007037Y019356D02*
X007013Y019380D01*
X007037Y019356D02*
X007360Y019356D01*
X007910Y018806D01*
X008460Y018806D01*
X008255Y019037D02*
X007934Y019037D01*
X007836Y019135D02*
X008727Y019135D01*
X008666Y019037D02*
X008825Y019037D01*
X008739Y018938D02*
X008924Y018938D01*
X008628Y019234D02*
X007737Y019234D01*
X007639Y019332D02*
X008530Y019332D01*
X008331Y020416D02*
X006719Y020416D01*
X006600Y020515D02*
X008233Y020515D01*
X008134Y020614D02*
X006502Y020614D01*
X006403Y020712D02*
X008036Y020712D01*
X007435Y019536D02*
X007540Y019431D01*
X005521Y019628D02*
X004260Y019628D01*
X004351Y019530D02*
X005408Y019530D01*
X007189Y016606D02*
X007013Y016230D01*
X007189Y016606D02*
X007260Y016606D01*
X007013Y015482D02*
X007370Y015125D01*
X007370Y014146D01*
X007230Y014006D01*
X007210Y014006D01*
X007400Y013576D02*
X007460Y013606D01*
X006943Y014675D02*
X006886Y014675D01*
X006886Y014927D01*
X006943Y014927D01*
X006943Y014675D01*
X006943Y014701D02*
X006886Y014701D01*
X006886Y014799D02*
X006943Y014799D01*
X006910Y014856D02*
X006915Y014956D01*
X006943Y014985D02*
X006943Y015234D01*
X006886Y015234D01*
X006886Y014985D01*
X006943Y014985D01*
X006943Y014997D02*
X006886Y014997D01*
X006886Y015095D02*
X006943Y015095D01*
X006943Y015194D02*
X006886Y015194D01*
X006886Y014898D02*
X006943Y014898D01*
X006390Y013286D02*
X004970Y013286D01*
X008062Y008985D02*
X011565Y008985D01*
X011565Y008887D02*
X008020Y008887D01*
X008020Y008788D02*
X011565Y008788D01*
X011565Y008690D02*
X008020Y008690D01*
X008020Y008591D02*
X011565Y008591D01*
X011595Y008493D02*
X008020Y008493D01*
X008020Y008394D02*
X012154Y008394D01*
X012252Y008296D02*
X008020Y008296D01*
X008020Y008197D02*
X013186Y008197D01*
X013326Y008099D02*
X008082Y008099D01*
X007942Y007606D02*
X018010Y007606D01*
X018010Y007704D02*
X013705Y007704D01*
X013804Y007803D02*
X018010Y007803D01*
X018010Y007901D02*
X013902Y007901D01*
X014001Y008000D02*
X018010Y008000D01*
X018010Y008099D02*
X014020Y008099D01*
X014020Y008197D02*
X018010Y008197D01*
X018010Y008296D02*
X014020Y008296D01*
X014020Y008394D02*
X018010Y008394D01*
X018010Y008493D02*
X014020Y008493D01*
X014020Y008591D02*
X018010Y008591D01*
X018010Y008690D02*
X014020Y008690D01*
X014020Y008788D02*
X018010Y008788D01*
X018010Y008887D02*
X014020Y008887D01*
X014020Y008985D02*
X018010Y008985D01*
X018010Y009084D02*
X014020Y009084D01*
X014020Y009182D02*
X018010Y009182D01*
X018010Y009281D02*
X014020Y009281D01*
X014000Y009380D02*
X018010Y009380D01*
X018010Y009478D02*
X014000Y009478D01*
X014000Y009577D02*
X014508Y009577D01*
X014483Y009675D02*
X014000Y009675D01*
X013620Y009675D02*
X012455Y009675D01*
X012455Y009577D02*
X013620Y009577D01*
X013620Y009478D02*
X012455Y009478D01*
X012455Y009380D02*
X013620Y009380D01*
X013600Y009281D02*
X012812Y009281D01*
X012590Y009066D02*
X013670Y009066D01*
X013810Y009206D01*
X013620Y009774D02*
X012187Y009774D01*
X012089Y009872D02*
X013620Y009872D01*
X013620Y009971D02*
X012019Y009971D01*
X012014Y010069D02*
X013620Y010069D01*
X012010Y009696D02*
X012010Y009406D01*
X011170Y009406D01*
X011565Y009182D02*
X008370Y009182D01*
X008428Y009281D02*
X010138Y009281D01*
X009973Y009380D02*
X008448Y009380D01*
X008442Y009478D02*
X009908Y009478D01*
X009882Y009577D02*
X008401Y009577D01*
X008224Y009084D02*
X011565Y009084D01*
X012010Y009696D02*
X011710Y009996D01*
X010647Y009675D02*
X010537Y009675D01*
X010548Y009774D02*
X010496Y009774D01*
X010450Y009872D02*
X010408Y009872D01*
X009882Y009666D02*
X009882Y009666D01*
X007678Y007606D02*
X000710Y007606D01*
X000710Y007704D02*
X007548Y007704D01*
X007476Y006325D02*
X009965Y006325D01*
X009876Y006226D02*
X007377Y006226D01*
X007279Y006128D02*
X009835Y006128D01*
X009832Y006029D02*
X007180Y006029D01*
X007082Y005931D02*
X009857Y005931D01*
X009921Y005832D02*
X006983Y005832D01*
X010356Y006325D02*
X011033Y006325D01*
X011388Y006325D02*
X012532Y006325D01*
X012542Y006300D02*
X012634Y006208D01*
X012755Y006158D01*
X012886Y006158D01*
X013006Y006208D01*
X013064Y006266D01*
X015101Y006266D01*
X015024Y006234D01*
X014932Y006142D01*
X014882Y006022D01*
X014882Y005897D01*
X013157Y004171D01*
X013126Y004184D01*
X012995Y004184D01*
X012874Y004134D01*
X012782Y004042D01*
X012732Y003922D01*
X012732Y003791D01*
X012782Y003670D01*
X012874Y003578D01*
X012995Y003528D01*
X013126Y003528D01*
X013246Y003578D01*
X013338Y003670D01*
X013388Y003791D01*
X013388Y003866D01*
X015151Y005628D01*
X015276Y005628D01*
X015396Y005678D01*
X015484Y005766D01*
X015783Y005766D01*
X015783Y005621D01*
X015837Y005567D01*
X015821Y005558D01*
X015793Y005530D01*
X015774Y005496D01*
X015763Y005458D01*
X015763Y005270D01*
X016062Y005270D01*
X016062Y005173D01*
X016159Y005173D01*
X016159Y005270D01*
X016457Y005270D01*
X016457Y005458D01*
X016447Y005496D01*
X016427Y005530D01*
X016399Y005558D01*
X016384Y005567D01*
X016437Y005621D01*
X016437Y006161D01*
X016431Y006168D01*
X016456Y006178D01*
X016548Y006270D01*
X016598Y006391D01*
X016598Y006522D01*
X018010Y006522D01*
X018010Y006620D02*
X016557Y006620D01*
X016548Y006642D02*
X016456Y006734D01*
X016336Y006784D01*
X016205Y006784D01*
X016084Y006734D01*
X015996Y006646D01*
X013109Y006646D01*
X013098Y006672D01*
X013006Y006764D01*
X012886Y006814D01*
X012755Y006814D01*
X012634Y006764D01*
X012542Y006672D01*
X012492Y006552D01*
X012492Y006421D01*
X012542Y006300D01*
X012616Y006226D02*
X010445Y006226D01*
X010486Y006128D02*
X014926Y006128D01*
X014885Y006029D02*
X010488Y006029D01*
X010583Y005931D02*
X014882Y005931D01*
X014817Y005832D02*
X010682Y005832D01*
X010720Y005733D02*
X014719Y005733D01*
X014620Y005635D02*
X010720Y005635D01*
X010720Y005536D02*
X014522Y005536D01*
X014423Y005438D02*
X010720Y005438D01*
X010720Y005339D02*
X014325Y005339D01*
X014226Y005241D02*
X010720Y005241D01*
X010720Y005142D02*
X014128Y005142D01*
X014029Y005044D02*
X010720Y005044D01*
X010720Y004945D02*
X013930Y004945D01*
X013832Y004847D02*
X010720Y004847D01*
X010720Y004748D02*
X013733Y004748D01*
X013635Y004649D02*
X010720Y004649D01*
X010720Y004551D02*
X013536Y004551D01*
X013438Y004452D02*
X010720Y004452D01*
X010720Y004354D02*
X013339Y004354D01*
X013241Y004255D02*
X010720Y004255D01*
X010720Y004157D02*
X012928Y004157D01*
X012798Y004058D02*
X010720Y004058D01*
X010720Y003960D02*
X012748Y003960D01*
X012732Y003861D02*
X010720Y003861D01*
X010720Y003763D02*
X012744Y003763D01*
X012789Y003664D02*
X010720Y003664D01*
X010720Y003566D02*
X012905Y003566D01*
X013216Y003566D02*
X018010Y003566D01*
X018010Y003664D02*
X013332Y003664D01*
X013377Y003763D02*
X018010Y003763D01*
X018010Y003861D02*
X013388Y003861D01*
X013482Y003960D02*
X018010Y003960D01*
X018010Y004058D02*
X013581Y004058D01*
X013679Y004157D02*
X018010Y004157D01*
X018010Y004255D02*
X013778Y004255D01*
X013877Y004354D02*
X018010Y004354D01*
X018010Y004452D02*
X013975Y004452D01*
X014074Y004551D02*
X018010Y004551D01*
X018010Y004649D02*
X014172Y004649D01*
X014271Y004748D02*
X018010Y004748D01*
X018010Y004847D02*
X014369Y004847D01*
X014468Y004945D02*
X015775Y004945D01*
X015774Y004947D02*
X015793Y004913D01*
X015821Y004885D01*
X015856Y004865D01*
X015894Y004855D01*
X016062Y004855D01*
X016062Y005173D01*
X015763Y005173D01*
X015763Y004985D01*
X015774Y004947D01*
X015763Y005044D02*
X014566Y005044D01*
X014665Y005142D02*
X015763Y005142D01*
X015763Y005339D02*
X014862Y005339D01*
X014763Y005241D02*
X016062Y005241D01*
X016159Y005241D02*
X018010Y005241D01*
X018010Y005339D02*
X016457Y005339D01*
X016457Y005438D02*
X018010Y005438D01*
X018010Y005536D02*
X016421Y005536D01*
X016437Y005635D02*
X018010Y005635D01*
X018010Y005733D02*
X016437Y005733D01*
X016437Y005832D02*
X018010Y005832D01*
X018010Y005931D02*
X016437Y005931D01*
X016437Y006029D02*
X018010Y006029D01*
X018010Y006128D02*
X016437Y006128D01*
X016504Y006226D02*
X018010Y006226D01*
X018010Y006325D02*
X016571Y006325D01*
X016598Y006423D02*
X018010Y006423D01*
X018010Y006719D02*
X016472Y006719D01*
X016548Y006642D02*
X016598Y006522D01*
X016069Y006719D02*
X013052Y006719D01*
X013024Y006226D02*
X015016Y006226D01*
X015451Y005733D02*
X015783Y005733D01*
X015783Y005635D02*
X015292Y005635D01*
X015059Y005536D02*
X015800Y005536D01*
X015763Y005438D02*
X014961Y005438D01*
X016062Y005142D02*
X016159Y005142D01*
X016159Y005173D02*
X016159Y004855D01*
X016327Y004855D01*
X016365Y004865D01*
X016399Y004885D01*
X016427Y004913D01*
X016447Y004947D01*
X016457Y004985D01*
X016457Y005173D01*
X016159Y005173D01*
X016159Y005044D02*
X016062Y005044D01*
X016062Y004945D02*
X016159Y004945D01*
X016446Y004945D02*
X018010Y004945D01*
X018010Y005044D02*
X016457Y005044D01*
X016457Y005142D02*
X018010Y005142D01*
X018010Y003467D02*
X010720Y003467D01*
X010720Y003368D02*
X018010Y003368D01*
X018010Y003270D02*
X010720Y003270D01*
X010720Y003171D02*
X014512Y003171D01*
X014464Y003151D02*
X014349Y003037D01*
X014287Y002887D01*
X014287Y002725D01*
X014349Y002576D01*
X014464Y002461D01*
X014613Y002399D01*
X014775Y002399D01*
X014925Y002461D01*
X015039Y002576D01*
X015101Y002725D01*
X015101Y002887D01*
X015039Y003037D01*
X014925Y003151D01*
X014775Y003213D01*
X014613Y003213D01*
X014464Y003151D01*
X014385Y003073D02*
X010720Y003073D01*
X010720Y002974D02*
X014323Y002974D01*
X014287Y002876D02*
X010720Y002876D01*
X010720Y002777D02*
X014287Y002777D01*
X014306Y002679D02*
X010720Y002679D01*
X010750Y002580D02*
X014347Y002580D01*
X014443Y002482D02*
X010814Y002482D01*
X010838Y002383D02*
X018010Y002383D01*
X018010Y002482D02*
X016678Y002482D01*
X016657Y002461D02*
X016772Y002576D01*
X016834Y002725D01*
X016834Y002887D01*
X016772Y003037D01*
X016657Y003151D01*
X016507Y003213D01*
X016345Y003213D01*
X016196Y003151D01*
X016081Y003037D01*
X016019Y002887D01*
X016019Y002725D01*
X016081Y002576D01*
X016196Y002461D01*
X016345Y002399D01*
X016507Y002399D01*
X016657Y002461D01*
X016773Y002580D02*
X018010Y002580D01*
X018010Y002679D02*
X016814Y002679D01*
X016834Y002777D02*
X018010Y002777D01*
X018010Y002876D02*
X016834Y002876D01*
X016798Y002974D02*
X018010Y002974D01*
X018010Y003073D02*
X016736Y003073D01*
X016609Y003171D02*
X018010Y003171D01*
X018010Y002284D02*
X010836Y002284D01*
X010795Y002186D02*
X018010Y002186D01*
X018010Y002087D02*
X010705Y002087D01*
X011490Y006423D02*
X012492Y006423D01*
X012492Y006522D02*
X011530Y006522D01*
X011538Y006620D02*
X012521Y006620D01*
X012589Y006719D02*
X011519Y006719D01*
X011463Y006817D02*
X018010Y006817D01*
X018010Y006916D02*
X011320Y006916D01*
X014877Y003171D02*
X016244Y003171D01*
X016117Y003073D02*
X015003Y003073D01*
X015065Y002974D02*
X016055Y002974D01*
X016019Y002876D02*
X015101Y002876D01*
X015101Y002777D02*
X016019Y002777D01*
X016039Y002679D02*
X015082Y002679D01*
X015041Y002580D02*
X016079Y002580D01*
X016175Y002482D02*
X014945Y002482D01*
X018010Y007015D02*
X000710Y007015D01*
X000710Y007113D02*
X018010Y007113D01*
X018010Y007212D02*
X000710Y007212D01*
X000710Y007310D02*
X018010Y007310D01*
X018010Y007409D02*
X000710Y007409D01*
X000710Y007507D02*
X018010Y007507D01*
X017910Y013556D02*
X017003Y013556D01*
X017038Y013641D01*
X017038Y013772D01*
X016988Y013892D01*
X016896Y013984D01*
X016776Y014034D01*
X016645Y014034D01*
X016524Y013984D01*
X016499Y013959D01*
X016408Y014051D01*
X016408Y014517D01*
X016332Y014593D01*
X015988Y014593D01*
X015917Y014522D01*
X015898Y014555D01*
X015871Y014583D01*
X015836Y014603D01*
X015798Y014613D01*
X015669Y014613D01*
X015669Y014039D01*
X015651Y014039D01*
X015651Y014613D01*
X015522Y014613D01*
X015484Y014603D01*
X015450Y014583D01*
X015422Y014555D01*
X015403Y014522D01*
X015332Y014593D01*
X014988Y014593D01*
X014917Y014522D01*
X014898Y014555D01*
X014871Y014583D01*
X014836Y014603D01*
X014798Y014613D01*
X014669Y014613D01*
X014669Y014039D01*
X014651Y014039D01*
X014651Y014021D01*
X014392Y014021D01*
X014392Y013577D01*
X014398Y013556D01*
X014057Y013556D01*
X013570Y014043D01*
X013570Y015558D01*
X013608Y015596D01*
X013608Y016570D01*
X013532Y016646D01*
X013188Y016646D01*
X013112Y016570D01*
X013112Y015596D01*
X013150Y015558D01*
X013150Y015413D01*
X013138Y015442D01*
X013070Y015510D01*
X013070Y015558D01*
X013108Y015596D01*
X013108Y016570D01*
X013032Y016646D01*
X012688Y016646D01*
X012612Y016570D01*
X012612Y015596D01*
X012650Y015558D01*
X012650Y015510D01*
X012582Y015442D01*
X012532Y015322D01*
X012532Y015191D01*
X012582Y015070D01*
X012674Y014978D01*
X012795Y014928D01*
X012926Y014928D01*
X013046Y014978D01*
X013138Y015070D01*
X013150Y015099D01*
X013150Y014043D01*
X013150Y013869D01*
X013458Y013561D01*
X013057Y013561D01*
X012010Y015356D01*
X012023Y016322D01*
X012112Y016411D01*
X012112Y015596D01*
X012188Y015520D01*
X012532Y015520D01*
X012608Y015596D01*
X012608Y016570D01*
X012532Y016646D01*
X012347Y016646D01*
X012847Y017146D01*
X013903Y017146D01*
X013773Y017016D01*
X013650Y016893D01*
X013650Y016608D01*
X013612Y016570D01*
X013612Y015596D01*
X013674Y015534D01*
X013632Y015492D01*
X013582Y015372D01*
X013582Y015241D01*
X013632Y015120D01*
X013724Y015028D01*
X013845Y014978D01*
X013976Y014978D01*
X014096Y015028D01*
X014188Y015120D01*
X014238Y015241D01*
X014238Y015372D01*
X014188Y015492D01*
X014120Y015560D01*
X014120Y016120D01*
X014108Y016132D01*
X014108Y016570D01*
X014070Y016608D01*
X014070Y016719D01*
X014097Y016746D01*
X014319Y016746D01*
X014319Y016667D01*
X014309Y016650D01*
X014299Y016612D01*
X014299Y016385D01*
X014577Y016385D01*
X014577Y016327D01*
X014635Y016327D01*
X014635Y015970D01*
X014655Y015970D01*
X014533Y015849D01*
X014533Y015495D01*
X014784Y015245D01*
X015137Y015245D01*
X015387Y015495D01*
X015387Y015849D01*
X015246Y015990D01*
X015526Y015990D01*
X015602Y016066D01*
X015602Y016646D01*
X015592Y016656D01*
X015602Y016666D01*
X015602Y017246D01*
X015526Y017322D01*
X015274Y017322D01*
X015407Y017455D01*
X015407Y017592D01*
X015009Y017592D01*
X015009Y017689D01*
X015407Y017689D01*
X015407Y017826D01*
X015145Y018087D01*
X015009Y018087D01*
X015009Y017689D01*
X014912Y017689D01*
X014912Y018087D01*
X014866Y018087D01*
X014888Y018141D01*
X014888Y018272D01*
X014838Y018392D01*
X014746Y018484D01*
X014626Y018534D01*
X014495Y018534D01*
X014374Y018484D01*
X014282Y018392D01*
X014232Y018272D01*
X014232Y018141D01*
X014282Y018020D01*
X014305Y017998D01*
X014128Y017821D01*
X014128Y018121D01*
X013870Y018121D01*
X013870Y018139D01*
X014128Y018139D01*
X014128Y018583D01*
X014118Y018621D01*
X014103Y018646D01*
X016809Y018646D01*
X016809Y018246D01*
X016885Y018170D01*
X017113Y018170D01*
X017113Y015143D01*
X016885Y015143D01*
X016809Y015066D01*
X016809Y014191D01*
X016885Y014115D01*
X017760Y014115D01*
X017836Y014191D01*
X017836Y015066D01*
X017760Y015143D01*
X017532Y015143D01*
X017532Y018170D01*
X017760Y018170D01*
X017836Y018246D01*
X017836Y019122D01*
X017760Y019198D01*
X016885Y019198D01*
X016809Y019122D01*
X016809Y019066D01*
X013547Y019066D01*
X013373Y019066D01*
X013150Y018843D01*
X013150Y018669D01*
X013150Y018655D01*
X013117Y018622D01*
X013098Y018655D01*
X013071Y018683D01*
X013036Y018703D01*
X012998Y018713D01*
X012869Y018713D01*
X012869Y018139D01*
X012851Y018139D01*
X012851Y018713D01*
X012722Y018713D01*
X012684Y018703D01*
X012650Y018683D01*
X012622Y018655D01*
X012603Y018622D01*
X012532Y018693D01*
X012188Y018693D01*
X012112Y018617D01*
X012112Y018340D01*
X012048Y018340D01*
X012110Y023206D01*
X012610Y023706D01*
X012771Y023706D01*
X012628Y023563D01*
X012628Y023089D01*
X012963Y022754D01*
X013437Y022754D01*
X013773Y023089D01*
X013773Y023563D01*
X013630Y023706D01*
X015578Y023706D01*
X015578Y023299D01*
X015913Y022964D01*
X016387Y022964D01*
X016723Y023299D01*
X016723Y023706D01*
X017810Y023706D01*
X018010Y023556D01*
X018010Y021944D01*
X017676Y022279D01*
X017480Y022279D01*
X017480Y021736D01*
X017380Y021736D01*
X017380Y021636D01*
X017480Y021636D01*
X017480Y021094D01*
X017676Y021094D01*
X018010Y021428D01*
X018010Y013656D01*
X017910Y013556D01*
X017971Y013617D02*
X017028Y013617D01*
X017038Y013715D02*
X018010Y013715D01*
X018010Y013814D02*
X017021Y013814D01*
X016968Y013913D02*
X018010Y013913D01*
X018010Y014011D02*
X016832Y014011D01*
X016809Y014208D02*
X016408Y014208D01*
X016408Y014110D02*
X018010Y014110D01*
X018010Y014208D02*
X017836Y014208D01*
X017836Y014307D02*
X018010Y014307D01*
X018010Y014405D02*
X017836Y014405D01*
X017836Y014504D02*
X018010Y014504D01*
X018010Y014602D02*
X017836Y014602D01*
X017836Y014701D02*
X018010Y014701D01*
X018010Y014799D02*
X017836Y014799D01*
X017836Y014898D02*
X018010Y014898D01*
X018010Y014997D02*
X017836Y014997D01*
X017808Y015095D02*
X018010Y015095D01*
X018010Y015194D02*
X017532Y015194D01*
X017532Y015292D02*
X018010Y015292D01*
X018010Y015391D02*
X017532Y015391D01*
X017532Y015489D02*
X018010Y015489D01*
X018010Y015588D02*
X017532Y015588D01*
X017532Y015686D02*
X018010Y015686D01*
X018010Y015785D02*
X017532Y015785D01*
X017532Y015883D02*
X018010Y015883D01*
X018010Y015982D02*
X017532Y015982D01*
X017532Y016081D02*
X018010Y016081D01*
X018010Y016179D02*
X017532Y016179D01*
X017532Y016278D02*
X018010Y016278D01*
X018010Y016376D02*
X017532Y016376D01*
X017532Y016475D02*
X018010Y016475D01*
X018010Y016573D02*
X017532Y016573D01*
X017532Y016672D02*
X018010Y016672D01*
X018010Y016770D02*
X017532Y016770D01*
X017532Y016869D02*
X018010Y016869D01*
X018010Y016967D02*
X017532Y016967D01*
X017532Y017066D02*
X018010Y017066D01*
X018010Y017164D02*
X017532Y017164D01*
X017532Y017263D02*
X018010Y017263D01*
X018010Y017362D02*
X017532Y017362D01*
X017532Y017460D02*
X018010Y017460D01*
X018010Y017559D02*
X017532Y017559D01*
X017532Y017657D02*
X018010Y017657D01*
X018010Y017756D02*
X017532Y017756D01*
X017532Y017854D02*
X018010Y017854D01*
X018010Y017953D02*
X017532Y017953D01*
X017532Y018051D02*
X018010Y018051D01*
X018010Y018150D02*
X017532Y018150D01*
X017836Y018248D02*
X018010Y018248D01*
X018010Y018347D02*
X017836Y018347D01*
X017836Y018446D02*
X018010Y018446D01*
X018010Y018544D02*
X017836Y018544D01*
X017836Y018643D02*
X018010Y018643D01*
X018010Y018741D02*
X017836Y018741D01*
X017836Y018840D02*
X018010Y018840D01*
X018010Y018938D02*
X017836Y018938D01*
X017836Y019037D02*
X018010Y019037D01*
X018010Y019135D02*
X017823Y019135D01*
X018010Y019234D02*
X014708Y019234D01*
X014665Y019191D02*
X014826Y019352D01*
X014913Y019562D01*
X014913Y019790D01*
X014826Y020001D01*
X014701Y020125D01*
X014776Y020094D01*
X015004Y020094D01*
X015215Y020181D01*
X015376Y020342D01*
X015463Y020552D01*
X015463Y020780D01*
X015376Y020991D01*
X015215Y021152D01*
X015004Y021239D01*
X014776Y021239D01*
X014566Y021152D01*
X014405Y020991D01*
X014318Y020780D01*
X014318Y020552D01*
X014405Y020342D01*
X014529Y020218D01*
X014454Y020249D01*
X014226Y020249D01*
X014016Y020162D01*
X013855Y020001D01*
X013768Y019790D01*
X013768Y019562D01*
X013855Y019352D01*
X014016Y019191D01*
X014226Y019104D01*
X014454Y019104D01*
X014665Y019191D01*
X014530Y019135D02*
X016822Y019135D01*
X016809Y018643D02*
X014106Y018643D01*
X014128Y018544D02*
X016809Y018544D01*
X016809Y018446D02*
X014785Y018446D01*
X014857Y018347D02*
X016809Y018347D01*
X016809Y018248D02*
X014888Y018248D01*
X014888Y018150D02*
X017113Y018150D01*
X017113Y018051D02*
X015181Y018051D01*
X015280Y017953D02*
X017113Y017953D01*
X017113Y017854D02*
X015378Y017854D01*
X015407Y017756D02*
X017113Y017756D01*
X017113Y017657D02*
X015009Y017657D01*
X015009Y017592D02*
X014912Y017592D01*
X014912Y017194D01*
X014893Y017194D01*
X014893Y016667D01*
X014903Y016650D01*
X014913Y016612D01*
X014913Y016385D01*
X014635Y016385D01*
X014635Y016327D01*
X014913Y016327D01*
X014913Y016100D01*
X014913Y016099D01*
X015027Y016099D01*
X015027Y016646D01*
X015037Y016656D01*
X015027Y016666D01*
X015027Y017194D01*
X015009Y017194D01*
X015009Y017592D01*
X015009Y017559D02*
X014912Y017559D01*
X014912Y017592D02*
X014513Y017592D01*
X014513Y017455D01*
X014646Y017322D01*
X014395Y017322D01*
X014319Y017246D01*
X014319Y017166D01*
X014097Y017166D01*
X014067Y017166D01*
X014170Y017269D01*
X014590Y017689D01*
X014912Y017689D01*
X014912Y017592D01*
X014912Y017657D02*
X014558Y017657D01*
X014513Y017559D02*
X014460Y017559D01*
X014513Y017460D02*
X014361Y017460D01*
X014263Y017362D02*
X014607Y017362D01*
X014912Y017362D02*
X015009Y017362D01*
X015009Y017460D02*
X014912Y017460D01*
X014912Y017263D02*
X015009Y017263D01*
X015027Y017164D02*
X014893Y017164D01*
X014893Y017066D02*
X015027Y017066D01*
X015027Y016967D02*
X014893Y016967D01*
X014893Y016869D02*
X015027Y016869D01*
X015027Y016770D02*
X014893Y016770D01*
X014893Y016672D02*
X015027Y016672D01*
X015027Y016573D02*
X014913Y016573D01*
X014913Y016475D02*
X015027Y016475D01*
X015027Y016376D02*
X014635Y016376D01*
X014577Y016376D02*
X014108Y016376D01*
X014108Y016278D02*
X014299Y016278D01*
X014299Y016327D02*
X014299Y016100D01*
X014309Y016062D01*
X014328Y016028D01*
X014356Y016000D01*
X014391Y015980D01*
X014429Y015970D01*
X014577Y015970D01*
X014577Y016327D01*
X014299Y016327D01*
X014299Y016475D02*
X014108Y016475D01*
X014105Y016573D02*
X014299Y016573D01*
X014319Y016672D02*
X014070Y016672D01*
X013823Y017066D02*
X012767Y017066D01*
X012668Y016967D02*
X013724Y016967D01*
X013650Y016869D02*
X012570Y016869D01*
X012471Y016770D02*
X013650Y016770D01*
X013650Y016672D02*
X012373Y016672D01*
X012112Y016376D02*
X012077Y016376D01*
X012112Y016278D02*
X012022Y016278D01*
X012021Y016179D02*
X012112Y016179D01*
X012112Y016081D02*
X012020Y016081D01*
X012018Y015982D02*
X012112Y015982D01*
X012112Y015883D02*
X012017Y015883D01*
X012016Y015785D02*
X012112Y015785D01*
X012112Y015686D02*
X012014Y015686D01*
X012013Y015588D02*
X012120Y015588D01*
X012012Y015489D02*
X012629Y015489D01*
X012620Y015588D02*
X012600Y015588D01*
X012608Y015686D02*
X012612Y015686D01*
X012608Y015785D02*
X012612Y015785D01*
X012608Y015883D02*
X012612Y015883D01*
X012608Y015982D02*
X012612Y015982D01*
X012608Y016081D02*
X012612Y016081D01*
X012608Y016179D02*
X012612Y016179D01*
X012608Y016278D02*
X012612Y016278D01*
X012608Y016376D02*
X012612Y016376D01*
X012608Y016475D02*
X012612Y016475D01*
X012605Y016573D02*
X012616Y016573D01*
X013105Y016573D02*
X013116Y016573D01*
X013108Y016475D02*
X013112Y016475D01*
X013108Y016376D02*
X013112Y016376D01*
X013108Y016278D02*
X013112Y016278D01*
X013108Y016179D02*
X013112Y016179D01*
X013108Y016081D02*
X013112Y016081D01*
X013108Y015982D02*
X013112Y015982D01*
X013108Y015883D02*
X013112Y015883D01*
X013108Y015785D02*
X013112Y015785D01*
X013108Y015686D02*
X013112Y015686D01*
X013100Y015588D02*
X013120Y015588D01*
X013091Y015489D02*
X013150Y015489D01*
X013149Y015095D02*
X013150Y015095D01*
X013150Y014997D02*
X013065Y014997D01*
X013150Y014898D02*
X012278Y014898D01*
X012335Y014799D02*
X013150Y014799D01*
X013150Y014701D02*
X012393Y014701D01*
X012450Y014602D02*
X013150Y014602D01*
X013150Y014504D02*
X012508Y014504D01*
X012565Y014405D02*
X013150Y014405D01*
X013150Y014307D02*
X012623Y014307D01*
X012680Y014208D02*
X013150Y014208D01*
X013150Y014110D02*
X012738Y014110D01*
X012795Y014011D02*
X013150Y014011D01*
X013150Y013913D02*
X012853Y013913D01*
X012910Y013814D02*
X013206Y013814D01*
X013304Y013715D02*
X012967Y013715D01*
X013025Y013617D02*
X013403Y013617D01*
X013701Y013913D02*
X014392Y013913D01*
X014392Y014011D02*
X013602Y014011D01*
X013570Y014110D02*
X014392Y014110D01*
X014392Y014039D02*
X014651Y014039D01*
X014651Y014613D01*
X014522Y014613D01*
X014484Y014603D01*
X014450Y014583D01*
X014422Y014555D01*
X014402Y014521D01*
X014392Y014483D01*
X014392Y014039D01*
X014392Y014208D02*
X013570Y014208D01*
X013570Y014307D02*
X014392Y014307D01*
X014392Y014405D02*
X013570Y014405D01*
X013570Y014504D02*
X014398Y014504D01*
X014484Y014602D02*
X013570Y014602D01*
X013570Y014701D02*
X016809Y014701D01*
X016809Y014799D02*
X013570Y014799D01*
X013570Y014898D02*
X016809Y014898D01*
X016809Y014997D02*
X014020Y014997D01*
X014163Y015095D02*
X016837Y015095D01*
X017113Y015194D02*
X014219Y015194D01*
X014238Y015292D02*
X014737Y015292D01*
X014638Y015391D02*
X014230Y015391D01*
X014190Y015489D02*
X014539Y015489D01*
X014533Y015588D02*
X014120Y015588D01*
X014120Y015686D02*
X014533Y015686D01*
X014533Y015785D02*
X014120Y015785D01*
X014120Y015883D02*
X014568Y015883D01*
X014577Y015982D02*
X014635Y015982D01*
X014635Y016081D02*
X014577Y016081D01*
X014577Y016179D02*
X014635Y016179D01*
X014635Y016278D02*
X014577Y016278D01*
X014299Y016179D02*
X014108Y016179D01*
X014120Y016081D02*
X014304Y016081D01*
X014388Y015982D02*
X014120Y015982D01*
X013612Y015982D02*
X013608Y015982D01*
X013608Y016081D02*
X013612Y016081D01*
X013608Y016179D02*
X013612Y016179D01*
X013608Y016278D02*
X013612Y016278D01*
X013608Y016376D02*
X013612Y016376D01*
X013608Y016475D02*
X013612Y016475D01*
X013605Y016573D02*
X013616Y016573D01*
X013608Y015883D02*
X013612Y015883D01*
X013608Y015785D02*
X013612Y015785D01*
X013608Y015686D02*
X013612Y015686D01*
X013600Y015588D02*
X013620Y015588D01*
X013631Y015489D02*
X013570Y015489D01*
X013570Y015391D02*
X013590Y015391D01*
X013582Y015292D02*
X013570Y015292D01*
X013570Y015194D02*
X013602Y015194D01*
X013570Y015095D02*
X013658Y015095D01*
X013570Y014997D02*
X013801Y014997D01*
X014651Y014602D02*
X014669Y014602D01*
X014669Y014504D02*
X014651Y014504D01*
X014651Y014405D02*
X014669Y014405D01*
X014669Y014307D02*
X014651Y014307D01*
X014651Y014208D02*
X014669Y014208D01*
X014669Y014110D02*
X014651Y014110D01*
X014392Y013814D02*
X013800Y013814D01*
X013898Y013715D02*
X014392Y013715D01*
X014392Y013617D02*
X013997Y013617D01*
X014837Y014602D02*
X015484Y014602D01*
X015651Y014602D02*
X015669Y014602D01*
X015669Y014504D02*
X015651Y014504D01*
X015651Y014405D02*
X015669Y014405D01*
X015669Y014307D02*
X015651Y014307D01*
X015651Y014208D02*
X015669Y014208D01*
X015669Y014110D02*
X015651Y014110D01*
X015837Y014602D02*
X016809Y014602D01*
X016809Y014504D02*
X016408Y014504D01*
X016408Y014405D02*
X016809Y014405D01*
X016809Y014307D02*
X016408Y014307D01*
X016448Y014011D02*
X016589Y014011D01*
X017113Y015292D02*
X015184Y015292D01*
X015283Y015391D02*
X017113Y015391D01*
X017113Y015489D02*
X015381Y015489D01*
X015387Y015588D02*
X017113Y015588D01*
X017113Y015686D02*
X015387Y015686D01*
X015387Y015785D02*
X017113Y015785D01*
X017113Y015883D02*
X015353Y015883D01*
X015254Y015982D02*
X017113Y015982D01*
X017113Y016081D02*
X015602Y016081D01*
X015602Y016179D02*
X017113Y016179D01*
X017113Y016278D02*
X015602Y016278D01*
X015602Y016376D02*
X017113Y016376D01*
X017113Y016475D02*
X015602Y016475D01*
X015602Y016573D02*
X017113Y016573D01*
X017113Y016672D02*
X015602Y016672D01*
X015602Y016770D02*
X017113Y016770D01*
X017113Y016869D02*
X015602Y016869D01*
X015602Y016967D02*
X017113Y016967D01*
X017113Y017066D02*
X015602Y017066D01*
X015602Y017164D02*
X017113Y017164D01*
X017113Y017263D02*
X015585Y017263D01*
X015407Y017460D02*
X017113Y017460D01*
X017113Y017362D02*
X015313Y017362D01*
X015407Y017559D02*
X017113Y017559D01*
X018010Y019332D02*
X014806Y019332D01*
X014858Y019431D02*
X018010Y019431D01*
X018010Y019530D02*
X014899Y019530D01*
X014913Y019628D02*
X018010Y019628D01*
X018010Y019727D02*
X014913Y019727D01*
X014898Y019825D02*
X018010Y019825D01*
X018010Y019924D02*
X014857Y019924D01*
X014804Y020022D02*
X018010Y020022D01*
X018010Y020121D02*
X015069Y020121D01*
X015253Y020219D02*
X018010Y020219D01*
X018010Y020318D02*
X015352Y020318D01*
X015406Y020416D02*
X018010Y020416D01*
X018010Y020515D02*
X015447Y020515D01*
X015463Y020614D02*
X018010Y020614D01*
X018010Y020712D02*
X015463Y020712D01*
X015450Y020811D02*
X018010Y020811D01*
X018010Y020909D02*
X015409Y020909D01*
X015359Y021008D02*
X018010Y021008D01*
X018010Y021106D02*
X017688Y021106D01*
X017787Y021205D02*
X018010Y021205D01*
X018010Y021303D02*
X017885Y021303D01*
X017984Y021402D02*
X018010Y021402D01*
X018010Y021993D02*
X017961Y021993D01*
X018010Y022092D02*
X017863Y022092D01*
X017764Y022190D02*
X018010Y022190D01*
X018010Y022289D02*
X012099Y022289D01*
X012100Y022387D02*
X018010Y022387D01*
X018010Y022486D02*
X012101Y022486D01*
X012102Y022584D02*
X018010Y022584D01*
X018010Y022683D02*
X012104Y022683D01*
X012105Y022781D02*
X012935Y022781D01*
X012837Y022880D02*
X012106Y022880D01*
X012107Y022979D02*
X012738Y022979D01*
X012640Y023077D02*
X012109Y023077D01*
X012110Y023176D02*
X012628Y023176D01*
X012628Y023274D02*
X012178Y023274D01*
X012277Y023373D02*
X012628Y023373D01*
X012628Y023471D02*
X012375Y023471D01*
X012474Y023570D02*
X012634Y023570D01*
X012572Y023668D02*
X012733Y023668D01*
X013564Y022880D02*
X018010Y022880D01*
X018010Y022979D02*
X016402Y022979D01*
X016501Y023077D02*
X018010Y023077D01*
X018010Y023176D02*
X016599Y023176D01*
X016698Y023274D02*
X018010Y023274D01*
X018010Y023373D02*
X016723Y023373D01*
X016723Y023471D02*
X018010Y023471D01*
X017992Y023570D02*
X016723Y023570D01*
X016723Y023668D02*
X017861Y023668D01*
X018010Y022781D02*
X013465Y022781D01*
X013662Y022979D02*
X015898Y022979D01*
X015800Y023077D02*
X013761Y023077D01*
X013773Y023176D02*
X015701Y023176D01*
X015603Y023274D02*
X013773Y023274D01*
X013773Y023373D02*
X015578Y023373D01*
X015578Y023471D02*
X013773Y023471D01*
X013766Y023570D02*
X015578Y023570D01*
X015578Y023668D02*
X013668Y023668D01*
X012097Y022190D02*
X017096Y022190D01*
X017185Y022279D02*
X016838Y021932D01*
X016838Y021736D01*
X017380Y021736D01*
X017380Y022279D01*
X017185Y022279D01*
X017380Y022190D02*
X017480Y022190D01*
X017480Y022092D02*
X017380Y022092D01*
X017380Y021993D02*
X017480Y021993D01*
X017480Y021895D02*
X017380Y021895D01*
X017380Y021796D02*
X017480Y021796D01*
X017430Y021686D02*
X017360Y021616D01*
X017360Y020206D01*
X017310Y020156D01*
X016410Y020156D01*
X016410Y020206D01*
X017185Y021094D02*
X017380Y021094D01*
X017380Y021636D01*
X016838Y021636D01*
X016838Y021441D01*
X017185Y021094D01*
X017172Y021106D02*
X015260Y021106D01*
X015086Y021205D02*
X017074Y021205D01*
X016975Y021303D02*
X012086Y021303D01*
X012085Y021205D02*
X014694Y021205D01*
X014521Y021106D02*
X012084Y021106D01*
X012082Y021008D02*
X014422Y021008D01*
X014371Y020909D02*
X012081Y020909D01*
X012080Y020811D02*
X014330Y020811D01*
X014318Y020712D02*
X012079Y020712D01*
X012077Y020614D02*
X014318Y020614D01*
X014333Y020515D02*
X012076Y020515D01*
X012075Y020416D02*
X014374Y020416D01*
X014429Y020318D02*
X012074Y020318D01*
X012072Y020219D02*
X014155Y020219D01*
X013975Y020121D02*
X012071Y020121D01*
X012070Y020022D02*
X013877Y020022D01*
X013823Y019924D02*
X012068Y019924D01*
X012067Y019825D02*
X013782Y019825D01*
X013768Y019727D02*
X012066Y019727D01*
X012065Y019628D02*
X013768Y019628D01*
X013781Y019530D02*
X012063Y019530D01*
X012062Y019431D02*
X013822Y019431D01*
X013874Y019332D02*
X012061Y019332D01*
X012060Y019234D02*
X013973Y019234D01*
X014150Y019135D02*
X012058Y019135D01*
X012057Y019037D02*
X013344Y019037D01*
X013245Y018938D02*
X012056Y018938D01*
X012055Y018840D02*
X013150Y018840D01*
X013150Y018741D02*
X012053Y018741D01*
X012052Y018643D02*
X012138Y018643D01*
X012112Y018544D02*
X012051Y018544D01*
X012050Y018446D02*
X012112Y018446D01*
X012112Y018347D02*
X012048Y018347D01*
X012583Y018643D02*
X012615Y018643D01*
X012851Y018643D02*
X012869Y018643D01*
X012869Y018544D02*
X012851Y018544D01*
X012851Y018446D02*
X012869Y018446D01*
X012869Y018347D02*
X012851Y018347D01*
X012851Y018248D02*
X012869Y018248D01*
X012869Y018150D02*
X012851Y018150D01*
X013106Y018643D02*
X013138Y018643D01*
X014128Y018446D02*
X014336Y018446D01*
X014264Y018347D02*
X014128Y018347D01*
X014128Y018248D02*
X014232Y018248D01*
X014232Y018150D02*
X014128Y018150D01*
X014128Y018051D02*
X014269Y018051D01*
X014260Y017953D02*
X014128Y017953D01*
X014128Y017854D02*
X014161Y017854D01*
X014164Y017263D02*
X014335Y017263D01*
X014912Y017756D02*
X015009Y017756D01*
X015009Y017854D02*
X014912Y017854D01*
X014912Y017953D02*
X015009Y017953D01*
X015009Y018051D02*
X014912Y018051D01*
X014913Y016278D02*
X015027Y016278D01*
X015027Y016179D02*
X014913Y016179D01*
X012656Y014997D02*
X012220Y014997D01*
X012163Y015095D02*
X012572Y015095D01*
X012532Y015194D02*
X012105Y015194D01*
X012048Y015292D02*
X012532Y015292D01*
X012561Y015391D02*
X012011Y015391D01*
X014705Y020121D02*
X014711Y020121D01*
X014528Y020219D02*
X014525Y020219D01*
X016877Y021402D02*
X012087Y021402D01*
X012089Y021500D02*
X016838Y021500D01*
X016838Y021599D02*
X012090Y021599D01*
X012091Y021697D02*
X017380Y021697D01*
X017380Y021599D02*
X017480Y021599D01*
X017480Y021500D02*
X017380Y021500D01*
X017380Y021402D02*
X017480Y021402D01*
X017480Y021303D02*
X017380Y021303D01*
X017380Y021205D02*
X017480Y021205D01*
X017480Y021106D02*
X017380Y021106D01*
X016838Y021796D02*
X012092Y021796D01*
X012094Y021895D02*
X016838Y021895D01*
X016899Y021993D02*
X012095Y021993D01*
X012096Y022092D02*
X016998Y022092D01*
X011613Y023274D02*
X000710Y023274D01*
X000710Y023373D02*
X011544Y023373D01*
X011475Y023471D02*
X000764Y023471D01*
X000847Y023570D02*
X011406Y023570D01*
X011337Y023668D02*
X000929Y023668D01*
X000710Y022190D02*
X001714Y022190D01*
X001616Y022092D02*
X000710Y022092D01*
X000710Y021993D02*
X001517Y021993D01*
X001500Y021895D02*
X000710Y021895D01*
X000710Y021796D02*
X001500Y021796D01*
X001500Y021697D02*
X000710Y021697D01*
X000710Y021599D02*
X001538Y021599D01*
X001636Y021500D02*
X000710Y021500D01*
X000710Y021402D02*
X001735Y021402D01*
X001593Y018544D02*
X001550Y018544D01*
X001550Y018446D02*
X001691Y018446D01*
D30*
X005760Y012906D02*
X005760Y010806D01*
M02*
